<?xml version="1.0" encoding="UTF-8" standalone="no"?>
<!DOCTYPE svg PUBLIC "-//W3C//DTD SVG 1.1//EN" "http://www.w3.org/Graphics/SVG/1.1/DTD/svg11.dtd">
<svg width="100%" height="100%" viewBox="0 0 4500 4500" version="1.1" xmlns="http://www.w3.org/2000/svg" xmlns:xlink="http://www.w3.org/1999/xlink" xml:space="preserve" xmlns:serif="http://www.serif.com/" style="fill-rule:evenodd;clip-rule:evenodd;stroke-miterlimit:10;">
    <g transform="matrix(1,0,0,1,-34.496,600.702)">
        <g id="AffectedPerson100" transform="matrix(4.16667,0,0,4.16667,-675.793,-1086.53)">
            <g transform="matrix(1,0,0,1,371.053,216.935)">
                <path d="M0,647.047C-11.004,647.047 -21.258,641.127 -26.76,631.598L-195.707,338.973C-201.208,329.443 -201.208,317.604 -195.707,308.074L-26.76,15.449C-21.257,5.92 -11.004,0 0,0L337.894,0C348.897,0 359.151,5.92 364.654,15.449L533.6,308.074C539.102,317.604 539.102,329.443 533.6,338.973L364.654,631.598C359.151,641.127 348.898,647.047 337.894,647.047L0,647.047Z" style="fill:white;fill-rule:nonzero;"/>
            </g>
            <g transform="matrix(1,0,0,1,733.385,371.504)">
                <path d="M0,-142.023C-4.84,-150.405 -13.784,-155.569 -23.463,-155.569L-363.307,-155.569C-372.986,-155.569 -381.93,-150.405 -386.769,-142.023L-469.385,1.071C-383.992,9.12 -290.869,13.546 -193.385,13.546C-95.9,13.546 -2.778,9.12 82.615,1.071L0,-142.023Z" style="fill:rgb(230,116,116);fill-rule:nonzero;stroke:rgb(165,164,165);stroke-width:1px;"/>
            </g>
            <g transform="matrix(1,0,0,1,528.976,242.61)">
                <path d="M0,284.631L-131.292,153.339C-137.38,147.251 -137.38,137.38 -131.292,131.292L0,0C6.088,-6.088 15.959,-6.088 22.047,0L153.339,131.292C159.427,137.38 159.427,147.251 153.339,153.339L22.047,284.631C15.959,290.719 6.088,290.719 0,284.631Z" style="fill:rgb(243,243,244);fill-rule:nonzero;stroke:rgb(165,164,165);stroke-width:1px;"/>
            </g>
            <g transform="matrix(1,0,0,1,708.947,864.483)">
                <path d="M0,-648.048L-337.894,-648.048C-349.112,-648.048 -359.477,-642.063 -365.086,-632.348L-534.033,-339.724C-539.642,-330.009 -539.642,-318.039 -534.033,-308.325L-365.086,-15.7C-359.477,-5.985 -349.112,0 -337.894,0L0,0C11.218,0 21.584,-5.985 27.193,-15.7L196.14,-308.325C201.748,-318.039 201.748,-330.009 196.14,-339.724L27.193,-632.348C21.584,-642.063 11.218,-648.048 0,-648.048M0,-647.048C10.826,-647.048 20.914,-641.224 26.327,-631.848L195.273,-339.224C200.686,-329.848 200.686,-318.2 195.273,-308.825L26.327,-16.2C20.914,-6.824 10.826,-1 0,-1L-337.894,-1C-348.72,-1 -358.807,-6.824 -364.22,-16.2L-533.167,-308.825C-538.58,-318.2 -538.58,-329.848 -533.167,-339.224L-364.22,-631.848C-358.807,-641.224 -348.72,-647.048 -337.894,-647.048L0,-647.048" style="fill:rgb(165,165,166);fill-rule:nonzero;"/>
            </g>
            <g id="tags">
                <g transform="matrix(1,0,0,1,778.238,644.44)">
                    <path d="M0,57.843L-262.986,57.843C-278.893,57.843 -291.908,44.828 -291.908,28.922C-291.908,13.015 -278.893,0 -262.986,0L0,0C15.907,0 28.921,13.015 28.921,28.922C28.921,44.828 15.907,57.843 0,57.843Z" style="fill:rgb(243,243,244);fill-rule:nonzero;stroke:rgb(165,164,165);stroke-width:1px;"/>
                </g>
                <g transform="matrix(1,0,0,1,449.729,644.44)">
                    <path d="M0,57.843L-147.968,57.843C-163.875,57.843 -176.889,44.828 -176.889,28.922C-176.889,13.015 -163.875,0 -147.968,0L0,0C15.907,0 28.921,13.015 28.921,28.922C28.921,44.828 15.907,57.843 0,57.843Z" style="fill:rgb(243,243,244);fill-rule:nonzero;stroke:rgb(165,164,165);stroke-width:1px;"/>
                </g>
                <g transform="matrix(1,0,0,1,743.043,714.606)">
                    <path d="M0,57.843L-140.986,57.843C-156.893,57.843 -169.908,44.828 -169.908,28.922C-169.908,13.015 -156.893,0 -140.986,0L0,0C15.907,0 28.921,13.015 28.921,28.922C28.921,44.828 15.907,57.843 0,57.843Z" style="fill:rgb(243,243,244);fill-rule:nonzero;stroke:rgb(165,164,165);stroke-width:1px;"/>
                </g>
                <g transform="matrix(1,0,0,1,537.943,715.606)">
                    <path d="M0,57.843L-200.986,57.843C-216.893,57.843 -229.908,44.828 -229.908,28.922C-229.908,13.015 -216.893,0 -200.986,0L0,0C15.907,0 28.921,13.015 28.921,28.922C28.921,44.828 15.907,57.843 0,57.843Z" style="fill:rgb(243,243,244);fill-rule:nonzero;stroke:rgb(165,164,165);stroke-width:1px;"/>
                </g>
                <g transform="matrix(1,0,0,1,610.493,785.773)">
                    <path d="M0,57.843L-140.986,57.843C-156.893,57.843 -169.908,44.828 -169.908,28.922C-169.908,13.015 -156.893,0 -140.986,0L0,0C15.907,0 28.921,13.015 28.921,28.922C28.921,44.828 15.907,57.843 0,57.843Z" style="fill:rgb(243,243,244);fill-rule:nonzero;stroke:rgb(165,164,165);stroke-width:1px;"/>
                </g>
                <g transform="matrix(1,0,0,1,678.025,573.773)">
                    <path d="M0,57.843L-276.05,57.843C-291.956,57.843 -304.971,44.828 -304.971,28.922C-304.971,13.015 -291.956,0 -276.05,0L0,0C15.907,0 28.921,13.015 28.921,28.922C28.921,44.828 15.907,57.843 0,57.843Z" style="fill:rgb(64,64,65);fill-rule:nonzero;stroke:rgb(165,164,165);stroke-width:1px;"/>
                </g>
            </g>
            <g id="texts">
                <g>
                    <path d="M460.019,353.102L467.402,372.719L474.768,353.102L480.516,353.102L480.516,378.696L476.086,378.696L476.086,370.258L476.525,358.973L468.967,378.696L465.785,378.696L458.244,358.991L458.684,370.258L458.684,378.696L454.254,378.696L454.254,353.102L460.019,353.102Z" style="fill:rgb(64,64,65);fill-rule:nonzero;"/>
                    <path d="M496.714,378.696C496.527,378.333 496.363,377.741 496.222,376.92C494.863,378.338 493.199,379.047 491.23,379.047C489.32,379.047 487.761,378.502 486.554,377.413C485.347,376.323 484.744,374.975 484.744,373.37C484.744,371.342 485.497,369.787 487.002,368.703C488.508,367.619 490.662,367.077 493.462,367.077L496.082,367.077L496.082,365.829C496.082,364.844 495.806,364.056 495.255,363.464C494.705,362.873 493.867,362.577 492.742,362.577C491.769,362.577 490.972,362.82 490.351,363.306C489.73,363.792 489.419,364.411 489.419,365.161L485.148,365.161C485.148,364.118 485.494,363.142 486.185,362.234C486.877,361.326 487.817,360.614 489.006,360.098C490.196,359.583 491.523,359.325 492.988,359.325C495.214,359.325 496.99,359.884 498.314,361.003C499.638,362.123 500.318,363.696 500.353,365.723L500.353,374.301C500.353,376.012 500.593,377.377 501.074,378.397L501.074,378.696L496.714,378.696ZM492.021,375.62C492.865,375.62 493.659,375.415 494.403,375.004C495.147,374.594 495.707,374.043 496.082,373.352L496.082,369.766L493.779,369.766C492.197,369.766 491.007,370.042 490.211,370.592C489.414,371.143 489.015,371.922 489.015,372.93C489.015,373.75 489.288,374.404 489.833,374.89C490.377,375.376 491.107,375.62 492.021,375.62Z" style="fill:rgb(64,64,65);fill-rule:nonzero;"/>
                    <path d="M511.648,365.934L515.269,359.676L520.015,359.676L514.196,369.045L520.208,378.696L515.497,378.696L511.7,372.192L507.921,378.696L503.175,378.696L509.187,369.045L503.386,359.676L508.097,359.676L511.648,365.934Z" style="fill:rgb(64,64,65);fill-rule:nonzero;"/>
                    <path d="M527.46,378.696L523.188,378.696L523.188,359.676L527.46,359.676L527.46,378.696ZM522.925,354.737C522.925,354.081 523.133,353.536 523.549,353.102C523.965,352.668 524.559,352.452 525.333,352.452C526.106,352.452 526.704,352.668 527.126,353.102C527.548,353.536 527.759,354.081 527.759,354.737C527.759,355.381 527.548,355.917 527.126,356.345C526.704,356.773 526.106,356.987 525.333,356.987C524.559,356.987 523.965,356.773 523.549,356.345C523.133,355.917 522.925,355.381 522.925,354.737Z" style="fill:rgb(64,64,65);fill-rule:nonzero;"/>
                    <path d="M536.118,359.676L536.241,361.663C537.577,360.104 539.405,359.325 541.725,359.325C544.268,359.325 546.008,360.297 546.946,362.243C548.328,360.297 550.274,359.325 552.782,359.325C554.879,359.325 556.441,359.905 557.466,361.065C558.492,362.225 559.016,363.936 559.039,366.198L559.039,378.696L554.768,378.696L554.768,366.321C554.768,365.114 554.504,364.229 553.977,363.667C553.45,363.104 552.577,362.823 551.358,362.823C550.385,362.823 549.591,363.083 548.976,363.605C548.361,364.126 547.93,364.809 547.684,365.653L547.702,378.696L543.43,378.696L543.43,366.18C543.371,363.942 542.229,362.823 540.002,362.823C538.291,362.823 537.078,363.52 536.364,364.915L536.364,378.696L532.092,378.696L532.092,359.676L536.118,359.676Z" style="fill:rgb(64,64,65);fill-rule:nonzero;"/>
                    <path d="M567.961,378.696L563.689,378.696L563.689,359.676L567.961,359.676L567.961,378.696ZM563.426,354.737C563.426,354.081 563.634,353.536 564.05,353.102C564.466,352.668 565.061,352.452 565.834,352.452C566.607,352.452 567.205,352.668 567.627,353.102C568.049,353.536 568.26,354.081 568.26,354.737C568.26,355.381 568.049,355.917 567.627,356.345C567.205,356.773 566.607,356.987 565.834,356.987C565.061,356.987 564.466,356.773 564.05,356.345C563.634,355.917 563.426,355.381 563.426,354.737Z" style="fill:rgb(64,64,65);fill-rule:nonzero;"/>
                    <rect x="572.875" y="351.696" width="4.271" height="27" style="fill:rgb(64,64,65);fill-rule:nonzero;"/>
                    <path d="M586.331,378.696L582.06,378.696L582.06,359.676L586.331,359.676L586.331,378.696ZM581.796,354.737C581.796,354.081 582.004,353.536 582.42,353.102C582.836,352.668 583.431,352.452 584.204,352.452C584.978,352.452 585.575,352.668 585.997,353.102C586.419,353.536 586.63,354.081 586.63,354.737C586.63,355.381 586.419,355.917 585.997,356.345C585.575,356.773 584.978,356.987 584.204,356.987C583.431,356.987 582.836,356.773 582.42,356.345C582.004,355.917 581.796,355.381 581.796,354.737Z" style="fill:rgb(64,64,65);fill-rule:nonzero;"/>
                    <path d="M602.337,378.696C602.149,378.333 601.985,377.741 601.844,376.92C600.485,378.338 598.821,379.047 596.852,379.047C594.942,379.047 593.384,378.502 592.177,377.413C590.969,376.323 590.366,374.975 590.366,373.37C590.366,371.342 591.119,369.787 592.625,368.703C594.131,367.619 596.284,367.077 599.085,367.077L601.704,367.077L601.704,365.829C601.704,364.844 601.428,364.056 600.878,363.464C600.327,362.873 599.489,362.577 598.364,362.577C597.391,362.577 596.594,362.82 595.973,363.306C595.352,363.792 595.042,364.411 595.042,365.161L590.77,365.161C590.77,364.118 591.116,363.142 591.807,362.234C592.499,361.326 593.439,360.614 594.629,360.098C595.818,359.583 597.145,359.325 598.61,359.325C600.837,359.325 602.612,359.884 603.936,361.003C605.261,362.123 605.94,363.696 605.975,365.723L605.975,374.301C605.975,376.012 606.216,377.377 606.696,378.397L606.696,378.696L602.337,378.696ZM597.643,375.62C598.487,375.62 599.281,375.415 600.025,375.004C600.769,374.594 601.329,374.043 601.704,373.352L601.704,369.766L599.401,369.766C597.819,369.766 596.63,370.042 595.833,370.592C595.036,371.143 594.637,371.922 594.637,372.93C594.637,373.75 594.91,374.404 595.455,374.89C596,375.376 596.729,375.62 597.643,375.62Z" style="fill:rgb(64,64,65);fill-rule:nonzero;"/>
                    <path d="M614.405,359.676L614.528,361.874C615.934,360.174 617.78,359.325 620.065,359.325C624.026,359.325 626.041,361.592 626.112,366.127L626.112,378.696L621.84,378.696L621.84,366.374C621.84,365.167 621.579,364.273 621.058,363.693C620.536,363.113 619.684,362.823 618.5,362.823C616.778,362.823 615.494,363.602 614.651,365.161L614.651,378.696L610.379,378.696L610.379,359.676L614.405,359.676Z" style="fill:rgb(64,64,65);fill-rule:nonzero;"/>
                    <path d="M445.907,393.102L453.29,412.719L460.656,393.102L466.404,393.102L466.404,418.696L461.974,418.696L461.974,410.258L462.413,398.973L454.855,418.696L451.673,418.696L444.132,398.991L444.572,410.258L444.572,418.696L440.142,418.696L440.142,393.102L445.907,393.102Z" style="fill:rgb(64,64,65);fill-rule:nonzero;"/>
                    <path d="M482.768,416.833C481.514,418.309 479.733,419.047 477.424,419.047C475.362,419.047 473.8,418.444 472.739,417.237C471.679,416.03 471.149,414.284 471.149,411.999L471.149,399.676L475.42,399.676L475.42,411.946C475.42,414.36 476.422,415.567 478.426,415.567C480.5,415.567 481.901,414.823 482.627,413.334L482.627,399.676L486.899,399.676L486.899,418.696L482.873,418.696L482.768,416.833Z" style="fill:rgb(64,64,65);fill-rule:nonzero;"/>
                    <path d="M501.909,413.528C501.909,412.766 501.596,412.186 500.969,411.788C500.342,411.389 499.302,411.038 497.849,410.733C496.396,410.428 495.183,410.042 494.21,409.573C492.077,408.542 491.011,407.047 491.011,405.09C491.011,403.45 491.702,402.079 493.085,400.977C494.468,399.875 496.226,399.325 498.359,399.325C500.632,399.325 502.469,399.887 503.869,401.012C505.27,402.137 505.97,403.596 505.97,405.389L501.698,405.389C501.698,404.569 501.394,403.886 500.784,403.341C500.175,402.796 499.366,402.524 498.359,402.524C497.421,402.524 496.656,402.741 496.065,403.174C495.473,403.608 495.177,404.188 495.177,404.915C495.177,405.571 495.452,406.081 496.003,406.444C496.554,406.807 497.667,407.173 499.343,407.542C501.019,407.912 502.334,408.351 503.289,408.861C504.244,409.371 504.953,409.983 505.416,410.698C505.879,411.413 506.111,412.28 506.111,413.299C506.111,415.01 505.402,416.396 503.984,417.457C502.566,418.517 500.708,419.047 498.411,419.047C496.853,419.047 495.464,418.766 494.245,418.204C493.027,417.641 492.077,416.868 491.398,415.883C490.718,414.899 490.378,413.838 490.378,412.702L494.527,412.702C494.585,413.709 494.966,414.486 495.669,415.031C496.372,415.576 497.304,415.848 498.464,415.848C499.589,415.848 500.445,415.634 501.03,415.207C501.616,414.779 501.909,414.219 501.909,413.528Z" style="fill:rgb(64,64,65);fill-rule:nonzero;"/>
                    <path d="M515.18,395.053L515.18,399.676L518.537,399.676L518.537,402.84L515.18,402.84L515.18,413.458C515.18,414.184 515.323,414.708 515.61,415.031C515.898,415.353 516.41,415.514 517.149,415.514C517.641,415.514 518.139,415.456 518.643,415.338L518.643,418.643C517.67,418.913 516.733,419.047 515.83,419.047C512.549,419.047 510.908,417.237 510.908,413.616L510.908,402.84L507.779,402.84L507.779,399.676L510.908,399.676L510.908,395.053L515.18,395.053Z" style="fill:rgb(64,64,65);fill-rule:nonzero;"/>
                    <path d="M530.173,419.047C527.466,419.047 525.272,418.195 523.59,416.49C521.908,414.785 521.067,412.514 521.067,409.678L521.067,409.151C521.067,407.252 521.434,405.556 522.166,404.062C522.899,402.568 523.927,401.405 525.251,400.573C526.575,399.741 528.052,399.325 529.681,399.325C532.271,399.325 534.272,400.151 535.684,401.803C537.096,403.456 537.802,405.793 537.802,408.817L537.802,410.54L525.374,410.54C525.503,412.11 526.027,413.352 526.947,414.266C527.867,415.18 529.025,415.637 530.419,415.637C532.376,415.637 533.97,414.846 535.2,413.264L537.503,415.461C536.741,416.598 535.725,417.48 534.453,418.107C533.182,418.734 531.755,419.047 530.173,419.047ZM529.663,402.752C528.491,402.752 527.545,403.163 526.824,403.983C526.104,404.803 525.644,405.946 525.444,407.411L533.583,407.411L533.583,407.094C533.489,405.665 533.109,404.583 532.441,403.851C531.773,403.119 530.847,402.752 529.663,402.752Z" style="fill:rgb(64,64,65);fill-rule:nonzero;"/>
                    <path d="M551.072,403.579C550.51,403.485 549.93,403.438 549.332,403.438C547.375,403.438 546.057,404.188 545.377,405.688L545.377,418.696L541.106,418.696L541.106,399.676L545.184,399.676L545.289,401.803C546.32,400.151 547.75,399.325 549.578,399.325C550.188,399.325 550.691,399.407 551.09,399.571L551.072,403.579Z" style="fill:rgb(64,64,65);fill-rule:nonzero;"/>
                    <path d="M557.786,399.676L557.909,401.663C559.245,400.104 561.073,399.325 563.394,399.325C565.937,399.325 567.677,400.297 568.614,402.243C569.997,400.297 571.942,399.325 574.45,399.325C576.548,399.325 578.109,399.905 579.135,401.065C580.16,402.225 580.685,403.936 580.708,406.198L580.708,418.696L576.437,418.696L576.437,406.321C576.437,405.114 576.173,404.229 575.646,403.667C575.118,403.104 574.245,402.823 573.026,402.823C572.054,402.823 571.26,403.083 570.645,403.605C570.029,404.126 569.599,404.809 569.353,405.653L569.37,418.696L565.099,418.696L565.099,406.18C565.04,403.942 563.897,402.823 561.671,402.823C559.96,402.823 558.747,403.52 558.032,404.915L558.032,418.696L553.761,418.696L553.761,399.676L557.786,399.676Z" style="fill:rgb(64,64,65);fill-rule:nonzero;"/>
                    <path d="M596.457,418.696C596.27,418.333 596.105,417.741 595.965,416.92C594.605,418.338 592.941,419.047 590.973,419.047C589.062,419.047 587.504,418.502 586.297,417.413C585.09,416.323 584.486,414.975 584.486,413.37C584.486,411.342 585.239,409.787 586.745,408.703C588.251,407.619 590.404,407.077 593.205,407.077L595.824,407.077L595.824,405.829C595.824,404.844 595.549,404.056 594.998,403.464C594.447,402.873 593.609,402.577 592.484,402.577C591.512,402.577 590.715,402.82 590.094,403.306C589.473,403.792 589.162,404.411 589.162,405.161L584.891,405.161C584.891,404.118 585.236,403.142 585.928,402.234C586.619,401.326 587.56,400.614 588.749,400.098C589.938,399.583 591.266,399.325 592.73,399.325C594.957,399.325 596.732,399.884 598.057,401.003C599.381,402.123 600.061,403.696 600.096,405.723L600.096,414.301C600.096,416.012 600.336,417.377 600.816,418.397L600.816,418.696L596.457,418.696ZM591.764,415.62C592.607,415.62 593.401,415.415 594.145,415.004C594.89,414.594 595.449,414.043 595.824,413.352L595.824,409.766L593.521,409.766C591.939,409.766 590.75,410.042 589.953,410.592C589.156,411.143 588.758,411.922 588.758,412.93C588.758,413.75 589.03,414.404 589.575,414.89C590.12,415.376 590.85,415.62 591.764,415.62Z" style="fill:rgb(64,64,65);fill-rule:nonzero;"/>
                    <path d="M608.532,399.676L608.655,401.874C610.061,400.174 611.907,399.325 614.192,399.325C618.153,399.325 620.169,401.592 620.239,406.127L620.239,418.696L615.968,418.696L615.968,406.374C615.968,405.167 615.707,404.273 615.185,403.693C614.664,403.113 613.811,402.823 612.628,402.823C610.905,402.823 609.622,403.602 608.778,405.161L608.778,418.696L604.507,418.696L604.507,399.676L608.532,399.676Z" style="fill:rgb(64,64,65);fill-rule:nonzero;"/>
                    <path d="M628.553,399.676L628.676,401.874C630.082,400.174 631.928,399.325 634.213,399.325C638.174,399.325 640.189,401.592 640.26,406.127L640.26,418.696L635.988,418.696L635.988,406.374C635.988,405.167 635.727,404.273 635.206,403.693C634.684,403.113 633.832,402.823 632.648,402.823C630.926,402.823 629.642,403.602 628.799,405.161L628.799,418.696L624.527,418.696L624.527,399.676L628.553,399.676Z" style="fill:rgb(64,64,65);fill-rule:nonzero;"/>
                </g>
                <g>
                    <path d="M437.481,603.155L427.907,603.155L427.907,610.328L439.098,610.328L439.098,613.563L423.856,613.563L423.856,590.25L438.986,590.25L438.986,593.517L427.907,593.517L427.907,599.953L437.481,599.953L437.481,603.155Z" style="fill:white;fill-rule:nonzero;"/>
                    <path d="M448.24,601.938L451.538,596.239L455.861,596.239L450.561,604.772L456.037,613.563L451.746,613.563L448.288,607.638L444.846,613.563L440.523,613.563L445.998,604.772L440.715,596.239L445.006,596.239L448.24,601.938Z" style="fill:white;fill-rule:nonzero;"/>
                    <path d="M473.681,605.077C473.681,607.756 473.072,609.893 471.855,611.489C470.638,613.085 469.005,613.883 466.956,613.883C465.056,613.883 463.535,613.258 462.393,612.009L462.393,620.223L458.502,620.223L458.502,596.239L462.089,596.239L462.249,598C463.391,596.612 464.944,595.918 466.908,595.918C469.021,595.918 470.678,596.705 471.879,598.28C473.08,599.854 473.681,602.04 473.681,604.836L473.681,605.077ZM469.806,604.74C469.806,603.011 469.462,601.64 468.773,600.626C468.085,599.612 467.1,599.104 465.819,599.104C464.229,599.104 463.087,599.761 462.393,601.074L462.393,608.759C463.097,610.104 464.25,610.777 465.851,610.777C467.089,610.777 468.058,610.278 468.757,609.28C469.456,608.282 469.806,606.768 469.806,604.74Z" style="fill:white;fill-rule:nonzero;"/>
                    <path d="M476.241,604.74C476.241,603.043 476.578,601.514 477.25,600.153C477.923,598.792 478.867,597.746 480.084,597.015C481.301,596.284 482.699,595.918 484.279,595.918C486.617,595.918 488.514,596.671 489.971,598.176C491.428,599.681 492.215,601.677 492.333,604.164L492.349,605.077C492.349,606.784 492.02,608.311 491.364,609.656C490.707,611.001 489.768,612.041 488.546,612.778C487.324,613.514 485.912,613.883 484.311,613.883C481.867,613.883 479.911,613.069 478.443,611.441C476.975,609.813 476.241,607.644 476.241,604.933L476.241,604.74ZM480.132,605.077C480.132,606.859 480.5,608.255 481.237,609.264C481.973,610.272 482.998,610.777 484.311,610.777C485.624,610.777 486.646,610.264 487.377,609.24C488.108,608.215 488.474,606.715 488.474,604.74C488.474,602.99 488.098,601.602 487.345,600.578C486.593,599.553 485.571,599.04 484.279,599.04C483.009,599.04 482,599.545 481.253,600.553C480.506,601.562 480.132,603.07 480.132,605.077Z" style="fill:white;fill-rule:nonzero;"/>
                    <path d="M499.248,596.239L499.36,598.24C500.641,596.692 502.323,595.918 504.404,595.918C508.012,595.918 509.848,597.984 509.912,602.115L509.912,613.563L506.021,613.563L506.021,602.339C506.021,601.239 505.784,600.425 505.309,599.897C504.834,599.369 504.057,599.104 502.979,599.104C501.41,599.104 500.241,599.814 499.473,601.234L499.473,613.563L495.582,613.563L495.582,596.239L499.248,596.239Z" style="fill:white;fill-rule:nonzero;"/>
                    <path d="M518.012,613.563L514.122,613.563L514.122,596.239L518.012,596.239L518.012,613.563ZM513.882,591.739C513.882,591.142 514.071,590.645 514.45,590.25C514.829,589.855 515.371,589.658 516.075,589.658C516.78,589.658 517.324,589.855 517.708,590.25C518.093,590.645 518.285,591.142 518.285,591.739C518.285,592.326 518.093,592.815 517.708,593.204C517.324,593.594 516.78,593.789 516.075,593.789C515.371,593.789 514.829,593.594 514.45,593.204C514.071,592.815 513.882,592.326 513.882,591.739Z" style="fill:white;fill-rule:nonzero;"/>
                    <path d="M529.876,613.883C527.41,613.883 525.411,613.106 523.88,611.553C522.348,610 521.582,607.932 521.582,605.349L521.582,604.868C521.582,603.139 521.916,601.594 522.583,600.233C523.25,598.872 524.186,597.813 525.393,597.055C526.599,596.297 527.944,595.918 529.427,595.918C531.786,595.918 533.609,596.671 534.895,598.176C536.181,599.681 536.825,601.81 536.825,604.564L536.825,606.133L525.505,606.133C525.622,607.564 526.1,608.695 526.938,609.528C527.776,610.36 528.83,610.777 530.1,610.777C531.882,610.777 533.334,610.056 534.455,608.615L536.552,610.616C535.859,611.652 534.933,612.455 533.774,613.026C532.616,613.597 531.317,613.883 529.876,613.883ZM529.411,599.04C528.344,599.04 527.482,599.414 526.826,600.161C526.169,600.908 525.75,601.949 525.569,603.283L532.982,603.283L532.982,602.995C532.896,601.693 532.55,600.708 531.941,600.041C531.333,599.374 530.489,599.04 529.411,599.04Z" style="fill:white;fill-rule:nonzero;"/>
                    <path d="M548.912,599.793C548.4,599.708 547.871,599.665 547.327,599.665C545.544,599.665 544.343,600.348 543.724,601.714L543.724,613.563L539.834,613.563L539.834,596.239L543.548,596.239L543.644,598.176C544.584,596.671 545.886,595.918 547.551,595.918C548.106,595.918 548.565,595.993 548.928,596.142L548.912,599.793Z" style="fill:white;fill-rule:nonzero;"/>
                    <path d="M557.045,592.028L557.045,596.239L560.103,596.239L560.103,599.121L557.045,599.121L557.045,608.791C557.045,609.453 557.175,609.931 557.437,610.224C557.698,610.518 558.165,610.664 558.838,610.664C559.286,610.664 559.74,610.611 560.199,610.504L560.199,613.514C559.313,613.76 558.459,613.883 557.637,613.883C554.648,613.883 553.154,612.234 553.154,608.935L553.154,599.121L550.304,599.121L550.304,596.239L553.154,596.239L553.154,592.028L557.045,592.028Z" style="fill:white;fill-rule:nonzero;"/>
                    <path d="M570.701,613.883C568.235,613.883 566.237,613.106 564.705,611.553C563.173,610 562.407,607.932 562.407,605.349L562.407,604.868C562.407,603.139 562.741,601.594 563.408,600.233C564.075,598.872 565.012,597.813 566.218,597.055C567.424,596.297 568.769,595.918 570.253,595.918C572.612,595.918 574.434,596.671 575.721,598.176C577.007,599.681 577.65,601.81 577.65,604.564L577.65,606.133L566.33,606.133C566.448,607.564 566.925,608.695 567.763,609.528C568.601,610.36 569.655,610.777 570.925,610.777C572.708,610.777 574.16,610.056 575.28,608.615L577.378,610.616C576.684,611.652 575.758,612.455 574.6,613.026C573.442,613.597 572.142,613.883 570.701,613.883ZM570.237,599.04C569.169,599.04 568.308,599.414 567.651,600.161C566.995,600.908 566.576,601.949 566.394,603.283L573.807,603.283L573.807,602.995C573.722,601.693 573.375,600.708 572.767,600.041C572.158,599.374 571.315,599.04 570.237,599.04Z" style="fill:white;fill-rule:nonzero;"/>
                    <path d="M593.272,610.328L603.855,610.328L603.855,613.563L589.221,613.563L589.221,590.25L593.272,590.25L593.272,610.328Z" style="fill:white;fill-rule:nonzero;"/>
                    <path d="M616.935,613.563C616.764,613.232 616.615,612.693 616.487,611.945C615.248,613.237 613.733,613.883 611.94,613.883C610.2,613.883 608.78,613.386 607.681,612.394C606.581,611.401 606.031,610.173 606.031,608.711C606.031,606.865 606.717,605.448 608.089,604.46C609.46,603.473 611.422,602.979 613.973,602.979L616.359,602.979L616.359,601.842C616.359,600.946 616.108,600.228 615.606,599.689C615.104,599.15 614.341,598.88 613.316,598.88C612.431,598.88 611.705,599.102 611.139,599.545C610.573,599.988 610.29,600.551 610.29,601.234L606.4,601.234C606.4,600.284 606.715,599.395 607.344,598.568C607.974,597.741 608.831,597.092 609.914,596.623C610.998,596.153 612.206,595.918 613.541,595.918C615.569,595.918 617.186,596.428 618.392,597.447C619.598,598.467 620.217,599.9 620.249,601.746L620.249,609.56C620.249,611.118 620.468,612.362 620.906,613.29L620.906,613.563L616.935,613.563ZM612.66,610.761C613.429,610.761 614.152,610.574 614.83,610.2C615.507,609.827 616.017,609.325 616.359,608.695L616.359,605.429L614.261,605.429C612.82,605.429 611.737,605.68 611.011,606.181C610.285,606.683 609.922,607.393 609.922,608.311C609.922,609.058 610.17,609.653 610.667,610.096C611.163,610.539 611.827,610.761 612.66,610.761Z" style="fill:white;fill-rule:nonzero;"/>
                    <path d="M623.643,604.772C623.643,602.083 624.275,599.934 625.54,598.328C626.805,596.722 628.483,595.918 630.575,595.918C632.55,595.918 634.103,596.607 635.235,597.984L635.411,596.239L638.917,596.239L638.917,613.034C638.917,615.308 638.21,617.101 636.796,618.414C635.381,619.727 633.473,620.383 631.072,620.383C629.802,620.383 628.561,620.119 627.349,619.591C626.138,619.062 625.217,618.371 624.587,617.517L626.429,615.18C627.624,616.599 629.097,617.309 630.848,617.309C632.139,617.309 633.159,616.96 633.906,616.26C634.653,615.561 635.027,614.534 635.027,613.178L635.027,612.009C633.906,613.258 632.411,613.883 630.543,613.883C628.515,613.883 626.858,613.077 625.572,611.465C624.286,609.853 623.643,607.622 623.643,604.772ZM627.517,605.109C627.517,606.849 627.872,608.217 628.582,609.215C629.292,610.214 630.277,610.713 631.536,610.713C633.105,610.713 634.269,610.04 635.027,608.695L635.027,601.074C634.29,599.761 633.137,599.104 631.568,599.104C630.287,599.104 629.292,599.612 628.582,600.626C627.872,601.64 627.517,603.134 627.517,605.109Z" style="fill:white;fill-rule:nonzero;"/>
                    <path d="M650.54,613.883C648.075,613.883 646.076,613.106 644.544,611.553C643.012,610 642.247,607.932 642.247,605.349L642.247,604.868C642.247,603.139 642.58,601.594 643.247,600.233C643.914,598.872 644.851,597.813 646.057,597.055C647.263,596.297 648.608,595.918 650.092,595.918C652.451,595.918 654.274,596.671 655.56,598.176C656.846,599.681 657.489,601.81 657.489,604.564L657.489,606.133L646.169,606.133C646.287,607.564 646.764,608.695 647.602,609.528C648.44,610.36 649.494,610.777 650.765,610.777C652.547,610.777 653.999,610.056 655.12,608.615L657.217,610.616C656.523,611.652 655.597,612.455 654.439,613.026C653.281,613.597 651.981,613.883 650.54,613.883ZM650.076,599.04C649.009,599.04 648.147,599.414 647.49,600.161C646.834,600.908 646.415,601.949 646.233,603.283L653.647,603.283L653.647,602.995C653.561,601.693 653.214,600.708 652.606,600.041C651.997,599.374 651.154,599.04 650.076,599.04Z" style="fill:white;fill-rule:nonzero;"/>
                    <path d="M539.231,681.351L539.359,681.848L539.503,681.351L546.836,660.921L548.998,660.921L540.32,684.233L538.43,684.233L529.752,660.921L531.898,660.921L539.231,681.351Z" style="fill:rgb(64,64,65);fill-rule:nonzero;"/>
                    <path d="M557.978,684.553C556.505,684.553 555.173,684.191 553.983,683.465C552.793,682.739 551.867,681.727 551.205,680.431C550.543,679.134 550.212,677.679 550.212,676.068L550.212,675.379C550.212,673.714 550.535,672.214 551.181,670.88C551.827,669.546 552.726,668.497 553.879,667.734C555.032,666.971 556.281,666.589 557.625,666.589C559.728,666.589 561.396,667.307 562.629,668.742C563.862,670.178 564.478,672.139 564.478,674.627L564.478,675.699L552.118,675.699L552.118,676.068C552.118,678.032 552.681,679.667 553.807,680.975C554.933,682.283 556.35,682.936 558.058,682.936C559.082,682.936 559.987,682.75 560.772,682.376C561.556,682.002 562.269,681.405 562.909,680.583L564.11,681.495C562.701,683.534 560.657,684.553 557.978,684.553ZM557.625,668.222C556.184,668.222 554.97,668.75 553.983,669.807C552.996,670.864 552.395,672.284 552.182,674.066L562.573,674.066L562.573,673.858C562.519,672.193 562.044,670.837 561.148,669.791C560.251,668.745 559.077,668.222 557.625,668.222Z" style="fill:rgb(64,64,65);fill-rule:nonzero;"/>
                    <path d="M576.212,668.542C575.807,668.468 575.374,668.43 574.915,668.43C573.72,668.43 572.708,668.764 571.881,669.431C571.054,670.098 570.464,671.067 570.112,672.337L570.112,684.233L568.207,684.233L568.207,666.909L570.08,666.909L570.112,669.663C571.126,667.614 572.754,666.589 574.995,666.589C575.529,666.589 575.951,666.658 576.26,666.797L576.212,668.542Z" style="fill:rgb(64,64,65);fill-rule:nonzero;"/>
                    <rect x="579.46" y="659.64" width="1.921" height="24.593" style="fill:rgb(64,64,65);fill-rule:nonzero;"/>
                    <path d="M593.292,684.553C591.819,684.553 590.487,684.191 589.297,683.465C588.107,682.739 587.181,681.727 586.519,680.431C585.857,679.134 585.526,677.679 585.526,676.068L585.526,675.379C585.526,673.714 585.849,672.214 586.495,670.88C587.141,669.546 588.04,668.497 589.193,667.734C590.346,666.971 591.595,666.589 592.94,666.589C595.042,666.589 596.71,667.307 597.943,668.742C599.176,670.178 599.792,672.139 599.792,674.627L599.792,675.699L587.432,675.699L587.432,676.068C587.432,678.032 587.995,679.667 589.121,680.975C590.247,682.283 591.664,682.936 593.372,682.936C594.397,682.936 595.301,682.75 596.086,682.376C596.87,682.002 597.583,681.405 598.223,680.583L599.424,681.495C598.015,683.534 595.971,684.553 593.292,684.553ZM592.94,668.222C591.499,668.222 590.284,668.75 589.297,669.807C588.31,670.864 587.709,672.284 587.496,674.066L597.887,674.066L597.887,673.858C597.834,672.193 597.359,670.837 596.462,669.791C595.565,668.745 594.391,668.222 592.94,668.222Z" style="fill:rgb(64,64,65);fill-rule:nonzero;"/>
                    <path d="M606.499,662.474L606.499,666.909L610.085,666.909L610.085,668.478L606.499,668.478L606.499,680.022C606.499,680.983 606.672,681.698 607.019,682.168C607.366,682.637 607.945,682.872 608.756,682.872C609.077,682.872 609.594,682.819 610.31,682.712L610.39,684.281C609.888,684.463 609.205,684.553 608.34,684.553C607.027,684.553 606.072,684.172 605.474,683.409C604.876,682.645 604.578,681.522 604.578,680.038L604.578,668.478L601.391,668.478L601.391,666.909L604.578,666.909L604.578,662.474L606.499,662.474Z" style="fill:rgb(64,64,65);fill-rule:nonzero;"/>
                    <path d="M615.319,682.616L626.575,682.616L626.575,684.233L612.949,684.233L612.949,682.824L623.453,668.558L613.269,668.558L613.269,666.909L625.87,666.909L625.87,668.334L615.319,682.616Z" style="fill:rgb(64,64,65);fill-rule:nonzero;"/>
                    <path d="M641.143,682.04C639.99,683.716 638.149,684.553 635.619,684.553C633.772,684.553 632.369,684.017 631.408,682.944C630.447,681.872 629.956,680.284 629.935,678.181L629.935,666.909L631.84,666.909L631.84,677.941C631.84,681.239 633.174,682.888 635.843,682.888C638.618,682.888 640.374,681.741 641.111,679.446L641.111,666.909L643.032,666.909L643.032,684.233L641.175,684.233L641.143,682.04Z" style="fill:rgb(64,64,65);fill-rule:nonzero;"/>
                    <path d="M649.835,666.909L649.899,669.871C650.55,668.804 651.361,667.99 652.332,667.43C653.304,666.869 654.376,666.589 655.551,666.589C657.408,666.589 658.79,667.112 659.697,668.158C660.605,669.204 661.064,670.773 661.074,672.865L661.074,684.233L659.169,684.233L659.169,672.849C659.158,671.302 658.83,670.149 658.184,669.391C657.539,668.633 656.506,668.254 655.086,668.254C653.901,668.254 652.853,668.625 651.94,669.367C651.027,670.109 650.352,671.109 649.915,672.369L649.915,684.233L648.009,684.233L648.009,666.909L649.835,666.909Z" style="fill:rgb(64,64,65);fill-rule:nonzero;"/>
                    <path d="M665.251,675.411C665.251,672.7 665.852,670.552 667.052,668.967C668.253,667.382 669.884,666.589 671.944,666.589C674.303,666.589 676.096,667.528 677.324,669.407L677.42,666.909L679.213,666.909L679.213,683.881C679.213,686.112 678.588,687.878 677.34,689.181C676.091,690.483 674.399,691.134 672.264,691.134C671.058,691.134 669.908,690.864 668.814,690.325C667.72,689.786 666.858,689.069 666.228,688.172L667.301,687.019C668.656,688.684 670.268,689.517 672.136,689.517C673.737,689.517 674.986,689.045 675.883,688.1C676.779,687.155 677.243,685.845 677.275,684.169L677.275,681.992C676.048,683.699 674.26,684.553 671.912,684.553C669.905,684.553 668.293,683.753 667.076,682.152C665.86,680.551 665.251,678.389 665.251,675.667L665.251,675.411ZM667.188,675.747C667.188,677.957 667.631,679.699 668.517,680.975C669.403,682.25 670.652,682.888 672.264,682.888C674.623,682.888 676.293,681.832 677.275,679.718L677.275,671.664C676.827,670.554 676.181,669.708 675.338,669.127C674.495,668.545 673.481,668.254 672.296,668.254C670.684,668.254 669.43,668.887 668.533,670.151C667.637,671.416 667.188,673.282 667.188,675.747Z" style="fill:rgb(64,64,65);fill-rule:nonzero;"/>
                    <path d="M683.742,683.08C683.742,682.707 683.862,682.389 684.102,682.128C684.342,681.866 684.676,681.735 685.103,681.735C685.53,681.735 685.866,681.866 686.111,682.128C686.357,682.389 686.48,682.707 686.48,683.08C686.48,683.454 686.357,683.761 686.111,684.001C685.866,684.241 685.53,684.361 685.103,684.361C684.676,684.361 684.342,684.241 684.102,684.001C683.862,683.761 683.742,683.454 683.742,683.08ZM683.774,668.302C683.774,667.929 683.894,667.611 684.134,667.35C684.374,667.088 684.708,666.957 685.135,666.957C685.562,666.957 685.898,667.088 686.144,667.35C686.389,667.611 686.512,667.929 686.512,668.302C686.512,668.676 686.389,668.983 686.144,669.223C685.898,669.463 685.562,669.583 685.135,669.583C684.708,669.583 684.374,669.463 684.134,669.223C683.894,668.983 683.774,668.676 683.774,668.302Z" style="fill:rgb(64,64,65);fill-rule:nonzero;"/>
                    <path d="M704.76,672.657L701.478,675.891L701.478,684.233L699.509,684.233L699.509,660.921L701.478,660.921L701.478,673.49L713.422,660.921L715.904,660.921L706.137,671.296L716.656,684.233L714.255,684.233L704.76,672.657Z" style="fill:rgb(64,64,65);fill-rule:nonzero;"/>
                    <path d="M718.255,675.315C718.255,673.65 718.578,672.15 719.224,670.816C719.87,669.482 720.783,668.444 721.962,667.702C723.141,666.96 724.478,666.589 725.973,666.589C728.278,666.589 730.146,667.398 731.577,669.015C733.007,670.632 733.722,672.775 733.722,675.443L733.722,675.843C733.722,677.519 733.399,679.027 732.753,680.367C732.108,681.706 731.198,682.739 730.024,683.465C728.849,684.191 727.51,684.553 726.005,684.553C723.71,684.553 721.845,683.745 720.409,682.128C718.973,680.511 718.255,678.368 718.255,675.699L718.255,675.315ZM720.177,675.843C720.177,677.914 720.713,679.614 721.786,680.943C722.859,682.272 724.265,682.936 726.005,682.936C727.734,682.936 729.135,682.272 730.208,680.943C731.28,679.614 731.817,677.861 731.817,675.683L731.817,675.315C731.817,673.991 731.571,672.78 731.08,671.681C730.589,670.581 729.901,669.73 729.015,669.127C728.129,668.524 727.115,668.222 725.973,668.222C724.265,668.222 722.872,668.892 721.794,670.232C720.716,671.571 720.177,673.324 720.177,675.491L720.177,675.843Z" style="fill:rgb(64,64,65);fill-rule:nonzero;"/>
                    <path d="M751.604,675.747C751.604,678.448 751.007,680.591 749.811,682.176C748.616,683.761 747.015,684.553 745.008,684.553C742.638,684.553 740.824,683.721 739.564,682.056L739.564,690.894L737.659,690.894L737.659,666.909L739.436,666.909L739.532,669.359C740.781,667.512 742.59,666.589 744.96,666.589C747.031,666.589 748.656,667.374 749.835,668.943C751.015,670.512 751.604,672.689 751.604,675.475L751.604,675.747ZM749.683,675.411C749.683,673.202 749.229,671.456 748.322,670.175C747.415,668.895 746.15,668.254 744.528,668.254C743.353,668.254 742.345,668.537 741.501,669.103C740.658,669.668 740.012,670.49 739.564,671.568L739.564,679.878C740.023,680.871 740.68,681.629 741.533,682.152C742.387,682.675 743.396,682.936 744.56,682.936C746.171,682.936 747.428,682.293 748.33,681.007C749.232,679.721 749.683,677.855 749.683,675.411Z" style="fill:rgb(64,64,65);fill-rule:nonzero;"/>
                    <path d="M757.222,684.233L757.222,668.478L754.356,668.478L754.356,666.909L757.222,666.909L757.222,664.812C757.222,663.04 757.673,661.679 758.575,660.729C759.477,659.779 760.734,659.304 762.346,659.304C763.072,659.304 763.749,659.395 764.379,659.576L764.235,661.177C763.701,661.049 763.12,660.985 762.49,660.985C761.433,660.985 760.611,661.313 760.024,661.97C759.437,662.626 759.144,663.558 759.144,664.764L759.144,666.909L763.274,666.909L763.274,668.478L759.144,668.478L759.144,684.233L757.222,684.233Z" style="fill:rgb(64,64,65);fill-rule:nonzero;"/>
                </g>
                <g>
                    <path d="M310.236,675.744C310.236,678.444 309.638,680.587 308.443,682.172C307.247,683.757 305.641,684.55 303.623,684.55C301.211,684.55 299.386,683.653 298.148,681.86L298.067,684.23L296.274,684.23L296.274,659.636L298.18,659.636L298.18,669.419C299.396,667.53 301.2,666.585 303.591,666.585C305.641,666.585 307.26,667.367 308.451,668.931C309.641,670.495 310.236,672.669 310.236,675.455L310.236,675.744ZM308.315,675.407C308.315,673.123 307.872,671.359 306.986,670.116C306.1,668.872 304.851,668.25 303.239,668.25C302.012,668.25 300.971,668.552 300.117,669.155C299.263,669.758 298.617,670.641 298.18,671.805L298.18,679.618C299.14,681.796 300.837,682.885 303.271,682.885C304.851,682.885 306.086,682.26 306.978,681.011C307.869,679.762 308.315,677.894 308.315,675.407Z" style="fill:rgb(64,64,65);fill-rule:nonzero;"/>
                    <path d="M321.167,684.55C319.694,684.55 318.363,684.187 317.172,683.461C315.982,682.735 315.056,681.724 314.394,680.427C313.733,679.13 313.402,677.676 313.402,676.064L313.402,675.375C313.402,673.71 313.725,672.211 314.37,670.876C315.016,669.542 315.915,668.493 317.068,667.73C318.221,666.967 319.47,666.585 320.815,666.585C322.918,666.585 324.585,667.303 325.818,668.739C327.051,670.174 327.668,672.136 327.668,674.623L327.668,675.696L315.307,675.696L315.307,676.064C315.307,678.028 315.87,679.664 316.996,680.971C318.122,682.279 319.539,682.933 321.247,682.933C322.272,682.933 323.177,682.746 323.961,682.372C324.746,681.999 325.458,681.401 326.099,680.579L327.299,681.492C325.89,683.53 323.846,684.55 321.167,684.55ZM320.815,668.218C319.374,668.218 318.16,668.747 317.172,669.804C316.185,670.86 315.585,672.28 315.371,674.062L325.762,674.062L325.762,673.854C325.709,672.189 325.234,670.834 324.337,669.788C323.441,668.741 322.267,668.218 320.815,668.218Z" style="fill:rgb(64,64,65);fill-rule:nonzero;"/>
                    <path d="M335.541,680.243L335.829,681.732L336.213,680.163L340.376,666.906L342.009,666.906L346.124,680.051L346.572,681.876L346.941,680.195L350.495,666.906L352.48,666.906L347.437,684.23L345.804,684.23L341.353,670.492L341.145,669.547L340.936,670.508L336.565,684.23L334.932,684.23L329.905,666.906L331.874,666.906L335.541,680.243Z" style="fill:rgb(64,64,65);fill-rule:nonzero;"/>
                    <path d="M367.254,682.036C366.102,683.712 364.26,684.55 361.731,684.55C359.884,684.55 358.48,684.013 357.52,682.941C356.559,681.868 356.068,680.28 356.047,678.177L356.047,666.906L357.952,666.906L357.952,677.937C357.952,681.235 359.286,682.885 361.955,682.885C364.73,682.885 366.486,681.737 367.222,679.442L367.222,666.906L369.144,666.906L369.144,684.23L367.286,684.23L367.254,682.036Z" style="fill:rgb(64,64,65);fill-rule:nonzero;"/>
                    <path d="M384.494,679.826C384.494,678.876 384.112,678.113 383.349,677.537C382.586,676.96 381.436,676.509 379.899,676.184C378.362,675.858 377.169,675.485 376.32,675.063C375.472,674.642 374.842,674.127 374.431,673.518C374.02,672.91 373.815,672.173 373.815,671.309C373.815,669.942 374.386,668.813 375.528,667.922C376.67,667.031 378.132,666.585 379.915,666.585C381.847,666.585 383.397,667.063 384.566,668.018C385.735,668.974 386.319,670.22 386.319,671.757L384.398,671.757C384.398,670.743 383.974,669.9 383.125,669.227C382.276,668.555 381.206,668.218 379.915,668.218C378.655,668.218 377.644,668.499 376.881,669.059C376.118,669.619 375.736,670.348 375.736,671.245C375.736,672.109 376.053,672.779 376.689,673.254C377.324,673.729 378.482,674.164 380.163,674.559C381.844,674.954 383.104,675.375 383.942,675.824C384.78,676.272 385.401,676.811 385.807,677.441C386.213,678.071 386.415,678.834 386.415,679.73C386.415,681.193 385.826,682.362 384.646,683.237C383.467,684.112 381.927,684.55 380.027,684.55C378.01,684.55 376.374,684.061 375.12,683.085C373.865,682.108 373.238,680.873 373.238,679.378L375.16,679.378C375.234,680.499 375.707,681.372 376.577,681.996C377.446,682.62 378.597,682.933 380.027,682.933C381.361,682.933 382.439,682.639 383.261,682.052C384.083,681.465 384.494,680.723 384.494,679.826Z" style="fill:rgb(64,64,65);fill-rule:nonzero;"/>
                    <path d="M401.093,679.826C401.093,678.876 400.712,678.113 399.948,677.537C399.185,676.96 398.035,676.509 396.498,676.184C394.961,675.858 393.768,675.485 392.92,675.063C392.071,674.642 391.441,674.127 391.03,673.518C390.619,672.91 390.414,672.173 390.414,671.309C390.414,669.942 390.985,668.813 392.127,667.922C393.269,667.031 394.731,666.585 396.514,666.585C398.446,666.585 399.996,667.063 401.165,668.018C402.334,668.974 402.918,670.22 402.918,671.757L400.997,671.757C400.997,670.743 400.573,669.9 399.724,669.227C398.876,668.555 397.806,668.218 396.514,668.218C395.254,668.218 394.243,668.499 393.48,669.059C392.717,669.619 392.335,670.348 392.335,671.245C392.335,672.109 392.653,672.779 393.288,673.254C393.923,673.729 395.081,674.164 396.762,674.559C398.443,674.954 399.703,675.375 400.541,675.824C401.379,676.272 402,676.811 402.406,677.441C402.812,678.071 403.014,678.834 403.014,679.73C403.014,681.193 402.425,682.362 401.245,683.237C400.066,684.112 398.526,684.55 396.626,684.55C394.609,684.55 392.973,684.061 391.719,683.085C390.464,682.108 389.837,680.873 389.837,679.378L391.759,679.378C391.833,680.499 392.306,681.372 393.176,681.996C394.046,682.62 395.196,682.933 396.626,682.933C397.96,682.933 399.038,682.639 399.86,682.052C400.682,681.465 401.093,680.723 401.093,679.826Z" style="fill:rgb(64,64,65);fill-rule:nonzero;"/>
                    <path d="M410.295,662.47L410.295,666.906L413.882,666.906L413.882,668.475L410.295,668.475L410.295,680.019C410.295,680.979 410.469,681.694 410.816,682.164C411.162,682.634 411.742,682.869 412.553,682.869C412.873,682.869 413.391,682.815 414.106,682.708L414.186,684.278C413.684,684.459 413.001,684.55 412.136,684.55C410.824,684.55 409.868,684.168 409.271,683.405C408.673,682.642 408.374,681.518 408.374,680.035L408.374,668.475L405.188,668.475L405.188,666.906L408.374,666.906L408.374,662.47L410.295,662.47Z" style="fill:rgb(64,64,65);fill-rule:nonzero;"/>
                    <rect x="418.072" y="659.636" width="1.921" height="24.593" style="fill:rgb(64,64,65);fill-rule:nonzero;"/>
                    <path d="M424.136,675.311C424.136,673.646 424.459,672.146 425.105,670.812C425.751,669.478 426.663,668.44 427.843,667.698C429.022,666.956 430.359,666.585 431.853,666.585C434.159,666.585 436.027,667.394 437.457,669.011C438.888,670.628 439.603,672.771 439.603,675.439L439.603,675.84C439.603,677.516 439.28,679.023 438.634,680.363C437.988,681.702 437.078,682.735 435.904,683.461C434.73,684.187 433.391,684.55 431.886,684.55C429.591,684.55 427.725,683.741 426.29,682.124C424.854,680.507 424.136,678.364 424.136,675.696L424.136,675.311ZM426.057,675.84C426.057,677.91 426.594,679.61 427.667,680.939C428.739,682.268 430.146,682.933 431.886,682.933C433.615,682.933 435.016,682.268 436.088,680.939C437.161,679.61 437.698,677.857 437.698,675.68L437.698,675.311C437.698,673.988 437.452,672.776 436.961,671.677C436.47,670.577 435.782,669.726 434.896,669.123C434.01,668.52 432.996,668.218 431.853,668.218C430.146,668.218 428.753,668.888 427.675,670.228C426.597,671.567 426.057,673.321 426.057,675.487L426.057,675.84Z" style="fill:rgb(64,64,65);fill-rule:nonzero;"/>
                    <path d="M453.928,679.826C453.928,678.876 453.547,678.113 452.784,677.537C452.02,676.96 450.87,676.509 449.333,676.184C447.796,675.858 446.603,675.485 445.755,675.063C444.906,674.642 444.276,674.127 443.865,673.518C443.455,672.91 443.249,672.173 443.249,671.309C443.249,669.942 443.82,668.813 444.962,667.922C446.104,667.031 447.567,666.585 449.349,666.585C451.281,666.585 452.832,667.063 454,668.018C455.169,668.974 455.754,670.22 455.754,671.757L453.832,671.757C453.832,670.743 453.408,669.9 452.559,669.227C451.711,668.555 450.641,668.218 449.349,668.218C448.09,668.218 447.078,668.499 446.315,669.059C445.552,669.619 445.17,670.348 445.17,671.245C445.17,672.109 445.488,672.779 446.123,673.254C446.758,673.729 447.916,674.164 449.597,674.559C451.279,674.954 452.538,675.375 453.376,675.824C454.214,676.272 454.836,676.811 455.241,677.441C455.647,678.071 455.85,678.834 455.85,679.73C455.85,681.193 455.26,682.362 454.081,683.237C452.901,684.112 451.361,684.55 449.461,684.55C447.444,684.55 445.808,684.061 444.554,683.085C443.3,682.108 442.673,680.873 442.673,679.378L444.594,679.378C444.669,680.499 445.141,681.372 446.011,681.996C446.881,682.62 448.031,682.933 449.461,682.933C450.796,682.933 451.874,682.639 452.696,682.052C453.517,681.465 453.928,680.723 453.928,679.826Z" style="fill:rgb(64,64,65);fill-rule:nonzero;"/>
                </g>
                <g>
                    <path d="M612.708,754.397L612.708,731.084L619.225,731.084C621.135,731.084 622.849,731.519 624.364,732.389C625.88,733.259 627.062,734.505 627.911,736.128C628.759,737.75 629.184,739.597 629.184,741.668L629.184,743.813C629.184,745.895 628.762,747.741 627.919,749.353C627.076,750.965 625.888,752.208 624.356,753.084C622.825,753.959 621.066,754.397 619.081,754.397L612.708,754.397ZM614.678,732.766L614.678,752.731L619.097,752.731C621.552,752.731 623.521,751.917 625.005,750.29C626.488,748.662 627.23,746.46 627.23,743.685L627.23,741.636C627.23,738.956 626.499,736.811 625.037,735.199C623.574,733.587 621.648,732.776 619.257,732.766L614.678,732.766Z" style="fill:rgb(64,64,65);fill-rule:nonzero;"/>
                    <path d="M635.88,754.397L633.958,754.397L633.958,737.073L635.88,737.073L635.88,754.397ZM633.622,732.061C633.622,731.698 633.74,731.391 633.975,731.14C634.209,730.89 634.53,730.764 634.935,730.764C635.341,730.764 635.664,730.89 635.904,731.14C636.144,731.391 636.264,731.698 636.264,732.061C636.264,732.424 636.144,732.728 635.904,732.974C635.664,733.219 635.341,733.342 634.935,733.342C634.53,733.342 634.209,733.219 633.975,732.974C633.74,732.728 633.622,732.424 633.622,732.061Z" style="fill:rgb(64,64,65);fill-rule:nonzero;"/>
                    <path d="M652.023,754.397C651.83,753.852 651.708,753.046 651.654,751.979C650.982,752.854 650.125,753.529 649.085,754.004C648.044,754.479 646.942,754.717 645.778,754.717C644.113,754.717 642.765,754.252 641.735,753.324C640.705,752.395 640.19,751.221 640.19,749.801C640.19,748.115 640.892,746.781 642.296,745.799C643.699,744.817 645.655,744.326 648.164,744.326L651.638,744.326L651.638,742.356C651.638,741.118 651.257,740.144 650.493,739.434C649.73,738.724 648.618,738.369 647.155,738.369C645.821,738.369 644.716,738.711 643.841,739.394C642.966,740.077 642.528,740.899 642.528,741.86L640.607,741.844C640.607,740.467 641.247,739.274 642.528,738.265C643.809,737.257 645.383,736.752 647.251,736.752C649.183,736.752 650.707,737.235 651.822,738.201C652.938,739.167 653.512,740.515 653.544,742.244L653.544,750.442C653.544,752.118 653.72,753.372 654.072,754.204L654.072,754.397L652.023,754.397ZM646.002,753.02C647.283,753.02 648.428,752.71 649.437,752.091C650.445,751.472 651.179,750.645 651.638,749.609L651.638,745.799L648.212,745.799C646.301,745.82 644.807,746.169 643.729,746.847C642.651,747.525 642.112,748.456 642.112,749.641C642.112,750.613 642.472,751.418 643.192,752.059C643.913,752.699 644.85,753.02 646.002,753.02Z" style="fill:rgb(64,64,65);fill-rule:nonzero;"/>
                    <path d="M672.6,745.911C672.6,748.611 672.003,750.754 670.807,752.339C669.612,753.924 668.005,754.717 665.988,754.717C663.575,754.717 661.75,753.82 660.512,752.027L660.432,754.397L658.639,754.397L658.639,729.803L660.544,729.803L660.544,739.586C661.761,737.697 663.565,736.752 665.956,736.752C668.005,736.752 669.625,737.534 670.815,739.098C672.005,740.662 672.6,742.836 672.6,745.622L672.6,745.911ZM670.679,745.574C670.679,743.29 670.236,741.526 669.35,740.283C668.464,739.039 667.215,738.417 665.603,738.417C664.376,738.417 663.335,738.719 662.481,739.322C661.627,739.925 660.982,740.808 660.544,741.972L660.544,749.785C661.505,751.963 663.202,753.052 665.636,753.052C667.215,753.052 668.451,752.427 669.342,751.178C670.233,749.929 670.679,748.061 670.679,745.574Z" style="fill:rgb(64,64,65);fill-rule:nonzero;"/>
                    <path d="M683.539,754.717C682.066,754.717 680.735,754.354 679.545,753.628C678.355,752.902 677.429,751.891 676.767,750.594C676.105,749.297 675.774,747.843 675.774,746.231L675.774,745.542C675.774,743.877 676.097,742.378 676.743,741.043C677.389,739.709 678.288,738.66 679.441,737.897C680.593,737.134 681.842,736.752 683.187,736.752C685.29,736.752 686.958,737.47 688.191,738.906C689.424,740.341 690.04,742.303 690.04,744.79L690.04,745.863L677.679,745.863L677.679,746.231C677.679,748.195 678.242,749.831 679.369,751.138C680.495,752.446 681.912,753.1 683.62,753.1C684.644,753.1 685.549,752.913 686.333,752.539C687.118,752.166 687.83,751.568 688.471,750.746L689.672,751.659C688.263,753.697 686.219,754.717 683.539,754.717ZM683.187,738.385C681.746,738.385 680.532,738.914 679.545,739.971C678.557,741.027 677.957,742.447 677.743,744.229L688.135,744.229L688.135,744.021C688.081,742.356 687.606,741.001 686.71,739.955C685.813,738.908 684.639,738.385 683.187,738.385Z" style="fill:rgb(64,64,65);fill-rule:nonzero;"/>
                    <path d="M696.752,732.637L696.752,737.073L700.339,737.073L700.339,738.642L696.752,738.642L696.752,750.186C696.752,751.146 696.926,751.861 697.273,752.331C697.619,752.801 698.198,753.036 699.01,753.036C699.33,753.036 699.848,752.982 700.563,752.875L700.643,754.445C700.141,754.626 699.458,754.717 698.593,754.717C697.281,754.717 696.325,754.335 695.727,753.572C695.13,752.809 694.831,751.685 694.831,750.202L694.831,738.642L691.645,738.642L691.645,737.073L694.831,737.073L694.831,732.637L696.752,732.637Z" style="fill:rgb(64,64,65);fill-rule:nonzero;"/>
                    <path d="M711.022,754.717C709.549,754.717 708.217,754.354 707.027,753.628C705.837,752.902 704.911,751.891 704.249,750.594C703.587,749.297 703.256,747.843 703.256,746.231L703.256,745.542C703.256,743.877 703.579,742.378 704.225,741.043C704.871,739.709 705.77,738.66 706.923,737.897C708.076,737.134 709.324,736.752 710.669,736.752C712.772,736.752 714.44,737.47 715.673,738.906C716.906,740.341 717.522,742.303 717.522,744.79L717.522,745.863L705.162,745.863L705.162,746.231C705.162,748.195 705.725,749.831 706.851,751.138C707.977,752.446 709.394,753.1 711.102,753.1C712.126,753.1 713.031,752.913 713.816,752.539C714.6,752.166 715.313,751.568 715.953,750.746L717.154,751.659C715.745,753.697 713.701,754.717 711.022,754.717ZM710.669,738.385C709.228,738.385 708.014,738.914 707.027,739.971C706.039,741.027 705.439,742.447 705.226,744.229L715.617,744.229L715.617,744.021C715.563,742.356 715.088,741.001 714.192,739.955C713.295,738.908 712.121,738.385 710.669,738.385Z" style="fill:rgb(64,64,65);fill-rule:nonzero;"/>
                    <path d="M731.631,749.993C731.631,749.043 731.25,748.28 730.487,747.704C729.723,747.127 728.573,746.676 727.036,746.351C725.499,746.025 724.306,745.652 723.458,745.23C722.609,744.809 721.979,744.294 721.568,743.685C721.157,743.077 720.952,742.34 720.952,741.476C720.952,740.109 721.523,738.98 722.665,738.089C723.807,737.198 725.27,736.752 727.052,736.752C728.984,736.752 730.535,737.23 731.703,738.185C732.872,739.141 733.457,740.387 733.457,741.924L731.535,741.924C731.535,740.91 731.111,740.067 730.262,739.394C729.414,738.722 728.344,738.385 727.052,738.385C725.793,738.385 724.781,738.666 724.018,739.226C723.255,739.786 722.873,740.515 722.873,741.412C722.873,742.276 723.191,742.946 723.826,743.421C724.461,743.896 725.619,744.331 727.3,744.726C728.982,745.121 730.241,745.542 731.079,745.991C731.917,746.439 732.539,746.978 732.944,747.608C733.35,748.238 733.553,749.001 733.553,749.897C733.553,751.36 732.963,752.529 731.784,753.404C730.604,754.279 729.064,754.717 727.164,754.717C725.147,754.717 723.511,754.228 722.257,753.252C721.003,752.275 720.376,751.04 720.376,749.545L722.297,749.545C722.372,750.666 722.844,751.539 723.714,752.163C724.584,752.787 725.734,753.1 727.164,753.1C728.499,753.1 729.577,752.806 730.399,752.219C731.22,751.632 731.631,750.89 731.631,749.993Z" style="fill:rgb(64,64,65);fill-rule:nonzero;"/>
                </g>
                <g>
                    <path d="M339.526,745.902L339.526,755.397L337.557,755.397L337.557,732.084L345.498,732.084C347.921,732.084 349.835,732.703 351.238,733.942C352.642,735.18 353.344,736.882 353.344,739.049C353.344,741.237 352.669,742.927 351.318,744.117C349.968,745.307 348.012,745.902 345.45,745.902L339.526,745.902ZM339.526,744.237L345.498,744.237C347.409,744.237 348.866,743.783 349.869,742.876C350.873,741.969 351.374,740.704 351.374,739.081C351.374,737.469 350.875,736.186 349.877,735.231C348.879,734.275 347.462,733.787 345.626,733.766L339.526,733.766L339.526,744.237Z" style="fill:rgb(64,64,65);fill-rule:nonzero;"/>
                    <path d="M368.441,753.203C367.288,754.879 365.447,755.717 362.917,755.717C361.07,755.717 359.667,755.18 358.706,754.108C357.745,753.035 357.254,751.447 357.233,749.344L357.233,738.073L359.138,738.073L359.138,749.104C359.138,752.402 360.473,754.052 363.141,754.052C365.916,754.052 367.672,752.904 368.409,750.609L368.409,738.073L370.33,738.073L370.33,755.397L368.473,755.397L368.441,753.203Z" style="fill:rgb(64,64,65);fill-rule:nonzero;"/>
                    <rect x="375.532" y="730.803" width="1.921" height="24.593" style="fill:rgb(64,64,65);fill-rule:nonzero;"/>
                    <path d="M393.031,750.993C393.031,750.043 392.649,749.28 391.886,748.704C391.123,748.127 389.973,747.676 388.436,747.351C386.899,747.025 385.706,746.652 384.857,746.23C384.009,745.809 383.379,745.294 382.968,744.685C382.557,744.077 382.352,743.34 382.352,742.476C382.352,741.109 382.923,739.98 384.065,739.089C385.207,738.198 386.669,737.752 388.452,737.752C390.384,737.752 391.934,738.23 393.103,739.185C394.272,740.141 394.856,741.387 394.856,742.924L392.935,742.924C392.935,741.91 392.511,741.067 391.662,740.394C390.814,739.722 389.743,739.385 388.452,739.385C387.192,739.385 386.181,739.666 385.418,740.226C384.655,740.786 384.273,741.515 384.273,742.412C384.273,743.276 384.591,743.946 385.226,744.421C385.861,744.896 387.019,745.331 388.7,745.726C390.381,746.121 391.641,746.542 392.479,746.991C393.317,747.439 393.938,747.978 394.344,748.608C394.75,749.238 394.952,750.001 394.952,750.897C394.952,752.36 394.363,753.529 393.183,754.404C392.004,755.279 390.464,755.717 388.564,755.717C386.547,755.717 384.911,755.228 383.657,754.252C382.402,753.275 381.775,752.04 381.775,750.545L383.697,750.545C383.771,751.666 384.244,752.539 385.114,753.163C385.984,753.787 387.134,754.1 388.564,754.1C389.898,754.1 390.976,753.806 391.798,753.219C392.62,752.632 393.031,751.89 393.031,750.993Z" style="fill:rgb(64,64,65);fill-rule:nonzero;"/>
                    <path d="M398.794,754.244C398.794,753.87 398.914,753.553 399.154,753.291C399.394,753.03 399.728,752.899 400.155,752.899C400.582,752.899 400.918,753.03 401.163,753.291C401.409,753.553 401.532,753.87 401.532,754.244C401.532,754.617 401.409,754.924 401.163,755.164C400.918,755.405 400.582,755.525 400.155,755.525C399.728,755.525 399.394,755.405 399.154,755.164C398.914,754.924 398.794,754.617 398.794,754.244ZM398.826,739.465C398.826,739.092 398.946,738.774 399.186,738.513C399.426,738.251 399.76,738.121 400.187,738.121C400.614,738.121 400.95,738.251 401.195,738.513C401.441,738.774 401.564,739.092 401.564,739.465C401.564,739.839 401.441,740.146 401.195,740.386C400.95,740.626 400.614,740.746 400.187,740.746C399.76,740.746 399.426,740.626 399.186,740.386C398.946,740.146 398.826,739.839 398.826,739.465Z" style="fill:rgb(64,64,65);fill-rule:nonzero;"/>
                    <path d="M424.489,750.993C424.489,750.043 424.107,749.28 423.344,748.704C422.581,748.127 421.431,747.676 419.893,747.351C418.356,747.025 417.164,746.652 416.315,746.23C415.466,745.809 414.837,745.294 414.426,744.685C414.015,744.077 413.809,743.34 413.809,742.476C413.809,741.109 414.38,739.98 415.522,739.089C416.665,738.198 418.127,737.752 419.909,737.752C421.841,737.752 423.392,738.23 424.561,739.185C425.73,740.141 426.314,741.387 426.314,742.924L424.393,742.924C424.393,741.91 423.968,741.067 423.12,740.394C422.271,739.722 421.201,739.385 419.909,739.385C418.65,739.385 417.639,739.666 416.875,740.226C416.112,740.786 415.731,741.515 415.731,742.412C415.731,743.276 416.048,743.946 416.683,744.421C417.318,744.896 418.476,745.331 420.158,745.726C421.839,746.121 423.098,746.542 423.936,746.991C424.774,747.439 425.396,747.978 425.802,748.608C426.207,749.238 426.41,750.001 426.41,750.897C426.41,752.36 425.82,753.529 424.641,754.404C423.461,755.279 421.922,755.717 420.022,755.717C418.004,755.717 416.368,755.228 415.114,754.252C413.86,753.275 413.233,752.04 413.233,750.545L415.154,750.545C415.229,751.666 415.701,752.539 416.571,753.163C417.441,753.787 418.591,754.1 420.022,754.1C421.356,754.1 422.434,753.806 423.256,753.219C424.078,752.632 424.489,751.89 424.489,750.993Z" style="fill:rgb(64,64,65);fill-rule:nonzero;"/>
                    <path d="M437.12,754.1C438.454,754.1 439.572,753.723 440.474,752.971C441.376,752.218 441.865,751.244 441.939,750.049L443.781,750.049C443.727,751.106 443.396,752.069 442.788,752.939C442.179,753.809 441.371,754.489 440.362,754.98C439.354,755.471 438.273,755.717 437.12,755.717C434.846,755.717 433.045,754.927 431.716,753.347C430.387,751.767 429.723,749.643 429.723,746.975L429.723,746.398C429.723,744.69 430.022,743.18 430.619,741.867C431.217,740.554 432.074,739.54 433.189,738.825C434.305,738.11 435.61,737.752 437.104,737.752C439.004,737.752 440.57,738.318 441.803,739.449C443.036,740.581 443.695,742.07 443.781,743.917L441.939,743.917C441.854,742.561 441.366,741.467 440.474,740.634C439.583,739.802 438.46,739.385 437.104,739.385C435.375,739.385 434.033,740.01 433.077,741.259C432.122,742.508 431.644,744.258 431.644,746.51L431.644,747.071C431.644,749.28 432.122,751.004 433.077,752.242C434.033,753.481 435.38,754.1 437.12,754.1Z" style="fill:rgb(64,64,65);fill-rule:nonzero;"/>
                    <path d="M449.511,741.003C450.141,739.967 450.947,739.167 451.929,738.601C452.911,738.035 453.984,737.752 455.147,737.752C457.004,737.752 458.387,738.275 459.294,739.321C460.201,740.367 460.66,741.937 460.671,744.029L460.671,755.397L458.766,755.397L458.766,744.013C458.755,742.465 458.427,741.312 457.781,740.554C457.135,739.796 456.102,739.417 454.683,739.417C453.498,739.417 452.449,739.788 451.537,740.53C450.624,741.272 449.949,742.273 449.511,743.532L449.511,755.397L447.606,755.397L447.606,730.803L449.511,730.803L449.511,741.003Z" style="fill:rgb(64,64,65);fill-rule:nonzero;"/>
                    <path d="M469.748,751.41L470.036,752.899L470.42,751.33L474.583,738.073L476.216,738.073L480.331,751.218L480.779,753.043L481.148,751.362L484.702,738.073L486.688,738.073L481.644,755.397L480.011,755.397L475.56,741.659L475.352,740.714L475.144,741.675L470.772,755.397L469.139,755.397L464.112,738.073L466.081,738.073L469.748,751.41Z" style="fill:rgb(64,64,65);fill-rule:nonzero;"/>
                    <path d="M501.256,755.397C501.064,754.852 500.941,754.046 500.888,752.979C500.215,753.854 499.359,754.529 498.318,755.004C497.277,755.479 496.175,755.717 495.012,755.717C493.347,755.717 491.999,755.252 490.969,754.324C489.939,753.395 489.424,752.221 489.424,750.801C489.424,749.115 490.126,747.781 491.529,746.799C492.933,745.817 494.889,745.326 497.398,745.326L500.872,745.326L500.872,743.356C500.872,742.118 500.49,741.144 499.727,740.434C498.964,739.724 497.851,739.369 496.389,739.369C495.055,739.369 493.95,739.711 493.075,740.394C492.199,741.077 491.762,741.899 491.762,742.86L489.84,742.844C489.84,741.467 490.481,740.274 491.762,739.265C493.043,738.257 494.617,737.752 496.485,737.752C498.417,737.752 499.941,738.235 501.056,739.201C502.172,740.167 502.745,741.515 502.777,743.244L502.777,751.442C502.777,753.118 502.953,754.372 503.306,755.204L503.306,755.397L501.256,755.397ZM495.236,754.02C496.517,754.02 497.662,753.71 498.67,753.091C499.679,752.472 500.413,751.645 500.872,750.609L500.872,746.799L497.446,746.799C495.535,746.82 494.041,747.169 492.962,747.847C491.884,748.525 491.345,749.456 491.345,750.641C491.345,751.613 491.706,752.418 492.426,753.059C493.147,753.699 494.083,754.02 495.236,754.02Z" style="fill:rgb(64,64,65);fill-rule:nonzero;"/>
                    <path d="M514.288,754.1C515.622,754.1 516.74,753.723 517.642,752.971C518.544,752.218 519.032,751.244 519.107,750.049L520.948,750.049C520.895,751.106 520.564,752.069 519.956,752.939C519.347,753.809 518.539,754.489 517.53,754.98C516.521,755.471 515.441,755.717 514.288,755.717C512.014,755.717 510.213,754.927 508.884,753.347C507.555,751.767 506.891,749.643 506.891,746.975L506.891,746.398C506.891,744.69 507.19,743.18 507.787,741.867C508.385,740.554 509.242,739.54 510.357,738.825C511.473,738.11 512.777,737.752 514.272,737.752C516.172,737.752 517.738,738.318 518.971,739.449C520.204,740.581 520.863,742.07 520.948,743.917L519.107,743.917C519.022,742.561 518.533,741.467 517.642,740.634C516.751,739.802 515.627,739.385 514.272,739.385C512.543,739.385 511.2,740.01 510.245,741.259C509.29,742.508 508.812,744.258 508.812,746.51L508.812,747.071C508.812,749.28 509.29,751.004 510.245,752.242C511.2,753.481 512.548,754.1 514.288,754.1Z" style="fill:rgb(64,64,65);fill-rule:nonzero;"/>
                    <path d="M526.679,741.003C527.309,739.967 528.115,739.167 529.097,738.601C530.079,738.035 531.151,737.752 532.315,737.752C534.172,737.752 535.554,738.275 536.462,739.321C537.369,740.367 537.828,741.937 537.839,744.029L537.839,755.397L535.933,755.397L535.933,744.013C535.923,742.465 535.595,741.312 534.949,740.554C534.303,739.796 533.27,739.417 531.851,739.417C530.666,739.417 529.617,739.788 528.704,740.53C527.792,741.272 527.117,742.273 526.679,743.532L526.679,755.397L524.774,755.397L524.774,730.803L526.679,730.803L526.679,741.003Z" style="fill:rgb(64,64,65);fill-rule:nonzero;"/>
                    <path d="M498.267,825.567C498.075,825.023 497.952,824.217 497.899,823.15C497.227,824.025 496.37,824.7 495.329,825.175C494.289,825.65 493.186,825.887 492.023,825.887C490.358,825.887 489.01,825.423 487.98,824.494C486.95,823.566 486.435,822.392 486.435,820.972C486.435,819.286 487.137,817.951 488.541,816.969C489.944,815.987 491.9,815.496 494.409,815.496L497.883,815.496L497.883,813.527C497.883,812.289 497.501,811.315 496.738,810.605C495.975,809.895 494.862,809.54 493.4,809.54C492.066,809.54 490.961,809.882 490.086,810.565C489.21,811.248 488.773,812.07 488.773,813.031L486.851,813.015C486.851,811.638 487.492,810.445 488.773,809.436C490.054,808.427 491.628,807.923 493.496,807.923C495.428,807.923 496.952,808.406 498.067,809.372C499.183,810.338 499.756,811.686 499.788,813.415L499.788,821.612C499.788,823.288 499.964,824.542 500.317,825.375L500.317,825.567L498.267,825.567ZM492.247,824.19C493.528,824.19 494.673,823.881 495.682,823.262C496.69,822.643 497.424,821.815 497.883,820.78L497.883,816.969L494.457,816.969C492.546,816.991 491.052,817.34 489.974,818.018C488.895,818.696 488.356,819.627 488.356,820.812C488.356,821.783 488.717,822.589 489.437,823.23C490.158,823.87 491.094,824.19 492.247,824.19Z" style="fill:rgb(64,64,65);fill-rule:nonzero;"/>
                    <path d="M507.87,803.808L507.87,808.243L511.457,808.243L511.457,809.812L507.87,809.812L507.87,821.356C507.87,822.317 508.044,823.032 508.39,823.502C508.737,823.971 509.316,824.206 510.128,824.206C510.448,824.206 510.966,824.153 511.681,824.046L511.761,825.615C511.259,825.797 510.576,825.887 509.711,825.887C508.398,825.887 507.443,825.506 506.845,824.743C506.248,823.979 505.949,822.856 505.949,821.372L505.949,809.812L502.763,809.812L502.763,808.243L505.949,808.243L505.949,803.808L507.87,803.808Z" style="fill:rgb(64,64,65);fill-rule:nonzero;"/>
                    <path d="M517.169,808.243L517.233,811.061C517.873,810.015 518.674,809.231 519.634,808.708C520.595,808.184 521.663,807.923 522.837,807.923C525.569,807.923 527.304,809.044 528.04,811.285C528.659,810.207 529.487,809.377 530.522,808.796C531.557,808.214 532.7,807.923 533.948,807.923C537.663,807.923 539.558,809.951 539.632,814.007L539.632,825.567L537.711,825.567L537.711,814.151C537.7,812.604 537.367,811.456 536.71,810.709C536.054,809.962 534.984,809.588 533.5,809.588C532.123,809.609 530.96,810.055 530.01,810.925C529.06,811.795 528.531,812.854 528.425,814.103L528.425,825.567L526.503,825.567L526.503,814.007C526.493,812.524 526.143,811.416 525.454,810.685C524.766,809.954 523.707,809.588 522.276,809.588C521.07,809.588 520.035,809.932 519.17,810.621C518.306,811.309 517.665,812.331 517.249,813.687L517.249,825.567L515.327,825.567L515.327,808.243L517.169,808.243Z" style="fill:rgb(64,64,65);fill-rule:nonzero;"/>
                    <path d="M551.188,825.887C549.715,825.887 548.384,825.525 547.194,824.799C546.004,824.073 545.078,823.061 544.416,821.765C543.754,820.468 543.423,819.013 543.423,817.402L543.423,816.713C543.423,815.048 543.746,813.548 544.392,812.214C545.038,810.88 545.937,809.831 547.09,809.068C548.242,808.305 549.491,807.923 550.836,807.923C552.939,807.923 554.607,808.641 555.84,810.076C557.073,811.512 557.689,813.473 557.689,815.961L557.689,817.033L545.328,817.033L545.328,817.402C545.328,819.366 545.891,821.001 547.018,822.309C548.144,823.617 549.561,824.27 551.269,824.27C552.293,824.27 553.198,824.084 553.982,823.71C554.767,823.336 555.479,822.739 556.12,821.917L557.321,822.829C555.912,824.868 553.868,825.887 551.188,825.887ZM550.836,809.556C549.395,809.556 548.181,810.084 547.194,811.141C546.206,812.198 545.606,813.618 545.392,815.4L555.784,815.4L555.784,815.192C555.73,813.527 555.255,812.171 554.359,811.125C553.462,810.079 552.288,809.556 550.836,809.556Z" style="fill:rgb(64,64,65);fill-rule:nonzero;"/>
                    <path d="M563.241,808.243L563.305,811.205C563.956,810.138 564.767,809.324 565.739,808.764C566.71,808.203 567.783,807.923 568.957,807.923C570.814,807.923 572.197,808.446 573.104,809.492C574.011,810.538 574.47,812.107 574.481,814.199L574.481,825.567L572.575,825.567L572.575,814.183C572.565,812.636 572.237,811.483 571.591,810.725C570.945,809.967 569.912,809.588 568.493,809.588C567.308,809.588 566.259,809.959 565.346,810.701C564.434,811.443 563.759,812.443 563.321,813.703L563.321,825.567L561.416,825.567L561.416,808.243L563.241,808.243Z" style="fill:rgb(64,64,65);fill-rule:nonzero;"/>
                    <path d="M578.656,816.745C578.656,814.055 579.256,811.912 580.457,810.317C581.658,808.721 583.288,807.923 585.349,807.923C587.686,807.923 589.469,808.846 590.696,810.693L590.696,800.974L592.602,800.974L592.602,825.567L590.808,825.567L590.728,823.262C589.501,825.012 587.697,825.887 585.316,825.887C583.32,825.887 581.711,825.084 580.489,823.478C579.267,821.871 578.656,819.702 578.656,816.969L578.656,816.745ZM580.593,817.081C580.593,819.291 581.036,821.033 581.922,822.309C582.808,823.584 584.057,824.222 585.669,824.222C588.028,824.222 589.704,823.182 590.696,821.1L590.696,812.966C589.704,810.714 588.038,809.588 585.701,809.588C584.089,809.588 582.835,810.221 581.938,811.485C581.042,812.75 580.593,814.616 580.593,817.081Z" style="fill:rgb(64,64,65);fill-rule:nonzero;"/>
                </g>
            </g>
            <g transform="matrix(0.24,0,0,0.24,63.2441,-180.653)">
                <path d="M1312.37,1806.91L1374.35,1961.6L1436.33,1806.91L1468.75,1806.91L1468.75,1996.49L1443.75,1996.49L1443.75,1922.66L1446.09,1842.98L1383.85,1996.49L1364.71,1996.49L1302.6,1843.37L1305.08,1922.66L1305.08,1996.49L1280.08,1996.49L1280.08,1806.91L1312.37,1806.91Z" style="fill:rgb(244,244,244);fill-opacity:0.5;fill-rule:nonzero;"/>
            </g>
            <g transform="matrix(0.306261,0,0,0.24,265.933,-181.154)">
                <path d="M1349.17,1932.82L1369.78,1932.82L1369.78,1952.48L1349.17,1952.48L1349.17,1996.49L1330.19,1996.49L1330.19,1952.48L1262.54,1952.48L1262.54,1938.29L1329.07,1806.91L1349.17,1806.91L1349.17,1932.82ZM1283.97,1932.82L1330.19,1932.82L1330.19,1839.85L1327.95,1845.06L1283.97,1932.82Z" style="fill:rgb(244,244,244);fill-opacity:0.5;fill-rule:nonzero;"/>
                <path d="M1484.17,1996.49L1386.82,1996.49L1386.82,1979.17L1438.25,1906.26C1445.87,1895.23 1451.12,1886.27 1454.01,1879.37C1456.9,1872.47 1458.35,1865.33 1458.35,1857.95C1458.35,1848.06 1456,1839.94 1451.31,1833.6C1446.62,1827.27 1440.36,1824.1 1432.54,1824.1C1423.15,1824.1 1415.85,1827.5 1410.65,1834.32C1405.44,1841.13 1402.84,1850.62 1402.84,1862.77L1383.97,1862.77C1383.97,1845.32 1388.37,1831.22 1397.18,1820.45C1405.99,1809.69 1417.77,1804.31 1432.54,1804.31C1446.35,1804.31 1457.26,1808.93 1465.29,1818.17C1473.32,1827.42 1477.33,1839.72 1477.33,1855.09C1477.33,1873.75 1468.01,1895.97 1449.37,1921.75L1409.58,1976.83L1484.17,1976.83L1484.17,1996.49Z" style="fill:rgb(244,244,244);fill-opacity:0.5;fill-rule:nonzero;"/>
            </g>
        </g>
        <g id="AffectedPerson70" transform="matrix(2.91712,0,0,2.91712,1881.98,959.473)">
            <g transform="matrix(1,0,0,1,371.053,216.935)">
                <path d="M0,647.047C-11.004,647.047 -21.258,641.127 -26.76,631.598L-195.707,338.973C-201.208,329.443 -201.208,317.604 -195.707,308.074L-26.76,15.449C-21.257,5.92 -11.004,0 0,0L337.894,0C348.897,0 359.151,5.92 364.654,15.449L533.6,308.074C539.102,317.604 539.102,329.443 533.6,338.973L364.654,631.598C359.151,641.127 348.898,647.047 337.894,647.047L0,647.047Z" style="fill:white;fill-rule:nonzero;"/>
            </g>
            <g transform="matrix(1,0,0,1,733.385,371.504)">
                <path d="M0,-142.023C-4.84,-150.405 -13.784,-155.569 -23.463,-155.569L-363.307,-155.569C-372.986,-155.569 -381.93,-150.405 -386.769,-142.023L-469.385,1.071C-383.992,9.12 -290.869,13.546 -193.385,13.546C-95.9,13.546 -2.778,9.12 82.615,1.071L0,-142.023Z" style="fill:rgb(230,116,116);fill-rule:nonzero;stroke:rgb(165,164,165);stroke-width:1.43px;"/>
            </g>
            <g>
                <g transform="matrix(1,0,0,1,528.976,242.61)">
                    <path d="M0,284.631L-131.292,153.339C-137.38,147.251 -137.38,137.38 -131.292,131.292L0,0C6.088,-6.088 15.959,-6.088 22.047,0L153.339,131.292C159.427,137.38 159.427,147.251 153.339,153.339L22.047,284.631C15.959,290.719 6.088,290.719 0,284.631Z" style="fill:rgb(243,243,244);fill-rule:nonzero;stroke:rgb(165,164,165);stroke-width:1.43px;"/>
                </g>
                <g transform="matrix(0.554858,0,0,0.604699,-716.43,-738)">
                    <path d="M2154.12,1806.42L2192.42,1894.11L2230.71,1806.42L2250.74,1806.42L2250.74,1913.89L2235.3,1913.89L2235.3,1872.04L2236.74,1826.87L2198.29,1913.89L2186.47,1913.89L2148.09,1827.09L2149.62,1872.04L2149.62,1913.89L2134.18,1913.89L2134.18,1806.42L2154.12,1806.42Z" style="fill-rule:nonzero;"/>
                    <path d="M2297.96,1806.42L2336.25,1894.11L2374.55,1806.42L2394.58,1806.42L2394.58,1913.89L2379.13,1913.89L2379.13,1872.04L2380.58,1826.87L2342.13,1913.89L2330.3,1913.89L2291.93,1827.09L2293.46,1872.04L2293.46,1913.89L2278.01,1913.89L2278.01,1806.42L2297.96,1806.42Z" style="fill-rule:nonzero;"/>
                </g>
            </g>
            <g transform="matrix(1,0,0,1,708.947,864.483)">
                <path d="M0,-648.048L-337.894,-648.048C-349.112,-648.048 -359.477,-642.063 -365.086,-632.348L-534.033,-339.724C-539.642,-330.009 -539.642,-318.039 -534.033,-308.325L-365.086,-15.7C-359.477,-5.985 -349.112,0 -337.894,0L0,0C11.218,0 21.584,-5.985 27.193,-15.7L196.14,-308.325C201.748,-318.039 201.748,-330.009 196.14,-339.724L27.193,-632.348C21.584,-642.063 11.218,-648.048 0,-648.048M0,-647.048C10.826,-647.048 20.914,-641.224 26.327,-631.848L195.273,-339.224C200.686,-329.848 200.686,-318.2 195.273,-308.825L26.327,-16.2C20.914,-6.824 10.826,-1 0,-1L-337.894,-1C-348.72,-1 -358.807,-6.824 -364.22,-16.2L-533.167,-308.825C-538.58,-318.2 -538.58,-329.848 -533.167,-339.224L-364.22,-631.848C-358.807,-641.224 -348.72,-647.048 -337.894,-647.048L0,-647.048" style="fill:rgb(165,165,166);fill-rule:nonzero;"/>
            </g>
            <g transform="matrix(1.12048,0,0,1.12048,-65.0607,-133.594)">
                <g transform="matrix(1,0,0,1,678.025,685.504)">
                    <path d="M0,57.843L-276.05,57.843C-291.956,57.843 -304.971,44.828 -304.971,28.922C-304.971,13.015 -291.956,0 -276.05,0L0,0C15.907,0 28.921,13.015 28.921,28.922C28.921,44.828 15.907,57.843 0,57.843Z" style="fill:rgb(64,64,65);fill-rule:nonzero;stroke:rgb(165,164,165);stroke-width:1.27px;"/>
                </g>
                <g transform="matrix(0.399992,0,0,0.399992,-359.983,-360.122)">
                    <path d="M2050.72,2690.09L2032.11,2690.09L2032.11,2704.04L2053.87,2704.04L2053.87,2710.32L2024.24,2710.32L2024.24,2665.01L2053.65,2665.01L2053.65,2671.36L2032.11,2671.36L2032.11,2683.87L2050.72,2683.87L2050.72,2690.09Z" style="fill:white;fill-rule:nonzero;"/>
                    <path d="M2071.63,2687.73L2078.05,2676.65L2086.45,2676.65L2076.15,2693.24L2086.79,2710.32L2078.45,2710.32L2071.73,2698.81L2065.04,2710.32L2056.63,2710.32L2067.28,2693.24L2057.01,2676.65L2065.35,2676.65L2071.63,2687.73Z" style="fill:white;fill-rule:nonzero;"/>
                    <path d="M2121.09,2693.83C2121.09,2699.04 2119.9,2703.19 2117.54,2706.29C2115.17,2709.4 2112,2710.95 2108.01,2710.95C2104.32,2710.95 2101.37,2709.73 2099.14,2707.3L2099.14,2723.27L2091.58,2723.27L2091.58,2676.65L2098.55,2676.65L2098.87,2680.07C2101.09,2677.38 2104.1,2676.03 2107.92,2676.03C2112.03,2676.03 2115.25,2677.56 2117.59,2680.62C2119.92,2683.68 2121.09,2687.93 2121.09,2693.36L2121.09,2693.83ZM2113.55,2693.18C2113.55,2689.81 2112.89,2687.15 2111.55,2685.18C2110.21,2683.21 2108.3,2682.22 2105.8,2682.22C2102.71,2682.22 2100.49,2683.5 2099.14,2686.05L2099.14,2700.99C2100.51,2703.6 2102.76,2704.91 2105.87,2704.91C2108.27,2704.91 2110.16,2703.94 2111.52,2702C2112.88,2700.06 2113.55,2697.12 2113.55,2693.18Z" style="fill:white;fill-rule:nonzero;"/>
                    <path d="M2126.06,2693.18C2126.06,2689.88 2126.72,2686.9 2128.03,2684.26C2129.33,2681.61 2131.17,2679.58 2133.53,2678.16C2135.9,2676.74 2138.62,2676.03 2141.69,2676.03C2146.23,2676.03 2149.92,2677.49 2152.75,2680.41C2155.58,2683.34 2157.12,2687.22 2157.34,2692.05L2157.37,2693.83C2157.37,2697.15 2156.74,2700.12 2155.46,2702.73C2154.18,2705.34 2152.36,2707.37 2149.98,2708.8C2147.61,2710.23 2144.86,2710.95 2141.75,2710.95C2137,2710.95 2133.2,2709.37 2130.34,2706.2C2127.49,2703.04 2126.06,2698.82 2126.06,2693.55L2126.06,2693.18ZM2133.63,2693.83C2133.63,2697.29 2134.34,2700.01 2135.78,2701.97C2137.21,2703.93 2139.2,2704.91 2141.75,2704.91C2144.3,2704.91 2146.29,2703.91 2147.71,2701.92C2149.13,2699.93 2149.84,2697.01 2149.84,2693.18C2149.84,2689.77 2149.11,2687.08 2147.65,2685.08C2146.18,2683.09 2144.2,2682.1 2141.69,2682.1C2139.22,2682.1 2137.26,2683.08 2135.81,2685.04C2134.35,2687 2133.63,2689.93 2133.63,2693.83Z" style="fill:white;fill-rule:nonzero;"/>
                    <path d="M2170.79,2676.65L2171,2680.54C2173.49,2677.53 2176.76,2676.03 2180.81,2676.03C2187.82,2676.03 2191.39,2680.04 2191.51,2688.07L2191.51,2710.32L2183.95,2710.32L2183.95,2688.51C2183.95,2686.37 2183.49,2684.79 2182.57,2683.76C2181.64,2682.73 2180.13,2682.22 2178.04,2682.22C2174.99,2682.22 2172.72,2683.6 2171.22,2686.36L2171.22,2710.32L2163.66,2710.32L2163.66,2676.65L2170.79,2676.65Z" style="fill:white;fill-rule:nonzero;"/>
                    <path d="M2207.26,2710.32L2199.7,2710.32L2199.7,2676.65L2207.26,2676.65L2207.26,2710.32ZM2199.23,2667.9C2199.23,2666.74 2199.6,2665.78 2200.34,2665.01C2201.07,2664.24 2202.12,2663.86 2203.49,2663.86C2204.86,2663.86 2205.92,2664.24 2206.67,2665.01C2207.42,2665.78 2207.79,2666.74 2207.79,2667.9C2207.79,2669.05 2207.42,2669.99 2206.67,2670.75C2205.92,2671.51 2204.86,2671.89 2203.49,2671.89C2202.12,2671.89 2201.07,2671.51 2200.34,2670.75C2199.6,2669.99 2199.23,2669.05 2199.23,2667.9Z" style="fill:white;fill-rule:nonzero;"/>
                    <path d="M2230.32,2710.95C2225.53,2710.95 2221.64,2709.44 2218.66,2706.42C2215.69,2703.4 2214.2,2699.38 2214.2,2694.36L2214.2,2693.42C2214.2,2690.06 2214.85,2687.06 2216.14,2684.41C2217.44,2681.77 2219.26,2679.71 2221.61,2678.24C2223.95,2676.76 2226.57,2676.03 2229.45,2676.03C2234.03,2676.03 2237.58,2677.49 2240.08,2680.41C2242.58,2683.34 2243.83,2687.48 2243.83,2692.83L2243.83,2695.88L2221.82,2695.88C2222.05,2698.66 2222.98,2700.86 2224.61,2702.48C2226.24,2704.1 2228.29,2704.91 2230.76,2704.91C2234.22,2704.91 2237.04,2703.51 2239.22,2700.71L2243.3,2704.6C2241.95,2706.61 2240.15,2708.17 2237.9,2709.28C2235.65,2710.39 2233.12,2710.95 2230.32,2710.95ZM2229.42,2682.1C2227.34,2682.1 2225.67,2682.82 2224.39,2684.27C2223.12,2685.73 2222.3,2687.75 2221.95,2690.34L2236.36,2690.34L2236.36,2689.78C2236.19,2687.25 2235.52,2685.34 2234.34,2684.04C2233.15,2682.74 2231.51,2682.1 2229.42,2682.1Z" style="fill:white;fill-rule:nonzero;"/>
                    <path d="M2267.32,2683.56C2266.33,2683.39 2265.3,2683.31 2264.24,2683.31C2260.78,2683.31 2258.44,2684.64 2257.24,2687.29L2257.24,2710.32L2249.68,2710.32L2249.68,2676.65L2256.9,2676.65L2257.08,2680.41C2258.91,2677.49 2261.44,2676.03 2264.68,2676.03C2265.76,2676.03 2266.65,2676.17 2267.35,2676.46L2267.32,2683.56Z" style="fill:white;fill-rule:nonzero;"/>
                    <path d="M2283.13,2668.46L2283.13,2676.65L2289.08,2676.65L2289.08,2682.25L2283.13,2682.25L2283.13,2701.05C2283.13,2702.34 2283.39,2703.26 2283.89,2703.84C2284.4,2704.41 2285.31,2704.69 2286.62,2704.69C2287.49,2704.69 2288.37,2704.59 2289.26,2704.38L2289.26,2710.23C2287.54,2710.71 2285.88,2710.95 2284.28,2710.95C2278.47,2710.95 2275.57,2707.74 2275.57,2701.33L2275.57,2682.25L2270.03,2682.25L2270.03,2676.65L2275.57,2676.65L2275.57,2668.46L2283.13,2668.46Z" style="fill:white;fill-rule:nonzero;"/>
                    <path d="M2309.68,2710.95C2304.89,2710.95 2301,2709.44 2298.02,2706.42C2295.05,2703.4 2293.56,2699.38 2293.56,2694.36L2293.56,2693.42C2293.56,2690.06 2294.2,2687.06 2295.5,2684.41C2296.8,2681.77 2298.62,2679.71 2300.96,2678.24C2303.31,2676.76 2305.92,2676.03 2308.81,2676.03C2313.39,2676.03 2316.93,2677.49 2319.43,2680.41C2321.93,2683.34 2323.18,2687.48 2323.18,2692.83L2323.18,2695.88L2301.18,2695.88C2301.41,2698.66 2302.34,2700.86 2303.97,2702.48C2305.6,2704.1 2307.64,2704.91 2310.11,2704.91C2313.58,2704.91 2316.4,2703.51 2318.58,2700.71L2322.66,2704.6C2321.31,2706.61 2319.51,2708.17 2317.26,2709.28C2315.01,2710.39 2312.48,2710.95 2309.68,2710.95ZM2308.78,2682.1C2306.7,2682.1 2305.03,2682.82 2303.75,2684.27C2302.47,2685.73 2301.66,2687.75 2301.31,2690.34L2315.72,2690.34L2315.72,2689.78C2315.55,2687.25 2314.88,2685.34 2313.69,2684.04C2312.51,2682.74 2310.87,2682.1 2308.78,2682.1Z" style="fill:white;fill-rule:nonzero;"/>
                    <path d="M2353.55,2704.04L2374.12,2704.04L2374.12,2710.32L2345.68,2710.32L2345.68,2665.01L2353.55,2665.01L2353.55,2704.04Z" style="fill:white;fill-rule:nonzero;"/>
                    <path d="M2399.55,2710.32C2399.22,2709.68 2398.93,2708.63 2398.68,2707.18C2396.27,2709.69 2393.32,2710.95 2389.84,2710.95C2386.46,2710.95 2383.7,2709.98 2381.56,2708.05C2379.42,2706.12 2378.35,2703.74 2378.35,2700.89C2378.35,2697.3 2379.69,2694.55 2382.35,2692.63C2385.02,2690.71 2388.83,2689.75 2393.79,2689.75L2398.43,2689.75L2398.43,2687.54C2398.43,2685.8 2397.94,2684.4 2396.97,2683.36C2395.99,2682.31 2394.51,2681.78 2392.51,2681.78C2390.79,2681.78 2389.38,2682.22 2388.28,2683.08C2387.18,2683.94 2386.63,2685.03 2386.63,2686.36L2379.07,2686.36C2379.07,2684.51 2379.68,2682.79 2380.91,2681.18C2382.13,2679.57 2383.8,2678.31 2385.9,2677.4C2388.01,2676.48 2390.36,2676.03 2392.95,2676.03C2396.89,2676.03 2400.04,2677.02 2402.38,2679C2404.72,2680.98 2405.93,2683.77 2405.99,2687.36L2405.99,2702.54C2405.99,2705.57 2406.42,2707.99 2407.27,2709.8L2407.27,2710.32L2399.55,2710.32ZM2391.24,2704.88C2392.73,2704.88 2394.14,2704.51 2395.46,2703.79C2396.77,2703.06 2397.76,2702.09 2398.43,2700.86L2398.43,2694.51L2394.35,2694.51C2391.55,2694.51 2389.44,2695 2388.03,2695.98C2386.62,2696.95 2385.92,2698.33 2385.92,2700.12C2385.92,2701.57 2386.4,2702.72 2387.36,2703.59C2388.33,2704.45 2389.62,2704.88 2391.24,2704.88Z" style="fill:white;fill-rule:nonzero;"/>
                    <path d="M2412.59,2693.24C2412.59,2688.01 2413.82,2683.83 2416.28,2680.71C2418.73,2677.59 2422,2676.03 2426.06,2676.03C2429.9,2676.03 2432.92,2677.37 2435.12,2680.04L2435.46,2676.65L2442.28,2676.65L2442.28,2709.3C2442.28,2713.72 2440.9,2717.2 2438.15,2719.75C2435.41,2722.31 2431.7,2723.58 2427.03,2723.58C2424.56,2723.58 2422.15,2723.07 2419.79,2722.04C2417.44,2721.01 2415.65,2719.67 2414.42,2718.01L2418,2713.47C2420.33,2716.23 2423.19,2717.61 2426.59,2717.61C2429.1,2717.61 2431.08,2716.93 2432.54,2715.57C2433.99,2714.21 2434.72,2712.21 2434.72,2709.58L2434.72,2707.3C2432.54,2709.73 2429.63,2710.95 2426,2710.95C2422.06,2710.95 2418.84,2709.38 2416.34,2706.25C2413.84,2703.11 2412.59,2698.78 2412.59,2693.24ZM2420.12,2693.89C2420.12,2697.27 2420.81,2699.93 2422.19,2701.87C2423.57,2703.81 2425.48,2704.78 2427.93,2704.78C2430.98,2704.78 2433.24,2703.48 2434.72,2700.86L2434.72,2686.05C2433.28,2683.5 2431.04,2682.22 2427.99,2682.22C2425.5,2682.22 2423.57,2683.21 2422.19,2685.18C2420.81,2687.15 2420.12,2690.05 2420.12,2693.89Z" style="fill:white;fill-rule:nonzero;"/>
                    <path d="M2464.87,2710.95C2460.08,2710.95 2456.19,2709.44 2453.22,2706.42C2450.24,2703.4 2448.75,2699.38 2448.75,2694.36L2448.75,2693.42C2448.75,2690.06 2449.4,2687.06 2450.7,2684.41C2451.99,2681.77 2453.81,2679.71 2456.16,2678.24C2458.5,2676.76 2461.12,2676.03 2464,2676.03C2468.59,2676.03 2472.13,2677.49 2474.63,2680.41C2477.13,2683.34 2478.38,2687.48 2478.38,2692.83L2478.38,2695.88L2456.38,2695.88C2456.6,2698.66 2457.53,2700.86 2459.16,2702.48C2460.79,2704.1 2462.84,2704.91 2465.31,2704.91C2468.77,2704.91 2471.59,2703.51 2473.77,2700.71L2477.85,2704.6C2476.5,2706.61 2474.7,2708.17 2472.45,2709.28C2470.2,2710.39 2467.67,2710.95 2464.87,2710.95ZM2463.97,2682.1C2461.89,2682.1 2460.22,2682.82 2458.94,2684.27C2457.67,2685.73 2456.85,2687.75 2456.5,2690.34L2470.91,2690.34L2470.91,2689.78C2470.74,2687.25 2470.07,2685.34 2468.89,2684.04C2467.7,2682.74 2466.06,2682.1 2463.97,2682.1Z" style="fill:white;fill-rule:nonzero;"/>
                </g>
            </g>
        </g>
        <g id="AffectedPerson35" transform="matrix(1.45816,0,0,1.45816,1276.75,2222.61)">
            <g transform="matrix(1,0,0,1,371.053,216.935)">
                <path d="M0,647.047C-11.004,647.047 -21.258,641.127 -26.76,631.598L-195.707,338.973C-201.208,329.443 -201.208,317.604 -195.707,308.074L-26.76,15.449C-21.257,5.92 -11.004,0 0,0L337.894,0C348.897,0 359.151,5.92 364.654,15.449L533.6,308.074C539.102,317.604 539.102,329.443 533.6,338.973L364.654,631.598C359.151,641.127 348.898,647.047 337.894,647.047L0,647.047Z" style="fill:white;fill-rule:nonzero;"/>
            </g>
            <g transform="matrix(1,0,0,1,733.385,371.504)">
                <path d="M0,-142.023C-4.84,-150.405 -13.784,-155.569 -23.463,-155.569L-363.307,-155.569C-372.986,-155.569 -381.93,-150.405 -386.769,-142.023L-469.385,1.071C-383.992,9.12 -290.869,13.546 -193.385,13.546C-95.9,13.546 -2.778,9.12 82.615,1.071L0,-142.023Z" style="fill:rgb(230,116,116);fill-rule:nonzero;stroke:rgb(165,164,165);stroke-width:2.86px;"/>
            </g>
            <g transform="matrix(1.50118,0,0,1.50118,523.452,325.522)">
                <path d="M0,284.631L-131.292,153.339C-137.38,147.251 -137.38,137.38 -131.292,131.292L0,0C6.088,-6.088 15.959,-6.088 22.047,0L153.339,131.292C159.427,137.38 159.427,147.251 153.339,153.339L22.047,284.631C15.959,290.719 6.088,290.719 0,284.631Z" style="fill:rgb(243,243,244);fill-rule:nonzero;stroke:rgb(165,164,165);stroke-width:1.9px;"/>
            </g>
            <g transform="matrix(0.844964,0,0,0.962115,-1373.35,-1247.68)">
                <path d="M2155.75,1809.31L2193.48,1892.01L2231.21,1809.31L2250.94,1809.31L2250.94,1910.66L2235.72,1910.66L2235.72,1871.2L2237.15,1828.6L2199.26,1910.66L2187.61,1910.66L2149.81,1828.8L2151.31,1871.2L2151.31,1910.66L2136.09,1910.66L2136.09,1809.31L2155.75,1809.31Z" style="fill-rule:nonzero;"/>
                <path d="M2297.47,1809.31L2335.2,1892.01L2372.92,1809.31L2392.66,1809.31L2392.66,1910.66L2377.44,1910.66L2377.44,1871.2L2378.87,1828.6L2340.98,1910.66L2329.33,1910.66L2291.52,1828.8L2293.03,1871.2L2293.03,1910.66L2277.81,1910.66L2277.81,1809.31L2297.47,1809.31Z" style="fill-rule:nonzero;"/>
            </g>
            <g transform="matrix(1,0,0,1,708.947,864.483)">
                <path d="M0,-648.048L-337.894,-648.048C-349.112,-648.048 -359.477,-642.063 -365.086,-632.348L-534.033,-339.724C-539.642,-330.009 -539.642,-318.039 -534.033,-308.325L-365.086,-15.7C-359.477,-5.985 -349.112,0 -337.894,0L0,0C11.218,0 21.584,-5.985 27.193,-15.7L196.14,-308.325C201.748,-318.039 201.748,-330.009 196.14,-339.724L27.193,-632.348C21.584,-642.063 11.218,-648.048 0,-648.048M0,-647.048C10.826,-647.048 20.914,-641.224 26.327,-631.848L195.273,-339.224C200.686,-329.848 200.686,-318.2 195.273,-308.825L26.327,-16.2C20.914,-6.824 10.826,-1 0,-1L-337.894,-1C-348.72,-1 -358.807,-6.824 -364.22,-16.2L-533.167,-308.825C-538.58,-318.2 -538.58,-329.848 -533.167,-339.224L-364.22,-631.848C-358.807,-641.224 -348.72,-647.048 -337.894,-647.048L0,-647.048" style="fill:rgb(165,165,166);fill-rule:nonzero;"/>
            </g>
        </g>
    </g>
</svg>
