<?xml version="1.0" encoding="UTF-8" standalone="no"?>
<!DOCTYPE svg PUBLIC "-//W3C//DTD SVG 1.1//EN" "http://www.w3.org/Graphics/SVG/1.1/DTD/svg11.dtd">
<svg width="100%" height="100%" viewBox="0 0 4500 4500" version="1.1" xmlns="http://www.w3.org/2000/svg" xmlns:xlink="http://www.w3.org/1999/xlink" xml:space="preserve" xmlns:serif="http://www.serif.com/" style="fill-rule:evenodd;clip-rule:evenodd;stroke-miterlimit:10;">
    <g transform="matrix(1,0,0,1,-34.496,600.702)">
        <g id="AffectedObject100" transform="matrix(4.16667,0,0,4.16667,-676.784,-1082.41)">
            <g transform="matrix(1,0,0,1,371.053,216.935)">
                <path d="M0,647.047C-11.004,647.047 -21.258,641.127 -26.76,631.598L-195.707,338.973C-201.208,329.443 -201.208,317.604 -195.707,308.074L-26.76,15.449C-21.257,5.92 -11.004,0 0,0L337.894,0C348.897,0 359.151,5.92 364.654,15.449L533.6,308.074C539.102,317.604 539.102,329.443 533.6,338.973L364.654,631.598C359.151,641.127 348.898,647.047 337.894,647.047L0,647.047Z" style="fill:white;fill-rule:nonzero;"/>
            </g>
            <g transform="matrix(1,0,0,1,733.385,371.504)">
                <path d="M0,-142.023C-4.84,-150.405 -13.784,-155.569 -23.463,-155.569L-363.307,-155.569C-372.986,-155.569 -381.93,-150.405 -386.769,-142.023L-469.385,1.071C-383.992,9.12 -290.869,13.546 -193.385,13.546C-95.9,13.546 -2.778,9.12 82.615,1.071L0,-142.023Z" style="fill:rgb(232,116,115);fill-rule:nonzero;stroke:rgb(166,163,164);stroke-width:1px;"/>
            </g>
            <g transform="matrix(0.24,0,0,0.24,0,0)">
                <path d="M2871.51,1388.91C2871.51,1313.38 2810.19,1252.05 2734.65,1252.05L1765.35,1252.05C1689.81,1252.05 1628.49,1313.38 1628.49,1388.91L1628.49,1784.38C1628.49,1859.91 1689.81,1921.23 1765.35,1921.23L2734.65,1921.23C2810.19,1921.23 2871.51,1859.91 2871.51,1784.38L2871.51,1388.91Z" style="fill:rgb(244,244,244);stroke:rgb(204,204,204);stroke-width:4.17px;stroke-linecap:round;stroke-linejoin:round;stroke-miterlimit:1.5;"/>
            </g>
            <g id="tags">
                <g transform="matrix(1,0,0,1,671.494,645.915)">
                    <path d="M0,57.843L-262.986,57.843C-278.893,57.843 -291.908,44.828 -291.908,28.922C-291.908,13.015 -278.893,0 -262.986,0L0,0C15.907,0 28.921,13.015 28.921,28.922C28.921,44.828 15.907,57.843 0,57.843Z" style="fill:rgb(245,244,244);fill-rule:nonzero;stroke:rgb(166,163,164);stroke-width:1px;"/>
                </g>
                <g transform="matrix(0.282381,0,0,0.353613,-14.2025,-149.715)">
                    <path d="M1519.86,2335.39C1519.86,2341.3 1518.61,2346.46 1516.12,2350.87C1513.63,2355.27 1510.11,2358.63 1505.54,2360.95C1500.98,2363.27 1495.65,2364.43 1489.56,2364.43C1483.62,2364.43 1478.34,2363.26 1473.74,2360.93C1469.14,2358.6 1465.57,2355.27 1463.03,2350.95C1460.49,2346.63 1459.18,2341.62 1459.11,2335.93L1459.11,2331.58C1459.11,2325.78 1460.38,2320.66 1462.9,2316.21C1465.42,2311.77 1469,2308.36 1473.61,2306C1478.23,2303.64 1483.51,2302.46 1489.46,2302.46C1495.51,2302.46 1500.85,2303.63 1505.46,2305.96C1510.08,2308.29 1513.63,2311.68 1516.12,2316.11C1518.61,2320.54 1519.86,2325.7 1519.86,2331.58L1519.86,2335.39ZM1509.95,2331.5C1509.95,2324.35 1508.15,2318.86 1504.56,2315.03C1500.96,2311.21 1495.93,2309.3 1489.46,2309.3C1483.17,2309.3 1478.21,2311.21 1474.6,2315.03C1470.98,2318.86 1469.12,2324.17 1469.02,2330.96L1469.02,2335.39C1469.02,2342.32 1470.85,2347.77 1474.5,2351.74C1478.14,2355.7 1483.17,2357.68 1489.56,2357.68C1496,2357.68 1500.98,2355.81 1504.5,2352.07C1508.03,2348.32 1509.85,2342.96 1509.95,2335.97L1509.95,2331.5ZM1472.91,2293.89C1472.91,2292.64 1473.39,2291.6 1474.34,2290.76C1475.29,2289.91 1476.7,2289.49 1478.57,2289.49C1480.43,2289.49 1481.85,2289.91 1482.82,2290.76C1483.79,2291.6 1484.27,2292.64 1484.27,2293.89C1484.27,2295.13 1483.79,2296.16 1482.82,2296.99C1481.85,2297.82 1480.43,2298.23 1478.57,2298.23C1476.7,2298.23 1475.29,2297.82 1474.34,2296.99C1473.39,2296.16 1472.91,2295.13 1472.91,2293.89ZM1495.22,2293.97C1495.22,2292.72 1495.69,2291.68 1496.64,2290.82C1497.6,2289.96 1499.01,2289.53 1500.87,2289.53C1502.74,2289.53 1504.16,2289.96 1505.13,2290.82C1506.1,2291.68 1506.58,2292.72 1506.58,2293.97C1506.58,2295.21 1506.1,2296.25 1505.13,2297.07C1504.16,2297.9 1502.74,2298.32 1500.87,2298.32C1499.01,2298.32 1497.6,2297.9 1496.64,2297.07C1495.69,2296.25 1495.22,2295.21 1495.22,2293.97Z" style="fill:rgb(64,64,64);fill-rule:nonzero;"/>
                    <path d="M1538.03,2363.6L1538.03,2324.7L1529.15,2324.7L1529.15,2318.78L1538.03,2318.78L1538.03,2314.18C1538.03,2309.38 1539.63,2305.66 1542.85,2303.04C1546.07,2300.42 1550.61,2299.1 1556.49,2299.1C1558.71,2299.1 1560.9,2299.34 1563.08,2299.81L1562.56,2306.02C1560.94,2305.77 1559.21,2305.65 1557.38,2305.65C1554.26,2305.65 1551.86,2306.37 1550.16,2307.82C1548.47,2309.27 1547.62,2311.35 1547.62,2314.06L1547.62,2318.78L1559.61,2318.78L1559.61,2324.7L1547.62,2324.7L1547.62,2363.6L1538.03,2363.6Z" style="fill:rgb(64,64,64);fill-rule:nonzero;"/>
                    <path d="M1574.92,2363.6L1574.92,2324.7L1566.05,2324.7L1566.05,2318.78L1574.92,2318.78L1574.92,2314.18C1574.92,2309.38 1576.53,2305.66 1579.74,2303.04C1582.96,2300.42 1587.51,2299.1 1593.39,2299.1C1595.6,2299.1 1597.8,2299.34 1599.97,2299.81L1599.45,2306.02C1597.83,2305.77 1596.1,2305.65 1594.27,2305.65C1591.15,2305.65 1588.75,2306.37 1587.06,2307.82C1585.36,2309.27 1584.52,2311.35 1584.52,2314.06L1584.52,2318.78L1596.5,2318.78L1596.5,2324.7L1584.52,2324.7L1584.52,2363.6L1574.92,2363.6Z" style="fill:rgb(64,64,64);fill-rule:nonzero;"/>
                    <path d="M1629.14,2364.43C1621.53,2364.43 1615.34,2362.44 1610.57,2358.45C1605.8,2354.45 1603.41,2349.12 1603.41,2342.43L1603.41,2341.03C1603.41,2336.58 1604.47,2332.61 1606.6,2329.12C1608.73,2325.62 1611.7,2322.89 1615.52,2320.91C1619.34,2318.94 1623.48,2317.95 1627.94,2317.95C1635.24,2317.95 1640.91,2319.87 1644.96,2323.71C1649.01,2327.55 1651.03,2333.05 1651.03,2340.2L1651.03,2343.39L1613.01,2343.39C1613.14,2347.81 1614.76,2351.38 1617.86,2354.1C1620.95,2356.82 1624.88,2358.18 1629.66,2358.18C1633.05,2358.18 1635.92,2357.62 1638.27,2356.52C1640.62,2355.41 1642.68,2353.95 1644.44,2352.13L1650.3,2355.77C1645.6,2361.55 1638.55,2364.43 1629.14,2364.43ZM1627.94,2324.25C1624.07,2324.25 1620.82,2325.38 1618.19,2327.62C1615.56,2329.88 1613.94,2333.03 1613.32,2337.09L1641.43,2337.09L1641.43,2336.51C1641.16,2332.62 1639.84,2329.6 1637.49,2327.46C1635.14,2325.32 1631.96,2324.25 1627.94,2324.25Z" style="fill:rgb(64,64,64);fill-rule:nonzero;"/>
                    <path d="M1671.22,2318.78L1671.53,2324.41C1675.82,2320.11 1681.42,2317.95 1688.34,2317.95C1700.2,2317.95 1706.18,2323.3 1706.29,2333.98L1706.29,2363.6L1696.69,2363.6L1696.69,2333.94C1696.65,2330.71 1695.73,2328.32 1693.91,2326.78C1692.1,2325.23 1689.27,2324.46 1685.43,2324.46C1682.32,2324.46 1679.59,2325.12 1677.24,2326.45C1674.88,2327.77 1673.05,2329.51 1671.74,2331.66L1671.74,2363.6L1662.14,2363.6L1662.14,2318.78L1671.22,2318.78Z" style="fill:rgb(64,64,64);fill-rule:nonzero;"/>
                    <path d="M1733.79,2307.93L1733.79,2318.78L1744.27,2318.78L1744.27,2324.7L1733.79,2324.7L1733.79,2352.5C1733.79,2354.3 1734.26,2355.64 1735.19,2356.54C1736.12,2357.44 1737.72,2357.89 1739.96,2357.89C1741.07,2357.89 1742.59,2357.72 1744.53,2357.39L1744.53,2363.6C1742,2364.16 1739.55,2364.43 1737.16,2364.43C1732.87,2364.43 1729.64,2363.4 1727.46,2361.33C1725.28,2359.25 1724.19,2356.31 1724.19,2352.5L1724.19,2324.7L1713.97,2324.7L1713.97,2318.78L1724.19,2318.78L1724.19,2307.93L1733.79,2307.93Z" style="fill:rgb(64,64,64);fill-rule:nonzero;"/>
                    <rect x="1756.31" y="2299.97" width="9.597" height="63.629" style="fill:rgb(64,64,64);fill-rule:nonzero;"/>
                    <path d="M1791.7,2363.6L1782.11,2363.6L1782.11,2318.78L1791.7,2318.78L1791.7,2363.6ZM1781.33,2306.89C1781.33,2305.65 1781.8,2304.6 1782.76,2303.74C1783.71,2302.89 1785.12,2302.46 1786.98,2302.46C1788.85,2302.46 1790.27,2302.89 1791.24,2303.74C1792.2,2304.6 1792.69,2305.65 1792.69,2306.89C1792.69,2308.14 1792.2,2309.17 1791.24,2310C1790.27,2310.83 1788.85,2311.24 1786.98,2311.24C1785.12,2311.24 1783.71,2310.83 1782.76,2310C1781.8,2309.17 1781.33,2308.14 1781.33,2306.89Z" style="fill:rgb(64,64,64);fill-rule:nonzero;"/>
                    <path d="M1829.58,2358.18C1833.01,2358.18 1836,2357.35 1838.56,2355.69C1841.12,2354.03 1842.53,2351.96 1842.81,2349.48L1851.89,2349.48C1851.72,2352.05 1850.61,2354.49 1848.57,2356.81C1846.53,2359.13 1843.8,2360.98 1840.4,2362.36C1836.99,2363.74 1833.39,2364.43 1829.58,2364.43C1821.94,2364.43 1815.86,2362.39 1811.35,2358.32C1806.84,2354.25 1804.58,2348.68 1804.58,2341.61L1804.58,2340.32C1804.58,2335.96 1805.58,2332.08 1807.59,2328.68C1809.59,2325.28 1812.47,2322.65 1816.22,2320.77C1819.98,2318.89 1824.41,2317.95 1829.53,2317.95C1835.82,2317.95 1841.06,2319.46 1845.22,2322.47C1849.39,2325.48 1851.61,2329.39 1851.89,2334.19L1842.81,2334.19C1842.53,2331.29 1841.16,2328.91 1838.69,2327.05C1836.21,2325.18 1833.16,2324.25 1829.53,2324.25C1824.65,2324.25 1820.88,2325.65 1818.19,2328.45C1815.52,2331.26 1814.17,2335.31 1814.17,2340.61L1814.17,2342.06C1814.17,2347.23 1815.51,2351.2 1818.17,2353.99C1820.83,2356.78 1824.64,2358.18 1829.58,2358.18Z" style="fill:rgb(64,64,64);fill-rule:nonzero;"/>
                    <path d="M1872.29,2324.21C1876.54,2320.04 1882.07,2317.95 1888.88,2317.95C1900.75,2317.95 1906.73,2323.3 1906.83,2333.98L1906.83,2363.6L1897.24,2363.6L1897.24,2333.94C1897.2,2330.71 1896.28,2328.32 1894.46,2326.78C1892.65,2325.23 1889.82,2324.46 1885.98,2324.46C1882.87,2324.46 1880.14,2325.12 1877.78,2326.45C1875.43,2327.77 1873.6,2329.51 1872.29,2331.66L1872.29,2363.6L1862.69,2363.6L1862.69,2299.97L1872.29,2299.97L1872.29,2324.21Z" style="fill:rgb(64,64,64);fill-rule:nonzero;"/>
                    <path d="M1944.51,2364.43C1936.9,2364.43 1930.71,2362.44 1925.93,2358.45C1921.16,2354.45 1918.78,2349.12 1918.78,2342.43L1918.78,2341.03C1918.78,2336.58 1919.84,2332.61 1921.97,2329.12C1924.09,2325.62 1927.07,2322.89 1930.89,2320.91C1934.71,2318.94 1938.85,2317.95 1943.31,2317.95C1950.61,2317.95 1956.28,2319.87 1960.33,2323.71C1964.37,2327.55 1966.4,2333.05 1966.4,2340.2L1966.4,2343.39L1928.37,2343.39C1928.51,2347.81 1930.13,2351.38 1933.22,2354.1C1936.32,2356.82 1940.25,2358.18 1945.02,2358.18C1948.41,2358.18 1951.28,2357.62 1953.63,2356.52C1955.99,2355.41 1958.04,2353.95 1959.81,2352.13L1965.67,2355.77C1960.97,2361.55 1953.91,2364.43 1944.51,2364.43ZM1943.31,2324.25C1939.44,2324.25 1936.19,2325.38 1933.56,2327.62C1930.93,2329.88 1929.31,2333.03 1928.68,2337.09L1956.8,2337.09L1956.8,2336.51C1956.52,2332.62 1955.21,2329.6 1952.86,2327.46C1950.51,2325.32 1947.32,2324.25 1943.31,2324.25Z" style="fill:rgb(64,64,64);fill-rule:nonzero;"/>
                    <path d="M2010.19,2351.71C2010.19,2349.64 2009.21,2348.03 2007.26,2346.89C2005.3,2345.74 2001.9,2344.76 1997.04,2343.93C1992.18,2343.1 1988.32,2342.1 1985.47,2340.94C1982.62,2339.78 1980.51,2338.4 1979.14,2336.8C1977.78,2335.2 1977.09,2333.29 1977.09,2331.08C1977.09,2327.41 1979.04,2324.3 1982.93,2321.76C1986.82,2319.22 1991.79,2317.95 1997.84,2317.95C2004.21,2317.95 2009.37,2319.26 2013.33,2321.89C2017.29,2324.51 2019.27,2327.87 2019.27,2331.95L2009.62,2331.95C2009.62,2329.86 2008.5,2328.05 2006.27,2326.53C2004.04,2325.01 2001.23,2324.25 1997.84,2324.25C1994.35,2324.25 1991.62,2324.86 1989.65,2326.07C1987.67,2327.29 1986.69,2328.88 1986.69,2330.84C1986.69,2332.69 1987.61,2334.08 1989.44,2335.02C1991.27,2335.96 1994.58,2336.86 1999.37,2337.71C2004.16,2338.57 2008.05,2339.59 2011.02,2340.78C2013.99,2341.97 2016.2,2343.39 2017.63,2345.07C2019.07,2346.74 2019.79,2348.77 2019.79,2351.18C2019.79,2355.18 2017.78,2358.39 2013.77,2360.81C2009.76,2363.22 2004.55,2364.43 1998.15,2364.43C1993.66,2364.43 1989.68,2363.8 1986.22,2362.53C1982.76,2361.26 1980.06,2359.48 1978.1,2357.2C1976.15,2354.92 1975.17,2352.46 1975.17,2349.81L1984.77,2349.81C1984.94,2352.38 1986.23,2354.41 1988.63,2355.92C1991.04,2357.42 1994.21,2358.18 1998.15,2358.18C2001.79,2358.18 2004.7,2357.59 2006.89,2356.42C2009.09,2355.24 2010.19,2353.68 2010.19,2351.71Z" style="fill:rgb(64,64,64);fill-rule:nonzero;"/>
                    <path d="M2115.88,2355.69C2113.32,2358.62 2109.75,2360.81 2105.17,2362.26C2100.58,2363.71 2095.25,2364.43 2089.16,2364.43C2083.01,2364.43 2077.54,2363.28 2072.77,2360.97C2068,2358.67 2064.31,2355.39 2061.7,2351.13C2059.08,2346.88 2057.74,2341.95 2057.68,2336.35L2057.68,2331.08C2057.68,2322 2060.33,2314.96 2065.64,2309.96C2070.95,2304.96 2078.41,2302.46 2088.02,2302.46C2095.91,2302.46 2102.25,2304.07 2107.06,2307.29C2111.87,2310.5 2114.81,2315.07 2115.88,2320.98L2105.92,2320.98C2104.05,2312.99 2098.1,2309.01 2088.07,2309.01C2081.4,2309.01 2076.34,2310.88 2072.9,2314.62C2069.46,2318.36 2067.72,2323.78 2067.69,2330.88L2067.69,2335.81C2067.69,2342.57 2069.62,2347.95 2073.5,2351.94C2077.37,2355.93 2082.61,2357.93 2089.22,2357.93C2092.95,2357.93 2096.22,2357.6 2099.02,2356.93C2101.82,2356.27 2104.14,2355.15 2105.97,2353.58L2105.97,2340.03L2088.49,2340.03L2088.49,2333.57L2115.88,2333.57L2115.88,2355.69Z" style="fill:rgb(64,64,64);fill-rule:nonzero;"/>
                    <path d="M2154.28,2364.43C2146.67,2364.43 2140.48,2362.44 2135.7,2358.45C2130.93,2354.45 2128.55,2349.12 2128.55,2342.43L2128.55,2341.03C2128.55,2336.58 2129.61,2332.61 2131.74,2329.12C2133.86,2325.62 2136.84,2322.89 2140.66,2320.91C2144.48,2318.94 2148.62,2317.95 2153.08,2317.95C2160.38,2317.95 2166.05,2319.87 2170.1,2323.71C2174.14,2327.55 2176.17,2333.05 2176.17,2340.2L2176.17,2343.39L2138.14,2343.39C2138.28,2347.81 2139.9,2351.38 2142.99,2354.1C2146.09,2356.82 2150.02,2358.18 2154.8,2358.18C2158.18,2358.18 2161.05,2357.62 2163.41,2356.52C2165.76,2355.41 2167.82,2353.95 2169.58,2352.13L2175.44,2355.77C2170.74,2361.55 2163.68,2364.43 2154.28,2364.43ZM2153.08,2324.25C2149.21,2324.25 2145.96,2325.38 2143.33,2327.62C2140.7,2329.88 2139.08,2333.03 2138.45,2337.09L2166.57,2337.09L2166.57,2336.51C2166.29,2332.62 2164.98,2329.6 2162.63,2327.46C2160.28,2325.32 2157.1,2324.25 2153.08,2324.25Z" style="fill:rgb(64,64,64);fill-rule:nonzero;"/>
                    <path d="M2234.8,2341.69C2234.8,2348.54 2232.83,2354.04 2228.88,2358.2C2224.94,2362.35 2219.65,2364.43 2213.01,2364.43C2205.92,2364.43 2200.44,2362.43 2196.56,2358.43L2196.1,2363.6L2187.28,2363.6L2187.28,2299.97L2196.88,2299.97L2196.88,2323.71C2200.75,2319.87 2206.09,2317.95 2212.91,2317.95C2219.72,2317.95 2225.07,2320.01 2228.96,2324.12C2232.85,2328.24 2234.8,2333.87 2234.8,2341.03L2234.8,2341.69ZM2225.2,2340.82C2225.2,2335.6 2223.94,2331.57 2221.41,2328.72C2218.89,2325.88 2215.26,2324.46 2210.52,2324.46C2204.19,2324.46 2199.64,2326.8 2196.88,2331.5L2196.88,2350.89C2199.82,2355.58 2204.4,2357.93 2210.62,2357.93C2215.22,2357.93 2218.8,2356.51 2221.36,2353.66C2223.92,2350.82 2225.2,2346.54 2225.2,2340.82Z" style="fill:rgb(64,64,64);fill-rule:nonzero;"/>
                    <path d="M2281.55,2363.6C2280.99,2362.72 2280.54,2361.14 2280.2,2358.88C2275.74,2362.58 2270.41,2364.43 2264.22,2364.43C2258.69,2364.43 2254.15,2363.18 2250.6,2360.68C2247.06,2358.18 2245.28,2355.01 2245.28,2351.18C2245.28,2346.51 2247.51,2342.88 2251.95,2340.3C2256.39,2337.72 2262.65,2336.43 2270.7,2336.43L2280.04,2336.43L2280.04,2332.91C2280.04,2330.23 2279.04,2328.1 2277.03,2326.51C2275.03,2324.92 2272.07,2324.12 2268.16,2324.12C2264.74,2324.12 2261.87,2324.82 2259.55,2326.2C2257.23,2327.58 2256.08,2329.25 2256.08,2331.21L2246.43,2331.21C2246.43,2328.97 2247.42,2326.81 2249.41,2324.73C2251.4,2322.64 2254.1,2320.99 2257.5,2319.78C2260.91,2318.56 2264.65,2317.95 2268.73,2317.95C2275.2,2317.95 2280.27,2319.24 2283.93,2321.83C2287.6,2324.41 2289.5,2327.96 2289.64,2332.49L2289.64,2353.12C2289.64,2357.24 2290.3,2360.51 2291.61,2362.94L2291.61,2363.6L2281.55,2363.6ZM2265.62,2357.76C2268.63,2357.76 2271.48,2357.14 2274.18,2355.9C2276.88,2354.66 2278.83,2353.04 2280.04,2351.05L2280.04,2341.86L2272.52,2341.86C2260.76,2341.86 2254.88,2344.6 2254.88,2350.1C2254.88,2352.5 2255.89,2354.38 2257.89,2355.73C2259.9,2357.09 2262.47,2357.76 2265.62,2357.76ZM2253.07,2306.81C2253.07,2305.57 2253.54,2304.52 2254.49,2303.68C2255.44,2302.84 2256.85,2302.42 2258.72,2302.42C2260.59,2302.42 2262.01,2302.84 2262.97,2303.68C2263.94,2304.52 2264.43,2305.57 2264.43,2306.81C2264.43,2308.05 2263.94,2309.09 2262.97,2309.92C2262.01,2310.74 2260.59,2311.16 2258.72,2311.16C2256.85,2311.16 2255.44,2310.74 2254.49,2309.92C2253.54,2309.09 2253.07,2308.05 2253.07,2306.81ZM2275.37,2306.89C2275.37,2305.65 2275.85,2304.6 2276.8,2303.74C2277.75,2302.89 2279.16,2302.46 2281.03,2302.46C2282.89,2302.46 2284.31,2302.89 2285.28,2303.74C2286.25,2304.6 2286.73,2305.65 2286.73,2306.89C2286.73,2308.14 2286.25,2309.17 2285.28,2310C2284.31,2310.83 2282.89,2311.24 2281.03,2311.24C2279.16,2311.24 2277.75,2310.83 2276.8,2310C2275.85,2309.17 2275.37,2308.14 2275.37,2306.89Z" style="fill:rgb(64,64,64);fill-rule:nonzero;"/>
                    <path d="M2339.34,2359.17C2335.61,2362.68 2330.13,2364.43 2322.9,2364.43C2316.92,2364.43 2312.36,2363.04 2309.23,2360.27C2306.1,2357.49 2304.52,2353.39 2304.48,2347.94L2304.48,2318.78L2314.08,2318.78L2314.08,2347.74C2314.08,2354.53 2317.54,2357.93 2324.46,2357.93C2331.79,2357.93 2336.66,2355.75 2339.09,2351.38L2339.09,2318.78L2348.68,2318.78L2348.68,2363.6L2339.55,2363.6L2339.34,2359.17Z" style="fill:rgb(64,64,64);fill-rule:nonzero;"/>
                    <path d="M2360.93,2340.82C2360.93,2333.94 2362.97,2328.41 2367.06,2324.23C2371.14,2320.05 2376.48,2317.95 2383.09,2317.95C2389.66,2317.95 2394.86,2319.75 2398.7,2323.34L2398.7,2299.97L2408.3,2299.97L2408.3,2363.6L2399.48,2363.6L2399.01,2358.8C2395.17,2362.55 2389.83,2364.43 2382.98,2364.43C2376.48,2364.43 2371.18,2362.3 2367.08,2358.05C2362.98,2353.8 2360.93,2348.25 2360.93,2341.4L2360.93,2340.82ZM2370.53,2341.69C2370.53,2346.77 2371.85,2350.75 2374.47,2353.62C2377.1,2356.49 2380.73,2357.93 2385.37,2357.93C2391.45,2357.93 2395.9,2355.75 2398.7,2351.38L2398.7,2330.79C2395.83,2326.57 2391.42,2324.46 2385.47,2324.46C2380.77,2324.46 2377.1,2325.91 2374.47,2328.81C2371.85,2331.71 2370.53,2336 2370.53,2341.69Z" style="fill:rgb(64,64,64);fill-rule:nonzero;"/>
                    <path d="M2446.49,2364.43C2438.88,2364.43 2432.69,2362.44 2427.91,2358.45C2423.14,2354.45 2420.76,2349.12 2420.76,2342.43L2420.76,2341.03C2420.76,2336.58 2421.82,2332.61 2423.95,2329.12C2426.07,2325.62 2429.05,2322.89 2432.87,2320.91C2436.69,2318.94 2440.83,2317.95 2445.29,2317.95C2452.59,2317.95 2458.26,2319.87 2462.31,2323.71C2466.35,2327.55 2468.38,2333.05 2468.38,2340.2L2468.38,2343.39L2430.35,2343.39C2430.49,2347.81 2432.11,2351.38 2435.2,2354.1C2438.3,2356.82 2442.23,2358.18 2447.01,2358.18C2450.39,2358.18 2453.26,2357.62 2455.62,2356.52C2457.97,2355.41 2460.03,2353.95 2461.79,2352.13L2467.65,2355.77C2462.95,2361.55 2455.89,2364.43 2446.49,2364.43ZM2445.29,2324.25C2441.42,2324.25 2438.17,2325.38 2435.54,2327.62C2432.91,2329.88 2431.29,2333.03 2430.66,2337.09L2458.78,2337.09L2458.78,2336.51C2458.5,2332.62 2457.19,2329.6 2454.84,2327.46C2452.49,2325.32 2449.3,2324.25 2445.29,2324.25Z" style="fill:rgb(64,64,64);fill-rule:nonzero;"/>
                </g>
                <g transform="matrix(1,0,0,1,678.025,573.773)">
                    <path d="M0,57.843L-276.05,57.843C-291.956,57.843 -304.971,44.828 -304.971,28.922C-304.971,13.015 -291.956,0 -276.05,0L0,0C15.907,0 28.921,13.015 28.921,28.922C28.921,44.828 15.907,57.843 0,57.843Z" style="fill:rgb(66,64,64);fill-rule:nonzero;stroke:rgb(166,163,164);stroke-width:1px;"/>
                </g>
                <g transform="matrix(0.934667,0,0,0.560138,-18.2041,243.869)">
                    <path d="M448.423,653.494L454.762,620.936L459.524,620.936L450.548,662.555L446.351,662.555L437.409,620.936L442.154,620.936L448.423,653.494Z" style="fill:white;fill-rule:nonzero;"/>
                    <path d="M469.338,663.127C466.7,663.127 464.562,661.74 462.923,658.968C461.284,656.195 460.465,652.503 460.465,647.891L460.465,647.034C460.465,643.947 460.822,641.188 461.536,638.759C462.249,636.329 463.251,634.438 464.542,633.085C465.832,631.732 467.271,631.055 468.859,631.055C471.383,631.055 473.333,632.399 474.709,635.086C476.085,637.772 476.773,641.574 476.773,646.491L476.773,649.292L464.662,649.292C464.788,651.845 465.299,653.865 466.195,655.352C467.092,656.838 468.219,657.581 469.578,657.581C471.485,657.581 473.039,656.295 474.238,653.722L476.482,657.295C475.739,659.144 474.749,660.578 473.51,661.597C472.271,662.617 470.88,663.127 469.338,663.127ZM468.842,636.629C467.7,636.629 466.777,637.296 466.075,638.63C465.373,639.964 464.925,641.822 464.73,644.204L472.662,644.204L472.662,643.689C472.57,641.365 472.199,639.607 471.548,638.416C470.897,637.225 469.995,636.629 468.842,636.629Z" style="fill:white;fill-rule:nonzero;"/>
                    <path d="M489.705,637.973C489.157,637.82 488.592,637.744 488.009,637.744C486.102,637.744 484.817,638.963 484.155,641.403L484.155,662.555L479.992,662.555L479.992,631.627L483.967,631.627L484.069,635.086C485.074,632.399 486.468,631.055 488.249,631.055C488.843,631.055 489.334,631.189 489.722,631.455L489.705,637.973Z" style="fill:white;fill-rule:nonzero;"/>
                    <path d="M502.723,654.151C502.723,652.913 502.418,651.969 501.807,651.321C501.196,650.673 500.182,650.102 498.766,649.606C497.35,649.111 496.168,648.482 495.22,647.72C493.142,646.043 492.103,643.613 492.103,640.431C492.103,637.763 492.776,635.533 494.124,633.742C495.471,631.951 497.185,631.055 499.263,631.055C501.479,631.055 503.269,631.97 504.633,633.799C505.998,635.629 506.68,638.001 506.68,640.917L502.518,640.917C502.518,639.583 502.221,638.473 501.627,637.587C501.033,636.701 500.245,636.257 499.263,636.257C498.349,636.257 497.604,636.61 497.027,637.315C496.451,638.02 496.162,638.963 496.162,640.145C496.162,641.212 496.431,642.041 496.968,642.632C497.504,643.222 498.589,643.818 500.222,644.418C501.855,645.019 503.137,645.733 504.068,646.562C504.999,647.391 505.69,648.387 506.141,649.549C506.592,650.712 506.817,652.122 506.817,653.78C506.817,656.562 506.127,658.815 504.745,660.54C503.363,662.264 501.553,663.127 499.314,663.127C497.795,663.127 496.442,662.669 495.255,661.755C494.067,660.84 493.142,659.582 492.479,657.981C491.817,656.381 491.486,654.656 491.486,652.808L495.529,652.808C495.586,654.447 495.957,655.709 496.642,656.595C497.327,657.481 498.235,657.924 499.366,657.924C500.462,657.924 501.296,657.576 501.867,656.881C502.438,656.185 502.723,655.275 502.723,654.151Z" style="fill:white;fill-rule:nonzero;"/>
                    <path d="M526.67,647.405C526.67,652.188 526.019,656.004 524.718,658.853C523.416,661.702 521.668,663.127 519.476,663.127C517.443,663.127 515.816,662.012 514.594,659.782L514.594,674.446L510.431,674.446L510.431,631.627L514.268,631.627L514.439,634.771C515.661,632.294 517.323,631.055 519.424,631.055C521.685,631.055 523.458,632.461 524.743,635.271C526.028,638.082 526.67,641.984 526.67,646.977L526.67,647.405ZM522.525,646.805C522.525,643.718 522.157,641.269 521.42,639.459C520.683,637.649 519.63,636.743 518.259,636.743C516.558,636.743 515.336,637.915 514.594,640.259L514.594,653.98C515.347,656.381 516.581,657.581 518.294,657.581C519.618,657.581 520.655,656.69 521.403,654.909C522.151,653.127 522.525,650.426 522.525,646.805Z" style="fill:white;fill-rule:nonzero;"/>
                    <path d="M538.352,663.127C535.714,663.127 533.576,661.74 531.937,658.968C530.298,656.195 529.479,652.503 529.479,647.891L529.479,647.034C529.479,643.947 529.836,641.188 530.549,638.759C531.263,636.329 532.265,634.438 533.556,633.085C534.846,631.732 536.285,631.055 537.873,631.055C540.396,631.055 542.346,632.399 543.723,635.086C545.099,637.772 545.787,641.574 545.787,646.491L545.787,649.292L533.676,649.292C533.801,651.845 534.312,653.865 535.209,655.352C536.105,656.838 537.233,657.581 538.592,657.581C540.499,657.581 542.052,656.295 543.251,653.722L545.496,657.295C544.753,659.144 543.763,660.578 542.523,661.597C541.284,662.617 539.894,663.127 538.352,663.127ZM537.855,636.629C536.713,636.629 535.791,637.296 535.089,638.63C534.387,639.964 533.938,641.822 533.744,644.204L541.676,644.204L541.676,643.689C541.584,641.365 541.213,639.607 540.562,638.416C539.911,637.225 539.009,636.629 537.855,636.629Z" style="fill:white;fill-rule:nonzero;"/>
                    <path d="M558.719,637.973C558.171,637.82 557.606,637.744 557.023,637.744C555.116,637.744 553.831,638.963 553.169,641.403L553.169,662.555L549.006,662.555L549.006,631.627L552.98,631.627L553.083,635.086C554.088,632.399 555.481,631.055 557.263,631.055C557.857,631.055 558.348,631.189 558.736,631.455L558.719,637.973Z" style="fill:white;fill-rule:nonzero;"/>
                    <path d="M571.052,637.973C570.504,637.82 569.938,637.744 569.356,637.744C567.449,637.744 566.164,638.963 565.502,641.403L565.502,662.555L561.339,662.555L561.339,631.627L565.313,631.627L565.416,635.086C566.421,632.399 567.814,631.055 569.596,631.055C570.19,631.055 570.681,631.189 571.069,631.455L571.052,637.973Z" style="fill:white;fill-rule:nonzero;"/>
                    <path d="M579.753,624.109L579.753,631.627L583.025,631.627L583.025,636.772L579.753,636.772L579.753,654.037C579.753,655.218 579.893,656.071 580.173,656.595C580.453,657.119 580.952,657.381 581.672,657.381C582.151,657.381 582.637,657.286 583.128,657.095L583.128,662.469C582.18,662.907 581.266,663.127 580.387,663.127C577.189,663.127 575.59,660.182 575.59,654.294L575.59,636.772L572.541,636.772L572.541,631.627L575.59,631.627L575.59,624.109L579.753,624.109Z" style="fill:white;fill-rule:nonzero;"/>
                    <path d="M594.364,663.127C591.726,663.127 589.588,661.74 587.949,658.968C586.31,656.195 585.491,652.503 585.491,647.891L585.491,647.034C585.491,643.947 585.848,641.188 586.561,638.759C587.275,636.329 588.277,634.438 589.568,633.085C590.858,631.732 592.297,631.055 593.885,631.055C596.408,631.055 598.358,632.399 599.734,635.086C601.111,637.772 601.799,641.574 601.799,646.491L601.799,649.292L589.688,649.292C589.813,651.845 590.324,653.865 591.221,655.352C592.117,656.838 593.245,657.581 594.604,657.581C596.511,657.581 598.064,656.295 599.263,653.722L601.507,657.295C600.765,659.144 599.774,660.578 598.535,661.597C597.296,662.617 595.906,663.127 594.364,663.127ZM593.867,636.629C592.725,636.629 591.803,637.296 591.101,638.63C590.399,639.964 589.95,641.822 589.756,644.204L597.687,644.204L597.687,643.689C597.596,641.365 597.225,639.607 596.574,638.416C595.923,637.225 595.021,636.629 593.867,636.629Z" style="fill:white;fill-rule:nonzero;"/>
                    <path d="M604.247,646.862C604.247,642.098 604.91,638.273 606.234,635.386C607.559,632.499 609.335,631.055 611.562,631.055C613.526,631.055 615.114,632.199 616.324,634.485L616.324,618.65L620.487,618.65L620.487,662.555L616.718,662.555L616.513,659.353C615.268,661.869 613.606,663.127 611.528,663.127C609.358,663.127 607.602,661.669 606.26,658.753C604.918,655.838 604.247,651.874 604.247,646.862ZM608.41,647.462C608.41,650.607 608.773,653.06 609.498,654.823C610.223,656.586 611.254,657.467 612.59,657.467C614.291,657.467 615.536,656.2 616.324,653.665L616.324,640.459C615.559,637.982 614.326,636.743 612.624,636.743C611.276,636.743 610.237,637.634 609.506,639.416C608.775,641.198 608.41,643.88 608.41,647.462Z" style="fill:white;fill-rule:nonzero;"/>
                    <path d="M653.097,657.152C652.195,659.115 650.944,660.602 649.346,661.612C647.747,662.622 645.931,663.127 643.898,663.127C641.808,663.127 639.958,662.336 638.348,660.754C636.738,659.172 635.496,656.91 634.622,653.965C633.749,651.021 633.295,647.586 633.26,643.661L633.26,640.402C633.26,634.114 634.162,629.202 635.967,625.667C637.771,622.132 640.289,620.365 643.521,620.365C646.296,620.365 648.501,621.508 650.134,623.795C651.767,626.082 652.749,629.378 653.08,633.685L648.832,633.685C648.352,628.673 646.61,626.167 643.607,626.167C641.666,626.167 640.189,627.334 639.179,629.669C638.168,632.003 637.646,635.429 637.611,639.945L637.611,643.146C637.611,647.643 638.18,651.136 639.316,653.622C640.452,656.109 642.031,657.353 644.052,657.353C646.268,657.353 647.844,656.514 648.78,654.837L648.78,646.691L643.641,646.691L643.641,641.203L653.097,641.203L653.097,657.152Z" style="fill:white;fill-rule:nonzero;"/>
                    <path d="M665.618,663.127C662.98,663.127 660.842,661.74 659.203,658.968C657.564,656.195 656.745,652.503 656.745,647.891L656.745,647.034C656.745,643.947 657.102,641.188 657.816,638.759C658.529,636.329 659.531,634.438 660.822,633.085C662.112,631.732 663.551,631.055 665.139,631.055C667.663,631.055 669.613,632.399 670.989,635.086C672.365,637.772 673.053,641.574 673.053,646.491L673.053,649.292L660.942,649.292C661.067,651.845 661.578,653.865 662.475,655.352C663.371,656.838 664.499,657.581 665.858,657.581C667.765,657.581 669.318,656.295 670.518,653.722L672.762,657.295C672.019,659.144 671.029,660.578 669.79,661.597C668.55,662.617 667.16,663.127 665.618,663.127ZM665.122,636.629C663.98,636.629 663.057,637.296 662.355,638.63C661.653,639.964 661.204,641.822 661.01,644.204L668.942,644.204L668.942,643.689C668.85,641.365 668.479,639.607 667.828,638.416C667.177,637.225 666.275,636.629 665.122,636.629Z" style="fill:white;fill-rule:nonzero;"/>
                    <rect x="676.546" y="618.65" width="4.163" height="43.905" style="fill:white;fill-rule:nonzero;"/>
                    <path d="M696.314,662.555C696.131,661.964 695.971,661.002 695.834,659.668C694.509,661.974 692.888,663.127 690.969,663.127C689.108,663.127 687.589,662.24 686.412,660.468C685.236,658.696 684.648,656.505 684.648,653.894C684.648,650.597 685.382,648.067 686.849,646.305C688.317,644.542 690.415,643.661 693.145,643.661L695.697,643.661L695.697,641.631C695.697,640.031 695.429,638.749 694.892,637.787C694.355,636.824 693.539,636.343 692.442,636.343C691.494,636.343 690.718,636.739 690.113,637.529C689.507,638.32 689.205,639.325 689.205,640.545L685.042,640.545C685.042,638.849 685.379,637.263 686.053,635.786C686.727,634.309 687.643,633.151 688.802,632.313C689.961,631.474 691.255,631.055 692.682,631.055C694.852,631.055 696.582,631.965 697.873,633.785C699.163,635.605 699.825,638.163 699.86,641.46L699.86,655.409C699.86,658.191 700.094,660.411 700.562,662.069L700.562,662.555L696.314,662.555ZM691.74,657.553C692.562,657.553 693.336,657.219 694.061,656.552C694.786,655.885 695.332,654.99 695.697,653.865L695.697,648.034L693.453,648.034C691.911,648.034 690.752,648.482 689.976,649.378C689.199,650.273 688.811,651.54 688.811,653.179C688.811,654.513 689.076,655.576 689.607,656.366C690.138,657.157 690.849,657.553 691.74,657.553ZM686.755,623.509C686.755,622.556 686.946,621.756 687.329,621.108C687.712,620.46 688.24,620.136 688.913,620.136C689.587,620.136 690.118,620.46 690.507,621.108C690.895,621.756 691.089,622.556 691.089,623.509C691.089,624.462 690.895,625.262 690.507,625.91C690.118,626.558 689.587,626.882 688.913,626.882C688.24,626.882 687.712,626.558 687.329,625.91C686.946,625.262 686.755,624.462 686.755,623.509ZM694.584,623.538C694.584,622.585 694.775,621.784 695.157,621.136C695.54,620.489 696.068,620.165 696.742,620.165C697.416,620.165 697.947,620.489 698.335,621.136C698.723,621.784 698.918,622.585 698.918,623.538C698.918,624.49 698.723,625.291 698.335,625.939C697.947,626.586 697.416,626.91 696.742,626.91C696.068,626.91 695.54,626.586 695.157,625.939C694.775,625.291 694.584,624.49 694.584,623.538Z" style="fill:white;fill-rule:nonzero;"/>
                    <path d="M708.081,631.627L708.201,635.2C709.572,632.437 711.37,631.055 713.597,631.055C717.457,631.055 719.421,634.743 719.49,642.117L719.49,662.555L715.327,662.555L715.327,642.517C715.327,640.555 715.073,639.102 714.565,638.158C714.057,637.215 713.226,636.743 712.073,636.743C710.394,636.743 709.143,638.011 708.321,640.545L708.321,662.555L704.158,662.555L704.158,631.627L708.081,631.627Z" style="fill:white;fill-rule:nonzero;"/>
                    <path d="M722.949,646.862C722.949,642.098 723.612,638.273 724.936,635.386C726.261,632.499 728.037,631.055 730.264,631.055C732.228,631.055 733.816,632.199 735.026,634.485L735.026,618.65L739.189,618.65L739.189,662.555L735.42,662.555L735.215,659.353C733.97,661.869 732.308,663.127 730.23,663.127C728.06,663.127 726.304,661.669 724.962,658.753C723.62,655.838 722.949,651.874 722.949,646.862ZM727.112,647.462C727.112,650.607 727.475,653.06 728.2,654.823C728.925,656.586 729.956,657.467 731.292,657.467C732.993,657.467 734.238,656.2 735.026,653.665L735.026,640.459C734.261,637.982 733.028,636.743 731.326,636.743C729.978,636.743 728.939,637.634 728.208,639.416C727.477,641.198 727.112,643.88 727.112,647.462Z" style="fill:white;fill-rule:nonzero;"/>
                    <path d="M751.693,663.127C749.055,663.127 746.916,661.74 745.278,658.968C743.639,656.195 742.819,652.503 742.819,647.891L742.819,647.034C742.819,643.947 743.176,641.188 743.89,638.759C744.604,636.329 745.606,634.438 746.896,633.085C748.187,631.732 749.626,631.055 751.213,631.055C753.737,631.055 755.687,632.399 757.063,635.086C758.439,637.772 759.127,641.574 759.127,646.491L759.127,649.292L747.016,649.292C747.142,651.845 747.653,653.865 748.549,655.352C749.446,656.838 750.574,657.581 751.933,657.581C753.84,657.581 755.393,656.295 756.592,653.722L758.836,657.295C758.094,659.144 757.103,660.578 755.864,661.597C754.625,662.617 753.235,663.127 751.693,663.127ZM751.196,636.629C750.054,636.629 749.132,637.296 748.43,638.63C747.727,639.964 747.279,641.822 747.085,644.204L755.016,644.204L755.016,643.689C754.925,641.365 754.554,639.607 753.903,638.416C753.252,637.225 752.35,636.629 751.196,636.629Z" style="fill:white;fill-rule:nonzero;"/>
                </g>
            </g>
            <g>
                <path d="M492.276,366.884L486.264,366.884L486.264,377.238L482.872,377.238L482.872,351.644L491.344,351.644C494.227,351.644 496.445,352.3 497.998,353.613C499.55,354.925 500.327,356.835 500.327,359.343C500.327,360.937 499.896,362.326 499.035,363.509C498.173,364.693 496.975,365.578 495.44,366.164L501.452,377.027L501.452,377.238L497.831,377.238L492.276,366.884ZM486.264,364.125L491.45,364.125C493.126,364.125 494.459,363.691 495.449,362.824C496.439,361.957 496.934,360.796 496.934,359.343C496.934,357.761 496.463,356.548 495.519,355.705C494.576,354.861 493.214,354.433 491.432,354.421L486.264,354.421L486.264,364.125Z" style="fill:rgb(64,64,64);fill-rule:nonzero;"/>
                <path d="M516.291,377.238C516.104,376.863 515.951,376.195 515.834,375.234C514.323,376.804 512.518,377.589 510.42,377.589C508.545,377.589 507.007,377.059 505.806,375.999C504.605,374.938 504.004,373.593 504.004,371.964C504.004,369.984 504.757,368.446 506.263,367.35C507.769,366.254 509.887,365.707 512.617,365.707L515.781,365.707L515.781,364.212C515.781,363.076 515.442,362.17 514.762,361.497C514.082,360.823 513.08,360.486 511.756,360.486C510.596,360.486 509.623,360.779 508.838,361.365C508.053,361.951 507.66,362.66 507.66,363.492L504.391,363.492C504.391,362.542 504.728,361.625 505.402,360.741C506.075,359.856 506.99,359.156 508.144,358.64C509.298,358.125 510.567,357.867 511.949,357.867C514.141,357.867 515.858,358.415 517.1,359.51C518.342,360.606 518.987,362.115 519.033,364.037L519.033,372.791C519.033,374.537 519.256,375.925 519.701,376.957L519.701,377.238L516.291,377.238ZM510.895,374.759C511.914,374.759 512.881,374.496 513.795,373.968C514.709,373.441 515.371,372.755 515.781,371.912L515.781,368.009L513.233,368.009C509.248,368.009 507.256,369.175 507.256,371.507C507.256,372.527 507.596,373.324 508.276,373.898C508.955,374.472 509.828,374.759 510.895,374.759Z" style="fill:rgb(64,64,64);fill-rule:nonzero;"/>
                <path d="M528.547,353.613L528.547,358.218L532.098,358.218L532.098,360.732L528.547,360.732L528.547,372.527C528.547,373.289 528.705,373.86 529.021,374.241C529.338,374.622 529.877,374.812 530.639,374.812C531.014,374.812 531.529,374.742 532.185,374.601L532.185,377.238C531.33,377.472 530.498,377.589 529.689,377.589C528.236,377.589 527.14,377.15 526.402,376.271C525.664,375.392 525.295,374.144 525.295,372.527L525.295,360.732L521.832,360.732L521.832,358.218L525.295,358.218L525.295,353.613L528.547,353.613Z" style="fill:rgb(64,64,64);fill-rule:nonzero;"/>
                <path d="M539.15,360.521C540.591,358.751 542.466,357.867 544.775,357.867C548.794,357.867 550.822,360.134 550.857,364.669L550.857,377.238L547.605,377.238L547.605,364.652C547.593,363.281 547.28,362.267 546.665,361.611C546.049,360.955 545.091,360.626 543.79,360.626C542.736,360.626 541.81,360.908 541.013,361.47C540.216,362.033 539.595,362.771 539.15,363.685L539.15,377.238L535.898,377.238L535.898,350.238L539.15,350.238L539.15,360.521Z" style="fill:rgb(64,64,64);fill-rule:nonzero;"/>
                <path d="M567.472,377.238C567.284,376.863 567.132,376.195 567.015,375.234C565.503,376.804 563.698,377.589 561.601,377.589C559.726,377.589 558.188,377.059 556.986,375.999C555.785,374.938 555.185,373.593 555.185,371.964C555.185,369.984 555.938,368.446 557.443,367.35C558.949,366.254 561.067,365.707 563.798,365.707L566.962,365.707L566.962,364.212C566.962,363.076 566.622,362.17 565.942,361.497C565.263,360.823 564.261,360.486 562.937,360.486C561.776,360.486 560.804,360.779 560.019,361.365C559.233,361.951 558.841,362.66 558.841,363.492L555.571,363.492C555.571,362.542 555.908,361.625 556.582,360.741C557.256,359.856 558.17,359.156 559.324,358.64C560.479,358.125 561.747,357.867 563.13,357.867C565.321,357.867 567.038,358.415 568.28,359.51C569.523,360.606 570.167,362.115 570.214,364.037L570.214,372.791C570.214,374.537 570.437,375.925 570.882,376.957L570.882,377.238L567.472,377.238ZM562.075,374.759C563.095,374.759 564.062,374.496 564.976,373.968C565.89,373.441 566.552,372.755 566.962,371.912L566.962,368.009L564.413,368.009C560.429,368.009 558.437,369.175 558.437,371.507C558.437,372.527 558.776,373.324 559.456,373.898C560.136,374.472 561.009,374.759 562.075,374.759Z" style="fill:rgb(64,64,64);fill-rule:nonzero;"/>
                <path d="M587.057,375.357C585.792,376.845 583.934,377.589 581.485,377.589C579.458,377.589 577.914,377 576.853,375.823C575.793,374.645 575.256,372.902 575.245,370.593L575.245,358.218L578.497,358.218L578.497,370.505C578.497,373.388 579.669,374.83 582.012,374.83C584.497,374.83 586.149,373.904 586.969,372.052L586.969,358.218L590.221,358.218L590.221,377.238L587.128,377.238L587.057,375.357Z" style="fill:rgb(64,64,64);fill-rule:nonzero;"/>
                <path d="M606.239,372.193C606.239,371.314 605.907,370.631 605.245,370.145C604.583,369.659 603.429,369.24 601.782,368.888C600.136,368.537 598.829,368.115 597.863,367.623C596.896,367.13 596.181,366.544 595.718,365.865C595.255,365.185 595.024,364.376 595.024,363.439C595.024,361.88 595.683,360.562 597.001,359.484C598.32,358.406 600.004,357.867 602.055,357.867C604.211,357.867 605.96,358.423 607.302,359.537C608.644,360.65 609.315,362.074 609.315,363.808L606.045,363.808C606.045,362.917 605.667,362.15 604.911,361.505C604.156,360.861 603.203,360.539 602.055,360.539C600.871,360.539 599.946,360.796 599.278,361.312C598.61,361.828 598.276,362.501 598.276,363.334C598.276,364.119 598.586,364.71 599.207,365.109C599.828,365.507 600.95,365.888 602.573,366.251C604.197,366.615 605.512,367.048 606.52,367.552C607.528,368.056 608.275,368.663 608.761,369.372C609.247,370.081 609.49,370.945 609.49,371.964C609.49,373.664 608.811,375.026 607.451,376.051C606.092,377.077 604.328,377.589 602.16,377.589C600.637,377.589 599.289,377.32 598.117,376.781C596.946,376.242 596.029,375.489 595.366,374.522C594.704,373.555 594.373,372.509 594.373,371.384L597.625,371.384C597.684,372.474 598.12,373.338 598.935,373.977C599.749,374.616 600.824,374.935 602.16,374.935C603.391,374.935 604.378,374.686 605.122,374.188C605.866,373.69 606.239,373.025 606.239,372.193Z" style="fill:rgb(64,64,64);fill-rule:nonzero;"/>
                <path d="M433.548,414.478L445.677,414.478L445.677,417.238L430.155,417.238L430.155,391.644L433.548,391.644L433.548,414.478Z" style="fill:rgb(64,64,64);fill-rule:nonzero;"/>
                <path d="M459.987,415.357C458.721,416.845 456.863,417.589 454.414,417.589C452.387,417.589 450.843,417 449.782,415.823C448.722,414.645 448.186,412.902 448.174,410.593L448.174,398.218L451.426,398.218L451.426,410.505C451.426,413.388 452.598,414.83 454.942,414.83C457.426,414.83 459.078,413.904 459.899,412.052L459.899,398.218L463.151,398.218L463.151,417.238L460.057,417.238L459.987,415.357Z" style="fill:rgb(64,64,64);fill-rule:nonzero;"/>
                <path d="M467.3,407.57C467.3,404.652 467.992,402.305 469.374,400.53C470.757,398.754 472.568,397.867 474.806,397.867C477.033,397.867 478.796,398.628 480.097,400.152L480.097,390.238L483.349,390.238L483.349,417.238L480.361,417.238L480.203,415.199C478.902,416.792 477.091,417.589 474.771,417.589C472.568,417.589 470.772,416.687 469.383,414.882C467.995,413.078 467.3,410.722 467.3,407.816L467.3,407.57ZM470.552,407.939C470.552,410.095 470.997,411.783 471.888,413.001C472.779,414.22 474.009,414.83 475.58,414.83C477.642,414.83 479.148,413.904 480.097,412.052L480.097,403.316C479.124,401.523 477.63,400.626 475.615,400.626C474.021,400.626 472.779,401.242 471.888,402.472C470.997,403.703 470.552,405.525 470.552,407.939Z" style="fill:rgb(64,64,64);fill-rule:nonzero;"/>
                <path d="M505.235,412.755L508.891,398.218L512.143,398.218L506.606,417.238L503.969,417.238L499.346,402.824L494.846,417.238L492.21,417.238L486.69,398.218L489.925,398.218L493.669,412.457L498.098,398.218L500.717,398.218L505.235,412.755Z" style="fill:rgb(64,64,64);fill-rule:nonzero;"/>
                <path d="M518.982,417.238L515.73,417.238L515.73,398.218L518.982,398.218L518.982,417.238ZM515.467,393.173C515.467,392.646 515.628,392.201 515.95,391.837C516.272,391.474 516.75,391.292 517.383,391.292C518.016,391.292 518.496,391.474 518.824,391.837C519.152,392.201 519.316,392.646 519.316,393.173C519.316,393.701 519.152,394.14 518.824,394.492C518.496,394.843 518.016,395.019 517.383,395.019C516.75,395.019 516.272,394.843 515.95,394.492C515.628,394.14 515.467,393.701 515.467,393.173Z" style="fill:rgb(64,64,64);fill-rule:nonzero;"/>
                <path d="M523.413,407.57C523.413,404.605 524.099,402.247 525.47,400.495C526.841,398.743 528.657,397.867 530.919,397.867C533.239,397.867 535.05,398.687 536.351,400.328L536.509,398.218L539.48,398.218L539.48,416.781C539.48,419.242 538.75,421.181 537.291,422.599C535.832,424.017 533.872,424.726 531.411,424.726C530.04,424.726 528.698,424.433 527.386,423.847C526.073,423.261 525.071,422.459 524.38,421.439L526.068,419.488C527.462,421.21 529.167,422.072 531.183,422.072C532.765,422.072 533.998,421.626 534.883,420.736C535.768,419.845 536.21,418.591 536.21,416.974L536.21,415.339C534.909,416.839 533.134,417.589 530.884,417.589C528.657,417.589 526.856,416.693 525.479,414.9C524.102,413.107 523.413,410.664 523.413,407.57ZM526.683,407.939C526.683,410.084 527.122,411.768 528.001,412.993C528.88,414.217 530.111,414.83 531.693,414.83C533.743,414.83 535.249,413.898 536.21,412.035L536.21,403.351C535.214,401.535 533.72,400.626 531.728,400.626C530.146,400.626 528.909,401.242 528.019,402.472C527.128,403.703 526.683,405.525 526.683,407.939Z" style="fill:rgb(64,64,64);fill-rule:nonzero;"/>
                <path d="M555.459,412.193C555.459,411.314 555.128,410.631 554.466,410.145C553.804,409.659 552.65,409.24 551.003,408.888C549.357,408.537 548.05,408.115 547.083,407.623C546.117,407.13 545.402,406.544 544.939,405.865C544.476,405.185 544.245,404.376 544.245,403.439C544.245,401.88 544.904,400.562 546.222,399.484C547.54,398.406 549.225,397.867 551.276,397.867C553.432,397.867 555.181,398.423 556.523,399.537C557.865,400.65 558.536,402.074 558.536,403.808L555.266,403.808C555.266,402.917 554.888,402.15 554.132,401.505C553.376,400.861 552.424,400.539 551.276,400.539C550.092,400.539 549.166,400.796 548.498,401.312C547.831,401.828 547.497,402.501 547.497,403.334C547.497,404.119 547.807,404.71 548.428,405.109C549.049,405.507 550.171,405.888 551.794,406.251C553.417,406.615 554.733,407.048 555.741,407.552C556.748,408.056 557.496,408.663 557.982,409.372C558.468,410.081 558.711,410.945 558.711,411.964C558.711,413.664 558.032,415.026 556.672,416.051C555.313,417.077 553.549,417.589 551.381,417.589C549.858,417.589 548.51,417.32 547.338,416.781C546.166,416.242 545.249,415.489 544.587,414.522C543.925,413.555 543.594,412.509 543.594,411.384L546.846,411.384C546.905,412.474 547.341,413.338 548.156,413.977C548.97,414.616 550.045,414.935 551.381,414.935C552.612,414.935 553.599,414.686 554.343,414.188C555.087,413.69 555.459,413.025 555.459,412.193Z" style="fill:rgb(64,64,64);fill-rule:nonzero;"/>
                <path d="M566.201,400.521C567.642,398.751 569.517,397.867 571.826,397.867C575.845,397.867 577.873,400.134 577.908,404.669L577.908,417.238L574.656,417.238L574.656,404.652C574.644,403.281 574.331,402.267 573.716,401.611C573.1,400.955 572.142,400.626 570.842,400.626C569.787,400.626 568.861,400.908 568.064,401.47C567.267,402.033 566.646,402.771 566.201,403.685L566.201,417.238L562.949,417.238L562.949,390.238L566.201,390.238L566.201,400.521Z" style="fill:rgb(64,64,64);fill-rule:nonzero;"/>
                <path d="M594.52,417.238C594.333,416.863 594.181,416.195 594.063,415.234C592.552,416.804 590.747,417.589 588.649,417.589C586.774,417.589 585.236,417.059 584.035,415.999C582.834,414.938 582.233,413.593 582.233,411.964C582.233,409.984 582.986,408.446 584.492,407.35C585.998,406.254 588.116,405.707 590.847,405.707L594.011,405.707L594.011,404.212C594.011,403.076 593.671,402.17 592.991,401.497C592.311,400.823 591.31,400.486 589.985,400.486C588.825,400.486 587.853,400.779 587.067,401.365C586.282,401.951 585.89,402.66 585.89,403.492L582.62,403.492C582.62,402.542 582.957,401.625 583.631,400.741C584.305,399.856 585.219,399.156 586.373,398.64C587.527,398.125 588.796,397.867 590.179,397.867C592.37,397.867 594.087,398.415 595.329,399.51C596.571,400.606 597.216,402.115 597.263,404.037L597.263,412.791C597.263,414.537 597.485,415.925 597.931,416.957L597.931,417.238L594.52,417.238ZM589.124,414.759C590.144,414.759 591.11,414.496 592.024,413.968C592.938,413.441 593.601,412.755 594.011,411.912L594.011,408.009L591.462,408.009C587.478,408.009 585.485,409.175 585.485,411.507C585.485,412.527 585.825,413.324 586.505,413.898C587.185,414.472 588.058,414.759 589.124,414.759Z" style="fill:rgb(64,64,64);fill-rule:nonzero;"/>
                <path d="M603.961,417.238L603.961,400.732L600.955,400.732L600.955,398.218L603.961,398.218L603.961,396.267C603.961,394.228 604.506,392.652 605.596,391.539C606.686,390.425 608.227,389.869 610.219,389.869C610.969,389.869 611.713,389.968 612.451,390.167L612.276,392.804C611.725,392.699 611.139,392.646 610.518,392.646C609.463,392.646 608.649,392.954 608.074,393.569C607.5,394.184 607.213,395.066 607.213,396.214L607.213,398.218L611.274,398.218L611.274,400.732L607.213,400.732L607.213,417.238L603.961,417.238Z" style="fill:rgb(64,64,64);fill-rule:nonzero;"/>
                <path d="M622.332,417.589C619.753,417.589 617.656,416.743 616.039,415.049C614.421,413.356 613.613,411.091 613.613,408.255L613.613,407.658C613.613,405.771 613.973,404.086 614.694,402.604C615.415,401.122 616.422,399.961 617.717,399.124C619.012,398.286 620.415,397.867 621.927,397.867C624.4,397.867 626.322,398.681 627.693,400.31C629.064,401.939 629.749,404.271 629.749,407.306L629.749,408.66L616.865,408.66C616.912,410.535 617.459,412.049 618.508,413.204C619.557,414.358 620.89,414.935 622.507,414.935C623.656,414.935 624.628,414.701 625.425,414.232C626.222,413.763 626.919,413.142 627.517,412.369L629.503,413.916C627.91,416.365 625.519,417.589 622.332,417.589ZM621.927,400.539C620.615,400.539 619.513,401.016 618.623,401.971C617.732,402.926 617.181,404.265 616.97,405.988L626.498,405.988L626.498,405.742C626.404,404.089 625.958,402.809 625.162,401.901C624.365,400.993 623.287,400.539 621.927,400.539Z" style="fill:rgb(64,64,64);fill-rule:nonzero;"/>
                <path d="M636.589,398.218L636.694,400.609C638.147,398.781 640.046,397.867 642.389,397.867C646.409,397.867 648.436,400.134 648.471,404.669L648.471,417.238L645.219,417.238L645.219,404.652C645.208,403.281 644.894,402.267 644.279,401.611C643.664,400.955 642.706,400.626 641.405,400.626C640.35,400.626 639.425,400.908 638.628,401.47C637.831,402.033 637.21,402.771 636.764,403.685L636.764,417.238L633.512,417.238L633.512,398.218L636.589,398.218Z" style="fill:rgb(64,64,64);fill-rule:nonzero;"/>
            </g>
            <g transform="matrix(1,0,0,1,708.947,864.483)">
                <path d="M0,-648.048L-337.894,-648.048C-349.112,-648.048 -359.477,-642.063 -365.086,-632.348L-534.033,-339.724C-539.642,-330.009 -539.642,-318.039 -534.033,-308.325L-365.086,-15.7C-359.477,-5.985 -349.112,0 -337.894,0L0,0C11.218,0 21.584,-5.985 27.193,-15.7L196.14,-308.325C201.748,-318.039 201.748,-330.009 196.14,-339.724L27.193,-632.348C21.584,-642.063 11.218,-648.048 0,-648.048M0,-647.048C10.826,-647.048 20.914,-641.224 26.327,-631.848L195.273,-339.224C200.686,-329.848 200.686,-318.2 195.273,-308.825L26.327,-16.2C20.914,-6.824 10.826,-1 0,-1L-337.894,-1C-348.72,-1 -358.807,-6.824 -364.22,-16.2L-533.167,-308.825C-538.58,-318.2 -538.58,-329.848 -533.167,-339.224L-364.22,-631.848C-358.807,-641.224 -348.72,-647.048 -337.894,-647.048L0,-647.048" style="fill:rgb(167,165,165);fill-rule:nonzero;"/>
            </g>
        </g>
        <g id="AffectedObject70" transform="matrix(2.91672,0,0,2.91672,1882.34,959.814)">
            <g transform="matrix(1,0,0,1,371.053,216.935)">
                <path d="M0,647.047C-11.004,647.047 -21.258,641.127 -26.76,631.598L-195.707,338.973C-201.208,329.443 -201.208,317.604 -195.707,308.074L-26.76,15.449C-21.257,5.92 -11.004,0 0,0L337.894,0C348.897,0 359.151,5.92 364.654,15.449L533.6,308.074C539.102,317.604 539.102,329.443 533.6,338.973L364.654,631.598C359.151,641.127 348.898,647.047 337.894,647.047L0,647.047Z" style="fill:white;fill-rule:nonzero;"/>
            </g>
            <g transform="matrix(1,0,0,1,733.385,371.504)">
                <path d="M0,-142.023C-4.84,-150.405 -13.784,-155.569 -23.463,-155.569L-363.307,-155.569C-372.986,-155.569 -381.93,-150.405 -386.769,-142.023L-469.385,1.071C-383.992,9.12 -290.869,13.546 -193.385,13.546C-95.9,13.546 -2.778,9.12 82.615,1.071L0,-142.023Z" style="fill:rgb(232,116,115);fill-rule:nonzero;stroke:rgb(166,163,164);stroke-width:1.43px;"/>
            </g>
            <g transform="matrix(0.24,0,0,0.24,0,0)">
                <path d="M2871.51,1388.91C2871.51,1313.38 2810.19,1252.05 2734.65,1252.05L1765.35,1252.05C1689.81,1252.05 1628.49,1313.38 1628.49,1388.91L1628.49,1784.38C1628.49,1859.91 1689.81,1921.23 1765.35,1921.23L2734.65,1921.23C2810.19,1921.23 2871.51,1859.91 2871.51,1784.38L2871.51,1388.91Z" style="fill:rgb(244,244,244);stroke:rgb(204,204,204);stroke-width:5.95px;stroke-linecap:round;stroke-linejoin:round;stroke-miterlimit:1.5;"/>
            </g>
            <g transform="matrix(1,0,0,1,678.025,573.773)">
                <path d="M0,57.843L-276.05,57.843C-291.956,57.843 -304.971,44.828 -304.971,28.922C-304.971,13.015 -291.956,0 -276.05,0L0,0C15.907,0 28.921,13.015 28.921,28.922C28.921,44.828 15.907,57.843 0,57.843Z" style="fill:rgb(66,64,64);fill-rule:nonzero;stroke:rgb(166,163,164);stroke-width:1.43px;"/>
            </g>
            <g transform="matrix(0.942262,0,0,0.560138,-24.0968,243.869)">
                <path d="M455.828,652.958L461.854,621.754L466.381,621.754L457.847,661.643L453.857,661.643L445.356,621.754L449.867,621.754L455.828,652.958Z" style="fill:white;fill-rule:nonzero;"/>
                <path d="M475.712,662.19C473.204,662.19 471.171,660.862 469.613,658.204C468.055,655.547 467.276,652.008 467.276,647.588L467.276,646.766C467.276,643.808 467.615,641.164 468.294,638.835C468.972,636.507 469.925,634.694 471.152,633.397C472.379,632.1 473.747,631.452 475.256,631.452C477.656,631.452 479.509,632.74 480.818,635.315C482.126,637.89 482.78,641.534 482.78,646.246L482.78,648.931L471.266,648.931C471.385,651.378 471.871,653.314 472.724,654.739C473.576,656.163 474.648,656.876 475.94,656.876C477.753,656.876 479.23,655.643 480.37,653.177L482.503,656.602C481.798,658.373 480.856,659.748 479.678,660.725C478.5,661.702 477.178,662.19 475.712,662.19ZM475.24,636.794C474.154,636.794 473.277,637.433 472.61,638.712C471.942,639.99 471.516,641.771 471.331,644.054L478.872,644.054L478.872,643.561C478.785,641.333 478.432,639.648 477.813,638.506C477.194,637.365 476.336,636.794 475.24,636.794Z" style="fill:white;fill-rule:nonzero;"/>
                <path d="M495.075,638.082C494.554,637.936 494.017,637.863 493.463,637.863C491.65,637.863 490.428,639.032 489.798,641.369L489.798,661.643L485.841,661.643L485.841,632L489.619,632L489.717,635.315C490.673,632.74 491.997,631.452 493.691,631.452C494.255,631.452 494.722,631.58 495.091,631.835L495.075,638.082Z" style="fill:white;fill-rule:nonzero;"/>
                <path d="M507.452,653.588C507.452,652.401 507.161,651.497 506.58,650.876C505.999,650.255 505.036,649.707 503.69,649.232C502.343,648.757 501.219,648.154 500.318,647.424C498.342,645.817 497.354,643.488 497.354,640.438C497.354,637.881 497.995,635.744 499.276,634.027C500.557,632.31 502.186,631.452 504.162,631.452C506.268,631.452 507.97,632.329 509.267,634.082C510.565,635.835 511.214,638.109 511.214,640.904L507.256,640.904C507.256,639.625 506.974,638.561 506.409,637.712C505.845,636.863 505.096,636.438 504.162,636.438C503.293,636.438 502.585,636.776 502.036,637.452C501.488,638.127 501.214,639.032 501.214,640.164C501.214,641.187 501.469,641.981 501.979,642.547C502.49,643.114 503.521,643.684 505.074,644.26C506.626,644.835 507.845,645.52 508.73,646.314C509.615,647.109 510.272,648.063 510.701,649.177C511.129,650.291 511.344,651.643 511.344,653.232C511.344,655.898 510.687,658.058 509.373,659.711C508.06,661.364 506.339,662.19 504.211,662.19C502.767,662.19 501.48,661.752 500.351,660.875C499.222,659.999 498.342,658.793 497.713,657.259C497.083,655.725 496.768,654.072 496.768,652.3L500.611,652.3C500.666,653.871 501.019,655.081 501.67,655.93C502.321,656.78 503.185,657.204 504.26,657.204C505.302,657.204 506.094,656.871 506.637,656.204C507.18,655.538 507.452,654.666 507.452,653.588Z" style="fill:white;fill-rule:nonzero;"/>
                <path d="M530.218,647.123C530.218,651.707 529.6,655.364 528.362,658.095C527.124,660.825 525.463,662.19 523.378,662.19C521.446,662.19 519.899,661.122 518.737,658.985L518.737,673.039L514.779,673.039L514.779,632L518.427,632L518.59,635.013C519.752,632.639 521.332,631.452 523.329,631.452C525.479,631.452 527.165,632.799 528.386,635.493C529.608,638.187 530.218,641.926 530.218,646.712L530.218,647.123ZM526.277,646.547C526.277,643.588 525.927,641.242 525.227,639.506C524.526,637.771 523.525,636.904 522.222,636.904C520.604,636.904 519.443,638.027 518.737,640.274L518.737,653.424C519.453,655.725 520.626,656.876 522.255,656.876C523.514,656.876 524.499,656.022 525.211,654.314C525.922,652.606 526.277,650.017 526.277,646.547Z" style="fill:white;fill-rule:nonzero;"/>
                <path d="M541.325,662.19C538.817,662.19 536.783,660.862 535.225,658.204C533.667,655.547 532.888,652.008 532.888,647.588L532.888,646.766C532.888,643.808 533.228,641.164 533.906,638.835C534.585,636.507 535.538,634.694 536.764,633.397C537.991,632.1 539.359,631.452 540.869,631.452C543.268,631.452 545.122,632.74 546.43,635.315C547.739,637.89 548.393,641.534 548.393,646.246L548.393,648.931L536.878,648.931C536.998,651.378 537.484,653.314 538.336,654.739C539.188,656.163 540.261,656.876 541.553,656.876C543.366,656.876 544.842,655.643 545.982,653.177L548.116,656.602C547.41,658.373 546.468,659.748 545.29,660.725C544.112,661.702 542.79,662.19 541.325,662.19ZM540.852,636.794C539.767,636.794 538.89,637.433 538.222,638.712C537.554,639.99 537.128,641.771 536.944,644.054L544.484,644.054L544.484,643.561C544.397,641.333 544.044,639.648 543.425,638.506C542.807,637.365 541.949,636.794 540.852,636.794Z" style="fill:white;fill-rule:nonzero;"/>
                <path d="M560.688,638.082C560.167,637.936 559.629,637.863 559.075,637.863C557.262,637.863 556.041,639.032 555.411,641.369L555.411,661.643L551.453,661.643L551.453,632L555.232,632L555.33,635.315C556.285,632.74 557.61,631.452 559.303,631.452C559.868,631.452 560.335,631.58 560.704,631.835L560.688,638.082Z" style="fill:white;fill-rule:nonzero;"/>
                <path d="M572.413,638.082C571.891,637.936 571.354,637.863 570.8,637.863C568.987,637.863 567.766,639.032 567.136,641.369L567.136,661.643L563.178,661.643L563.178,632L566.957,632L567.055,635.315C568.01,632.74 569.335,631.452 571.028,631.452C571.593,631.452 572.06,631.58 572.429,631.835L572.413,638.082Z" style="fill:white;fill-rule:nonzero;"/>
                <path d="M580.685,624.795L580.685,632L583.796,632L583.796,636.931L580.685,636.931L580.685,653.478C580.685,654.611 580.818,655.428 581.084,655.93C581.35,656.433 581.825,656.684 582.509,656.684C582.965,656.684 583.426,656.593 583.893,656.41L583.893,661.56C582.992,661.98 582.124,662.19 581.288,662.19C578.247,662.19 576.727,659.369 576.727,653.725L576.727,636.931L573.829,636.931L573.829,632L576.727,632L576.727,624.795L580.685,624.795Z" style="fill:white;fill-rule:nonzero;"/>
                <path d="M594.576,662.19C592.068,662.19 590.035,660.862 588.477,658.204C586.919,655.547 586.14,652.008 586.14,647.588L586.14,646.766C586.14,643.808 586.479,641.164 587.158,638.835C587.836,636.507 588.789,634.694 590.016,633.397C591.243,632.1 592.611,631.452 594.12,631.452C596.519,631.452 598.373,632.74 599.682,635.315C600.99,637.89 601.644,641.534 601.644,646.246L601.644,648.931L590.13,648.931C590.249,651.378 590.735,653.314 591.587,654.739C592.44,656.163 593.512,656.876 594.804,656.876C596.617,656.876 598.094,655.643 599.234,653.177L601.367,656.602C600.662,658.373 599.72,659.748 598.542,660.725C597.364,661.702 596.042,662.19 594.576,662.19ZM594.104,636.794C593.018,636.794 592.141,637.433 591.473,638.712C590.806,639.99 590.38,641.771 590.195,644.054L597.735,644.054L597.735,643.561C597.649,641.333 597.296,639.648 596.677,638.506C596.058,637.365 595.2,636.794 594.104,636.794Z" style="fill:white;fill-rule:nonzero;"/>
                <path d="M603.972,646.602C603.972,642.036 604.602,638.369 605.861,635.602C607.121,632.835 608.809,631.452 610.926,631.452C612.794,631.452 614.303,632.548 615.454,634.739L615.454,619.562L619.411,619.562L619.411,661.643L615.828,661.643L615.633,658.574C614.449,660.985 612.87,662.19 610.894,662.19C608.831,662.19 607.161,660.793 605.886,657.999C604.61,655.204 603.972,651.406 603.972,646.602ZM607.93,647.177C607.93,650.191 608.274,652.542 608.964,654.232C609.653,655.921 610.633,656.766 611.903,656.766C613.521,656.766 614.705,655.551 615.454,653.122L615.454,640.465C614.726,638.091 613.554,636.904 611.936,636.904C610.655,636.904 609.667,637.758 608.972,639.465C608.277,641.173 607.93,643.744 607.93,647.177Z" style="fill:white;fill-rule:nonzero;"/>
                <path d="M650.414,656.465C649.557,658.346 648.368,659.77 646.848,660.738C645.328,661.706 643.601,662.19 641.669,662.19C639.682,662.19 637.923,661.433 636.392,659.917C634.861,658.401 633.68,656.232 632.85,653.41C632.019,650.588 631.588,647.296 631.555,643.534L631.555,640.41C631.555,634.383 632.413,629.676 634.128,626.288C635.844,622.9 638.238,621.206 641.31,621.206C643.949,621.206 646.044,622.302 647.597,624.493C649.149,626.685 650.083,629.845 650.398,633.972L646.359,633.972C645.903,629.169 644.247,626.767 641.392,626.767C639.546,626.767 638.143,627.886 637.182,630.123C636.221,632.361 635.724,635.644 635.692,639.972L635.692,643.041C635.692,647.351 636.232,650.698 637.312,653.081C638.393,655.465 639.894,656.656 641.815,656.656C643.922,656.656 645.42,655.853 646.31,654.246L646.31,646.438L641.424,646.438L641.424,641.178L650.414,641.178L650.414,656.465Z" style="fill:white;fill-rule:nonzero;"/>
                <path d="M662.318,662.19C659.81,662.19 657.777,660.862 656.219,658.204C654.661,655.547 653.882,652.008 653.882,647.588L653.882,646.766C653.882,643.808 654.222,641.164 654.9,638.835C655.579,636.507 656.531,634.694 657.758,633.397C658.985,632.1 660.353,631.452 661.862,631.452C664.262,631.452 666.116,632.74 667.424,635.315C668.732,637.89 669.387,641.534 669.387,646.246L669.387,648.931L657.872,648.931C657.992,651.378 658.478,653.314 659.33,654.739C660.182,656.163 661.254,656.876 662.546,656.876C664.36,656.876 665.836,655.643 666.976,653.177L669.11,656.602C668.404,658.373 667.462,659.748 666.284,660.725C665.106,661.702 663.784,662.19 662.318,662.19ZM661.846,636.794C660.76,636.794 659.884,637.433 659.216,638.712C658.548,639.99 658.122,641.771 657.938,644.054L665.478,644.054L665.478,643.561C665.391,641.333 665.038,639.648 664.419,638.506C663.8,637.365 662.943,636.794 661.846,636.794Z" style="fill:white;fill-rule:nonzero;"/>
                <rect x="672.708" y="619.562" width="3.957" height="42.081" style="fill:white;fill-rule:nonzero;"/>
                <path d="M691.501,661.643C691.327,661.076 691.175,660.154 691.045,658.876C689.786,661.086 688.244,662.19 686.42,662.19C684.65,662.19 683.206,661.341 682.088,659.643C680.969,657.944 680.41,655.844 680.41,653.342C680.41,650.182 681.108,647.757 682.503,646.068C683.898,644.378 685.893,643.534 688.488,643.534L690.915,643.534L690.915,641.589C690.915,640.054 690.66,638.826 690.149,637.904C689.639,636.981 688.863,636.52 687.82,636.52C686.919,636.52 686.181,636.899 685.606,637.657C685.03,638.415 684.742,639.379 684.742,640.547L680.785,640.547C680.785,638.922 681.105,637.401 681.746,635.986C682.386,634.571 683.258,633.461 684.36,632.657C685.462,631.854 686.691,631.452 688.048,631.452C690.111,631.452 691.756,632.324 692.983,634.068C694.21,635.812 694.84,638.264 694.872,641.424L694.872,654.794C694.872,657.46 695.095,659.588 695.54,661.177L695.54,661.643L691.501,661.643ZM687.153,656.848C687.934,656.848 688.67,656.529 689.359,655.889C690.049,655.25 690.567,654.392 690.915,653.314L690.915,647.725L688.781,647.725C687.316,647.725 686.214,648.154 685.475,649.013C684.737,649.871 684.368,651.086 684.368,652.657C684.368,653.935 684.62,654.953 685.125,655.711C685.63,656.469 686.306,656.848 687.153,656.848ZM682.413,624.219C682.413,623.306 682.595,622.539 682.959,621.918C683.323,621.297 683.825,620.987 684.466,620.987C685.106,620.987 685.611,621.297 685.98,621.918C686.349,622.539 686.534,623.306 686.534,624.219C686.534,625.133 686.349,625.9 685.98,626.521C685.611,627.142 685.106,627.452 684.466,627.452C683.825,627.452 683.323,627.142 682.959,626.521C682.595,625.9 682.413,625.133 682.413,624.219ZM689.856,624.247C689.856,623.333 690.038,622.566 690.402,621.945C690.765,621.324 691.268,621.014 691.908,621.014C692.549,621.014 693.054,621.324 693.423,621.945C693.792,622.566 693.977,623.333 693.977,624.247C693.977,625.16 693.792,625.927 693.423,626.548C693.054,627.169 692.549,627.479 691.908,627.479C691.268,627.479 690.765,627.169 690.402,626.548C690.038,625.927 689.856,625.16 689.856,624.247Z" style="fill:white;fill-rule:nonzero;"/>
                <path d="M702.689,632L702.803,635.424C704.105,632.776 705.816,631.452 707.933,631.452C711.602,631.452 713.47,634.986 713.535,642.054L713.535,661.643L709.578,661.643L709.578,642.438C709.578,640.557 709.336,639.164 708.853,638.26C708.37,637.356 707.58,636.904 706.483,636.904C704.887,636.904 703.698,638.118 702.917,640.547L702.917,661.643L698.959,661.643L698.959,632L702.689,632Z" style="fill:white;fill-rule:nonzero;"/>
                <path d="M716.824,646.602C716.824,642.036 717.454,638.369 718.713,635.602C719.973,632.835 721.661,631.452 723.778,631.452C725.645,631.452 727.155,632.548 728.306,634.739L728.306,619.562L732.263,619.562L732.263,661.643L728.68,661.643L728.485,658.574C727.301,660.985 725.721,662.19 723.745,662.19C721.683,662.19 720.013,660.793 718.738,657.999C717.462,655.204 716.824,651.406 716.824,646.602ZM720.781,647.177C720.781,650.191 721.126,652.542 721.816,654.232C722.505,655.921 723.485,656.766 724.755,656.766C726.373,656.766 727.556,655.551 728.306,653.122L728.306,640.465C727.578,638.091 726.405,636.904 724.788,636.904C723.507,636.904 722.519,637.758 721.824,639.465C721.129,641.173 720.781,643.744 720.781,647.177Z" style="fill:white;fill-rule:nonzero;"/>
                <path d="M744.151,662.19C741.643,662.19 739.61,660.862 738.052,658.204C736.494,655.547 735.715,652.008 735.715,647.588L735.715,646.766C735.715,643.808 736.054,641.164 736.733,638.835C737.411,636.507 738.364,634.694 739.591,633.397C740.818,632.1 742.186,631.452 743.695,631.452C746.094,631.452 747.948,632.74 749.257,635.315C750.565,637.89 751.219,641.534 751.219,646.246L751.219,648.931L739.705,648.931C739.824,651.378 740.31,653.314 741.162,654.739C742.015,656.163 743.087,656.876 744.379,656.876C746.192,656.876 747.669,655.643 748.809,653.177L750.942,656.602C750.236,658.373 749.295,659.748 748.117,660.725C746.938,661.702 745.617,662.19 744.151,662.19ZM743.679,636.794C742.593,636.794 741.716,637.433 741.048,638.712C740.381,639.99 739.955,641.771 739.77,644.054L747.31,644.054L747.31,643.561C747.223,641.333 746.871,639.648 746.252,638.506C745.633,637.365 744.775,636.794 743.679,636.794Z" style="fill:white;fill-rule:nonzero;"/>
            </g>
            <g>
                <path d="M494.816,366.091L489.091,366.091L489.091,375.952L485.86,375.952L485.86,351.577L493.929,351.577C496.674,351.577 498.786,352.202 500.265,353.452C501.744,354.702 502.483,356.521 502.483,358.91C502.483,360.427 502.073,361.75 501.253,362.877C500.432,364.004 499.291,364.847 497.829,365.405L503.555,375.751L503.555,375.952L500.106,375.952L494.816,366.091ZM489.091,363.463L494.029,363.463C495.625,363.463 496.895,363.05 497.838,362.224C498.781,361.398 499.252,360.293 499.252,358.91C499.252,357.403 498.803,356.248 497.905,355.444C497.006,354.641 495.709,354.233 494.012,354.222L489.091,354.222L489.091,363.463Z" style="fill:rgb(64,64,64);fill-rule:nonzero;"/>
                <path d="M517.687,375.952C517.509,375.594 517.363,374.958 517.252,374.043C515.812,375.539 514.093,376.286 512.096,376.286C510.31,376.286 508.845,375.781 507.701,374.771C506.557,373.761 505.985,372.481 505.985,370.929C505.985,369.043 506.702,367.578 508.136,366.535C509.571,365.491 511.588,364.97 514.188,364.97L517.202,364.97L517.202,363.547C517.202,362.464 516.878,361.602 516.231,360.96C515.583,360.319 514.629,359.998 513.368,359.998C512.263,359.998 511.337,360.277 510.589,360.835C509.841,361.393 509.467,362.068 509.467,362.86L506.354,362.86C506.354,361.956 506.674,361.083 507.316,360.24C507.958,359.398 508.828,358.731 509.928,358.24C511.027,357.749 512.235,357.503 513.552,357.503C515.639,357.503 517.274,358.025 518.457,359.069C519.64,360.112 520.254,361.549 520.299,363.379L520.299,371.716C520.299,373.379 520.511,374.702 520.935,375.684L520.935,375.952L517.687,375.952ZM512.548,373.591C513.519,373.591 514.439,373.34 515.31,372.838C516.18,372.336 516.811,371.683 517.202,370.879L517.202,367.163L514.774,367.163C510.98,367.163 509.082,368.273 509.082,370.494C509.082,371.465 509.406,372.224 510.053,372.771C510.701,373.318 511.532,373.591 512.548,373.591Z" style="fill:rgb(64,64,64);fill-rule:nonzero;"/>
                <path d="M529.359,353.452L529.359,357.838L532.74,357.838L532.74,360.232L529.359,360.232L529.359,371.465C529.359,372.191 529.509,372.735 529.811,373.097C530.112,373.46 530.625,373.641 531.351,373.641C531.708,373.641 532.199,373.574 532.824,373.44L532.824,375.952C532.009,376.175 531.217,376.286 530.447,376.286C529.063,376.286 528.019,375.868 527.316,375.031C526.613,374.194 526.262,373.005 526.262,371.465L526.262,360.232L522.964,360.232L522.964,357.838L526.262,357.838L526.262,353.452L529.359,353.452Z" style="fill:rgb(64,64,64);fill-rule:nonzero;"/>
                <path d="M539.457,360.031C540.829,358.346 542.615,357.503 544.814,357.503C548.642,357.503 550.573,359.663 550.606,363.982L550.606,375.952L547.509,375.952L547.509,363.965C547.498,362.659 547.199,361.694 546.613,361.069C546.027,360.444 545.115,360.132 543.876,360.132C542.872,360.132 541.99,360.399 541.231,360.935C540.472,361.471 539.881,362.174 539.457,363.044L539.457,375.952L536.36,375.952L536.36,350.238L539.457,350.238L539.457,360.031Z" style="fill:rgb(64,64,64);fill-rule:nonzero;"/>
                <path d="M566.429,375.952C566.251,375.594 566.106,374.958 565.994,374.043C564.554,375.539 562.836,376.286 560.838,376.286C559.052,376.286 557.588,375.781 556.444,374.771C555.3,373.761 554.728,372.481 554.728,370.929C554.728,369.043 555.445,367.578 556.879,366.535C558.313,365.491 560.33,364.97 562.931,364.97L565.944,364.97L565.944,363.547C565.944,362.464 565.62,361.602 564.973,360.96C564.326,360.319 563.371,359.998 562.11,359.998C561.005,359.998 560.079,360.277 559.331,360.835C558.584,361.393 558.21,362.068 558.21,362.86L555.096,362.86C555.096,361.956 555.417,361.083 556.059,360.24C556.7,359.398 557.571,358.731 558.67,358.24C559.769,357.749 560.978,357.503 562.294,357.503C564.381,357.503 566.017,358.025 567.2,359.069C568.383,360.112 568.996,361.549 569.041,363.379L569.041,371.716C569.041,373.379 569.253,374.702 569.677,375.684L569.677,375.952L566.429,375.952ZM561.29,373.591C562.261,373.591 563.182,373.34 564.052,372.838C564.923,372.336 565.553,371.683 565.944,370.879L565.944,367.163L563.517,367.163C559.722,367.163 557.825,368.273 557.825,370.494C557.825,371.465 558.148,372.224 558.796,372.771C559.443,373.318 560.274,373.591 561.29,373.591Z" style="fill:rgb(64,64,64);fill-rule:nonzero;"/>
                <path d="M585.082,374.16C583.877,375.578 582.108,376.286 579.775,376.286C577.844,376.286 576.374,375.726 575.364,374.604C574.354,373.482 573.843,371.822 573.832,369.624L573.832,357.838L576.929,357.838L576.929,369.54C576.929,372.285 578.045,373.658 580.277,373.658C582.643,373.658 584.217,372.776 584.998,371.013L584.998,357.838L588.095,357.838L588.095,375.952L585.149,375.952L585.082,374.16Z" style="fill:rgb(64,64,64);fill-rule:nonzero;"/>
                <path d="M603.349,371.147C603.349,370.31 603.034,369.66 602.404,369.197C601.773,368.734 600.674,368.335 599.106,368C597.538,367.665 596.293,367.263 595.373,366.794C594.452,366.326 593.771,365.768 593.33,365.12C592.889,364.473 592.669,363.703 592.669,362.81C592.669,361.326 593.297,360.07 594.552,359.043C595.808,358.017 597.412,357.503 599.365,357.503C601.419,357.503 603.084,358.033 604.362,359.094C605.64,360.154 606.279,361.51 606.279,363.162L603.165,363.162C603.165,362.313 602.805,361.582 602.086,360.969C601.366,360.355 600.459,360.048 599.365,360.048C598.238,360.048 597.356,360.293 596.72,360.784C596.084,361.276 595.766,361.917 595.766,362.71C595.766,363.457 596.062,364.021 596.653,364.4C597.245,364.78 598.313,365.143 599.859,365.489C601.405,365.835 602.658,366.248 603.617,366.727C604.577,367.207 605.289,367.785 605.752,368.46C606.215,369.135 606.447,369.958 606.447,370.929C606.447,372.548 605.799,373.845 604.505,374.822C603.21,375.798 601.53,376.286 599.466,376.286C598.015,376.286 596.731,376.03 595.615,375.516C594.499,375.003 593.626,374.286 592.995,373.365C592.365,372.444 592.049,371.448 592.049,370.377L595.147,370.377C595.202,371.415 595.618,372.238 596.394,372.846C597.169,373.454 598.193,373.759 599.466,373.759C600.637,373.759 601.578,373.521 602.286,373.047C602.995,372.573 603.349,371.939 603.349,371.147Z" style="fill:rgb(64,64,64);fill-rule:nonzero;"/>
                <path d="M433.245,413.323L444.796,413.323L444.796,415.951L430.014,415.951L430.014,391.576L433.245,391.576L433.245,413.323Z" style="fill:rgb(64,64,64);fill-rule:nonzero;"/>
                <path d="M458.424,414.16C457.219,415.577 455.45,416.286 453.117,416.286C451.186,416.286 449.716,415.725 448.706,414.603C447.696,413.482 447.185,411.821 447.174,409.623L447.174,397.837L450.271,397.837L450.271,409.539C450.271,412.285 451.387,413.657 453.619,413.657C455.985,413.657 457.559,412.776 458.34,411.012L458.34,397.837L461.437,397.837L461.437,415.951L458.491,415.951L458.424,414.16Z" style="fill:rgb(64,64,64);fill-rule:nonzero;"/>
                <path d="M465.389,406.743C465.389,403.964 466.048,401.73 467.365,400.039C468.682,398.348 470.406,397.503 472.538,397.503C474.658,397.503 476.338,398.228 477.576,399.679L477.576,390.237L480.674,390.237L480.674,415.951L477.828,415.951L477.677,414.009C476.438,415.527 474.714,416.286 472.504,416.286C470.406,416.286 468.696,415.426 467.373,413.708C466.05,411.989 465.389,409.746 465.389,406.978L465.389,406.743ZM468.486,407.095C468.486,409.148 468.91,410.756 469.759,411.916C470.607,413.077 471.779,413.657 473.274,413.657C475.238,413.657 476.672,412.776 477.576,411.012L477.576,402.692C476.65,400.985 475.227,400.131 473.308,400.131C471.79,400.131 470.607,400.717 469.759,401.889C468.91,403.06 468.486,404.796 468.486,407.095Z" style="fill:rgb(64,64,64);fill-rule:nonzero;"/>
                <path d="M501.517,411.682L504.999,397.837L508.096,397.837L502.823,415.951L500.312,415.951L495.909,402.223L491.623,415.951L489.112,415.951L483.855,397.837L486.936,397.837L490.502,411.397L494.72,397.837L497.215,397.837L501.517,411.682Z" style="fill:rgb(64,64,64);fill-rule:nonzero;"/>
                <path d="M514.609,415.951L511.512,415.951L511.512,397.837L514.609,397.837L514.609,415.951ZM511.261,393.033C511.261,392.531 511.415,392.106 511.722,391.76C512.028,391.414 512.483,391.241 513.086,391.241C513.689,391.241 514.146,391.414 514.459,391.76C514.771,392.106 514.927,392.531 514.927,393.033C514.927,393.535 514.771,393.953 514.459,394.288C514.146,394.623 513.689,394.791 513.086,394.791C512.483,394.791 512.028,394.623 511.722,394.288C511.415,393.953 511.261,393.535 511.261,393.033Z" style="fill:rgb(64,64,64);fill-rule:nonzero;"/>
                <path d="M518.829,406.743C518.829,403.92 519.482,401.674 520.788,400.005C522.094,398.337 523.824,397.503 525.977,397.503C528.187,397.503 529.912,398.284 531.15,399.846L531.301,397.837L534.13,397.837L534.13,415.516C534.13,417.859 533.435,419.706 532.046,421.057C530.657,422.407 528.79,423.082 526.446,423.082C525.14,423.082 523.863,422.803 522.613,422.245C521.363,421.687 520.408,420.923 519.75,419.952L521.357,418.094C522.685,419.734 524.309,420.555 526.229,420.555C527.735,420.555 528.91,420.13 529.753,419.282C530.595,418.434 531.016,417.24 531.016,415.7L531.016,414.143C529.778,415.571 528.087,416.286 525.944,416.286C523.824,416.286 522.108,415.432 520.796,413.724C519.485,412.017 518.829,409.69 518.829,406.743ZM521.943,407.095C521.943,409.137 522.361,410.742 523.199,411.908C524.036,413.074 525.207,413.657 526.714,413.657C528.667,413.657 530.101,412.77 531.016,410.996L531.016,402.726C530.068,400.996 528.645,400.131 526.748,400.131C525.241,400.131 524.063,400.717 523.215,401.889C522.367,403.06 521.943,404.796 521.943,407.095Z" style="fill:rgb(64,64,64);fill-rule:nonzero;"/>
                <path d="M549.349,411.146C549.349,410.309 549.033,409.659 548.403,409.196C547.772,408.733 546.673,408.334 545.105,407.999C543.537,407.664 542.293,407.262 541.372,406.794C540.451,406.325 539.77,405.767 539.329,405.12C538.889,404.472 538.668,403.702 538.668,402.809C538.668,401.325 539.296,400.069 540.551,399.043C541.807,398.016 543.411,397.503 545.364,397.503C547.418,397.503 549.084,398.033 550.362,399.093C551.639,400.153 552.278,401.509 552.278,403.161L549.165,403.161C549.165,402.313 548.805,401.582 548.085,400.968C547.365,400.354 546.458,400.047 545.364,400.047C544.237,400.047 543.356,400.293 542.719,400.784C542.083,401.275 541.765,401.916 541.765,402.709C541.765,403.457 542.061,404.02 542.652,404.4C543.244,404.779 544.313,405.142 545.858,405.488C547.404,405.834 548.657,406.247 549.617,406.727C550.576,407.207 551.288,407.784 551.751,408.459C552.214,409.135 552.446,409.958 552.446,410.929C552.446,412.547 551.798,413.844 550.504,414.821C549.209,415.797 547.53,416.286 545.465,416.286C544.014,416.286 542.731,416.029 541.615,415.516C540.498,415.002 539.625,414.285 538.995,413.364C538.364,412.444 538.049,411.448 538.049,410.376L541.146,410.376C541.202,411.414 541.617,412.237 542.393,412.845C543.169,413.454 544.193,413.758 545.465,413.758C546.637,413.758 547.577,413.521 548.286,413.046C548.994,412.572 549.349,411.939 549.349,411.146Z" style="fill:rgb(64,64,64);fill-rule:nonzero;"/>
                <path d="M559.579,400.03C560.951,398.345 562.737,397.503 564.936,397.503C568.764,397.503 570.694,399.662 570.728,403.981L570.728,415.951L567.631,415.951L567.631,403.964C567.62,402.659 567.321,401.693 566.735,401.068C566.149,400.443 565.237,400.131 563.998,400.131C562.994,400.131 562.112,400.399 561.353,400.934C560.594,401.47 560.003,402.173 559.579,403.044L559.579,415.951L556.481,415.951L556.481,390.237L559.579,390.237L559.579,400.03Z" style="fill:rgb(64,64,64);fill-rule:nonzero;"/>
                <path d="M586.549,415.951C586.37,415.594 586.225,414.958 586.114,414.042C584.674,415.538 582.955,416.286 580.958,416.286C579.172,416.286 577.707,415.781 576.563,414.771C575.419,413.761 574.847,412.48 574.847,410.929C574.847,409.042 575.564,407.578 576.998,406.534C578.433,405.491 580.45,404.969 583.05,404.969L586.064,404.969L586.064,403.546C586.064,402.463 585.74,401.601 585.093,400.959C584.445,400.318 583.491,399.997 582.23,399.997C581.125,399.997 580.199,400.276 579.451,400.834C578.703,401.392 578.329,402.067 578.329,402.86L575.216,402.86C575.216,401.956 575.536,401.082 576.178,400.24C576.82,399.397 577.69,398.73 578.79,398.239C579.889,397.748 581.097,397.503 582.414,397.503C584.501,397.503 586.136,398.024 587.319,399.068C588.502,400.111 589.116,401.548 589.161,403.379L589.161,411.715C589.161,413.378 589.373,414.701 589.797,415.683L589.797,415.951L586.549,415.951ZM581.41,413.59C582.381,413.59 583.301,413.339 584.172,412.837C585.042,412.335 585.673,411.682 586.064,410.878L586.064,407.162L583.636,407.162C579.842,407.162 577.944,408.272 577.944,410.493C577.944,411.464 578.268,412.223 578.915,412.77C579.563,413.317 580.394,413.59 581.41,413.59Z" style="fill:rgb(64,64,64);fill-rule:nonzero;"/>
                <path d="M595.54,415.951L595.54,400.231L592.677,400.231L592.677,397.837L595.54,397.837L595.54,395.979C595.54,394.037 596.059,392.536 597.097,391.476C598.135,390.416 599.602,389.885 601.5,389.885C602.214,389.885 602.923,389.98 603.626,390.17L603.458,392.681C602.934,392.581 602.376,392.531 601.784,392.531C600.78,392.531 600.004,392.823 599.457,393.409C598.91,393.995 598.637,394.835 598.637,395.929L598.637,397.837L602.504,397.837L602.504,400.231L598.637,400.231L598.637,415.951L595.54,415.951Z" style="fill:rgb(64,64,64);fill-rule:nonzero;"/>
                <path d="M613.035,416.286C610.58,416.286 608.582,415.479 607.042,413.867C605.502,412.254 604.732,410.097 604.732,407.396L604.732,406.827C604.732,405.03 605.075,403.426 605.761,402.014C606.448,400.602 607.408,399.497 608.641,398.699C609.874,397.902 611.21,397.503 612.65,397.503C615.005,397.503 616.835,398.278 618.141,399.829C619.447,401.381 620.1,403.602 620.1,406.492L620.1,407.781L607.829,407.781C607.873,409.567 608.395,411.01 609.394,412.109C610.393,413.208 611.662,413.758 613.203,413.758C614.296,413.758 615.223,413.535 615.982,413.088C616.74,412.642 617.405,412.05 617.974,411.314L619.865,412.787C618.348,415.119 616.071,416.286 613.035,416.286ZM612.65,400.047C611.4,400.047 610.351,400.502 609.503,401.411C608.655,402.321 608.13,403.596 607.929,405.237L617.003,405.237L617.003,405.002C616.913,403.429 616.489,402.209 615.73,401.345C614.972,400.48 613.945,400.047 612.65,400.047Z" style="fill:rgb(64,64,64);fill-rule:nonzero;"/>
                <path d="M626.613,397.837L626.714,400.114C628.097,398.373 629.905,397.503 632.138,397.503C635.966,397.503 637.896,399.662 637.93,403.981L637.93,415.951L634.833,415.951L634.833,403.964C634.822,402.659 634.523,401.693 633.937,401.068C633.351,400.443 632.439,400.131 631.2,400.131C630.196,400.131 629.314,400.399 628.555,400.934C627.796,401.47 627.205,402.173 626.781,403.044L626.781,415.951L623.683,415.951L623.683,397.837L626.613,397.837Z" style="fill:rgb(64,64,64);fill-rule:nonzero;"/>
            </g>
            <g transform="matrix(1,0,0,1,708.947,864.483)">
                <path d="M0,-648.048L-337.894,-648.048C-349.112,-648.048 -359.477,-642.063 -365.086,-632.348L-534.033,-339.724C-539.642,-330.009 -539.642,-318.039 -534.033,-308.325L-365.086,-15.7C-359.477,-5.985 -349.112,0 -337.894,0L0,0C11.218,0 21.584,-5.985 27.193,-15.7L196.14,-308.325C201.748,-318.039 201.748,-330.009 196.14,-339.724L27.193,-632.348C21.584,-642.063 11.218,-648.048 0,-648.048M0,-647.048C10.826,-647.048 20.914,-641.224 26.327,-631.848L195.273,-339.224C200.686,-329.848 200.686,-318.2 195.273,-308.825L26.327,-16.2C20.914,-6.824 10.826,-1 0,-1L-337.894,-1C-348.72,-1 -358.807,-6.824 -364.22,-16.2L-533.167,-308.825C-538.58,-318.2 -538.58,-329.848 -533.167,-339.224L-364.22,-631.848C-358.807,-641.224 -348.72,-647.048 -337.894,-647.048L0,-647.048" style="fill:rgb(167,165,165);fill-rule:nonzero;"/>
            </g>
        </g>
        <g id="AffectedObject35" transform="matrix(1.45836,0,0,1.45836,1277.31,2222.57)">
            <g transform="matrix(1,0,0,1,371.053,216.935)">
                <path d="M0,647.047C-11.004,647.047 -21.258,641.127 -26.76,631.598L-195.707,338.973C-201.208,329.443 -201.208,317.604 -195.707,308.074L-26.76,15.449C-21.257,5.92 -11.004,0 0,0L337.894,0C348.897,0 359.151,5.92 364.654,15.449L533.6,308.074C539.102,317.604 539.102,329.443 533.6,338.973L364.654,631.598C359.151,641.127 348.898,647.047 337.894,647.047L0,647.047Z" style="fill:white;fill-rule:nonzero;"/>
            </g>
            <g transform="matrix(1,0,0,1,733.385,371.504)">
                <path d="M0,-142.023C-4.84,-150.405 -13.784,-155.569 -23.463,-155.569L-363.307,-155.569C-372.986,-155.569 -381.93,-150.405 -386.769,-142.023L-469.385,1.071C-383.992,9.12 -290.869,13.546 -193.385,13.546C-95.9,13.546 -2.778,9.12 82.615,1.071L0,-142.023Z" style="fill:rgb(232,116,115);fill-rule:nonzero;stroke:rgb(166,163,164);stroke-width:2.86px;"/>
            </g>
            <g transform="matrix(0.413731,0,0,0.413731,-390.895,-115.984)">
                <path d="M2871.51,1388.91C2871.51,1313.38 2810.19,1252.05 2734.65,1252.05L1765.35,1252.05C1689.81,1252.05 1628.49,1313.38 1628.49,1388.91L1628.49,1784.38C1628.49,1859.91 1689.81,1921.23 1765.35,1921.23L2734.65,1921.23C2810.19,1921.23 2871.51,1859.91 2871.51,1784.38L2871.51,1388.91Z" style="fill:rgb(244,244,244);stroke:rgb(204,204,204);stroke-width:6.91px;stroke-linecap:round;stroke-linejoin:round;stroke-miterlimit:1.5;"/>
            </g>
            <g transform="matrix(2.17163,0,0,3.65324,-644.825,-877.472)">
                <path d="M498.829,378.822L493.556,378.822L493.556,384.22L490.58,384.22L490.58,370.876L498.012,370.876C500.54,370.876 502.485,371.218 503.847,371.902C505.209,372.587 505.89,373.583 505.89,374.89C505.89,375.721 505.512,376.445 504.757,377.062C504.002,377.679 502.951,378.141 501.604,378.446L506.877,384.11L506.877,384.22L503.701,384.22L498.829,378.822ZM493.556,377.383L498.104,377.383C499.574,377.383 500.743,377.157 501.612,376.705C502.48,376.253 502.915,375.648 502.915,374.89C502.915,374.065 502.501,373.433 501.673,372.993C500.846,372.553 499.651,372.33 498.089,372.324L493.556,372.324L493.556,377.383Z" style="fill:rgb(64,64,64);fill-rule:nonzero;"/>
                <path d="M519.893,384.22C519.728,384.024 519.594,383.676 519.492,383.175C518.166,383.994 516.583,384.403 514.743,384.403C513.098,384.403 511.749,384.127 510.696,383.574C509.642,383.021 509.116,382.32 509.116,381.471C509.116,380.438 509.776,379.636 511.097,379.065C512.418,378.493 514.275,378.208 516.67,378.208L519.445,378.208L519.445,377.429C519.445,376.836 519.147,376.364 518.551,376.013C517.955,375.661 517.076,375.486 515.915,375.486C514.897,375.486 514.044,375.639 513.355,375.944C512.667,376.25 512.322,376.619 512.322,377.053L509.455,377.053C509.455,376.558 509.75,376.08 510.341,375.619C510.932,375.157 511.734,374.792 512.746,374.524C513.759,374.255 514.871,374.12 516.084,374.12C518.006,374.12 519.512,374.406 520.602,374.977C521.691,375.548 522.257,376.335 522.298,377.337L522.298,381.901C522.298,382.812 522.493,383.536 522.884,384.073L522.884,384.22L519.893,384.22ZM515.159,382.928C516.054,382.928 516.901,382.79 517.703,382.515C518.505,382.24 519.086,381.883 519.445,381.443L519.445,379.408L517.21,379.408C513.715,379.408 511.968,380.016 511.968,381.232C511.968,381.764 512.266,382.179 512.862,382.479C513.458,382.778 514.224,382.928 515.159,382.928Z" style="fill:rgb(64,64,64);fill-rule:nonzero;"/>
                <path d="M530.642,371.902L530.642,374.304L533.756,374.304L533.756,375.614L530.642,375.614L530.642,381.764C530.642,382.161 530.78,382.459 531.058,382.657C531.336,382.856 531.808,382.955 532.476,382.955C532.805,382.955 533.258,382.919 533.833,382.845L533.833,384.22C533.083,384.342 532.353,384.403 531.644,384.403C530.369,384.403 529.408,384.174 528.761,383.716C528.113,383.258 527.789,382.607 527.789,381.764L527.789,375.614L524.752,375.614L524.752,374.304L527.789,374.304L527.789,371.902L530.642,371.902Z" style="fill:rgb(64,64,64);fill-rule:nonzero;"/>
                <path d="M539.942,375.504C541.206,374.582 542.85,374.12 544.875,374.12C548.401,374.12 550.179,375.303 550.21,377.667L550.21,384.22L547.358,384.22L547.358,377.658C547.347,376.943 547.072,376.415 546.533,376.072C545.993,375.73 545.153,375.559 544.012,375.559C543.087,375.559 542.275,375.706 541.576,375.999C540.877,376.292 540.332,376.677 539.942,377.154L539.942,384.22L537.089,384.22L537.089,370.143L539.942,370.143L539.942,375.504Z" style="fill:rgb(64,64,64);fill-rule:nonzero;"/>
                <path d="M564.783,384.22C564.618,384.024 564.485,383.676 564.382,383.175C563.056,383.994 561.473,384.403 559.633,384.403C557.989,384.403 556.64,384.127 555.586,383.574C554.532,383.021 554.006,382.32 554.006,381.471C554.006,380.438 554.666,379.636 555.987,379.065C557.308,378.493 559.165,378.208 561.56,378.208L564.336,378.208L564.336,377.429C564.336,376.836 564.037,376.364 563.441,376.013C562.845,375.661 561.966,375.486 560.805,375.486C559.787,375.486 558.934,375.639 558.246,375.944C557.557,376.25 557.213,376.619 557.213,377.053L554.345,377.053C554.345,376.558 554.64,376.08 555.231,375.619C555.822,375.157 556.624,374.792 557.637,374.524C558.649,374.255 559.762,374.12 560.974,374.12C562.897,374.12 564.402,374.406 565.492,374.977C566.581,375.548 567.147,376.335 567.188,377.337L567.188,381.901C567.188,382.812 567.383,383.536 567.774,384.073L567.774,384.22L564.783,384.22ZM560.049,382.928C560.944,382.928 561.792,382.79 562.593,382.515C563.395,382.24 563.976,381.883 564.336,381.443L564.336,379.408L562.1,379.408C558.605,379.408 556.858,380.016 556.858,381.232C556.858,381.764 557.156,382.179 557.752,382.479C558.348,382.778 559.114,382.928 560.049,382.928Z" style="fill:rgb(64,64,64);fill-rule:nonzero;"/>
                <path d="M581.961,383.239C580.851,384.015 579.222,384.403 577.074,384.403C575.295,384.403 573.941,384.096 573.011,383.482C572.081,382.868 571.611,381.959 571.6,380.756L571.6,374.304L574.453,374.304L574.453,380.71C574.453,382.213 575.48,382.964 577.536,382.964C579.715,382.964 581.164,382.482 581.884,381.516L581.884,374.304L584.736,374.304L584.736,384.22L582.023,384.22L581.961,383.239Z" style="fill:rgb(64,64,64);fill-rule:nonzero;"/>
                <path d="M598.785,381.59C598.785,381.131 598.494,380.776 597.914,380.522C597.333,380.268 596.32,380.05 594.876,379.867C593.432,379.683 592.286,379.463 591.438,379.207C590.59,378.95 589.963,378.645 589.557,378.29C589.151,377.936 588.948,377.514 588.948,377.026C588.948,376.213 589.526,375.526 590.683,374.963C591.839,374.401 593.317,374.12 595.115,374.12C597.007,374.12 598.541,374.41 599.718,374.991C600.894,375.571 601.483,376.314 601.483,377.218L598.615,377.218C598.615,376.754 598.284,376.353 597.621,376.017C596.958,375.681 596.123,375.513 595.115,375.513C594.077,375.513 593.265,375.648 592.679,375.917C592.093,376.185 591.801,376.537 591.801,376.971C591.801,377.38 592.073,377.688 592.618,377.896C593.162,378.104 594.147,378.303 595.57,378.492C596.994,378.681 598.147,378.907 599.031,379.17C599.915,379.433 600.571,379.749 600.997,380.119C601.424,380.488 601.637,380.939 601.637,381.471C601.637,382.356 601.041,383.067 599.849,383.601C598.656,384.136 597.109,384.403 595.208,384.403C593.872,384.403 592.69,384.263 591.662,383.982C590.634,383.701 589.83,383.308 589.249,382.804C588.668,382.3 588.378,381.755 588.378,381.168L591.23,381.168C591.281,381.736 591.664,382.187 592.379,382.52C593.093,382.853 594.036,383.019 595.208,383.019C596.287,383.019 597.153,382.89 597.806,382.63C598.458,382.37 598.785,382.023 598.785,381.59Z" style="fill:rgb(64,64,64);fill-rule:nonzero;"/>
                <path d="M453.057,404.679L463.695,404.679L463.695,406.118L450.082,406.118L450.082,392.774L453.057,392.774L453.057,404.679Z" style="fill:rgb(64,64,64);fill-rule:nonzero;"/>
                <path d="M476.246,405.137C475.136,405.913 473.507,406.301 471.359,406.301C469.581,406.301 468.227,405.994 467.296,405.38C466.366,404.766 465.896,403.857 465.886,402.654L465.886,396.202L468.738,396.202L468.738,402.608C468.738,404.111 469.766,404.862 471.822,404.862C474.001,404.862 475.45,404.38 476.169,403.414L476.169,396.202L479.022,396.202L479.022,406.118L476.308,406.118L476.246,405.137Z" style="fill:rgb(64,64,64);fill-rule:nonzero;"/>
                <path d="M482.661,401.077C482.661,399.556 483.268,398.332 484.481,397.407C485.693,396.481 487.281,396.018 489.245,396.018C491.197,396.018 492.744,396.415 493.885,397.21L493.885,392.041L496.738,392.041L496.738,406.118L494.117,406.118L493.978,405.055C492.837,405.886 491.249,406.301 489.214,406.301C487.281,406.301 485.706,405.831 484.488,404.89C483.27,403.949 482.661,402.721 482.661,401.206L482.661,401.077ZM485.514,401.27C485.514,402.394 485.904,403.274 486.685,403.909C487.466,404.545 488.546,404.862 489.923,404.862C491.732,404.862 493.053,404.38 493.885,403.414L493.885,398.859C493.032,397.925 491.722,397.457 489.954,397.457C488.556,397.457 487.466,397.778 486.685,398.419C485.904,399.061 485.514,400.011 485.514,401.27Z" style="fill:rgb(64,64,64);fill-rule:nonzero;"/>
                <path d="M515.934,403.781L519.141,396.202L521.993,396.202L517.136,406.118L514.824,406.118L510.769,398.603L506.822,406.118L504.509,406.118L499.668,396.202L502.505,396.202L505.789,403.625L509.674,396.202L511.971,396.202L515.934,403.781Z" style="fill:rgb(64,64,64);fill-rule:nonzero;"/>
                <path d="M527.991,406.118L525.139,406.118L525.139,396.202L527.991,396.202L527.991,406.118ZM524.908,393.571C524.908,393.296 525.049,393.064 525.332,392.875C525.614,392.685 526.033,392.591 526.588,392.591C527.143,392.591 527.565,392.685 527.853,392.875C528.14,393.064 528.284,393.296 528.284,393.571C528.284,393.846 528.14,394.075 527.853,394.259C527.565,394.442 527.143,394.534 526.588,394.534C526.033,394.534 525.614,394.442 525.332,394.259C525.049,394.075 524.908,393.846 524.908,393.571Z" style="fill:rgb(64,64,64);fill-rule:nonzero;"/>
                <path d="M531.878,401.077C531.878,399.531 532.479,398.302 533.682,397.388C534.884,396.475 536.477,396.018 538.461,396.018C540.496,396.018 542.084,396.446 543.225,397.301L543.364,396.202L545.969,396.202L545.969,405.88C545.969,407.163 545.33,408.174 544.05,408.913C542.77,409.653 541.051,410.022 538.893,410.022C537.69,410.022 536.513,409.869 535.362,409.564C534.211,409.258 533.332,408.84 532.726,408.308L534.206,407.291C535.429,408.189 536.924,408.638 538.692,408.638C540.08,408.638 541.162,408.406 541.938,407.942C542.714,407.477 543.102,406.824 543.102,405.98L543.102,405.128C541.961,405.91 540.404,406.301 538.43,406.301C536.477,406.301 534.897,405.834 533.689,404.899C532.482,403.964 531.878,402.69 531.878,401.077ZM534.745,401.27C534.745,402.388 535.131,403.266 535.902,403.905C536.673,404.543 537.752,404.862 539.139,404.862C540.938,404.862 542.259,404.377 543.102,403.405L543.102,398.878C542.228,397.931 540.918,397.457 539.17,397.457C537.783,397.457 536.698,397.778 535.917,398.419C535.136,399.061 534.745,400.011 534.745,401.27Z" style="fill:rgb(64,64,64);fill-rule:nonzero;"/>
                <path d="M559.985,403.488C559.985,403.029 559.695,402.673 559.114,402.42C558.533,402.166 557.521,401.948 556.077,401.765C554.633,401.581 553.487,401.361 552.639,401.105C551.791,400.848 551.164,400.543 550.758,400.188C550.352,399.834 550.149,399.412 550.149,398.924C550.149,398.111 550.727,397.424 551.883,396.861C553.04,396.299 554.517,396.018 556.316,396.018C558.207,396.018 559.741,396.308 560.918,396.889C562.095,397.469 562.683,398.212 562.683,399.116L559.816,399.116C559.816,398.652 559.484,398.251 558.821,397.915C558.158,397.579 557.323,397.411 556.316,397.411C555.278,397.411 554.466,397.546 553.88,397.815C553.294,398.083 553.001,398.435 553.001,398.869C553.001,399.278 553.273,399.586 553.818,399.794C554.363,400.002 555.347,400.2 556.771,400.39C558.194,400.579 559.348,400.805 560.232,401.068C561.116,401.331 561.771,401.647 562.198,402.017C562.624,402.386 562.837,402.837 562.837,403.368C562.837,404.254 562.241,404.965 561.049,405.499C559.857,406.034 558.31,406.301 556.408,406.301C555.072,406.301 553.89,406.161 552.862,405.88C551.834,405.599 551.03,405.206 550.449,404.702C549.869,404.198 549.578,403.653 549.578,403.066L552.431,403.066C552.482,403.634 552.865,404.085 553.579,404.418C554.293,404.751 555.237,404.917 556.408,404.917C557.488,404.917 558.353,404.788 559.006,404.528C559.659,404.268 559.985,403.921 559.985,403.488Z" style="fill:rgb(64,64,64);fill-rule:nonzero;"/>
                <path d="M569.406,397.402C570.671,396.48 572.315,396.018 574.34,396.018C577.866,396.018 579.644,397.201 579.675,399.565L579.675,406.118L576.822,406.118L576.822,399.556C576.812,398.841 576.537,398.313 575.998,397.97C575.458,397.628 574.618,397.457 573.477,397.457C572.552,397.457 571.74,397.604 571.041,397.897C570.342,398.19 569.797,398.575 569.406,399.052L569.406,406.118L566.554,406.118L566.554,392.041L569.406,392.041L569.406,397.402Z" style="fill:rgb(64,64,64);fill-rule:nonzero;"/>
                <path d="M594.245,406.118C594.081,405.922 593.947,405.574 593.845,405.073C592.519,405.892 590.936,406.301 589.096,406.301C587.451,406.301 586.102,406.025 585.049,405.472C583.995,404.919 583.468,404.218 583.468,403.368C583.468,402.336 584.129,401.534 585.45,400.963C586.77,400.391 588.628,400.106 591.023,400.106L593.798,400.106L593.798,399.327C593.798,398.734 593.5,398.262 592.904,397.911C592.308,397.559 591.429,397.384 590.268,397.384C589.25,397.384 588.397,397.537 587.708,397.842C587.02,398.148 586.675,398.517 586.675,398.951L583.808,398.951C583.808,398.456 584.103,397.978 584.694,397.517C585.285,397.055 586.087,396.69 587.099,396.422C588.112,396.153 589.224,396.018 590.437,396.018C592.359,396.018 593.865,396.304 594.955,396.875C596.044,397.446 596.609,398.233 596.651,399.235L596.651,403.799C596.651,404.71 596.846,405.434 597.236,405.971L597.236,406.118L594.245,406.118ZM589.512,404.826C590.406,404.826 591.254,404.688 592.056,404.413C592.858,404.138 593.439,403.781 593.798,403.341L593.798,401.306L591.563,401.306C588.068,401.306 586.321,401.914 586.321,403.13C586.321,403.662 586.619,404.077 587.215,404.377C587.811,404.676 588.577,404.826 589.512,404.826Z" style="fill:rgb(64,64,64);fill-rule:nonzero;"/>
                <path d="M602.526,406.118L602.526,397.512L599.889,397.512L599.889,396.202L602.526,396.202L602.526,395.184C602.526,394.121 603.004,393.299 603.96,392.719C604.916,392.138 606.267,391.848 608.014,391.848C608.672,391.848 609.325,391.9 609.972,392.004L609.818,393.379C609.335,393.324 608.821,393.296 608.277,393.296C607.351,393.296 606.637,393.457 606.133,393.777C605.63,394.098 605.378,394.558 605.378,395.157L605.378,396.202L608.94,396.202L608.94,397.512L605.378,397.512L605.378,406.118L602.526,406.118Z" style="fill:rgb(64,64,64);fill-rule:nonzero;"/>
                <path d="M618.638,406.301C616.377,406.301 614.537,405.86 613.119,404.977C611.7,404.094 610.991,402.913 610.991,401.435L610.991,401.123C610.991,400.139 611.307,399.261 611.939,398.488C612.571,397.715 613.455,397.11 614.591,396.674C615.727,396.237 616.958,396.018 618.284,396.018C620.452,396.018 622.138,396.443 623.341,397.292C624.543,398.141 625.145,399.357 625.145,400.94L625.145,401.645L613.843,401.645C613.885,402.623 614.365,403.413 615.285,404.015C616.205,404.616 617.374,404.917 618.792,404.917C619.8,404.917 620.653,404.795 621.352,404.551C622.051,404.306 622.662,403.983 623.187,403.579L624.929,404.386C623.531,405.663 621.434,406.301 618.638,406.301ZM618.284,397.411C617.133,397.411 616.166,397.66 615.385,398.158C614.604,398.656 614.121,399.354 613.936,400.252L622.292,400.252L622.292,400.124C622.21,399.263 621.819,398.595 621.121,398.122C620.422,397.648 619.476,397.411 618.284,397.411Z" style="fill:rgb(64,64,64);fill-rule:nonzero;"/>
                <path d="M631.143,396.202L631.236,397.448C632.51,396.495 634.175,396.018 636.231,396.018C639.756,396.018 641.535,397.201 641.565,399.565L641.565,406.118L638.713,406.118L638.713,399.556C638.703,398.841 638.428,398.313 637.888,397.97C637.349,397.628 636.508,397.457 635.368,397.457C634.442,397.457 633.63,397.604 632.932,397.897C632.233,398.19 631.688,398.575 631.297,399.052L631.297,406.118L628.445,406.118L628.445,396.202L631.143,396.202Z" style="fill:rgb(64,64,64);fill-rule:nonzero;"/>
            </g>
            <g transform="matrix(1,0,0,1,708.947,864.483)">
                <path d="M0,-648.048L-337.894,-648.048C-349.112,-648.048 -359.477,-642.063 -365.086,-632.348L-534.033,-339.724C-539.642,-330.009 -539.642,-318.039 -534.033,-308.325L-365.086,-15.7C-359.477,-5.985 -349.112,0 -337.894,0L0,0C11.218,0 21.584,-5.985 27.193,-15.7L196.14,-308.325C201.748,-318.039 201.748,-330.009 196.14,-339.724L27.193,-632.348C21.584,-642.063 11.218,-648.048 0,-648.048M0,-647.048C10.826,-647.048 20.914,-641.224 26.327,-631.848L195.273,-339.224C200.686,-329.848 200.686,-318.2 195.273,-308.825L26.327,-16.2C20.914,-6.824 10.826,-1 0,-1L-337.894,-1C-348.72,-1 -358.807,-6.824 -364.22,-16.2L-533.167,-308.825C-538.58,-318.2 -538.58,-329.848 -533.167,-339.224L-364.22,-631.848C-358.807,-641.224 -348.72,-647.048 -337.894,-647.048L0,-647.048" style="fill:rgb(167,165,165);fill-rule:nonzero;"/>
            </g>
        </g>
    </g>
</svg>
