<?xml version="1.0" encoding="UTF-8" standalone="no"?>
<!DOCTYPE svg PUBLIC "-//W3C//DTD SVG 1.1//EN" "http://www.w3.org/Graphics/SVG/1.1/DTD/svg11.dtd">
<svg width="100%" height="100%" viewBox="0 0 293 293" version="1.1" xmlns="http://www.w3.org/2000/svg" xmlns:xlink="http://www.w3.org/1999/xlink" xml:space="preserve" xmlns:serif="http://www.serif.com/" style="fill-rule:evenodd;clip-rule:evenodd;stroke-linejoin:round;stroke-miterlimit:2;">
    <g transform="matrix(1,0,0,1,-2785.94,-4059.88)">
        <g transform="matrix(4.16667,0,0,4.16667,0,0)">
            <g transform="matrix(1,0,0,1,703.707,1038.47)">
                <path d="M0,-58.039C-16.001,-58.039 -29.019,-45.021 -29.019,-29.02C-29.019,-13.019 -16.001,-0.001 0,-0.001C16.002,-0.001 29.019,-13.019 29.019,-29.02C29.019,-45.021 16.002,-58.039 0,-58.039M0,6.063C-19.344,6.063 -35.082,-9.675 -35.082,-29.02C-35.082,-48.364 -19.344,-64.102 0,-64.102C19.345,-64.102 35.083,-48.364 35.083,-29.02C35.083,-9.675 19.345,6.063 0,6.063" style="fill:rgb(129,199,132);fill-rule:nonzero;"/>
            </g>
            <g transform="matrix(0.672229,0.740343,0.740343,-0.672229,697.655,1006.03)">
                <rect x="8.618" y="-6.5" width="6.064" height="25.965" style="fill:rgb(129,199,132);"/>
            </g>
            <g transform="matrix(0.672211,0.74036,0.74036,-0.672211,696.14,1005.33)">
                <rect x="-0.495" y="-7.181" width="16.713" height="6.063" style="fill:rgb(129,199,132);"/>
            </g>
        </g>
    </g>
</svg>
