<?xml version="1.0" encoding="UTF-8" standalone="no"?>
<!DOCTYPE svg PUBLIC "-//W3C//DTD SVG 1.1//EN" "http://www.w3.org/Graphics/SVG/1.1/DTD/svg11.dtd">
<svg width="100%" height="100%" viewBox="0 0 4500 4500" version="1.1" xmlns="http://www.w3.org/2000/svg" xmlns:xlink="http://www.w3.org/1999/xlink" xml:space="preserve" xmlns:serif="http://www.serif.com/" style="fill-rule:evenodd;clip-rule:evenodd;stroke-miterlimit:10;">
    <g transform="matrix(4.16667,0,0,4.16667,-0.826651,228.599)">
        <g id="EmergencyAction100" transform="matrix(1,0,0,1,-170.009,-170.434)">
            <g id="body" transform="matrix(1,0,0,1,370.553,216.397)">
                <path d="M0,647.047C-11.004,647.047 -21.258,641.127 -26.76,631.598L-195.707,338.973C-201.208,329.443 -201.208,317.604 -195.707,308.074L-26.76,15.449C-21.258,5.92 -11.004,0 0,0L337.894,0C348.898,0 359.151,5.92 364.654,15.449L533.6,308.074C539.102,317.604 539.102,329.443 533.6,338.973L364.654,631.598C359.151,641.127 348.898,647.047 337.894,647.047L0,647.047Z" style="fill:white;fill-rule:nonzero;"/>
            </g>
            <g id="category" transform="matrix(1,0,0,1,197.086,385.349)">
                <path d="M0,101.76L684.827,101.76L626.076,0L58.751,0L0,101.76Z" style="fill:rgb(77,182,172);fill-rule:nonzero;"/>
            </g>
            <g transform="matrix(1,0,0,1,708.447,863.945)">
                <path d="M0,-648.048L-337.894,-648.048C-349.112,-648.048 -359.477,-642.063 -365.086,-632.348L-534.033,-339.724C-539.642,-330.009 -539.642,-318.04 -534.033,-308.325L-365.086,-15.7C-359.477,-5.985 -349.112,0 -337.894,0L0,0C11.218,0 21.584,-5.985 27.193,-15.7L196.14,-308.325C201.748,-318.04 201.748,-330.009 196.14,-339.724L27.193,-632.348C21.584,-642.063 11.218,-648.048 0,-648.048M0,-647.048C10.826,-647.048 20.914,-641.224 26.327,-631.848L195.273,-339.224C200.686,-329.848 200.686,-318.2 195.273,-308.825L26.327,-16.2C20.914,-6.824 10.826,-1 0,-1L-337.894,-1C-348.72,-1 -358.807,-6.824 -364.22,-16.2L-533.167,-308.825C-538.58,-318.2 -538.58,-329.848 -533.167,-339.224L-364.22,-631.848C-358.807,-641.224 -348.72,-647.048 -337.894,-647.048L0,-647.048" style="fill:rgb(165,164,165);fill-rule:nonzero;"/>
            </g>
            <g id="tags">
                <g transform="matrix(1,0,0,1,777.739,644.06)">
                    <path d="M0,57.843L-262.986,57.843C-278.893,57.843 -291.908,44.828 -291.908,28.922C-291.908,13.015 -278.893,0 -262.986,0L0,0C15.907,0 28.921,13.015 28.921,28.922C28.921,44.828 15.907,57.843 0,57.843Z" style="fill:rgb(243,242,243);fill-rule:nonzero;stroke:rgb(164,163,163);stroke-width:1px;"/>
                </g>
                <g transform="matrix(1,0,0,1,449.229,644.06)">
                    <path d="M0,57.843L-147.968,57.843C-163.875,57.843 -176.889,44.828 -176.889,28.922C-176.889,13.015 -163.875,0 -147.968,0L0,0C15.907,0 28.921,13.015 28.921,28.922C28.921,44.828 15.907,57.843 0,57.843Z" style="fill:rgb(243,242,243);fill-rule:nonzero;stroke:rgb(164,163,163);stroke-width:1px;"/>
                </g>
                <g transform="matrix(1,0,0,1,742.543,714.227)">
                    <path d="M0,57.843L-140.986,57.843C-156.893,57.843 -169.908,44.828 -169.908,28.922C-169.908,13.015 -156.893,0 -140.986,0L0,0C15.907,0 28.921,13.015 28.921,28.922C28.921,44.828 15.907,57.843 0,57.843Z" style="fill:rgb(243,242,243);fill-rule:nonzero;stroke:rgb(164,163,163);stroke-width:1px;"/>
                </g>
                <g transform="matrix(1,0,0,1,537.443,715.227)">
                    <path d="M0,57.843L-200.986,57.843C-216.893,57.843 -229.908,44.828 -229.908,28.922C-229.908,13.015 -216.893,0 -200.986,0L0,0C15.907,0 28.921,13.015 28.921,28.922C28.921,44.828 15.907,57.843 0,57.843Z" style="fill:rgb(243,242,243);fill-rule:nonzero;stroke:rgb(164,163,163);stroke-width:1px;"/>
                </g>
                <g transform="matrix(1,0,0,1,649.885,785.394)">
                    <path d="M0,57.843L-220.77,57.843C-236.676,57.843 -249.691,44.828 -249.691,28.922C-249.691,13.015 -236.676,0 -220.77,0L0,0C15.907,0 28.921,13.015 28.921,28.922C28.921,44.828 15.907,57.843 0,57.843Z" style="fill:rgb(243,242,243);fill-rule:nonzero;stroke:rgb(164,163,163);stroke-width:1px;"/>
                </g>
                <g transform="matrix(1,0,0,1,677.525,573.394)">
                    <path d="M-96.406,57.843L-184.304,57.843C-200.21,57.843 -213.225,44.828 -213.225,28.922C-213.225,13.015 -200.21,0 -184.304,0L-96.406,0C-80.499,0 -67.485,13.015 -67.485,28.922C-67.485,44.828 -80.499,57.843 -96.406,57.843Z" style="fill:rgb(64,64,64);fill-rule:nonzero;stroke:rgb(164,163,163);stroke-width:1px;"/>
                </g>
            </g>
            <g id="texts">
                <g>
                    <path d="M496.526,595.859L496.638,597.668C497.855,596.248 499.52,595.538 501.634,595.538C503.95,595.538 505.535,596.424 506.389,598.196C507.649,596.424 509.421,595.538 511.705,595.538C513.616,595.538 515.038,596.067 515.972,597.123C516.906,598.18 517.384,599.739 517.405,601.799L517.405,613.183L513.514,613.183L513.514,601.911C513.514,600.811 513.274,600.005 512.794,599.493C512.313,598.981 511.518,598.725 510.408,598.725C509.522,598.725 508.799,598.962 508.239,599.437C507.678,599.912 507.286,600.534 507.062,601.302L507.078,613.183L503.187,613.183L503.187,601.783C503.134,599.744 502.093,598.725 500.065,598.725C498.506,598.725 497.402,599.36 496.751,600.63L496.751,613.183L492.86,613.183L492.86,595.859L496.526,595.859Z" style="fill:white;fill-rule:nonzero;"/>
                    <path d="M525.531,613.183L521.64,613.183L521.64,595.859L525.531,595.859L525.531,613.183ZM521.4,591.359C521.4,590.762 521.589,590.265 521.968,589.87C522.347,589.476 522.889,589.278 523.593,589.278C524.298,589.278 524.842,589.476 525.227,589.87C525.611,590.265 525.803,590.762 525.803,591.359C525.803,591.947 525.611,592.435 525.227,592.825C524.842,593.214 524.298,593.409 523.593,593.409C522.889,593.409 522.347,593.214 521.968,592.825C521.589,592.435 521.4,591.947 521.4,591.359Z" style="fill:white;fill-rule:nonzero;"/>
                    <path d="M534.633,591.648L534.633,595.859L537.692,595.859L537.692,598.741L534.633,598.741L534.633,608.411C534.633,609.073 534.764,609.551 535.026,609.844C535.287,610.138 535.754,610.285 536.427,610.285C536.875,610.285 537.329,610.231 537.788,610.124L537.788,613.135C536.902,613.38 536.048,613.503 535.226,613.503C532.237,613.503 530.743,611.854 530.743,608.555L530.743,598.741L527.893,598.741L527.893,595.859L530.743,595.859L530.743,591.648L534.633,591.648Z" style="fill:white;fill-rule:nonzero;"/>
                    <path d="M567.799,602.135C567.799,604.419 567.404,606.423 566.614,608.147C565.825,609.871 564.696,611.195 563.228,612.118C561.76,613.041 560.071,613.503 558.161,613.503C556.271,613.503 554.587,613.041 553.109,612.118C551.631,611.195 550.489,609.879 549.683,608.171C548.877,606.463 548.469,604.494 548.458,602.263L548.458,600.95C548.458,598.677 548.861,596.67 549.667,594.93C550.473,593.19 551.609,591.859 553.077,590.935C554.545,590.012 556.229,589.55 558.129,589.55C560.029,589.55 561.712,590.007 563.18,590.919C564.648,591.832 565.782,593.145 566.582,594.858C567.383,596.571 567.789,598.564 567.799,600.838L567.799,602.135ZM563.748,600.918C563.748,598.335 563.26,596.355 562.283,594.978C561.307,593.601 559.922,592.913 558.129,592.913C556.378,592.913 555.009,593.598 554.022,594.97C553.034,596.342 552.53,598.282 552.509,600.79L552.509,602.135C552.509,604.697 553.008,606.677 554.006,608.075C555.004,609.473 556.389,610.173 558.161,610.173C559.954,610.173 561.333,609.489 562.299,608.123C563.265,606.757 563.748,604.761 563.748,602.135L563.748,600.918Z" style="fill:white;fill-rule:nonzero;"/>
                    <path d="M586.877,613.183L571.202,613.183L571.202,610.509L578.967,602.039C580.088,600.79 580.886,599.747 581.361,598.909C581.836,598.071 582.073,597.23 582.073,596.387C582.073,595.277 581.761,594.38 581.137,593.697C580.512,593.014 579.672,592.672 578.615,592.672C577.356,592.672 576.379,593.057 575.685,593.825C574.991,594.594 574.644,595.645 574.644,596.979L570.754,596.979C570.754,595.56 571.077,594.282 571.722,593.145C572.368,592.008 573.291,591.125 574.492,590.495C575.693,589.865 577.078,589.55 578.647,589.55C580.91,589.55 582.695,590.119 584.003,591.255C585.31,592.392 585.964,593.964 585.964,595.971C585.964,597.134 585.636,598.354 584.98,599.629C584.323,600.905 583.248,602.354 581.753,603.976L576.053,610.076L586.877,610.076L586.877,613.183Z" style="fill:white;fill-rule:nonzero;"/>
                    <path d="M536.762,678.121C536.762,676.83 536.308,675.808 535.401,675.055C534.494,674.303 532.834,673.588 530.421,672.91C528.009,672.232 526.248,671.493 525.138,670.692C523.558,669.561 522.768,668.077 522.768,666.241C522.768,664.459 523.502,663.01 524.97,661.894C526.437,660.779 528.313,660.221 530.598,660.221C532.145,660.221 533.53,660.52 534.752,661.118C535.975,661.715 536.922,662.548 537.594,663.615C538.267,664.683 538.603,665.873 538.603,667.186L536.618,667.186C536.618,665.595 536.073,664.317 534.985,663.351C533.896,662.385 532.433,661.902 530.598,661.902C528.815,661.902 527.395,662.3 526.339,663.095C525.282,663.89 524.753,664.928 524.753,666.209C524.753,667.394 525.228,668.36 526.178,669.107C527.128,669.854 528.649,670.513 530.742,671.084C532.834,671.656 534.419,672.248 535.497,672.862C536.575,673.475 537.386,674.209 537.931,675.063C538.475,675.917 538.747,676.926 538.747,678.089C538.747,679.925 538.013,681.398 536.546,682.508C535.078,683.618 533.143,684.174 530.742,684.174C529.098,684.174 527.59,683.88 526.218,683.293C524.847,682.706 523.806,681.884 523.096,680.827C522.386,679.77 522.032,678.559 522.032,677.193L524.001,677.193C524.001,678.836 524.615,680.133 525.842,681.083C527.07,682.033 528.703,682.508 530.742,682.508C532.556,682.508 534.013,682.108 535.113,681.308C536.212,680.507 536.762,679.445 536.762,678.121Z" style="fill:rgb(64,64,64);fill-rule:nonzero;"/>
                    <path d="M541.486,674.935C541.486,673.27 541.809,671.77 542.455,670.436C543.1,669.102 544.013,668.064 545.192,667.322C546.372,666.58 547.709,666.209 549.203,666.209C551.509,666.209 553.377,667.018 554.807,668.635C556.237,670.252 556.953,672.395 556.953,675.063L556.953,675.463C556.953,677.139 556.63,678.647 555.984,679.987C555.338,681.326 554.428,682.359 553.254,683.085C552.08,683.811 550.74,684.174 549.235,684.174C546.94,684.174 545.075,683.365 543.639,681.748C542.204,680.131 541.486,677.988 541.486,675.319L541.486,674.935ZM543.407,675.463C543.407,677.534 543.944,679.234 545.016,680.563C546.089,681.892 547.495,682.556 549.235,682.556C550.964,682.556 552.365,681.892 553.438,680.563C554.511,679.234 555.047,677.481 555.047,675.303L555.047,674.935C555.047,673.612 554.802,672.4 554.311,671.301C553.82,670.201 553.131,669.35 552.245,668.747C551.359,668.144 550.345,667.842 549.203,667.842C547.495,667.842 546.102,668.512 545.024,669.852C543.946,671.191 543.407,672.944 543.407,675.111L543.407,675.463Z" style="fill:rgb(64,64,64);fill-rule:nonzero;"/>
                    <path d="M562.733,666.529L562.797,669.491C563.449,668.424 564.26,667.61 565.231,667.05C566.202,666.489 567.275,666.209 568.449,666.209C570.307,666.209 571.689,666.732 572.596,667.778C573.504,668.824 573.963,670.393 573.973,672.485L573.973,683.853L572.068,683.853L572.068,672.469C572.057,670.922 571.729,669.769 571.083,669.011C570.437,668.253 569.405,667.874 567.985,667.874C566.8,667.874 565.751,668.245 564.839,668.987C563.926,669.729 563.251,670.73 562.813,671.989L562.813,683.853L560.908,683.853L560.908,666.529L562.733,666.529Z" style="fill:rgb(64,64,64);fill-rule:nonzero;"/>
                    <path d="M578.153,675.031C578.153,672.341 578.753,670.199 579.954,668.603C581.155,667.007 582.785,666.209 584.846,666.209C587.183,666.209 588.966,667.132 590.193,668.979L590.193,659.26L592.099,659.26L592.099,683.853L590.305,683.853L590.225,681.548C588.998,683.298 587.194,684.174 584.814,684.174C582.817,684.174 581.208,683.37 579.986,681.764C578.764,680.157 578.153,677.988 578.153,675.255L578.153,675.031ZM580.09,675.367C580.09,677.577 580.533,679.319 581.419,680.595C582.305,681.871 583.554,682.508 585.166,682.508C587.525,682.508 589.201,681.468 590.193,679.386L590.193,671.253C589.201,669 587.535,667.874 585.198,667.874C583.586,667.874 582.332,668.507 581.435,669.772C580.539,671.036 580.09,672.902 580.09,675.367Z" style="fill:rgb(64,64,64);fill-rule:nonzero;"/>
                    <path d="M603.852,684.174C602.378,684.174 601.047,683.811 599.857,683.085C598.667,682.359 597.741,681.348 597.079,680.051C596.417,678.754 596.086,677.299 596.086,675.688L596.086,674.999C596.086,673.334 596.409,671.834 597.055,670.5C597.701,669.166 598.6,668.117 599.753,667.354C600.905,666.591 602.154,666.209 603.499,666.209C605.602,666.209 607.27,666.927 608.503,668.363C609.736,669.798 610.352,671.76 610.352,674.247L610.352,675.319L597.991,675.319L597.991,675.688C597.991,677.652 598.555,679.287 599.681,680.595C600.807,681.903 602.224,682.556 603.932,682.556C604.956,682.556 605.861,682.37 606.645,681.996C607.43,681.622 608.142,681.025 608.783,680.203L609.984,681.115C608.575,683.154 606.531,684.174 603.852,684.174ZM603.499,667.842C602.058,667.842 600.844,668.371 599.857,669.427C598.869,670.484 598.269,671.904 598.055,673.686L608.447,673.686L608.447,673.478C608.393,671.813 607.918,670.457 607.022,669.411C606.125,668.365 604.951,667.842 603.499,667.842Z" style="fill:rgb(64,64,64);fill-rule:nonzero;"/>
                    <path d="M622.089,668.162C621.683,668.088 621.251,668.05 620.792,668.05C619.597,668.05 618.585,668.384 617.758,669.051C616.931,669.718 616.341,670.687 615.989,671.957L615.989,683.853L614.083,683.853L614.083,666.529L615.957,666.529L615.989,669.283C617.003,667.234 618.631,666.209 620.872,666.209C621.406,666.209 621.827,666.278 622.137,666.417L622.089,668.162Z" style="fill:rgb(64,64,64);fill-rule:nonzero;"/>
                    <path d="M633.121,668.162C632.716,668.088 632.283,668.05 631.825,668.05C630.629,668.05 629.618,668.384 628.79,669.051C627.963,669.718 627.373,670.687 627.021,671.957L627.021,683.853L625.116,683.853L625.116,666.529L626.989,666.529L627.021,669.283C628.035,667.234 629.663,666.209 631.905,666.209C632.438,666.209 632.86,666.278 633.169,666.417L633.121,668.162Z" style="fill:rgb(64,64,64);fill-rule:nonzero;"/>
                    <path d="M642.553,684.174C641.08,684.174 639.748,683.811 638.558,683.085C637.368,682.359 636.442,681.348 635.78,680.051C635.118,678.754 634.787,677.299 634.787,675.688L634.787,674.999C634.787,673.334 635.11,671.834 635.756,670.5C636.402,669.166 637.301,668.117 638.454,667.354C639.607,666.591 640.856,666.209 642.201,666.209C644.303,666.209 645.971,666.927 647.204,668.363C648.437,669.798 649.053,671.76 649.053,674.247L649.053,675.319L636.693,675.319L636.693,675.688C636.693,677.652 637.256,679.287 638.382,680.595C639.508,681.903 640.925,682.556 642.633,682.556C643.658,682.556 644.562,682.37 645.347,681.996C646.131,681.622 646.844,681.025 647.484,680.203L648.685,681.115C647.276,683.154 645.232,684.174 642.553,684.174ZM642.201,667.842C640.76,667.842 639.545,668.371 638.558,669.427C637.571,670.484 636.97,671.904 636.757,673.686L647.148,673.686L647.148,673.478C647.095,671.813 646.62,670.457 645.723,669.411C644.826,668.365 643.652,667.842 642.201,667.842Z" style="fill:rgb(64,64,64);fill-rule:nonzero;"/>
                    <path d="M659.189,682.556C660.523,682.556 661.641,682.18 662.543,681.428C663.445,680.675 663.934,679.701 664.008,678.506L665.85,678.506C665.796,679.562 665.465,680.526 664.857,681.396C664.249,682.266 663.44,682.946 662.431,683.437C661.423,683.928 660.342,684.174 659.189,684.174C656.916,684.174 655.114,683.384 653.785,681.804C652.456,680.224 651.792,678.1 651.792,675.431L651.792,674.855C651.792,673.147 652.091,671.637 652.689,670.324C653.286,669.011 654.143,667.997 655.258,667.282C656.374,666.567 657.679,666.209 659.173,666.209C661.073,666.209 662.639,666.775 663.872,667.906C665.105,669.038 665.764,670.527 665.85,672.373L664.008,672.373C663.923,671.018 663.435,669.924 662.543,669.091C661.652,668.259 660.529,667.842 659.173,667.842C657.444,667.842 656.102,668.467 655.146,669.716C654.191,670.964 653.713,672.715 653.713,674.967L653.713,675.528C653.713,677.737 654.191,679.461 655.146,680.699C656.102,681.937 657.449,682.556 659.189,682.556Z" style="fill:rgb(64,64,64);fill-rule:nonzero;"/>
                    <path d="M671.582,669.459C672.212,668.424 673.018,667.623 674,667.058C674.982,666.492 676.055,666.209 677.218,666.209C679.076,666.209 680.458,666.732 681.365,667.778C682.273,668.824 682.732,670.393 682.742,672.485L682.742,683.853L680.837,683.853L680.837,672.469C680.826,670.922 680.498,669.769 679.852,669.011C679.206,668.253 678.174,667.874 676.754,667.874C675.569,667.874 674.521,668.245 673.608,668.987C672.695,669.729 672.02,670.73 671.582,671.989L671.582,683.853L669.677,683.853L669.677,659.26L671.582,659.26L671.582,669.459Z" style="fill:rgb(64,64,64);fill-rule:nonzero;"/>
                    <path d="M690.653,662.094L690.653,666.529L694.239,666.529L694.239,668.098L690.653,668.098L690.653,679.642C690.653,680.603 690.826,681.318 691.173,681.788C691.52,682.258 692.099,682.492 692.91,682.492C693.23,682.492 693.748,682.439 694.463,682.332L694.543,683.901C694.042,684.083 693.358,684.174 692.494,684.174C691.181,684.174 690.226,683.792 689.628,683.029C689.03,682.266 688.731,681.142 688.731,679.658L688.731,668.098L685.545,668.098L685.545,666.529L688.731,666.529L688.731,662.094L690.653,662.094Z" style="fill:rgb(64,64,64);fill-rule:nonzero;"/>
                    <path d="M704.919,684.174C703.446,684.174 702.115,683.811 700.924,683.085C699.734,682.359 698.808,681.348 698.147,680.051C697.485,678.754 697.154,677.299 697.154,675.688L697.154,674.999C697.154,673.334 697.477,671.834 698.123,670.5C698.768,669.166 699.668,668.117 700.82,667.354C701.973,666.591 703.222,666.209 704.567,666.209C706.67,666.209 708.338,666.927 709.57,668.363C710.803,669.798 711.42,671.76 711.42,674.247L711.42,675.319L699.059,675.319L699.059,675.688C699.059,677.652 699.622,679.287 700.748,680.595C701.874,681.903 703.291,682.556 704.999,682.556C706.024,682.556 706.929,682.37 707.713,681.996C708.498,681.622 709.21,681.025 709.851,680.203L711.051,681.115C709.642,683.154 707.598,684.174 704.919,684.174ZM704.567,667.842C703.126,667.842 701.912,668.371 700.924,669.427C699.937,670.484 699.337,671.904 699.123,673.686L709.514,673.686L709.514,673.478C709.461,671.813 708.986,670.457 708.089,669.411C707.193,668.365 706.019,667.842 704.567,667.842Z" style="fill:rgb(64,64,64);fill-rule:nonzero;"/>
                    <path d="M724.461,682.188L738.855,682.188L738.855,683.853L722.076,683.853L722.076,682.364L735.909,662.222L722.492,662.222L722.492,660.541L738.343,660.541L738.343,661.95L724.461,682.188Z" style="fill:rgb(64,64,64);fill-rule:nonzero;"/>
                    <path d="M744.892,683.853L742.971,683.853L742.971,666.529L744.892,666.529L744.892,683.853ZM742.635,661.518C742.635,661.155 742.752,660.848 742.987,660.597C743.222,660.346 743.542,660.221 743.948,660.221C744.353,660.221 744.676,660.346 744.916,660.597C745.156,660.848 745.276,661.155 745.276,661.518C745.276,661.881 745.156,662.185 744.916,662.43C744.676,662.676 744.353,662.799 743.948,662.799C743.542,662.799 743.222,662.676 742.987,662.43C742.752,662.185 742.635,661.881 742.635,661.518Z" style="fill:rgb(64,64,64);fill-rule:nonzero;"/>
                    <path d="M756.805,684.174C755.332,684.174 754.001,683.811 752.811,683.085C751.62,682.359 750.694,681.348 750.033,680.051C749.371,678.754 749.04,677.299 749.04,675.688L749.04,674.999C749.04,673.334 749.363,671.834 750.009,670.5C750.654,669.166 751.554,668.117 752.706,667.354C753.859,666.591 755.108,666.209 756.453,666.209C758.556,666.209 760.224,666.927 761.456,668.363C762.689,669.798 763.306,671.76 763.306,674.247L763.306,675.319L750.945,675.319L750.945,675.688C750.945,677.652 751.508,679.287 752.634,680.595C753.761,681.903 755.177,682.556 756.885,682.556C757.91,682.556 758.815,682.37 759.599,681.996C760.384,681.622 761.096,681.025 761.737,680.203L762.938,681.115C761.529,683.154 759.484,684.174 756.805,684.174ZM756.453,667.842C755.012,667.842 753.798,668.371 752.811,669.427C751.823,670.484 751.223,671.904 751.009,673.686L761.4,673.686L761.4,673.478C761.347,671.813 760.872,670.457 759.975,669.411C759.079,668.365 757.905,667.842 756.453,667.842Z" style="fill:rgb(64,64,64);fill-rule:nonzero;"/>
                    <rect x="767.261" y="659.26" width="1.921" height="24.593" style="fill:rgb(64,64,64);fill-rule:nonzero;"/>
                </g>
                <g>
                    <rect x="326.467" y="659.257" width="1.921" height="24.593" style="fill:rgb(64,64,64);fill-rule:nonzero;"/>
                    <path d="M335.741,683.85L333.82,683.85L333.82,666.526L335.741,666.526L335.741,683.85ZM333.483,661.514C333.483,661.151 333.601,660.844 333.836,660.594C334.07,660.343 334.391,660.217 334.796,660.217C335.202,660.217 335.525,660.343 335.765,660.594C336.005,660.844 336.125,661.151 336.125,661.514C336.125,661.877 336.005,662.181 335.765,662.427C335.525,662.672 335.202,662.795 334.796,662.795C334.391,662.795 334.07,662.672 333.836,662.427C333.601,662.181 333.483,661.877 333.483,661.514Z" style="fill:rgb(64,64,64);fill-rule:nonzero;"/>
                    <path d="M347.656,684.17C346.183,684.17 344.852,683.807 343.661,683.081C342.471,682.355 341.545,681.344 340.883,680.047C340.222,678.75 339.891,677.296 339.891,675.684L339.891,674.995C339.891,673.33 340.214,671.831 340.859,670.496C341.505,669.162 342.405,668.113 343.557,667.35C344.71,666.587 345.959,666.205 347.304,666.205C349.407,666.205 351.075,666.923 352.307,668.359C353.54,669.795 354.157,671.756 354.157,674.243L354.157,675.316L341.796,675.316L341.796,675.684C341.796,677.648 342.359,679.284 343.485,680.591C344.611,681.899 346.028,682.553 347.736,682.553C348.761,682.553 349.666,682.366 350.45,681.992C351.235,681.619 351.947,681.021 352.588,680.199L353.788,681.112C352.379,683.15 350.335,684.17 347.656,684.17ZM347.304,667.839C345.863,667.839 344.649,668.367 343.661,669.424C342.674,670.48 342.074,671.9 341.86,673.683L352.251,673.683L352.251,673.474C352.198,671.809 351.723,670.454 350.826,669.408C349.93,668.362 348.756,667.839 347.304,667.839Z" style="fill:rgb(64,64,64);fill-rule:nonzero;"/>
                    <path d="M357.122,675.027C357.122,672.316 357.722,670.168 358.923,668.583C360.124,666.998 361.754,666.205 363.814,666.205C366.173,666.205 367.967,667.145 369.194,669.023L369.29,666.526L371.083,666.526L371.083,683.497C371.083,685.728 370.459,687.495 369.21,688.797C367.961,690.099 366.269,690.75 364.135,690.75C362.928,690.75 361.778,690.481 360.684,689.942C359.59,689.403 358.728,688.685 358.098,687.788L359.171,686.636C360.527,688.301 362.139,689.133 364.006,689.133C365.608,689.133 366.856,688.661 367.753,687.716C368.65,686.772 369.114,685.461 369.146,683.786L369.146,681.608C367.919,683.316 366.131,684.17 363.782,684.17C361.776,684.17 360.164,683.369 358.947,681.768C357.73,680.167 357.122,678.006 357.122,675.284L357.122,675.027ZM359.059,675.364C359.059,677.573 359.502,679.316 360.388,680.591C361.274,681.867 362.523,682.505 364.135,682.505C366.494,682.505 368.164,681.448 369.146,679.334L369.146,671.281C368.698,670.171 368.052,669.325 367.209,668.743C366.365,668.161 365.351,667.871 364.167,667.871C362.555,667.871 361.301,668.503 360.404,669.768C359.507,671.033 359.059,672.898 359.059,675.364Z" style="fill:rgb(64,64,64);fill-rule:nonzero;"/>
                    <path d="M382.791,684.17C381.317,684.17 379.986,683.807 378.796,683.081C377.606,682.355 376.68,681.344 376.018,680.047C375.356,678.75 375.025,677.296 375.025,675.684L375.025,674.995C375.025,673.33 375.348,671.831 375.994,670.496C376.64,669.162 377.539,668.113 378.692,667.35C379.844,666.587 381.093,666.205 382.438,666.205C384.541,666.205 386.209,666.923 387.442,668.359C388.675,669.795 389.291,671.756 389.291,674.243L389.291,675.316L376.93,675.316L376.93,675.684C376.93,677.648 377.494,679.284 378.62,680.591C379.746,681.899 381.163,682.553 382.871,682.553C383.895,682.553 384.8,682.366 385.584,681.992C386.369,681.619 387.081,681.021 387.722,680.199L388.923,681.112C387.514,683.15 385.47,684.17 382.791,684.17ZM382.438,667.839C380.997,667.839 379.783,668.367 378.796,669.424C377.808,670.48 377.208,671.9 376.994,673.683L387.386,673.683L387.386,673.474C387.332,671.809 386.857,670.454 385.961,669.408C385.064,668.362 383.89,667.839 382.438,667.839Z" style="fill:rgb(64,64,64);fill-rule:nonzero;"/>
                    <path d="M394.85,666.526L394.914,669.488C395.565,668.42 396.376,667.606 397.348,667.046C398.319,666.486 399.392,666.205 400.566,666.205C402.423,666.205 403.805,666.728 404.713,667.774C405.62,668.821 406.079,670.39 406.09,672.482L406.09,683.85L404.184,683.85L404.184,672.466C404.174,670.918 403.845,669.765 403.2,669.007C402.554,668.249 401.521,667.871 400.101,667.871C398.917,667.871 397.868,668.241 396.955,668.983C396.043,669.725 395.368,670.726 394.93,671.985L394.93,683.85L393.025,683.85L393.025,666.526L394.85,666.526Z" style="fill:rgb(64,64,64);fill-rule:nonzero;"/>
                    <path d="M410.272,675.027C410.272,672.338 410.872,670.195 412.073,668.599C413.274,667.003 414.904,666.205 416.964,666.205C419.302,666.205 421.084,667.129 422.312,668.975L422.312,659.257L424.217,659.257L424.217,683.85L422.424,683.85L422.344,681.544C421.116,683.295 419.312,684.17 416.932,684.17C414.936,684.17 413.327,683.367 412.105,681.76C410.883,680.154 410.272,677.984 410.272,675.252L410.272,675.027ZM412.209,675.364C412.209,677.573 412.652,679.316 413.538,680.591C414.424,681.867 415.673,682.505 417.284,682.505C419.643,682.505 421.319,681.464 422.312,679.383L422.312,671.249C421.319,668.997 419.654,667.871 417.316,667.871C415.705,667.871 414.45,668.503 413.554,669.768C412.657,671.033 412.209,672.898 412.209,675.364Z" style="fill:rgb(64,64,64);fill-rule:nonzero;"/>
                </g>
                <g>
                    <path d="M621.751,730.704L630.349,751.279L638.979,730.704L641.605,730.704L641.605,754.017L639.636,754.017L639.636,743.866L639.796,733.458L631.118,754.017L629.597,754.017L620.951,733.538L621.111,743.802L621.111,754.017L619.141,754.017L619.141,730.704L621.751,730.704Z" style="fill:rgb(64,64,64);fill-rule:nonzero;"/>
                    <path d="M646.003,745.098C646.003,743.433 646.326,741.934 646.972,740.599C647.618,739.265 648.531,738.227 649.71,737.485C650.89,736.743 652.226,736.372 653.721,736.372C656.026,736.372 657.894,737.181 659.325,738.798C660.755,740.415 661.47,742.558 661.47,745.227L661.47,745.627C661.47,747.303 661.147,748.81 660.502,750.15C659.856,751.49 658.946,752.522 657.772,753.248C656.597,753.974 655.258,754.337 653.753,754.337C651.458,754.337 649.593,753.528 648.157,751.911C646.721,750.294 646.003,748.151 646.003,745.483L646.003,745.098ZM647.925,745.627C647.925,747.698 648.461,749.397 649.534,750.726C650.607,752.055 652.013,752.72 653.753,752.72C655.482,752.72 656.883,752.055 657.956,750.726C659.029,749.397 659.565,747.644 659.565,745.467L659.565,745.098C659.565,743.775 659.319,742.563 658.828,741.464C658.337,740.364 657.649,739.513 656.763,738.91C655.877,738.307 654.863,738.006 653.721,738.006C652.013,738.006 650.62,738.675 649.542,740.015C648.464,741.355 647.925,743.108 647.925,745.275L647.925,745.627Z" style="fill:rgb(64,64,64);fill-rule:nonzero;"/>
                    <path d="M667.246,736.693L667.31,739.655C667.961,738.587 668.772,737.773 669.743,737.213C670.715,736.653 671.788,736.372 672.962,736.372C674.819,736.372 676.201,736.895 677.109,737.941C678.016,738.988 678.475,740.557 678.486,742.649L678.486,754.017L676.58,754.017L676.58,742.633C676.57,741.085 676.241,739.932 675.596,739.174C674.95,738.416 673.917,738.038 672.497,738.038C671.313,738.038 670.264,738.408 669.351,739.15C668.439,739.892 667.763,740.893 667.326,742.152L667.326,754.017L665.421,754.017L665.421,736.693L667.246,736.693Z" style="fill:rgb(64,64,64);fill-rule:nonzero;"/>
                    <path d="M685.574,754.017L683.653,754.017L683.653,736.693L685.574,736.693L685.574,754.017ZM683.316,731.681C683.316,731.318 683.434,731.011 683.669,730.761C683.904,730.51 684.224,730.384 684.629,730.384C685.035,730.384 685.358,730.51 685.598,730.761C685.838,731.011 685.958,731.318 685.958,731.681C685.958,732.044 685.838,732.348 685.598,732.594C685.358,732.839 685.035,732.962 684.629,732.962C684.224,732.962 683.904,732.839 683.669,732.594C683.434,732.348 683.316,732.044 683.316,731.681Z" style="fill:rgb(64,64,64);fill-rule:nonzero;"/>
                    <path d="M693.751,732.258L693.751,736.693L697.338,736.693L697.338,738.262L693.751,738.262L693.751,749.806C693.751,750.766 693.925,751.482 694.272,751.951C694.619,752.421 695.198,752.656 696.009,752.656C696.329,752.656 696.847,752.602 697.562,752.496L697.642,754.065C697.14,754.246 696.457,754.337 695.593,754.337C694.28,754.337 693.324,753.955 692.727,753.192C692.129,752.429 691.83,751.305 691.83,749.822L691.83,738.262L688.644,738.262L688.644,736.693L691.83,736.693L691.83,732.258L693.751,732.258Z" style="fill:rgb(64,64,64);fill-rule:nonzero;"/>
                    <path d="M699.927,745.098C699.927,743.433 700.25,741.934 700.896,740.599C701.542,739.265 702.454,738.227 703.634,737.485C704.813,736.743 706.15,736.372 707.644,736.372C709.95,736.372 711.818,737.181 713.248,738.798C714.679,740.415 715.394,742.558 715.394,745.227L715.394,745.627C715.394,747.303 715.071,748.81 714.425,750.15C713.779,751.49 712.869,752.522 711.695,753.248C710.521,753.974 709.181,754.337 707.676,754.337C705.382,754.337 703.516,753.528 702.081,751.911C700.645,750.294 699.927,748.151 699.927,745.483L699.927,745.098ZM701.848,745.627C701.848,747.698 702.385,749.397 703.458,750.726C704.53,752.055 705.937,752.72 707.676,752.72C709.406,752.72 710.807,752.055 711.879,750.726C712.952,749.397 713.488,747.644 713.488,745.467L713.488,745.098C713.488,743.775 713.243,742.563 712.752,741.464C712.261,740.364 711.572,739.513 710.687,738.91C709.801,738.307 708.787,738.006 707.644,738.006C705.937,738.006 704.544,738.675 703.466,740.015C702.387,741.355 701.848,743.108 701.848,745.275L701.848,745.627Z" style="fill:rgb(64,64,64);fill-rule:nonzero;"/>
                    <path d="M727.35,738.326C726.944,738.251 726.512,738.214 726.053,738.214C724.857,738.214 723.846,738.547 723.019,739.214C722.191,739.881 721.602,740.85 721.249,742.12L721.249,754.017L719.344,754.017L719.344,736.693L721.217,736.693L721.249,739.447C722.263,737.397 723.891,736.372 726.133,736.372C726.666,736.372 727.088,736.442 727.398,736.581L727.35,738.326Z" style="fill:rgb(64,64,64);fill-rule:nonzero;"/>
                    <path d="M339.627,748.724L340.347,752.343L341.228,748.884L346.287,731.704L348.064,731.704L353.06,748.884L353.924,752.375L354.693,748.724L358.904,731.704L360.921,731.704L354.949,755.017L353.06,755.017L347.776,736.78L347.184,734.474L346.607,736.78L341.196,755.017L339.306,755.017L333.35,731.704L335.368,731.704L339.627,748.724Z" style="fill:rgb(64,64,64);fill-rule:nonzero;"/>
                    <path d="M366.411,755.017L364.49,755.017L364.49,737.693L366.411,737.693L366.411,755.017ZM364.154,732.681C364.154,732.318 364.271,732.011 364.506,731.761C364.741,731.51 365.061,731.384 365.467,731.384C365.872,731.384 366.195,731.51 366.435,731.761C366.676,732.011 366.796,732.318 366.796,732.681C366.796,733.044 366.676,733.348 366.435,733.594C366.195,733.839 365.872,733.962 365.467,733.962C365.061,733.962 364.741,733.839 364.506,733.594C364.271,733.348 364.154,733.044 364.154,732.681Z" style="fill:rgb(64,64,64);fill-rule:nonzero;"/>
                    <path d="M373.439,737.693L373.503,740.655C374.154,739.587 374.965,738.773 375.936,738.213C376.908,737.653 377.981,737.372 379.155,737.372C381.012,737.372 382.394,737.895 383.302,738.941C384.209,739.988 384.668,741.557 384.679,743.649L384.679,755.017L382.773,755.017L382.773,743.633C382.763,742.085 382.434,740.932 381.789,740.174C381.143,739.416 380.11,739.038 378.69,739.038C377.506,739.038 376.457,739.408 375.544,740.15C374.632,740.892 373.956,741.893 373.519,743.152L373.519,755.017L371.613,755.017L371.613,737.693L373.439,737.693Z" style="fill:rgb(64,64,64);fill-rule:nonzero;"/>
                    <path d="M392.602,733.258L392.602,737.693L396.189,737.693L396.189,739.262L392.602,739.262L392.602,750.806C392.602,751.766 392.776,752.482 393.123,752.951C393.47,753.421 394.049,753.656 394.86,753.656C395.18,753.656 395.698,753.602 396.413,753.496L396.493,755.065C395.991,755.246 395.308,755.337 394.444,755.337C393.131,755.337 392.175,754.955 391.578,754.192C390.98,753.429 390.681,752.305 390.681,750.822L390.681,739.262L387.495,739.262L387.495,737.693L390.681,737.693L390.681,733.258L392.602,733.258Z" style="fill:rgb(64,64,64);fill-rule:nonzero;"/>
                    <path d="M406.867,755.337C405.394,755.337 404.062,754.974 402.872,754.248C401.682,753.522 400.756,752.511 400.094,751.214C399.432,749.917 399.101,748.463 399.101,746.851L399.101,746.162C399.101,744.497 399.424,742.998 400.07,741.663C400.716,740.329 401.615,739.28 402.768,738.517C403.921,737.754 405.17,737.372 406.514,737.372C408.617,737.372 410.285,738.09 411.518,739.526C412.751,740.962 413.367,742.923 413.367,745.41L413.367,746.483L401.007,746.483L401.007,746.851C401.007,748.815 401.57,750.451 402.696,751.758C403.822,753.066 405.239,753.72 406.947,753.72C407.971,753.72 408.876,753.533 409.661,753.159C410.445,752.786 411.158,752.188 411.798,751.366L412.999,752.279C411.59,754.317 409.546,755.337 406.867,755.337ZM406.514,739.006C405.073,739.006 403.859,739.534 402.872,740.591C401.885,741.647 401.284,743.067 401.071,744.85L411.462,744.85L411.462,744.641C411.409,742.976 410.934,741.621 410.037,740.575C409.14,739.529 407.966,739.006 406.514,739.006Z" style="fill:rgb(64,64,64);fill-rule:nonzero;"/>
                    <path d="M425.102,739.326C424.696,739.251 424.264,739.214 423.805,739.214C422.609,739.214 421.598,739.547 420.771,740.214C419.943,740.881 419.354,741.85 419.002,743.12L419.002,755.017L417.096,755.017L417.096,737.693L418.969,737.693L419.002,740.447C420.016,738.397 421.643,737.372 423.885,737.372C424.419,737.372 424.84,737.442 425.15,737.581L425.102,739.326Z" style="fill:rgb(64,64,64);fill-rule:nonzero;"/>
                    <path d="M442.072,746.531C442.072,749.231 441.474,751.374 440.279,752.959C439.083,754.544 437.477,755.337 435.459,755.337C433.047,755.337 431.222,754.44 429.984,752.647L429.903,755.017L428.11,755.017L428.11,730.424L430.016,730.424L430.016,740.206C431.232,738.317 433.036,737.372 435.427,737.372C437.477,737.372 439.096,738.154 440.287,739.718C441.477,741.282 442.072,743.457 442.072,746.243L442.072,746.531ZM440.151,746.194C440.151,743.91 439.708,742.146 438.822,740.903C437.936,739.659 436.687,739.038 435.075,739.038C433.848,739.038 432.807,739.339 431.953,739.942C431.099,740.545 430.453,741.429 430.016,742.592L430.016,750.405C430.976,752.583 432.673,753.672 435.107,753.672C436.687,753.672 437.922,753.047 438.814,751.798C439.705,750.55 440.151,748.682 440.151,746.194Z" style="fill:rgb(64,64,64);fill-rule:nonzero;"/>
                    <path d="M453.006,755.337C451.533,755.337 450.201,754.974 449.011,754.248C447.821,753.522 446.895,752.511 446.233,751.214C445.571,749.917 445.24,748.463 445.24,746.851L445.24,746.162C445.24,744.497 445.563,742.998 446.209,741.663C446.855,740.329 447.754,739.28 448.907,738.517C450.06,737.754 451.309,737.372 452.654,737.372C454.756,737.372 456.424,738.09 457.657,739.526C458.89,740.962 459.506,742.923 459.506,745.41L459.506,746.483L447.146,746.483L447.146,746.851C447.146,748.815 447.709,750.451 448.835,751.758C449.961,753.066 451.378,753.72 453.086,753.72C454.111,753.72 455.015,753.533 455.8,753.159C456.584,752.786 457.297,752.188 457.937,751.366L459.138,752.279C457.729,754.317 455.685,755.337 453.006,755.337ZM452.654,739.006C451.213,739.006 449.998,739.534 449.011,740.591C448.024,741.647 447.423,743.067 447.21,744.85L457.601,744.85L457.601,744.641C457.548,742.976 457.073,741.621 456.176,740.575C455.279,739.529 454.105,739.006 452.654,739.006Z" style="fill:rgb(64,64,64);fill-rule:nonzero;"/>
                    <path d="M471.241,739.326C470.835,739.251 470.403,739.214 469.944,739.214C468.749,739.214 467.737,739.547 466.91,740.214C466.083,740.881 465.493,741.85 465.141,743.12L465.141,755.017L463.235,755.017L463.235,737.693L465.109,737.693L465.141,740.447C466.155,738.397 467.783,737.372 470.024,737.372C470.558,737.372 470.979,737.442 471.289,737.581L471.241,739.326Z" style="fill:rgb(64,64,64);fill-rule:nonzero;"/>
                    <path d="M473.193,746.194C473.193,743.483 473.793,741.335 474.994,739.75C476.195,738.165 477.825,737.372 479.885,737.372C482.244,737.372 484.037,738.312 485.265,740.19L485.361,737.693L487.154,737.693L487.154,754.664C487.154,756.895 486.53,758.662 485.281,759.964C484.032,761.266 482.34,761.917 480.206,761.917C478.999,761.917 477.849,761.648 476.755,761.109C475.661,760.57 474.799,759.852 474.169,758.955L475.242,757.803C476.598,759.468 478.209,760.3 480.077,760.3C481.679,760.3 482.927,759.828 483.824,758.883C484.721,757.939 485.185,756.628 485.217,754.953L485.217,752.775C483.989,754.483 482.202,755.337 479.853,755.337C477.847,755.337 476.235,754.536 475.018,752.935C473.801,751.334 473.193,749.173 473.193,746.451L473.193,746.194ZM475.13,746.531C475.13,748.74 475.573,750.483 476.459,751.758C477.345,753.034 478.594,753.672 480.206,753.672C482.564,753.672 484.235,752.615 485.217,750.501L485.217,742.448C484.769,741.338 484.123,740.492 483.28,739.91C482.436,739.328 481.422,739.038 480.238,739.038C478.626,739.038 477.372,739.67 476.475,740.935C475.578,742.2 475.13,744.065 475.13,746.531Z" style="fill:rgb(64,64,64);fill-rule:nonzero;"/>
                    <path d="M505.827,743.441L502.544,746.675L502.544,755.017L500.575,755.017L500.575,731.704L502.544,731.704L502.544,744.273L514.489,731.704L516.97,731.704L507.203,742.08L517.723,755.017L515.321,755.017L505.827,743.441Z" style="fill:rgb(64,64,64);fill-rule:nonzero;"/>
                    <path d="M538.536,755.017L536.55,755.017L536.55,743.841L523.229,743.841L523.229,755.017L521.26,755.017L521.26,731.704L523.229,731.704L523.229,742.176L536.55,742.176L536.55,731.704L538.536,731.704L538.536,755.017Z" style="fill:rgb(64,64,64);fill-rule:nonzero;"/>
                    <path d="M442.081,807.863L442.145,810.681C442.785,809.635 443.586,808.851 444.547,808.328C445.507,807.805 446.575,807.543 447.749,807.543C450.481,807.543 452.216,808.664 452.952,810.905C453.571,809.827 454.399,808.997 455.434,808.416C456.469,807.834 457.612,807.543 458.86,807.543C462.575,807.543 464.47,809.571 464.544,813.627L464.544,825.187L462.623,825.187L462.623,813.771C462.612,812.224 462.279,811.076 461.622,810.329C460.966,809.582 459.896,809.208 458.412,809.208C457.035,809.23 455.872,809.675 454.922,810.545C453.972,811.415 453.443,812.474 453.337,813.723L453.337,825.187L451.415,825.187L451.415,813.627C451.405,812.144 451.055,811.036 450.367,810.305C449.678,809.574 448.619,809.208 447.188,809.208C445.982,809.208 444.947,809.552 444.082,810.241C443.218,810.929 442.577,811.951 442.161,813.307L442.161,825.187L440.24,825.187L440.24,807.863L442.081,807.863Z" style="fill:rgb(64,64,64);fill-rule:nonzero;"/>
                    <path d="M471.539,825.187L469.617,825.187L469.617,807.863L471.539,807.863L471.539,825.187ZM469.281,802.852C469.281,802.489 469.398,802.182 469.633,801.931C469.868,801.68 470.188,801.555 470.594,801.555C470.999,801.555 471.322,801.68 471.563,801.931C471.803,802.182 471.923,802.489 471.923,802.852C471.923,803.215 471.803,803.519 471.563,803.764C471.322,804.01 470.999,804.133 470.594,804.133C470.188,804.133 469.868,804.01 469.633,803.764C469.398,803.519 469.281,803.215 469.281,802.852Z" style="fill:rgb(64,64,64);fill-rule:nonzero;"/>
                    <path d="M479.717,803.428L479.717,807.863L483.304,807.863L483.304,809.432L479.717,809.432L479.717,820.976C479.717,821.937 479.891,822.652 480.238,823.122C480.585,823.592 481.164,823.826 481.975,823.826C482.295,823.826 482.813,823.773 483.528,823.666L483.608,825.235C483.106,825.417 482.423,825.508 481.559,825.508C480.246,825.508 479.29,825.126 478.693,824.363C478.095,823.6 477.796,822.476 477.796,820.992L477.796,809.432L474.61,809.432L474.61,807.863L477.796,807.863L477.796,803.428L479.717,803.428Z" style="fill:rgb(64,64,64);fill-rule:nonzero;"/>
                    <path d="M495.691,825.187L495.691,801.875L502.576,801.875C505.074,801.875 506.968,802.39 508.26,803.42C509.551,804.45 510.197,805.969 510.197,807.975C510.197,809.182 509.869,810.23 509.212,811.122C508.556,812.013 507.657,812.651 506.515,813.035C507.87,813.334 508.962,814.001 509.789,815.036C510.616,816.072 511.03,817.267 511.03,818.623C511.03,820.683 510.365,822.292 509.036,823.45C507.707,824.608 505.858,825.187 503.488,825.187L495.691,825.187ZM497.66,813.98L497.66,823.522L503.568,823.522C505.255,823.522 506.592,823.093 507.579,822.233C508.567,821.374 509.06,820.181 509.06,818.655C509.06,817.214 508.588,816.074 507.643,815.236C506.699,814.398 505.394,813.98 503.729,813.98L497.66,813.98ZM497.66,812.33L503.04,812.33C504.684,812.298 505.957,811.911 506.859,811.17C507.761,810.428 508.212,809.347 508.212,807.927C508.212,806.433 507.745,805.331 506.811,804.621C505.877,803.911 504.465,803.556 502.576,803.556L497.66,803.556L497.66,812.33Z" style="fill:rgb(64,64,64);fill-rule:nonzero;"/>
                    <path d="M522.043,825.508C520.57,825.508 519.238,825.145 518.048,824.419C516.858,823.693 515.932,822.682 515.27,821.385C514.608,820.088 514.277,818.633 514.277,817.022L514.277,816.333C514.277,814.668 514.6,813.168 515.246,811.834C515.892,810.5 516.791,809.451 517.944,808.688C519.097,807.925 520.345,807.543 521.69,807.543C523.793,807.543 525.461,808.261 526.694,809.697C527.927,811.132 528.543,813.094 528.543,815.581L528.543,816.653L516.183,816.653L516.183,817.022C516.183,818.986 516.746,820.621 517.872,821.929C518.998,823.237 520.415,823.89 522.123,823.89C523.147,823.89 524.052,823.704 524.836,823.33C525.621,822.956 526.334,822.359 526.974,821.537L528.175,822.449C526.766,824.488 524.722,825.508 522.043,825.508ZM521.69,809.176C520.249,809.176 519.035,809.705 518.048,810.761C517.06,811.818 516.46,813.238 516.247,815.02L526.638,815.02L526.638,814.812C526.584,813.147 526.109,811.791 525.213,810.745C524.316,809.699 523.142,809.176 521.69,809.176Z" style="fill:rgb(64,64,64);fill-rule:nonzero;"/>
                    <path d="M543.206,825.187C543.014,824.643 542.892,823.837 542.838,822.77C542.166,823.645 541.309,824.32 540.268,824.795C539.228,825.27 538.126,825.508 536.962,825.508C535.297,825.508 533.949,825.043 532.919,824.115C531.889,823.186 531.374,822.012 531.374,820.592C531.374,818.906 532.076,817.571 533.48,816.589C534.883,815.607 536.839,815.116 539.348,815.116L542.822,815.116L542.822,813.147C542.822,811.909 542.441,810.935 541.677,810.225C540.914,809.515 539.801,809.16 538.339,809.16C537.005,809.16 535.9,809.502 535.025,810.185C534.15,810.868 533.712,811.69 533.712,812.651L531.791,812.635C531.791,811.258 532.431,810.065 533.712,809.056C534.993,808.047 536.567,807.543 538.435,807.543C540.367,807.543 541.891,808.026 543.006,808.992C544.122,809.958 544.696,811.306 544.728,813.035L544.728,821.233C544.728,822.908 544.904,824.163 545.256,824.995L545.256,825.187L543.206,825.187ZM537.186,823.81C538.467,823.81 539.612,823.501 540.621,822.882C541.629,822.263 542.363,821.435 542.822,820.4L542.822,816.589L539.396,816.589C537.485,816.611 535.991,816.96 534.913,817.638C533.835,818.316 533.296,819.247 533.296,820.432C533.296,821.403 533.656,822.209 534.376,822.85C535.097,823.49 536.034,823.81 537.186,823.81Z" style="fill:rgb(64,64,64);fill-rule:nonzero;"/>
                    <path d="M552.81,803.428L552.81,807.863L556.397,807.863L556.397,809.432L552.81,809.432L552.81,820.976C552.81,821.937 552.984,822.652 553.331,823.122C553.678,823.592 554.257,823.826 555.068,823.826C555.388,823.826 555.906,823.773 556.621,823.666L556.701,825.235C556.199,825.417 555.516,825.508 554.652,825.508C553.339,825.508 552.383,825.126 551.786,824.363C551.188,823.6 550.889,822.476 550.889,820.992L550.889,809.432L547.703,809.432L547.703,807.863L550.889,807.863L550.889,803.428L552.81,803.428Z" style="fill:rgb(64,64,64);fill-rule:nonzero;"/>
                    <path d="M562.11,807.863L562.174,810.681C562.815,809.635 563.615,808.851 564.576,808.328C565.536,807.805 566.604,807.543 567.778,807.543C570.511,807.543 572.245,808.664 572.982,810.905C573.601,809.827 574.428,808.997 575.463,808.416C576.499,807.834 577.641,807.543 578.89,807.543C582.604,807.543 584.499,809.571 584.574,813.627L584.574,825.187L582.652,825.187L582.652,813.771C582.642,812.224 582.308,811.076 581.652,810.329C580.995,809.582 579.925,809.208 578.441,809.208C577.064,809.23 575.901,809.675 574.951,810.545C574.001,811.415 573.473,812.474 573.366,813.723L573.366,825.187L571.445,825.187L571.445,813.627C571.434,812.144 571.084,811.036 570.396,810.305C569.707,809.574 568.648,809.208 567.218,809.208C566.011,809.208 564.976,809.552 564.112,810.241C563.247,810.929 562.606,811.951 562.19,813.307L562.19,825.187L560.269,825.187L560.269,807.863L562.11,807.863Z" style="fill:rgb(64,64,64);fill-rule:nonzero;"/>
                    <path d="M600.566,822.994C599.413,824.67 597.572,825.508 595.042,825.508C593.196,825.508 591.792,824.971 590.831,823.898C589.871,822.826 589.38,821.238 589.358,819.135L589.358,807.863L591.264,807.863L591.264,818.895C591.264,822.193 592.598,823.842 595.266,823.842C598.042,823.842 599.797,822.695 600.534,820.4L600.534,807.863L602.455,807.863L602.455,825.187L600.598,825.187L600.566,822.994Z" style="fill:rgb(64,64,64);fill-rule:nonzero;"/>
                    <path d="M609.257,807.863L609.321,810.825C609.972,809.758 610.784,808.944 611.755,808.384C612.726,807.823 613.799,807.543 614.973,807.543C616.831,807.543 618.213,808.066 619.12,809.112C620.027,810.158 620.486,811.727 620.497,813.819L620.497,825.187L618.592,825.187L618.592,813.803C618.581,812.256 618.253,811.103 617.607,810.345C616.961,809.587 615.929,809.208 614.509,809.208C613.324,809.208 612.275,809.579 611.363,810.321C610.45,811.063 609.775,812.064 609.337,813.323L609.337,825.187L607.432,825.187L607.432,807.863L609.257,807.863Z" style="fill:rgb(64,64,64);fill-rule:nonzero;"/>
                    <path d="M624.673,816.365C624.673,813.654 625.274,811.506 626.474,809.921C627.675,808.336 629.306,807.543 631.366,807.543C633.725,807.543 635.518,808.482 636.746,810.361L636.842,807.863L638.635,807.863L638.635,824.835C638.635,827.066 638.01,828.832 636.762,830.135C635.513,831.437 633.821,832.088 631.686,832.088C630.48,832.088 629.33,831.819 628.236,831.28C627.142,830.74 626.28,830.023 625.65,829.126L626.723,827.973C628.078,829.638 629.69,830.471 631.558,830.471C633.159,830.471 634.408,829.999 635.305,829.054C636.201,828.109 636.666,826.799 636.698,825.123L636.698,822.946C635.47,824.654 633.682,825.508 631.334,825.508C629.327,825.508 627.715,824.707 626.499,823.106C625.282,821.505 624.673,819.343 624.673,816.621L624.673,816.365ZM626.611,816.701C626.611,818.911 627.054,820.653 627.94,821.929C628.825,823.205 630.074,823.842 631.686,823.842C634.045,823.842 635.716,822.786 636.698,820.672L636.698,812.619C636.249,811.508 635.603,810.663 634.76,810.081C633.917,809.499 632.903,809.208 631.718,809.208C630.106,809.208 628.852,809.841 627.956,811.106C627.059,812.37 626.611,814.236 626.611,816.701Z" style="fill:rgb(64,64,64);fill-rule:nonzero;"/>
                </g>
                <g>
                    <path d="M411.727,411.29L393.992,411.29L393.992,460.196L384.188,460.196L384.188,411.29L366.609,411.29L366.609,403.321L411.727,403.321L411.727,411.29Z" style="fill:rgb(255,253,253);fill-rule:nonzero;"/>
                    <path d="M437.859,426.603C436.609,426.394 435.32,426.29 433.992,426.29C429.643,426.29 426.714,427.957 425.203,431.29L425.203,460.196L415.711,460.196L415.711,417.931L424.774,417.931L425.008,422.657C427.3,418.985 430.477,417.149 434.539,417.149C435.893,417.149 437.013,417.332 437.899,417.696L437.859,426.603Z" style="fill:rgb(255,253,253);fill-rule:nonzero;"/>
                    <path d="M467.938,460.196C467.521,459.389 467.156,458.074 466.844,456.251C463.823,459.402 460.125,460.978 455.75,460.978C451.505,460.978 448.042,459.767 445.36,457.345C442.677,454.923 441.336,451.928 441.336,448.36C441.336,443.855 443.009,440.398 446.356,437.989C449.702,435.58 454.487,434.376 460.711,434.376L466.531,434.376L466.531,431.603C466.531,429.415 465.919,427.664 464.696,426.349C463.472,425.034 461.61,424.376 459.11,424.376C456.948,424.376 455.177,424.916 453.797,425.997C452.417,427.078 451.727,428.452 451.727,430.118L442.235,430.118C442.235,427.8 443.003,425.632 444.539,423.614C446.076,421.596 448.166,420.014 450.809,418.868C453.452,417.722 456.401,417.149 459.656,417.149C464.604,417.149 468.55,418.393 471.492,420.88C474.435,423.367 475.946,426.863 476.024,431.368L476.024,450.431C476.024,454.233 476.558,457.267 477.625,459.532L477.625,460.196L467.938,460.196ZM457.508,453.36C459.383,453.36 461.147,452.905 462.801,451.993C464.455,451.082 465.698,449.858 466.531,448.321L466.531,440.353L461.414,440.353C457.899,440.353 455.255,440.965 453.485,442.188C451.714,443.412 450.828,445.144 450.828,447.384C450.828,449.207 451.434,450.659 452.645,451.739C453.856,452.82 455.477,453.36 457.508,453.36Z" style="fill:rgb(255,253,253);fill-rule:nonzero;"/>
                    <path d="M494.774,417.931L495.047,422.813C498.172,419.037 502.274,417.149 507.352,417.149C516.154,417.149 520.633,422.188 520.789,432.267L520.789,460.196L511.297,460.196L511.297,432.813C511.297,430.131 510.718,428.146 509.559,426.856C508.4,425.567 506.506,424.923 503.875,424.923C500.047,424.923 497.196,426.655 495.321,430.118L495.321,460.196L485.828,460.196L485.828,417.931L494.774,417.931Z" style="fill:rgb(255,253,253);fill-rule:nonzero;"/>
                    <path d="M554.149,448.712C554.149,447.019 553.452,445.73 552.059,444.845C550.666,443.959 548.355,443.178 545.125,442.501C541.896,441.824 539.201,440.965 537.039,439.923C532.3,437.631 529.93,434.311 529.93,429.962C529.93,426.316 531.467,423.269 534.539,420.821C537.612,418.373 541.519,417.149 546.258,417.149C551.31,417.149 555.392,418.399 558.504,420.899C561.616,423.399 563.172,426.642 563.172,430.626L553.68,430.626C553.68,428.803 553.003,427.286 551.649,426.075C550.295,424.864 548.498,424.259 546.258,424.259C544.175,424.259 542.476,424.741 541.161,425.704C539.845,426.668 539.188,427.957 539.188,429.571C539.188,431.03 539.8,432.162 541.024,432.97C542.248,433.777 544.722,434.591 548.446,435.411C552.17,436.231 555.093,437.208 557.215,438.341C559.338,439.474 560.913,440.834 561.942,442.423C562.97,444.011 563.485,445.938 563.485,448.204C563.485,452.006 561.909,455.086 558.758,457.442C555.607,459.799 551.48,460.978 546.375,460.978C542.912,460.978 539.826,460.353 537.118,459.103C534.409,457.853 532.3,456.134 530.789,453.946C529.279,451.759 528.524,449.402 528.524,446.876L537.743,446.876C537.873,449.116 538.719,450.841 540.282,452.052C541.844,453.263 543.914,453.868 546.493,453.868C548.993,453.868 550.894,453.393 552.196,452.442C553.498,451.492 554.149,450.248 554.149,448.712Z" style="fill:rgb(255,253,253);fill-rule:nonzero;"/>
                    <path d="M608.758,439.493C608.758,446.03 607.274,451.244 604.305,455.138C601.336,459.031 597.352,460.978 592.352,460.978C587.717,460.978 584.006,459.454 581.219,456.407L581.219,476.446L571.727,476.446L571.727,417.931L580.477,417.931L580.868,422.228C583.654,418.842 587.443,417.149 592.235,417.149C597.391,417.149 601.434,419.07 604.364,422.911C607.293,426.752 608.758,432.084 608.758,438.907L608.758,439.493ZM599.305,438.673C599.305,434.454 598.465,431.108 596.786,428.634C595.106,426.16 592.704,424.923 589.579,424.923C585.698,424.923 582.912,426.524 581.219,429.728L581.219,448.478C582.938,451.759 585.75,453.399 589.657,453.399C592.678,453.399 595.041,452.182 596.747,449.747C598.452,447.312 599.305,443.621 599.305,438.673Z" style="fill:rgb(255,253,253);fill-rule:nonzero;"/>
                    <path d="M615.008,438.673C615.008,434.532 615.829,430.802 617.469,427.481C619.11,424.161 621.415,421.609 624.383,419.825C627.352,418.041 630.764,417.149 634.618,417.149C640.321,417.149 644.95,418.985 648.504,422.657C652.059,426.329 653.98,431.199 654.266,437.267L654.305,439.493C654.305,443.66 653.504,447.384 651.903,450.665C650.301,453.946 648.01,456.485 645.028,458.282C642.046,460.079 638.602,460.978 634.696,460.978C628.732,460.978 623.96,458.992 620.379,455.021C616.799,451.049 615.008,445.756 615.008,439.142L615.008,438.673ZM624.501,439.493C624.501,443.842 625.399,447.247 627.196,449.708C628.993,452.169 631.493,453.399 634.696,453.399C637.899,453.399 640.392,452.149 642.176,449.649C643.96,447.149 644.852,443.491 644.852,438.673C644.852,434.402 643.934,431.017 642.098,428.517C640.262,426.017 637.769,424.767 634.618,424.767C631.519,424.767 629.058,425.997 627.235,428.458C625.412,430.919 624.501,434.597 624.501,439.493Z" style="fill:rgb(255,253,253);fill-rule:nonzero;"/>
                    <path d="M684.462,426.603C683.212,426.394 681.923,426.29 680.594,426.29C676.245,426.29 673.316,427.957 671.805,431.29L671.805,460.196L662.313,460.196L662.313,417.931L671.376,417.931L671.61,422.657C673.902,418.985 677.079,417.149 681.141,417.149C682.495,417.149 683.615,417.332 684.501,417.696L684.462,426.603Z" style="fill:rgb(255,253,253);fill-rule:nonzero;"/>
                    <path d="M704.305,407.657L704.305,417.931L711.766,417.931L711.766,424.962L704.305,424.962L704.305,448.556C704.305,450.17 704.624,451.336 705.262,452.052C705.9,452.768 707.04,453.126 708.68,453.126C709.774,453.126 710.881,452.996 712.001,452.735L712.001,460.079C709.839,460.678 707.756,460.978 705.751,460.978C698.459,460.978 694.813,456.954 694.813,448.907L694.813,424.962L687.86,424.962L687.86,417.931L694.813,417.931L694.813,407.657L704.305,407.657Z" style="fill:rgb(255,253,253);fill-rule:nonzero;"/>
                </g>
            </g>
            <g id="icons">
                <g>
                    <g transform="matrix(1,0,0,1,539.5,326.709)">
                        <path d="M0,-58.3C-16.073,-58.3 -29.15,-45.223 -29.15,-29.15C-29.15,-13.076 -16.073,0.001 0,0.001C16.074,0.001 29.15,-13.076 29.15,-29.15C29.15,-45.223 16.074,-58.3 0,-58.3M0,6.091C-19.432,6.091 -35.241,-9.718 -35.241,-29.15C-35.241,-48.581 -19.432,-64.391 0,-64.391C19.432,-64.391 35.241,-48.581 35.241,-29.15C35.241,-9.718 19.432,6.091 0,6.091" style="fill:rgb(229,115,115);fill-rule:nonzero;"/>
                    </g>
                    <g transform="matrix(-1,0,0,1,1078.72,-504.452)">
                        <rect x="536.313" y="779.185" width="6.091" height="26.082" style="fill:rgb(229,115,115);"/>
                    </g>
                    <g transform="matrix(-1,0,0,1,1089.42,-481.785)">
                        <rect x="536.314" y="777.847" width="16.788" height="6.091" style="fill:rgb(229,115,115);"/>
                    </g>
                </g>
            </g>
        </g>
        <g id="EmergencyAction70" transform="matrix(0.700014,0,0,0.700014,444.031,320.037)">
            <g id="body1" serif:id="body" transform="matrix(1,0,0,1,370.553,216.397)">
                <path d="M0,647.047C-11.004,647.047 -21.258,641.127 -26.76,631.598L-195.707,338.973C-201.208,329.443 -201.208,317.604 -195.707,308.074L-26.76,15.449C-21.258,5.92 -11.004,0 0,0L337.894,0C348.898,0 359.151,5.92 364.654,15.449L533.6,308.074C539.102,317.604 539.102,329.443 533.6,338.973L364.654,631.598C359.151,641.127 348.898,647.047 337.894,647.047L0,647.047Z" style="fill:white;fill-rule:nonzero;"/>
            </g>
            <g id="category1" serif:id="category" transform="matrix(1,0,0,1,197.086,385.349)">
                <path d="M0,101.76L684.827,101.76L626.076,0L58.751,0L0,101.76Z" style="fill:rgb(77,182,172);fill-rule:nonzero;"/>
            </g>
            <g transform="matrix(1,0,0,1,708.447,863.945)">
                <path d="M0,-648.048L-337.894,-648.048C-349.112,-648.048 -359.477,-642.063 -365.086,-632.348L-534.033,-339.724C-539.642,-330.009 -539.642,-318.04 -534.033,-308.325L-365.086,-15.7C-359.477,-5.985 -349.112,0 -337.894,0L0,0C11.218,0 21.584,-5.985 27.193,-15.7L196.14,-308.325C201.748,-318.04 201.748,-330.009 196.14,-339.724L27.193,-632.348C21.584,-642.063 11.218,-648.048 0,-648.048M0,-647.048C10.826,-647.048 20.914,-641.224 26.327,-631.848L195.273,-339.224C200.686,-329.848 200.686,-318.2 195.273,-308.825L26.327,-16.2C20.914,-6.824 10.826,-1 0,-1L-337.894,-1C-348.72,-1 -358.807,-6.824 -364.22,-16.2L-533.167,-308.825C-538.58,-318.2 -538.58,-329.848 -533.167,-339.224L-364.22,-631.848C-358.807,-641.224 -348.72,-647.048 -337.894,-647.048L0,-647.048" style="fill:rgb(165,164,165);fill-rule:nonzero;"/>
            </g>
            <g>
                <g transform="matrix(0.882056,0,0,1.10708,673.02,599.218)">
                    <path d="M-66.599,57.843L-212.633,57.843C-228.539,57.843 -241.554,44.828 -241.554,28.922C-241.554,13.015 -228.539,0 -212.633,0L-66.599,0C-50.692,0 -37.678,13.015 -37.678,28.922C-37.678,44.828 -50.692,57.843 -66.599,57.843Z" style="fill:rgb(64,64,64);fill-rule:nonzero;stroke:rgb(164,163,163);stroke-width:1.43px;"/>
                </g>
                <g transform="matrix(0.901592,0,0,0.727299,59.3385,308.156)">
                    <path d="M483.334,430.927L483.496,434.179C485.26,431.628 487.674,430.352 490.738,430.352C494.095,430.352 496.393,431.944 497.631,435.128C499.457,431.944 502.025,430.352 505.337,430.352C508.106,430.352 510.168,431.302 511.522,433.2C512.876,435.099 513.568,437.9 513.599,441.602L513.599,462.059L507.959,462.059L507.959,441.803C507.959,439.828 507.611,438.379 506.915,437.459C506.219,436.538 505.066,436.078 503.457,436.078C502.172,436.078 501.124,436.504 500.312,437.358C499.499,438.212 498.931,439.329 498.606,440.71L498.629,462.059L492.989,462.059L492.989,441.573C492.912,437.91 491.403,436.078 488.463,436.078C486.204,436.078 484.602,437.219 483.659,439.502L483.659,462.059L478.019,462.059L478.019,430.927L483.334,430.927Z" style="fill:rgb(255,253,253);fill-rule:nonzero;"/>
                    <path d="M525.39,462.059L519.75,462.059L519.75,430.927L525.39,430.927L525.39,462.059ZM519.402,422.843C519.402,421.768 519.677,420.876 520.226,420.167C520.775,419.457 521.561,419.102 522.582,419.102C523.603,419.102 524.392,419.457 524.949,420.167C525.506,420.876 525.785,421.768 525.785,422.843C525.785,423.897 525.506,424.775 524.949,425.475C524.392,426.175 523.603,426.525 522.582,426.525C521.561,426.525 520.775,426.175 520.226,425.475C519.677,424.775 519.402,423.897 519.402,422.843Z" style="fill:rgb(255,253,253);fill-rule:nonzero;"/>
                    <path d="M538.597,423.36L538.597,430.927L543.03,430.927L543.03,436.106L538.597,436.106L538.597,453.485C538.597,454.674 538.786,455.532 539.165,456.06C539.544,456.587 540.221,456.851 541.196,456.851C541.846,456.851 542.504,456.755 543.169,456.563L543.169,461.973C541.885,462.414 540.647,462.634 539.455,462.634C535.123,462.634 532.957,459.671 532.957,453.744L532.957,436.106L528.825,436.106L528.825,430.927L532.957,430.927L532.957,423.36L538.597,423.36Z" style="fill:rgb(255,253,253);fill-rule:nonzero;"/>
                    <path d="M586.688,442.206C586.688,446.311 586.115,449.912 584.97,453.01C583.825,456.108 582.189,458.486 580.061,460.146C577.934,461.805 575.485,462.634 572.715,462.634C569.977,462.634 567.536,461.805 565.393,460.146C563.25,458.486 561.594,456.122 560.426,453.053C559.258,449.984 558.666,446.445 558.65,442.436L558.65,440.077C558.65,435.991 559.234,432.385 560.403,429.259C561.571,426.132 563.219,423.739 565.346,422.08C567.474,420.421 569.915,419.591 572.669,419.591C575.423,419.591 577.864,420.411 579.992,422.051C582.119,423.691 583.763,426.051 584.924,429.129C586.084,432.208 586.672,435.79 586.688,439.876L586.688,442.206ZM580.816,440.019C580.816,435.378 580.108,431.819 578.692,429.345C577.276,426.871 575.269,425.633 572.669,425.633C570.131,425.633 568.147,426.866 566.716,429.331C565.284,431.795 564.553,435.282 564.522,439.789L564.522,442.206C564.522,446.81 565.246,450.368 566.692,452.881C568.139,455.393 570.147,456.65 572.715,456.65C575.315,456.65 577.315,455.422 578.715,452.967C580.116,450.512 580.816,446.925 580.816,442.206L580.816,440.019Z" style="fill:rgb(255,253,253);fill-rule:nonzero;"/>
                    <path d="M614.354,462.059L591.632,462.059L591.632,457.254L602.888,442.034C604.513,439.789 605.67,437.914 606.358,436.409C607.047,434.903 607.391,433.392 607.391,431.877C607.391,429.882 606.939,428.271 606.033,427.043C605.128,425.816 603.91,425.202 602.378,425.202C600.552,425.202 599.136,425.892 598.13,427.273C597.125,428.654 596.622,430.544 596.622,432.942L590.982,432.942C590.982,430.39 591.45,428.093 592.386,426.051C593.322,424.008 594.661,422.421 596.401,421.289C598.142,420.157 600.15,419.591 602.424,419.591C605.705,419.591 608.293,420.613 610.188,422.655C612.083,424.698 613.031,427.523 613.031,431.129C613.031,433.22 612.555,435.411 611.604,437.703C610.652,439.995 609.093,442.599 606.927,445.515L598.664,456.477L614.354,456.477L614.354,462.059Z" style="fill:rgb(255,253,253);fill-rule:nonzero;"/>
                </g>
            </g>
            <g transform="matrix(1,0,0,1,-5.41507,-3.73262)">
                <g id="texts1" serif:id="texts">
                    <g>
                        <path d="M436.111,423.757L420.91,423.757L420.91,465.676L412.507,465.676L412.507,423.757L397.44,423.757L397.44,416.927L436.111,416.927L436.111,423.757Z" style="fill:rgb(255,253,253);fill-rule:nonzero;"/>
                        <path d="M458.51,436.882C457.439,436.703 456.334,436.614 455.196,436.614C451.468,436.614 448.957,438.042 447.662,440.899L447.662,465.676L439.526,465.676L439.526,429.449L447.294,429.449L447.495,433.5C449.459,430.353 452.182,428.779 455.664,428.779C456.825,428.779 457.785,428.935 458.544,429.248L458.51,436.882Z" style="fill:rgb(255,253,253);fill-rule:nonzero;"/>
                        <path d="M484.291,465.676C483.934,464.984 483.621,463.857 483.354,462.294C480.764,464.995 477.595,466.345 473.845,466.345C470.207,466.345 467.238,465.307 464.939,463.232C462.64,461.156 461.49,458.589 461.49,455.531C461.49,451.669 462.924,448.706 465.793,446.641C468.661,444.577 472.762,443.544 478.097,443.544L483.086,443.544L483.086,441.167C483.086,439.292 482.561,437.791 481.512,436.664C480.463,435.537 478.867,434.973 476.724,434.973C474.872,434.973 473.354,435.436 472.171,436.363C470.988,437.289 470.396,438.466 470.396,439.895L462.26,439.895C462.26,437.908 462.919,436.05 464.236,434.32C465.553,432.59 467.344,431.234 469.609,430.252C471.875,429.27 474.403,428.779 477.193,428.779C481.434,428.779 484.816,429.845 487.338,431.977C489.86,434.108 491.155,437.105 491.222,440.966L491.222,457.305C491.222,460.564 491.679,463.165 492.594,465.107L492.594,465.676L484.291,465.676ZM475.352,459.816C476.959,459.816 478.471,459.426 479.888,458.645C481.306,457.863 482.371,456.814 483.086,455.497L483.086,448.667L478.7,448.667C475.686,448.667 473.421,449.192 471.903,450.241C470.385,451.29 469.626,452.774 469.626,454.694C469.626,456.256 470.145,457.501 471.183,458.427C472.221,459.353 473.61,459.816 475.352,459.816Z" style="fill:rgb(255,253,253);fill-rule:nonzero;"/>
                        <path d="M507.293,429.449L507.527,433.634C510.206,430.397 513.721,428.779 518.074,428.779C525.618,428.779 529.458,433.098 529.592,441.736L529.592,465.676L521.456,465.676L521.456,442.205C521.456,439.906 520.959,438.204 519.966,437.099C518.972,435.994 517.349,435.442 515.094,435.442C511.813,435.442 509.369,436.926 507.762,439.895L507.762,465.676L499.626,465.676L499.626,429.449L507.293,429.449Z" style="fill:rgb(255,253,253);fill-rule:nonzero;"/>
                        <path d="M558.185,455.832C558.185,454.381 557.588,453.276 556.394,452.517C555.199,451.759 553.218,451.089 550.451,450.509C547.683,449.928 545.373,449.192 543.52,448.299C539.458,446.335 537.426,443.489 537.426,439.761C537.426,436.636 538.743,434.025 541.377,431.926C544.011,429.828 547.359,428.779 551.422,428.779C555.752,428.779 559.251,429.851 561.918,431.993C564.585,434.136 565.919,436.915 565.919,440.33L557.783,440.33C557.783,438.768 557.203,437.468 556.042,436.43C554.881,435.392 553.341,434.873 551.422,434.873C549.636,434.873 548.18,435.286 547.052,436.112C545.925,436.937 545.361,438.042 545.361,439.426C545.361,440.676 545.886,441.647 546.935,442.339C547.984,443.031 550.105,443.729 553.297,444.432C556.488,445.135 558.994,445.972 560.813,446.943C562.632,447.914 563.983,449.08 564.864,450.442C565.746,451.803 566.187,453.455 566.187,455.397C566.187,458.656 564.837,461.295 562.136,463.315C559.435,465.335 555.897,466.345 551.522,466.345C548.553,466.345 545.908,465.81 543.587,464.738C541.266,463.667 539.458,462.194 538.163,460.319C536.868,458.444 536.221,456.424 536.221,454.259L544.123,454.259C544.234,456.178 544.96,457.657 546.299,458.695C547.638,459.733 549.413,460.252 551.623,460.252C553.765,460.252 555.395,459.844 556.511,459.03C557.627,458.215 558.185,457.149 558.185,455.832Z" style="fill:rgb(255,253,253);fill-rule:nonzero;"/>
                        <path d="M604.992,447.931C604.992,453.533 603.72,458.003 601.175,461.34C598.631,464.677 595.216,466.345 590.93,466.345C586.957,466.345 583.776,465.04 581.388,462.428L581.388,479.604L573.252,479.604L573.252,429.449L580.751,429.449L581.086,433.132C583.475,430.23 586.722,428.779 590.829,428.779C595.249,428.779 598.714,430.425 601.225,433.718C603.737,437.01 604.992,441.58 604.992,447.428L604.992,447.931ZM596.89,447.227C596.89,443.611 596.17,440.743 594.73,438.623C593.29,436.502 591.231,435.442 588.553,435.442C585.227,435.442 582.839,436.815 581.388,439.56L581.388,455.631C582.861,458.444 585.271,459.85 588.62,459.85C591.209,459.85 593.235,458.806 594.697,456.719C596.159,454.632 596.89,451.468 596.89,447.227Z" style="fill:rgb(255,253,253);fill-rule:nonzero;"/>
                        <path d="M610.349,447.227C610.349,443.678 611.052,440.481 612.459,437.635C613.865,434.789 615.84,432.602 618.385,431.073C620.929,429.544 623.853,428.779 627.157,428.779C632.045,428.779 636.013,430.353 639.06,433.5C642.106,436.647 643.753,440.821 643.998,446.022L644.032,447.931C644.032,451.502 643.345,454.694 641.972,457.506C640.6,460.319 638.635,462.495 636.08,464.035C633.524,465.575 630.572,466.345 627.224,466.345C622.112,466.345 618.022,464.643 614.953,461.239C611.884,457.835 610.349,453.299 610.349,447.629L610.349,447.227ZM618.485,447.931C618.485,451.658 619.255,454.577 620.795,456.686C622.336,458.795 624.478,459.85 627.224,459.85C629.969,459.85 632.107,458.779 633.636,456.636C635.165,454.493 635.929,451.357 635.929,447.227C635.929,443.567 635.142,440.665 633.569,438.522C631.995,436.379 629.858,435.308 627.157,435.308C624.501,435.308 622.391,436.363 620.829,438.472C619.266,440.581 618.485,443.734 618.485,447.931Z" style="fill:rgb(255,253,253);fill-rule:nonzero;"/>
                        <path d="M669.879,436.882C668.808,436.703 667.703,436.614 666.565,436.614C662.837,436.614 660.326,438.042 659.031,440.899L659.031,465.676L650.895,465.676L650.895,429.449L658.663,429.449L658.864,433.5C660.828,430.353 663.551,428.779 667.033,428.779C668.194,428.779 669.154,428.935 669.913,429.248L669.879,436.882Z" style="fill:rgb(255,253,253);fill-rule:nonzero;"/>
                        <path d="M686.888,420.643L686.888,429.449L693.283,429.449L693.283,435.475L686.888,435.475L686.888,455.698C686.888,457.082 687.161,458.081 687.708,458.695C688.255,459.309 689.232,459.616 690.638,459.616C691.575,459.616 692.524,459.504 693.484,459.281L693.484,465.575C691.631,466.089 689.846,466.345 688.127,466.345C681.877,466.345 678.752,462.897 678.752,456L678.752,435.475L672.792,435.475L672.792,429.449L678.752,429.449L678.752,420.643L686.888,420.643Z" style="fill:rgb(255,253,253);fill-rule:nonzero;"/>
                    </g>
                </g>
            </g>
            <g id="icons1" serif:id="icons">
                <g>
                    <g transform="matrix(1,0,0,1,539.5,326.709)">
                        <path d="M0,-58.3C-16.073,-58.3 -29.15,-45.223 -29.15,-29.15C-29.15,-13.076 -16.073,0.001 0,0.001C16.074,0.001 29.15,-13.076 29.15,-29.15C29.15,-45.223 16.074,-58.3 0,-58.3M0,6.091C-19.432,6.091 -35.241,-9.718 -35.241,-29.15C-35.241,-48.581 -19.432,-64.391 0,-64.391C19.432,-64.391 35.241,-48.581 35.241,-29.15C35.241,-9.718 19.432,6.091 0,6.091" style="fill:rgb(229,115,115);fill-rule:nonzero;"/>
                    </g>
                    <g transform="matrix(-1,0,0,1,1078.72,-504.452)">
                        <rect x="536.313" y="779.185" width="6.091" height="26.082" style="fill:rgb(229,115,115);"/>
                    </g>
                    <g transform="matrix(-1,0,0,1,1089.42,-481.785)">
                        <rect x="536.314" y="777.847" width="16.788" height="6.091" style="fill:rgb(229,115,115);"/>
                    </g>
                </g>
            </g>
        </g>
        <g id="EmergencyAction35" transform="matrix(0.350007,0,0,0.350007,298.472,622.734)">
            <g id="body2" serif:id="body" transform="matrix(1,0,0,1,370.553,216.397)">
                <path d="M0,647.047C-11.004,647.047 -21.258,641.127 -26.76,631.598L-195.707,338.973C-201.208,329.443 -201.208,317.604 -195.707,308.074L-26.76,15.449C-21.258,5.92 -11.004,0 0,0L337.894,0C348.898,0 359.151,5.92 364.654,15.449L533.6,308.074C539.102,317.604 539.102,329.443 533.6,338.973L364.654,631.598C359.151,641.127 348.898,647.047 337.894,647.047L0,647.047Z" style="fill:white;fill-rule:nonzero;"/>
            </g>
            <g id="category2" serif:id="category" transform="matrix(1,0,0,1,197.086,385.349)">
                <path d="M0,101.76L684.827,101.76L626.076,0L58.751,0L0,101.76Z" style="fill:rgb(77,182,172);fill-rule:nonzero;"/>
            </g>
            <g transform="matrix(1,0,0,1,708.447,863.945)">
                <path d="M0,-648.048L-337.894,-648.048C-349.112,-648.048 -359.477,-642.063 -365.086,-632.348L-534.033,-339.724C-539.642,-330.009 -539.642,-318.04 -534.033,-308.325L-365.086,-15.7C-359.477,-5.985 -349.112,0 -337.894,0L0,0C11.218,0 21.584,-5.985 27.193,-15.7L196.14,-308.325C201.748,-318.04 201.748,-330.009 196.14,-339.724L27.193,-632.348C21.584,-642.063 11.218,-648.048 0,-648.048M0,-647.048C10.826,-647.048 20.914,-641.224 26.327,-631.848L195.273,-339.224C200.686,-329.848 200.686,-318.2 195.273,-308.825L26.327,-16.2C20.914,-6.824 10.826,-1 0,-1L-337.894,-1C-348.72,-1 -358.807,-6.824 -364.22,-16.2L-533.167,-308.825C-538.58,-318.2 -538.58,-329.848 -533.167,-339.224L-364.22,-631.848C-358.807,-641.224 -348.72,-647.048 -337.894,-647.048L0,-647.048" style="fill:rgb(165,164,165);fill-rule:nonzero;"/>
            </g>
            <g id="texts2" serif:id="texts" transform="matrix(1.21039,0,0,1,-119.494,-3.73262)">
                <g>
                    <path d="M432.527,419.706L416.829,419.706L416.829,472.104L408.15,472.104L408.15,419.706L392.59,419.706L392.59,411.168L432.527,411.168L432.527,419.706Z" style="fill:rgb(255,253,253);fill-rule:nonzero;"/>
                    <path d="M455.659,436.112C454.553,435.888 453.412,435.777 452.236,435.777C448.386,435.777 445.793,437.562 444.456,441.134L444.456,472.104L436.054,472.104L436.054,426.82L444.076,426.82L444.283,431.885C446.312,427.95 449.124,425.983 452.72,425.983C453.919,425.983 454.91,426.179 455.694,426.569L455.659,436.112Z" style="fill:rgb(255,253,253);fill-rule:nonzero;"/>
                    <path d="M482.284,472.104C481.915,471.239 481.592,469.83 481.315,467.877C478.641,471.253 475.368,472.941 471.496,472.941C467.738,472.941 464.672,471.644 462.298,469.049C459.924,466.454 458.736,463.246 458.736,459.423C458.736,454.596 460.218,450.892 463.18,448.311C466.142,445.731 470.378,444.44 475.887,444.44L481.039,444.44L481.039,441.469C481.039,439.125 480.497,437.249 479.414,435.84C478.33,434.431 476.682,433.726 474.469,433.726C472.556,433.726 470.988,434.305 469.767,435.463C468.545,436.621 467.934,438.093 467.934,439.878L459.532,439.878C459.532,437.395 460.212,435.072 461.572,432.91C462.932,430.748 464.782,429.053 467.121,427.825C469.461,426.597 472.072,425.983 474.953,425.983C479.333,425.983 482.825,427.316 485.43,429.98C488.035,432.645 489.372,436.391 489.441,441.217L489.441,461.641C489.441,465.715 489.914,468.965 490.859,471.393L490.859,472.104L482.284,472.104ZM473.051,464.78C474.711,464.78 476.273,464.292 477.737,463.315C479.2,462.339 480.301,461.027 481.039,459.381L481.039,450.843L476.509,450.843C473.397,450.843 471.058,451.499 469.49,452.81C467.923,454.122 467.139,455.977 467.139,458.377C467.139,460.33 467.675,461.885 468.747,463.043C469.819,464.201 471.253,464.78 473.051,464.78Z" style="fill:rgb(255,253,253);fill-rule:nonzero;"/>
                    <path d="M506.038,426.82L506.28,432.052C509.047,428.006 512.677,425.983 517.172,425.983C524.964,425.983 528.928,431.382 529.067,442.18L529.067,472.104L520.664,472.104L520.664,442.766C520.664,439.892 520.152,437.765 519.126,436.384C518.1,435.002 516.423,434.312 514.095,434.312C510.706,434.312 508.182,436.167 506.522,439.878L506.522,472.104L498.12,472.104L498.12,426.82L506.038,426.82Z" style="fill:rgb(255,253,253);fill-rule:nonzero;"/>
                    <path d="M558.596,459.8C558.596,457.986 557.979,456.605 556.746,455.656C555.513,454.708 553.467,453.871 550.608,453.145C547.75,452.42 545.364,451.499 543.451,450.383C539.256,447.928 537.158,444.37 537.158,439.711C537.158,435.805 538.518,432.54 541.238,429.917C543.958,427.295 547.416,425.983 551.611,425.983C556.083,425.983 559.697,427.323 562.451,430.001C565.206,432.68 566.583,436.153 566.583,440.422L558.181,440.422C558.181,438.469 557.582,436.844 556.383,435.547C555.184,434.249 553.594,433.6 551.611,433.6C549.767,433.6 548.263,434.117 547.099,435.149C545.935,436.181 545.353,437.562 545.353,439.292C545.353,440.855 545.894,442.068 546.978,442.933C548.061,443.798 550.251,444.67 553.548,445.549C556.844,446.428 559.431,447.474 561.31,448.688C563.189,449.902 564.583,451.36 565.494,453.062C566.405,454.764 566.86,456.828 566.86,459.256C566.86,463.329 565.465,466.629 562.676,469.154C559.887,471.679 556.233,472.941 551.715,472.941C548.649,472.941 545.917,472.272 543.52,470.932C541.123,469.593 539.256,467.752 537.919,465.408C536.582,463.064 535.913,460.539 535.913,457.833L544.073,457.833C544.189,460.232 544.938,462.081 546.321,463.378C547.704,464.675 549.537,465.324 551.819,465.324C554.032,465.324 555.714,464.815 556.867,463.797C558.02,462.778 558.596,461.446 558.596,459.8Z" style="fill:rgb(255,253,253);fill-rule:nonzero;"/>
                    <path d="M606.935,449.923C606.935,456.926 605.621,462.513 602.993,466.684C600.365,470.856 596.838,472.941 592.412,472.941C588.309,472.941 585.024,471.309 582.558,468.045L582.558,489.515L574.156,489.515L574.156,426.82L581.901,426.82L582.247,431.424C584.713,427.797 588.067,425.983 592.309,425.983C596.873,425.983 600.452,428.041 603.045,432.157C605.638,436.272 606.935,441.985 606.935,449.295L606.935,449.923ZM598.567,449.044C598.567,444.524 597.824,440.938 596.337,438.288C594.85,435.637 592.724,434.312 589.957,434.312C586.523,434.312 584.056,436.028 582.558,439.46L582.558,459.549C584.079,463.064 586.569,464.822 590.027,464.822C592.701,464.822 594.793,463.518 596.302,460.909C597.812,458.3 598.567,454.345 598.567,449.044Z" style="fill:rgb(255,253,253);fill-rule:nonzero;"/>
                    <path d="M612.467,449.044C612.467,444.607 613.193,440.611 614.646,437.053C616.098,433.496 618.138,430.761 620.766,428.85C623.394,426.939 626.414,425.983 629.825,425.983C634.873,425.983 638.971,427.95 642.117,431.885C645.264,435.819 646.964,441.036 647.218,447.537L647.252,449.923C647.252,454.387 646.543,458.377 645.126,461.892C643.708,465.408 641.679,468.128 639.04,470.053C636.401,471.979 633.352,472.941 629.894,472.941C624.615,472.941 620.391,470.814 617.222,466.559C614.052,462.304 612.467,456.633 612.467,449.546L612.467,449.044ZM620.87,449.923C620.87,454.582 621.665,458.23 623.255,460.867C624.846,463.504 627.059,464.822 629.894,464.822C632.73,464.822 634.937,463.483 636.516,460.804C638.095,458.126 638.884,454.206 638.884,449.044C638.884,444.468 638.072,440.841 636.447,438.162C634.822,435.484 632.614,434.145 629.825,434.145C627.082,434.145 624.904,435.463 623.29,438.1C621.676,440.736 620.87,444.677 620.87,449.923Z" style="fill:rgb(255,253,253);fill-rule:nonzero;"/>
                    <path d="M673.946,436.112C672.839,435.888 671.698,435.777 670.523,435.777C666.673,435.777 664.08,437.562 662.743,441.134L662.743,472.104L654.341,472.104L654.341,426.82L662.362,426.82L662.57,431.885C664.598,427.95 667.411,425.983 671.007,425.983C672.205,425.983 673.197,426.179 673.98,426.569L673.946,436.112Z" style="fill:rgb(255,253,253);fill-rule:nonzero;"/>
                    <path d="M691.511,415.813L691.511,426.82L698.115,426.82L698.115,434.354L691.511,434.354L691.511,459.632C691.511,461.362 691.794,462.611 692.358,463.378C692.923,464.145 693.932,464.529 695.384,464.529C696.352,464.529 697.332,464.389 698.323,464.11L698.323,471.979C696.41,472.62 694.565,472.941 692.791,472.941C686.336,472.941 683.109,468.63 683.109,460.009L683.109,434.354L676.954,434.354L676.954,426.82L683.109,426.82L683.109,415.813L691.511,415.813Z" style="fill:rgb(255,253,253);fill-rule:nonzero;"/>
                </g>
            </g>
            <g id="icons2" serif:id="icons" transform="matrix(2,0,0,2,-538.071,62.8649)">
                <g>
                    <g transform="matrix(1,0,0,1,539.5,326.709)">
                        <path d="M0,-58.3C-16.073,-58.3 -29.15,-45.223 -29.15,-29.15C-29.15,-13.076 -16.073,0.001 0,0.001C16.074,0.001 29.15,-13.076 29.15,-29.15C29.15,-45.223 16.074,-58.3 0,-58.3M0,6.091C-19.432,6.091 -35.241,-9.718 -35.241,-29.15C-35.241,-48.581 -19.432,-64.391 0,-64.391C19.432,-64.391 35.241,-48.581 35.241,-29.15C35.241,-9.718 19.432,6.091 0,6.091" style="fill:rgb(229,115,115);fill-rule:nonzero;"/>
                    </g>
                    <g transform="matrix(-1,0,0,1,1078.72,-504.452)">
                        <rect x="536.313" y="779.185" width="6.091" height="26.082" style="fill:rgb(229,115,115);"/>
                    </g>
                    <g transform="matrix(-1,0,0,1,1089.42,-481.785)">
                        <rect x="536.314" y="777.847" width="16.788" height="6.091" style="fill:rgb(229,115,115);"/>
                    </g>
                </g>
            </g>
        </g>
    </g>
</svg>
