<?xml version="1.0" encoding="UTF-8" standalone="no"?>
<!DOCTYPE svg PUBLIC "-//W3C//DTD SVG 1.1//EN" "http://www.w3.org/Graphics/SVG/1.1/DTD/svg11.dtd">
<svg width="100%" height="100%" viewBox="0 0 4500 4500" version="1.1" xmlns="http://www.w3.org/2000/svg" xmlns:xlink="http://www.w3.org/1999/xlink" xml:space="preserve" xmlns:serif="http://www.serif.com/" style="fill-rule:evenodd;clip-rule:evenodd;stroke-miterlimit:10;">
    <g>
        <g id="EmergencyRessource100" transform="matrix(4.16667,0,0,4.16667,-711.28,-481.874)">
            <g id="body" transform="matrix(1,0,0,1,371.053,216.476)">
                <path d="M0,647.047C-11.004,647.047 -21.258,641.127 -26.76,631.598L-195.707,338.973C-201.208,329.443 -201.208,317.604 -195.707,308.074L-26.76,15.449C-21.257,5.92 -11.004,0 0,0L337.894,0C348.897,0 359.151,5.92 364.654,15.449L533.6,308.074C539.102,317.604 539.102,329.443 533.6,338.973L364.654,631.598C359.151,641.127 348.898,647.047 337.894,647.047L0,647.047Z" style="fill:white;fill-rule:nonzero;"/>
            </g>
            <g id="status" transform="matrix(0.24,0,0,0.240586,-6.82121e-13,-1.02834)">
                <path d="M2841.67,901.985L1658.34,901.985L1658.34,1637.92C1658.34,1703.23 1711.36,1756.25 1776.67,1756.25L2723.34,1756.25C2788.64,1756.25 2841.67,1703.23 2841.67,1637.92L2841.67,901.985Z" style="fill:rgb(129,199,132);fill-rule:nonzero;"/>
            </g>
            <g transform="matrix(1,0,0,1,714.215,582.256)">
                <path d="M0,57.843L-348.429,57.843C-364.336,57.843 -377.351,44.828 -377.351,28.922C-377.351,13.015 -364.336,0 -348.429,0L0,0C15.907,0 28.921,13.015 28.921,28.922C28.921,44.828 15.907,57.843 0,57.843Z" style="fill:rgb(64,64,64);fill-rule:nonzero;stroke:rgb(164,163,163);stroke-width:1px;"/>
            </g>
            <g transform="matrix(1,0,0,1,630.129,654.065)">
                <path d="M0,57.843L-180.257,57.843C-196.164,57.843 -209.179,44.828 -209.179,28.922C-209.179,13.015 -196.164,0 -180.257,0L0,0C15.907,0 28.921,13.015 28.921,28.922C28.921,44.828 15.907,57.843 0,57.843Z" style="fill:rgb(229,115,115);fill-rule:nonzero;stroke:rgb(164,163,163);stroke-width:1px;"/>
            </g>
            <g>
                <path d="M388.792,613.562C388.792,616.252 388.191,618.392 386.99,619.982C385.79,621.573 384.138,622.368 382.035,622.368C380.007,622.368 378.427,621.637 377.296,620.174L377.104,622.048L373.581,622.048L373.581,597.455L377.472,597.455L377.472,606.389C378.593,605.065 380.103,604.403 382.003,604.403C384.116,604.403 385.776,605.188 386.982,606.757C388.189,608.326 388.792,610.52 388.792,613.338L388.792,613.562ZM384.901,613.226C384.901,611.347 384.57,609.938 383.908,608.999C383.246,608.059 382.286,607.59 381.026,607.59C379.34,607.59 378.155,608.326 377.472,609.799L377.472,616.94C378.166,618.445 379.361,619.198 381.058,619.198C382.275,619.198 383.214,618.744 383.876,617.837C384.538,616.929 384.88,615.558 384.901,613.722L384.901,613.226Z" style="fill:white;fill-rule:nonzero;"/>
                <path d="M401.118,608.278C400.605,608.193 400.077,608.15 399.533,608.15C397.75,608.15 396.549,608.833 395.93,610.199L395.93,622.048L392.039,622.048L392.039,604.724L395.754,604.724L395.85,606.661C396.789,605.156 398.092,604.403 399.757,604.403C400.312,604.403 400.771,604.478 401.134,604.628L401.118,608.278Z" style="fill:white;fill-rule:nonzero;"/>
                <path d="M413.444,622.048C413.273,621.717 413.123,621.178 412.995,620.431C411.757,621.722 410.241,622.368 408.448,622.368C406.708,622.368 405.289,621.872 404.189,620.879C403.09,619.886 402.54,618.659 402.54,617.196C402.54,615.35 403.226,613.933 404.598,612.945C405.969,611.958 407.931,611.464 410.482,611.464L412.867,611.464L412.867,610.328C412.867,609.431 412.616,608.713 412.115,608.174C411.613,607.635 410.85,607.366 409.825,607.366C408.939,607.366 408.213,607.587 407.648,608.03C407.082,608.473 406.799,609.036 406.799,609.719L402.908,609.719C402.908,608.769 403.223,607.881 403.853,607.053C404.483,606.226 405.339,605.578 406.423,605.108C407.506,604.638 408.715,604.403 410.049,604.403C412.077,604.403 413.695,604.913 414.901,605.933C416.107,606.952 416.726,608.385 416.758,610.232L416.758,618.045C416.758,619.603 416.977,620.847 417.414,621.776L417.414,622.048L413.444,622.048ZM409.169,619.246C409.937,619.246 410.66,619.059 411.338,618.685C412.016,618.312 412.526,617.81 412.867,617.18L412.867,613.914L410.77,613.914C409.329,613.914 408.245,614.165 407.52,614.667C406.794,615.168 406.431,615.878 406.431,616.796C406.431,617.543 406.679,618.138 407.175,618.581C407.672,619.024 408.336,619.246 409.169,619.246ZM404.51,600.177C404.51,599.643 404.688,599.195 405.046,598.832C405.403,598.469 405.897,598.287 406.527,598.287C407.157,598.287 407.653,598.469 408.016,598.832C408.379,599.195 408.56,599.643 408.56,600.177C408.56,600.71 408.379,601.159 408.016,601.521C407.653,601.884 407.157,602.066 406.527,602.066C405.897,602.066 405.403,601.884 405.046,601.521C404.688,601.159 404.51,600.71 404.51,600.177ZM411.827,600.193C411.827,599.659 412.005,599.211 412.363,598.848C412.721,598.485 413.214,598.303 413.844,598.303C414.474,598.303 414.97,598.485 415.333,598.848C415.696,599.211 415.877,599.659 415.877,600.193C415.877,600.726 415.696,601.175 415.333,601.538C414.97,601.9 414.474,602.082 413.844,602.082C413.214,602.082 412.721,601.9 412.363,601.538C412.005,601.175 411.827,600.726 411.827,600.193Z" style="fill:white;fill-rule:nonzero;"/>
                <path d="M431.326,620.351C430.183,621.695 428.561,622.368 426.458,622.368C424.58,622.368 423.157,621.818 422.191,620.719C421.225,619.619 420.742,618.029 420.742,615.947L420.742,604.724L424.633,604.724L424.633,615.899C424.633,618.098 425.546,619.198 427.371,619.198C429.26,619.198 430.536,618.52 431.198,617.164L431.198,604.724L435.088,604.724L435.088,622.048L431.422,622.048L431.326,620.351Z" style="fill:white;fill-rule:nonzero;"/>
                <path d="M446.165,619.262C447.137,619.262 447.943,618.979 448.583,618.413C449.224,617.847 449.565,617.148 449.608,616.316L453.274,616.316C453.232,617.394 452.895,618.4 452.266,619.334C451.636,620.268 450.782,621.007 449.704,621.551C448.626,622.096 447.462,622.368 446.213,622.368C443.79,622.368 441.869,621.583 440.449,620.014C439.03,618.445 438.32,616.278 438.32,613.514L438.32,613.114C438.32,610.477 439.024,608.366 440.433,606.781C441.842,605.196 443.764,604.403 446.197,604.403C448.258,604.403 449.936,605.004 451.233,606.205C452.53,607.406 453.21,608.983 453.274,610.936L449.608,610.936C449.565,609.943 449.226,609.127 448.591,608.486C447.956,607.846 447.147,607.526 446.165,607.526C444.906,607.526 443.935,607.982 443.251,608.895C442.568,609.807 442.221,611.192 442.211,613.049L442.211,613.674C442.211,615.553 442.55,616.954 443.227,617.877C443.905,618.8 444.885,619.262 446.165,619.262Z" style="fill:white;fill-rule:nonzero;"/>
                <path d="M460.045,606.613C461.315,605.14 462.921,604.403 464.864,604.403C468.557,604.403 470.43,606.512 470.484,610.728L470.484,622.048L466.593,622.048L466.593,610.872C466.593,609.676 466.334,608.831 465.817,608.334C465.299,607.838 464.538,607.59 463.535,607.59C461.977,607.59 460.813,608.284 460.045,609.671L460.045,622.048L456.154,622.048L456.154,597.455L460.045,597.455L460.045,606.613Z" style="fill:white;fill-rule:nonzero;"/>
                <path d="M479.287,600.513L479.287,604.724L482.345,604.724L482.345,607.606L479.287,607.606L479.287,617.276C479.287,617.938 479.418,618.416 479.68,618.709C479.941,619.003 480.408,619.15 481.081,619.15C481.529,619.15 481.983,619.096 482.442,618.99L482.442,622C481.556,622.245 480.702,622.368 479.88,622.368C476.891,622.368 475.397,620.719 475.397,617.42L475.397,607.606L472.547,607.606L472.547,604.724L475.397,604.724L475.397,600.513L479.287,600.513Z" style="fill:white;fill-rule:nonzero;"/>
                <path d="M492.942,622.368C490.477,622.368 488.478,621.591 486.946,620.038C485.414,618.485 484.649,616.417 484.649,613.834L484.649,613.354C484.649,611.624 484.982,610.079 485.649,608.718C486.316,607.358 487.253,606.298 488.459,605.54C489.665,604.782 491.01,604.403 492.494,604.403C494.853,604.403 496.676,605.156 497.962,606.661C499.248,608.166 499.891,610.296 499.891,613.049L499.891,614.619L488.571,614.619C488.689,616.049 489.166,617.18 490.004,618.013C490.842,618.845 491.896,619.262 493.167,619.262C494.949,619.262 496.401,618.541 497.522,617.1L499.619,619.102C498.925,620.137 497.999,620.94 496.841,621.511C495.683,622.082 494.383,622.368 492.942,622.368ZM492.478,607.526C491.411,607.526 490.549,607.899 489.892,608.646C489.236,609.394 488.817,610.434 488.635,611.769L496.049,611.769L496.049,611.48C495.963,610.178 495.616,609.193 495.008,608.526C494.399,607.859 493.556,607.526 492.478,607.526Z" style="fill:white;fill-rule:nonzero;"/>
                <path d="M518.201,619.262C519.172,619.262 519.978,618.979 520.619,618.413C521.259,617.847 521.601,617.148 521.643,616.316L525.31,616.316C525.267,617.394 524.931,618.4 524.301,619.334C523.671,620.268 522.818,621.007 521.739,621.551C520.661,622.096 519.498,622.368 518.249,622.368C515.826,622.368 513.905,621.583 512.485,620.014C511.065,618.445 510.356,616.278 510.356,613.514L510.356,613.114C510.356,610.477 511.06,608.366 512.469,606.781C513.878,605.196 515.799,604.403 518.233,604.403C520.293,604.403 521.972,605.004 523.269,606.205C524.565,607.406 525.246,608.983 525.31,610.936L521.643,610.936C521.601,609.943 521.262,609.127 520.627,608.486C519.992,607.846 519.183,607.526 518.201,607.526C516.941,607.526 515.97,607.982 515.287,608.895C514.604,609.807 514.257,611.192 514.246,613.049L514.246,613.674C514.246,615.553 514.585,616.954 515.263,617.877C515.941,618.8 516.92,619.262 518.201,619.262Z" style="fill:white;fill-rule:nonzero;"/>
                <path d="M538.597,622.048C538.426,621.717 538.276,621.178 538.148,620.431C536.91,621.722 535.394,622.368 533.601,622.368C531.861,622.368 530.442,621.872 529.342,620.879C528.243,619.886 527.693,618.659 527.693,617.196C527.693,615.35 528.379,613.933 529.751,612.945C531.122,611.958 533.083,611.464 535.635,611.464L538.02,611.464L538.02,610.328C538.02,609.431 537.769,608.713 537.268,608.174C536.766,607.635 536.003,607.366 534.978,607.366C534.092,607.366 533.366,607.587 532.801,608.03C532.235,608.473 531.952,609.036 531.952,609.719L528.061,609.719C528.061,608.769 528.376,607.881 529.006,607.053C529.636,606.226 530.492,605.578 531.576,605.108C532.659,604.638 533.868,604.403 535.202,604.403C537.23,604.403 538.847,604.913 540.054,605.933C541.26,606.952 541.879,608.385 541.911,610.232L541.911,618.045C541.911,619.603 542.13,620.847 542.567,621.776L542.567,622.048L538.597,622.048ZM534.322,619.246C535.09,619.246 535.813,619.059 536.491,618.685C537.169,618.312 537.679,617.81 538.02,617.18L538.02,613.914L535.923,613.914C534.482,613.914 533.398,614.165 532.673,614.667C531.947,615.168 531.584,615.878 531.584,616.796C531.584,617.543 531.832,618.138 532.328,618.581C532.825,619.024 533.489,619.246 534.322,619.246Z" style="fill:white;fill-rule:nonzero;"/>
                <path d="M548.409,617.949C549.135,617.949 549.695,618.154 550.09,618.565C550.485,618.976 550.683,619.491 550.683,620.11C550.683,620.719 550.485,621.223 550.09,621.623C549.695,622.024 549.135,622.224 548.409,622.224C547.715,622.224 547.165,622.026 546.76,621.631C546.354,621.236 546.151,620.729 546.151,620.11C546.151,619.491 546.349,618.976 546.744,618.565C547.139,618.154 547.694,617.949 548.409,617.949Z" style="fill:white;fill-rule:nonzero;"/>
                <path d="M574.1,612.297C572.798,613.674 571.277,614.362 569.537,614.362C567.487,614.362 565.854,613.645 564.637,612.209C563.421,610.773 562.812,608.887 562.812,606.549C562.812,605.012 563.122,603.619 563.741,602.37C564.36,601.121 565.24,600.15 566.383,599.456C567.525,598.762 568.848,598.415 570.353,598.415C572.702,598.415 574.564,599.291 575.941,601.041C577.318,602.792 578.007,605.135 578.007,608.07L578.007,609.159C578.007,613.364 577.057,616.572 575.157,618.781C573.257,620.991 570.423,622.112 566.655,622.144L566.19,622.144L566.19,618.926L566.751,618.926C569.046,618.894 570.807,618.341 572.034,617.268C573.262,616.196 573.95,614.539 574.1,612.297ZM570.353,611.32C571.133,611.32 571.864,611.096 572.547,610.648C573.23,610.199 573.758,609.58 574.132,608.791L574.132,607.269C574.132,605.551 573.78,604.169 573.075,603.123C572.371,602.077 571.458,601.554 570.337,601.554C569.217,601.554 568.323,602.015 567.655,602.938C566.988,603.862 566.655,605.028 566.655,606.437C566.655,607.899 566.991,609.079 567.663,609.975C568.336,610.872 569.233,611.32 570.353,611.32Z" style="fill:white;fill-rule:nonzero;"/>
                <path d="M595.756,598.736L602.481,616.604L609.189,598.736L614.425,598.736L614.425,622.048L610.39,622.048L610.39,614.362L610.79,604.083L603.906,622.048L601.008,622.048L594.139,604.099L594.539,614.362L594.539,622.048L590.504,622.048L590.504,598.736L595.756,598.736Z" style="fill:white;fill-rule:nonzero;"/>
                <path d="M622.972,622.048L619.082,622.048L619.082,604.724L622.972,604.724L622.972,622.048ZM618.842,600.225C618.842,599.627 619.031,599.131 619.41,598.736C619.789,598.341 620.331,598.143 621.035,598.143C621.74,598.143 622.284,598.341 622.668,598.736C623.052,599.131 623.245,599.627 623.245,600.225C623.245,600.812 623.052,601.3 622.668,601.69C622.284,602.079 621.74,602.274 621.035,602.274C620.331,602.274 619.789,602.079 619.41,601.69C619.031,601.3 618.842,600.812 618.842,600.225Z" style="fill:white;fill-rule:nonzero;"/>
                <path d="M630.815,604.724L630.927,606.725C632.208,605.177 633.889,604.403 635.971,604.403C639.579,604.403 641.415,606.469 641.479,610.6L641.479,622.048L637.588,622.048L637.588,610.824C637.588,609.725 637.351,608.911 636.876,608.382C636.401,607.854 635.624,607.59 634.546,607.59C632.977,607.59 631.808,608.3 631.04,609.719L631.04,622.048L627.149,622.048L627.149,604.724L630.815,604.724Z" style="fill:white;fill-rule:nonzero;"/>
                <path d="M655.934,620.351C654.792,621.695 653.17,622.368 651.067,622.368C649.188,622.368 647.766,621.818 646.8,620.719C645.834,619.619 645.351,618.029 645.351,615.947L645.351,604.724L649.242,604.724L649.242,615.899C649.242,618.098 650.154,619.198 651.98,619.198C653.869,619.198 655.144,618.52 655.806,617.164L655.806,604.724L659.697,604.724L659.697,622.048L656.03,622.048L655.934,620.351Z" style="fill:white;fill-rule:nonzero;"/>
                <path d="M668.533,600.513L668.533,604.724L671.591,604.724L671.591,607.606L668.533,607.606L668.533,617.276C668.533,617.938 668.663,618.416 668.925,618.709C669.186,619.003 669.653,619.15 670.326,619.15C670.774,619.15 671.228,619.096 671.687,618.99L671.687,622C670.801,622.245 669.947,622.368 669.125,622.368C666.136,622.368 664.642,620.719 664.642,617.42L664.642,607.606L661.792,607.606L661.792,604.724L664.642,604.724L664.642,600.513L668.533,600.513Z" style="fill:white;fill-rule:nonzero;"/>
                <path d="M682.187,622.368C679.722,622.368 677.723,621.591 676.191,620.038C674.66,618.485 673.894,616.417 673.894,613.834L673.894,613.354C673.894,611.624 674.227,610.079 674.894,608.718C675.562,607.358 676.498,606.298 677.704,605.54C678.911,604.782 680.255,604.403 681.739,604.403C684.098,604.403 685.921,605.156 687.207,606.661C688.493,608.166 689.136,610.296 689.136,613.049L689.136,614.619L677.816,614.619C677.934,616.049 678.412,617.18 679.249,618.013C680.087,618.845 681.141,619.262 682.412,619.262C684.194,619.262 685.646,618.541 686.767,617.1L688.864,619.102C688.17,620.137 687.244,620.94 686.086,621.511C684.928,622.082 683.628,622.368 682.187,622.368ZM681.723,607.526C680.656,607.526 679.794,607.899 679.137,608.646C678.481,609.394 678.062,610.434 677.881,611.769L685.294,611.769L685.294,611.48C685.208,610.178 684.861,609.193 684.253,608.526C683.644,607.859 682.801,607.526 681.723,607.526Z" style="fill:white;fill-rule:nonzero;"/>
                <path d="M695.762,604.724L695.874,606.725C697.155,605.177 698.837,604.403 700.918,604.403C704.526,604.403 706.362,606.469 706.426,610.6L706.426,622.048L702.535,622.048L702.535,610.824C702.535,609.725 702.298,608.911 701.823,608.382C701.348,607.854 700.571,607.59 699.493,607.59C697.924,607.59 696.755,608.3 695.987,609.719L695.987,622.048L692.096,622.048L692.096,604.724L695.762,604.724Z" style="fill:white;fill-rule:nonzero;"/>
            </g>
            <g>
                <path d="M488.82,693.854C488.628,693.31 488.506,692.504 488.452,691.437C487.78,692.312 486.923,692.987 485.882,693.462C484.842,693.937 483.74,694.175 482.576,694.175C480.911,694.175 479.563,693.71 478.533,692.782C477.503,691.853 476.988,690.679 476.988,689.259C476.988,687.573 477.69,686.239 479.094,685.257C480.497,684.275 482.453,683.784 484.962,683.784L488.436,683.784L488.436,681.814C488.436,680.576 488.055,679.602 487.291,678.892C486.528,678.182 485.415,677.827 483.953,677.827C482.619,677.827 481.514,678.169 480.639,678.852C479.764,679.535 479.326,680.357 479.326,681.318L477.405,681.302C477.405,679.925 478.045,678.732 479.326,677.723C480.607,676.715 482.181,676.21 484.049,676.21C485.981,676.21 487.505,676.693 488.62,677.659C489.736,678.625 490.31,679.973 490.342,681.702L490.342,689.9C490.342,691.576 490.518,692.83 490.87,693.662L490.87,693.854L488.82,693.854ZM482.8,692.478C484.081,692.478 485.226,692.168 486.235,691.549C487.243,690.93 487.977,690.103 488.436,689.067L488.436,685.257L485.01,685.257C483.099,685.278 481.605,685.627 480.527,686.305C479.449,686.983 478.91,687.914 478.91,689.099C478.91,690.071 479.27,690.876 479.99,691.517C480.711,692.157 481.648,692.478 482.8,692.478Z" style="fill:white;fill-rule:nonzero;"/>
                <rect x="495.674" y="669.261" width="1.921" height="24.593" style="fill:white;fill-rule:nonzero;"/>
                <path d="M513.735,693.854C513.543,693.31 513.42,692.504 513.367,691.437C512.694,692.312 511.838,692.987 510.797,693.462C509.756,693.937 508.654,694.175 507.491,694.175C505.826,694.175 504.478,693.71 503.448,692.782C502.418,691.853 501.903,690.679 501.903,689.259C501.903,687.573 502.605,686.239 504.008,685.257C505.412,684.275 507.368,683.784 509.876,683.784L513.351,683.784L513.351,681.814C513.351,680.576 512.969,679.602 512.206,678.892C511.443,678.182 510.33,677.827 508.868,677.827C507.534,677.827 506.429,678.169 505.553,678.852C504.678,679.535 504.241,680.357 504.241,681.318L502.319,681.302C502.319,679.925 502.96,678.732 504.241,677.723C505.521,676.715 507.096,676.21 508.964,676.21C510.896,676.21 512.42,676.693 513.535,677.659C514.65,678.625 515.224,679.973 515.256,681.702L515.256,689.9C515.256,691.576 515.432,692.83 515.785,693.662L515.785,693.854L513.735,693.854ZM507.715,692.478C508.996,692.478 510.141,692.168 511.149,691.549C512.158,690.93 512.892,690.103 513.351,689.067L513.351,685.257L509.925,685.257C508.014,685.278 506.519,685.627 505.441,686.305C504.363,686.983 503.824,687.914 503.824,689.099C503.824,690.071 504.185,690.876 504.905,691.517C505.626,692.157 506.562,692.478 507.715,692.478Z" style="fill:white;fill-rule:nonzero;"/>
                <path d="M528.37,678.164C527.964,678.089 527.532,678.052 527.073,678.052C525.878,678.052 524.866,678.385 524.039,679.052C523.212,679.719 522.622,680.688 522.27,681.958L522.27,693.854L520.364,693.854L520.364,676.531L522.238,676.531L522.27,679.284C523.284,677.235 524.912,676.21 527.153,676.21C527.687,676.21 528.108,676.28 528.418,676.418L528.37,678.164Z" style="fill:white;fill-rule:nonzero;"/>
                <path d="M533.142,676.531L533.206,679.348C533.846,678.302 534.647,677.518 535.608,676.995C536.568,676.472 537.636,676.21 538.81,676.21C541.542,676.21 543.277,677.331 544.014,679.573C544.633,678.495 545.46,677.665 546.495,677.083C547.531,676.501 548.673,676.21 549.922,676.21C553.636,676.21 555.531,678.238 555.606,682.294L555.606,693.854L553.684,693.854L553.684,682.439C553.674,680.891 553.34,679.743 552.684,678.996C552.027,678.249 550.957,677.875 549.473,677.875C548.096,677.897 546.933,678.342 545.983,679.212C545.033,680.082 544.505,681.142 544.398,682.391L544.398,693.854L542.476,693.854L542.476,682.294C542.466,680.811 542.116,679.703 541.428,678.972C540.739,678.241 539.68,677.875 538.25,677.875C537.043,677.875 536.008,678.22 535.143,678.908C534.279,679.597 533.638,680.619 533.222,681.974L533.222,693.854L531.301,693.854L531.301,676.531L533.142,676.531Z" style="fill:white;fill-rule:nonzero;"/>
                <path d="M562.603,693.854L560.682,693.854L560.682,676.531L562.603,676.531L562.603,693.854ZM560.346,671.519C560.346,671.156 560.463,670.849 560.698,670.598C560.933,670.348 561.253,670.222 561.658,670.222C562.064,670.222 562.387,670.348 562.627,670.598C562.867,670.849 562.987,671.156 562.987,671.519C562.987,671.882 562.867,672.186 562.627,672.432C562.387,672.677 562.064,672.8 561.658,672.8C561.253,672.8 560.933,672.677 560.698,672.432C560.463,672.186 560.346,671.882 560.346,671.519Z" style="fill:white;fill-rule:nonzero;"/>
                <path d="M574.516,694.175C573.043,694.175 571.711,693.812 570.521,693.086C569.331,692.36 568.405,691.349 567.743,690.052C567.082,688.755 566.751,687.301 566.751,685.689L566.751,685C566.751,683.335 567.074,681.836 567.719,680.501C568.365,679.167 569.264,678.118 570.417,677.355C571.57,676.592 572.819,676.21 574.164,676.21C576.267,676.21 577.934,676.928 579.167,678.364C580.4,679.799 581.017,681.761 581.017,684.248L581.017,685.321L568.656,685.321L568.656,685.689C568.656,687.653 569.219,689.289 570.345,690.596C571.471,691.904 572.888,692.558 574.596,692.558C575.621,692.558 576.525,692.371 577.31,691.997C578.095,691.624 578.807,691.026 579.447,690.204L580.648,691.117C579.239,693.155 577.195,694.175 574.516,694.175ZM574.164,677.843C572.723,677.843 571.509,678.372 570.521,679.429C569.534,680.485 568.933,681.905 568.72,683.687L579.111,683.687L579.111,683.479C579.058,681.814 578.583,680.459 577.686,679.413C576.79,678.366 575.615,677.843 574.164,677.843Z" style="fill:white;fill-rule:nonzero;"/>
                <path d="M592.753,678.164C592.348,678.089 591.915,678.052 591.456,678.052C590.261,678.052 589.25,678.385 588.422,679.052C587.595,679.719 587.005,680.688 586.653,681.958L586.653,693.854L584.748,693.854L584.748,676.531L586.621,676.531L586.653,679.284C587.667,677.235 589.295,676.21 591.537,676.21C592.07,676.21 592.492,676.28 592.801,676.418L592.753,678.164Z" style="fill:white;fill-rule:nonzero;"/>
                <path d="M599.559,672.095L599.559,676.531L603.145,676.531L603.145,678.1L599.559,678.1L599.559,689.644C599.559,690.604 599.732,691.319 600.079,691.789C600.426,692.259 601.005,692.494 601.816,692.494C602.137,692.494 602.654,692.44 603.369,692.333L603.449,693.903C602.948,694.084 602.265,694.175 601.4,694.175C600.087,694.175 599.132,693.793 598.534,693.03C597.936,692.267 597.637,691.143 597.637,689.66L597.637,678.1L594.451,678.1L594.451,676.531L597.637,676.531L597.637,672.095L599.559,672.095Z" style="fill:white;fill-rule:nonzero;"/>
            </g>
            <g transform="matrix(1,0,0,1,708.947,864.024)">
                <path d="M0,-648.048L-337.894,-648.048C-349.112,-648.048 -359.477,-642.063 -365.086,-632.348L-534.033,-339.724C-539.642,-330.009 -539.642,-318.04 -534.033,-308.325L-365.086,-15.7C-359.477,-5.985 -349.112,0 -337.894,0L0,0C11.218,0 21.584,-5.985 27.193,-15.7L196.14,-308.325C201.748,-318.04 201.748,-330.009 196.14,-339.724L27.193,-632.348C21.584,-642.063 11.218,-648.048 0,-648.048M0,-647.048C10.826,-647.048 20.914,-641.224 26.327,-631.848L195.273,-339.224C200.686,-329.848 200.686,-318.2 195.273,-308.825L26.327,-16.2C20.914,-6.824 10.826,-1 0,-1L-337.894,-1C-348.72,-1 -358.807,-6.824 -364.22,-16.2L-533.167,-308.825C-538.58,-318.2 -538.58,-329.848 -533.167,-339.224L-364.22,-631.848C-358.807,-641.224 -348.72,-647.048 -337.894,-647.048L0,-647.048" style="fill:rgb(166,166,166);fill-rule:nonzero;"/>
            </g>
            <g transform="matrix(0.24,0,0,0.24,538.562,561.109)">
                <path d="M-451.045,0L-482.555,0L-482.555,-152.214L-529.04,-136.328L-529.04,-163.021L-455.081,-190.234L-451.045,-190.234L-451.045,0Z" style="fill:rgb(64,64,64);fill-rule:nonzero;"/>
                <path d="M-299.556,0L-331.066,0L-331.066,-152.214L-377.551,-136.328L-377.551,-163.021L-303.592,-190.234L-299.556,-190.234L-299.556,0Z" style="fill:rgb(64,64,64);fill-rule:nonzero;"/>
                <path d="M-222.806,16.276L-247.676,16.276L-173.067,-189.583L-148.197,-189.583L-222.806,16.276Z" style="fill:rgb(64,64,64);fill-rule:nonzero;"/>
                <path d="M-8.948,-139.583C-8.948,-130.295 -11.335,-122.027 -16.109,-114.779C-20.883,-107.53 -27.394,-101.823 -35.64,-97.656C-25.744,-93.056 -18.127,-86.762 -12.789,-78.776C-7.45,-70.79 -4.781,-61.762 -4.781,-51.693C-4.781,-35.026 -10.423,-21.81 -21.708,-12.044C-32.993,-2.279 -48.01,2.604 -66.76,2.604C-85.597,2.604 -100.679,-2.3 -112.008,-12.109C-123.336,-21.918 -129,-35.113 -129,-51.693C-129,-61.849 -126.309,-70.964 -120.927,-79.036C-115.545,-87.109 -107.993,-93.316 -98.271,-97.656C-106.43,-101.823 -112.876,-107.53 -117.606,-114.779C-122.337,-122.027 -124.703,-130.295 -124.703,-139.583C-124.703,-155.729 -119.494,-168.533 -109.078,-177.995C-98.661,-187.457 -84.599,-192.188 -66.89,-192.188C-49.095,-192.188 -34.989,-187.457 -24.573,-177.995C-14.156,-168.533 -8.948,-155.729 -8.948,-139.583ZM-36.422,-53.255C-36.422,-62.63 -39.221,-70.204 -44.82,-75.977C-50.419,-81.749 -57.819,-84.635 -67.021,-84.635C-76.222,-84.635 -83.579,-81.771 -89.091,-76.042C-94.603,-70.313 -97.359,-62.717 -97.359,-53.255C-97.359,-43.967 -94.646,-36.545 -89.221,-30.99C-83.796,-25.434 -76.309,-22.656 -66.76,-22.656C-57.212,-22.656 -49.768,-25.347 -44.429,-30.729C-39.091,-36.111 -36.422,-43.62 -36.422,-53.255ZM-40.458,-138.411C-40.458,-146.658 -42.845,-153.451 -47.619,-158.789C-52.394,-164.128 -58.817,-166.797 -66.89,-166.797C-74.963,-166.797 -81.343,-164.258 -86.031,-159.18C-90.718,-154.102 -93.062,-147.179 -93.062,-138.411C-93.062,-129.731 -90.697,-122.83 -85.966,-117.708C-81.235,-112.587 -74.833,-110.026 -66.76,-110.026C-58.687,-110.026 -52.285,-112.587 -47.554,-117.708C-42.823,-122.83 -40.458,-129.731 -40.458,-138.411Z" style="fill:rgb(64,64,64);fill-rule:nonzero;"/>
                <path d="M59.729,-109.245L79,-109.245C88.722,-109.332 96.426,-111.849 102.112,-116.797C107.797,-121.745 110.64,-128.906 110.64,-138.281C110.64,-147.309 108.275,-154.319 103.544,-159.31C98.813,-164.301 91.587,-166.797 81.864,-166.797C73.357,-166.797 66.369,-164.345 60.901,-159.44C55.432,-154.536 52.698,-148.134 52.698,-140.234L21.057,-140.234C21.057,-149.957 23.639,-158.811 28.804,-166.797C33.969,-174.783 41.174,-181.011 50.419,-185.482C59.664,-189.952 70.015,-192.188 81.474,-192.188C100.397,-192.188 115.263,-187.435 126.07,-177.93C136.877,-168.424 142.281,-155.208 142.281,-138.281C142.281,-129.774 139.568,-121.766 134.143,-114.258C128.718,-106.749 121.708,-101.085 113.114,-97.266C123.531,-93.707 131.452,-88.108 136.877,-80.469C142.303,-72.83 145.015,-63.715 145.015,-53.125C145.015,-36.111 139.178,-22.569 127.502,-12.5C115.827,-2.431 100.484,2.604 81.474,2.604C63.244,2.604 48.314,-2.257 36.682,-11.979C25.05,-21.701 19.234,-34.635 19.234,-50.781L50.875,-50.781C50.875,-42.448 53.674,-35.677 59.273,-30.469C64.872,-25.26 72.402,-22.656 81.864,-22.656C91.673,-22.656 99.399,-25.26 105.041,-30.469C110.684,-35.677 113.505,-43.229 113.505,-53.125C113.505,-63.108 110.554,-70.79 104.651,-76.172C98.748,-81.554 89.981,-84.245 78.349,-84.245L59.729,-84.245L59.729,-109.245Z" style="fill:rgb(64,64,64);fill-rule:nonzero;"/>
                <rect x="169.681" y="-93.359" width="68.359" height="25.521" style="fill:rgb(64,64,64);fill-rule:nonzero;"/>
                <path d="M385.624,-79.818C385.624,-52.561 380.524,-32.01 370.324,-18.164C360.124,-4.319 344.608,2.604 323.775,2.604C303.288,2.604 287.859,-4.145 277.485,-17.643C267.112,-31.141 261.795,-51.128 261.535,-77.604L261.535,-110.417C261.535,-137.674 266.635,-158.116 276.834,-171.745C287.034,-185.373 302.594,-192.188 323.514,-192.188C344.261,-192.188 359.734,-185.547 369.933,-172.266C380.133,-158.984 385.363,-139.106 385.624,-112.63L385.624,-79.818ZM353.983,-115.234C353.983,-133.03 351.552,-146.072 346.691,-154.362C341.83,-162.652 334.104,-166.797 323.514,-166.797C313.184,-166.797 305.589,-162.869 300.728,-155.013C295.867,-147.157 293.306,-134.896 293.045,-118.229L293.045,-75.26C293.045,-57.552 295.519,-44.358 300.467,-35.677C305.415,-26.997 313.184,-22.656 323.775,-22.656C333.931,-22.656 341.439,-26.671 346.301,-34.701C351.162,-42.73 353.722,-55.295 353.983,-72.396L353.983,-115.234Z" style="fill:rgb(64,64,64);fill-rule:nonzero;"/>
                <path d="M541.019,0L413.545,0L413.545,-21.745L476.696,-90.625C485.81,-100.781 492.299,-109.266 496.162,-116.081C500.025,-122.895 501.956,-129.731 501.956,-136.589C501.956,-145.616 499.417,-152.908 494.339,-158.464C489.261,-164.019 482.425,-166.797 473.831,-166.797C463.588,-166.797 455.645,-163.672 450.003,-157.422C444.361,-151.172 441.54,-142.622 441.54,-131.771L409.899,-131.771C409.899,-143.316 412.525,-153.711 417.777,-162.956C423.028,-172.201 430.537,-179.384 440.303,-184.505C450.068,-189.627 461.331,-192.188 474.092,-192.188C492.494,-192.188 507.013,-187.565 517.646,-178.32C528.28,-169.076 533.597,-156.293 533.597,-139.974C533.597,-130.512 530.928,-120.595 525.589,-110.221C520.251,-99.848 511.505,-88.064 499.352,-74.87L452.998,-25.26L541.019,-25.26L541.019,0Z" style="fill:rgb(64,64,64);fill-rule:nonzero;"/>
            </g>
            <g transform="matrix(5.2337,0,0,2.69142,-2313.68,-610.076)">
                <path d="M547.149,360.372L544.665,360.372L544.665,336.986L541.001,339.427L541.001,335.326L546.83,331.145L547.149,331.145L547.149,360.372Z" style="fill:rgb(64,64,64);fill-rule:nonzero;"/>
            </g>
        </g>
        <g id="EmergencyRessource70" transform="matrix(2.91672,0,0,2.91672,1847.84,1561.85)">
            <g id="body1" serif:id="body" transform="matrix(1,0,0,1,371.053,216.476)">
                <path d="M0,647.047C-11.004,647.047 -21.258,641.127 -26.76,631.598L-195.707,338.973C-201.208,329.443 -201.208,317.604 -195.707,308.074L-26.76,15.449C-21.257,5.92 -11.004,0 0,0L337.894,0C348.897,0 359.151,5.92 364.654,15.449L533.6,308.074C539.102,317.604 539.102,329.443 533.6,338.973L364.654,631.598C359.151,641.127 348.898,647.047 337.894,647.047L0,647.047Z" style="fill:white;fill-rule:nonzero;"/>
            </g>
            <g id="status1" serif:id="status" transform="matrix(0.24,0,0,0.240586,-6.82121e-13,-1.02834)">
                <path d="M2841.67,901.985L1658.34,901.985L1658.34,1637.92C1658.34,1703.23 1711.36,1756.25 1776.67,1756.25L2723.34,1756.25C2788.64,1756.25 2841.67,1703.23 2841.67,1637.92L2841.67,901.985Z" style="fill:rgb(129,199,132);fill-rule:nonzero;"/>
            </g>
            <g transform="matrix(1,0,0,1,714.215,582.256)">
                <path d="M0,57.843L-348.429,57.843C-364.336,57.843 -377.351,44.828 -377.351,28.922C-377.351,13.015 -364.336,0 -348.429,0L0,0C15.907,0 28.921,13.015 28.921,28.922C28.921,44.828 15.907,57.843 0,57.843Z" style="fill:rgb(64,64,64);fill-rule:nonzero;stroke:rgb(164,163,163);stroke-width:1.43px;"/>
            </g>
            <g transform="matrix(1,0,0,1,630.129,654.065)">
                <path d="M0,57.843L-180.257,57.843C-196.164,57.843 -209.179,44.828 -209.179,28.922C-209.179,13.015 -196.164,0 -180.257,0L0,0C15.907,0 28.921,13.015 28.921,28.922C28.921,44.828 15.907,57.843 0,57.843Z" style="fill:rgb(229,115,115);fill-rule:nonzero;stroke:rgb(164,163,163);stroke-width:1.43px;"/>
            </g>
            <g transform="matrix(1,0,0,1,708.947,864.024)">
                <path d="M0,-648.048L-337.894,-648.048C-349.112,-648.048 -359.477,-642.063 -365.086,-632.348L-534.033,-339.724C-539.642,-330.009 -539.642,-318.04 -534.033,-308.325L-365.086,-15.7C-359.477,-5.985 -349.112,0 -337.894,0L0,0C11.218,0 21.584,-5.985 27.193,-15.7L196.14,-308.325C201.748,-318.04 201.748,-330.009 196.14,-339.724L27.193,-632.348C21.584,-642.063 11.218,-648.048 0,-648.048M0,-647.048C10.826,-647.048 20.914,-641.224 26.327,-631.848L195.273,-339.224C200.686,-329.848 200.686,-318.2 195.273,-308.825L26.327,-16.2C20.914,-6.824 10.826,-1 0,-1L-337.894,-1C-348.72,-1 -358.807,-6.824 -364.22,-16.2L-533.167,-308.825C-538.58,-318.2 -538.58,-329.848 -533.167,-339.224L-364.22,-631.848C-358.807,-641.224 -348.72,-647.048 -337.894,-647.048L0,-647.048" style="fill:rgb(166,166,166);fill-rule:nonzero;"/>
            </g>
            <g transform="matrix(0.24,0,0,0.24,538.562,561.109)">
                <path d="M-451.045,0L-482.555,0L-482.555,-152.214L-529.04,-136.328L-529.04,-163.021L-455.081,-190.234L-451.045,-190.234L-451.045,0Z" style="fill:rgb(64,64,64);fill-rule:nonzero;"/>
                <path d="M-299.556,0L-331.066,0L-331.066,-152.214L-377.551,-136.328L-377.551,-163.021L-303.592,-190.234L-299.556,-190.234L-299.556,0Z" style="fill:rgb(64,64,64);fill-rule:nonzero;"/>
                <path d="M-222.806,16.276L-247.676,16.276L-173.067,-189.583L-148.197,-189.583L-222.806,16.276Z" style="fill:rgb(64,64,64);fill-rule:nonzero;"/>
                <path d="M-8.948,-139.583C-8.948,-130.295 -11.335,-122.027 -16.109,-114.779C-20.883,-107.53 -27.394,-101.823 -35.64,-97.656C-25.744,-93.056 -18.127,-86.762 -12.789,-78.776C-7.45,-70.79 -4.781,-61.762 -4.781,-51.693C-4.781,-35.026 -10.423,-21.81 -21.708,-12.044C-32.993,-2.279 -48.01,2.604 -66.76,2.604C-85.597,2.604 -100.679,-2.3 -112.008,-12.109C-123.336,-21.918 -129,-35.113 -129,-51.693C-129,-61.849 -126.309,-70.964 -120.927,-79.036C-115.545,-87.109 -107.993,-93.316 -98.271,-97.656C-106.43,-101.823 -112.876,-107.53 -117.606,-114.779C-122.337,-122.027 -124.703,-130.295 -124.703,-139.583C-124.703,-155.729 -119.494,-168.533 -109.078,-177.995C-98.661,-187.457 -84.599,-192.188 -66.89,-192.188C-49.095,-192.188 -34.989,-187.457 -24.573,-177.995C-14.156,-168.533 -8.948,-155.729 -8.948,-139.583ZM-36.422,-53.255C-36.422,-62.63 -39.221,-70.204 -44.82,-75.977C-50.419,-81.749 -57.819,-84.635 -67.021,-84.635C-76.222,-84.635 -83.579,-81.771 -89.091,-76.042C-94.603,-70.313 -97.359,-62.717 -97.359,-53.255C-97.359,-43.967 -94.646,-36.545 -89.221,-30.99C-83.796,-25.434 -76.309,-22.656 -66.76,-22.656C-57.212,-22.656 -49.768,-25.347 -44.429,-30.729C-39.091,-36.111 -36.422,-43.62 -36.422,-53.255ZM-40.458,-138.411C-40.458,-146.658 -42.845,-153.451 -47.619,-158.789C-52.394,-164.128 -58.817,-166.797 -66.89,-166.797C-74.963,-166.797 -81.343,-164.258 -86.031,-159.18C-90.718,-154.102 -93.062,-147.179 -93.062,-138.411C-93.062,-129.731 -90.697,-122.83 -85.966,-117.708C-81.235,-112.587 -74.833,-110.026 -66.76,-110.026C-58.687,-110.026 -52.285,-112.587 -47.554,-117.708C-42.823,-122.83 -40.458,-129.731 -40.458,-138.411Z" style="fill:rgb(64,64,64);fill-rule:nonzero;"/>
                <path d="M59.729,-109.245L79,-109.245C88.722,-109.332 96.426,-111.849 102.112,-116.797C107.797,-121.745 110.64,-128.906 110.64,-138.281C110.64,-147.309 108.275,-154.319 103.544,-159.31C98.813,-164.301 91.587,-166.797 81.864,-166.797C73.357,-166.797 66.369,-164.345 60.901,-159.44C55.432,-154.536 52.698,-148.134 52.698,-140.234L21.057,-140.234C21.057,-149.957 23.639,-158.811 28.804,-166.797C33.969,-174.783 41.174,-181.011 50.419,-185.482C59.664,-189.952 70.015,-192.188 81.474,-192.188C100.397,-192.188 115.263,-187.435 126.07,-177.93C136.877,-168.424 142.281,-155.208 142.281,-138.281C142.281,-129.774 139.568,-121.766 134.143,-114.258C128.718,-106.749 121.708,-101.085 113.114,-97.266C123.531,-93.707 131.452,-88.108 136.877,-80.469C142.303,-72.83 145.015,-63.715 145.015,-53.125C145.015,-36.111 139.178,-22.569 127.502,-12.5C115.827,-2.431 100.484,2.604 81.474,2.604C63.244,2.604 48.314,-2.257 36.682,-11.979C25.05,-21.701 19.234,-34.635 19.234,-50.781L50.875,-50.781C50.875,-42.448 53.674,-35.677 59.273,-30.469C64.872,-25.26 72.402,-22.656 81.864,-22.656C91.673,-22.656 99.399,-25.26 105.041,-30.469C110.684,-35.677 113.505,-43.229 113.505,-53.125C113.505,-63.108 110.554,-70.79 104.651,-76.172C98.748,-81.554 89.981,-84.245 78.349,-84.245L59.729,-84.245L59.729,-109.245Z" style="fill:rgb(64,64,64);fill-rule:nonzero;"/>
                <rect x="169.681" y="-93.359" width="68.359" height="25.521" style="fill:rgb(64,64,64);fill-rule:nonzero;"/>
                <path d="M385.624,-79.818C385.624,-52.561 380.524,-32.01 370.324,-18.164C360.124,-4.319 344.608,2.604 323.775,2.604C303.288,2.604 287.859,-4.145 277.485,-17.643C267.112,-31.141 261.795,-51.128 261.535,-77.604L261.535,-110.417C261.535,-137.674 266.635,-158.116 276.834,-171.745C287.034,-185.373 302.594,-192.188 323.514,-192.188C344.261,-192.188 359.734,-185.547 369.933,-172.266C380.133,-158.984 385.363,-139.106 385.624,-112.63L385.624,-79.818ZM353.983,-115.234C353.983,-133.03 351.552,-146.072 346.691,-154.362C341.83,-162.652 334.104,-166.797 323.514,-166.797C313.184,-166.797 305.589,-162.869 300.728,-155.013C295.867,-147.157 293.306,-134.896 293.045,-118.229L293.045,-75.26C293.045,-57.552 295.519,-44.358 300.467,-35.677C305.415,-26.997 313.184,-22.656 323.775,-22.656C333.931,-22.656 341.439,-26.671 346.301,-34.701C351.162,-42.73 353.722,-55.295 353.983,-72.396L353.983,-115.234Z" style="fill:rgb(64,64,64);fill-rule:nonzero;"/>
                <path d="M541.019,0L413.545,0L413.545,-21.745L476.696,-90.625C485.81,-100.781 492.299,-109.266 496.162,-116.081C500.025,-122.895 501.956,-129.731 501.956,-136.589C501.956,-145.616 499.417,-152.908 494.339,-158.464C489.261,-164.019 482.425,-166.797 473.831,-166.797C463.588,-166.797 455.645,-163.672 450.003,-157.422C444.361,-151.172 441.54,-142.622 441.54,-131.771L409.899,-131.771C409.899,-143.316 412.525,-153.711 417.777,-162.956C423.028,-172.201 430.537,-179.384 440.303,-184.505C450.068,-189.627 461.331,-192.188 474.092,-192.188C492.494,-192.188 507.013,-187.565 517.646,-178.32C528.28,-169.076 533.597,-156.293 533.597,-139.974C533.597,-130.512 530.928,-120.595 525.589,-110.221C520.251,-99.848 511.505,-88.064 499.352,-74.87L452.998,-25.26L541.019,-25.26L541.019,0Z" style="fill:rgb(64,64,64);fill-rule:nonzero;"/>
            </g>
            <g transform="matrix(5.2337,0,0,2.69142,-2313.68,-610.076)">
                <path d="M547.149,360.372L544.665,360.372L544.665,336.986L541.001,339.427L541.001,335.326L546.83,331.145L547.149,331.145L547.149,360.372Z" style="fill:rgb(64,64,64);fill-rule:nonzero;"/>
            </g>
        </g>
        <g id="EmergencyRessource35" transform="matrix(1.45836,0,0,1.45836,1243.21,2822.64)">
            <g id="body2" serif:id="body" transform="matrix(1,0,0,1,371.053,216.476)">
                <path d="M0,647.047C-11.004,647.047 -21.258,641.127 -26.76,631.598L-195.707,338.973C-201.208,329.443 -201.208,317.604 -195.707,308.074L-26.76,15.449C-21.257,5.92 -11.004,0 0,0L337.894,0C348.897,0 359.151,5.92 364.654,15.449L533.6,308.074C539.102,317.604 539.102,329.443 533.6,338.973L364.654,631.598C359.151,641.127 348.898,647.047 337.894,647.047L0,647.047Z" style="fill:white;fill-rule:nonzero;"/>
            </g>
            <g id="status2" serif:id="status" transform="matrix(0.24,0,0,0.240586,-6.82121e-13,-1.02834)">
                <path d="M2841.67,901.985L1658.34,901.985L1658.34,1637.92C1658.34,1703.23 1711.36,1756.25 1776.67,1756.25L2723.34,1756.25C2788.64,1756.25 2841.67,1703.23 2841.67,1637.92L2841.67,901.985Z" style="fill:rgb(129,199,132);fill-rule:nonzero;"/>
            </g>
            <g transform="matrix(1,0,0,1,630.129,654.065)">
                <path d="M0,57.843L-180.257,57.843C-196.164,57.843 -209.179,44.828 -209.179,28.922C-209.179,13.015 -196.164,0 -180.257,0L0,0C15.907,0 28.921,13.015 28.921,28.922C28.921,44.828 15.907,57.843 0,57.843Z" style="fill:rgb(229,115,115);fill-rule:nonzero;stroke:rgb(164,163,163);stroke-width:2.86px;"/>
            </g>
            <g transform="matrix(1,0,0,1,708.947,864.024)">
                <path d="M0,-648.048L-337.894,-648.048C-349.112,-648.048 -359.477,-642.063 -365.086,-632.348L-534.033,-339.724C-539.642,-330.009 -539.642,-318.04 -534.033,-308.325L-365.086,-15.7C-359.477,-5.985 -349.112,0 -337.894,0L0,0C11.218,0 21.584,-5.985 27.193,-15.7L196.14,-308.325C201.748,-318.04 201.748,-330.009 196.14,-339.724L27.193,-632.348C21.584,-642.063 11.218,-648.048 0,-648.048M0,-647.048C10.826,-647.048 20.914,-641.224 26.327,-631.848L195.273,-339.224C200.686,-329.848 200.686,-318.2 195.273,-308.825L26.327,-16.2C20.914,-6.824 10.826,-1 0,-1L-337.894,-1C-348.72,-1 -358.807,-6.824 -364.22,-16.2L-533.167,-308.825C-538.58,-318.2 -538.58,-329.848 -533.167,-339.224L-364.22,-631.848C-358.807,-641.224 -348.72,-647.048 -337.894,-647.048L0,-647.048" style="fill:rgb(166,166,166);fill-rule:nonzero;"/>
            </g>
            <g transform="matrix(0.348914,0,0,0.348914,538.148,607.057)">
                <path d="M-451.045,0L-482.555,0L-482.555,-152.214L-529.04,-136.328L-529.04,-163.021L-455.081,-190.234L-451.045,-190.234L-451.045,0Z" style="fill:rgb(64,64,64);fill-rule:nonzero;"/>
                <path d="M-299.556,0L-331.066,0L-331.066,-152.214L-377.551,-136.328L-377.551,-163.021L-303.592,-190.234L-299.556,-190.234L-299.556,0Z" style="fill:rgb(64,64,64);fill-rule:nonzero;"/>
                <path d="M-222.806,16.276L-247.676,16.276L-173.067,-189.583L-148.197,-189.583L-222.806,16.276Z" style="fill:rgb(64,64,64);fill-rule:nonzero;"/>
                <path d="M-8.948,-139.583C-8.948,-130.295 -11.335,-122.027 -16.109,-114.779C-20.883,-107.53 -27.394,-101.823 -35.64,-97.656C-25.744,-93.056 -18.127,-86.762 -12.789,-78.776C-7.45,-70.79 -4.781,-61.762 -4.781,-51.693C-4.781,-35.026 -10.423,-21.81 -21.708,-12.044C-32.993,-2.279 -48.01,2.604 -66.76,2.604C-85.597,2.604 -100.679,-2.3 -112.008,-12.109C-123.336,-21.918 -129,-35.113 -129,-51.693C-129,-61.849 -126.309,-70.964 -120.927,-79.036C-115.545,-87.109 -107.993,-93.316 -98.271,-97.656C-106.43,-101.823 -112.876,-107.53 -117.606,-114.779C-122.337,-122.027 -124.703,-130.295 -124.703,-139.583C-124.703,-155.729 -119.494,-168.533 -109.078,-177.995C-98.661,-187.457 -84.599,-192.188 -66.89,-192.188C-49.095,-192.188 -34.989,-187.457 -24.573,-177.995C-14.156,-168.533 -8.948,-155.729 -8.948,-139.583ZM-36.422,-53.255C-36.422,-62.63 -39.221,-70.204 -44.82,-75.977C-50.419,-81.749 -57.819,-84.635 -67.021,-84.635C-76.222,-84.635 -83.579,-81.771 -89.091,-76.042C-94.603,-70.313 -97.359,-62.717 -97.359,-53.255C-97.359,-43.967 -94.646,-36.545 -89.221,-30.99C-83.796,-25.434 -76.309,-22.656 -66.76,-22.656C-57.212,-22.656 -49.768,-25.347 -44.429,-30.729C-39.091,-36.111 -36.422,-43.62 -36.422,-53.255ZM-40.458,-138.411C-40.458,-146.658 -42.845,-153.451 -47.619,-158.789C-52.394,-164.128 -58.817,-166.797 -66.89,-166.797C-74.963,-166.797 -81.343,-164.258 -86.031,-159.18C-90.718,-154.102 -93.062,-147.179 -93.062,-138.411C-93.062,-129.731 -90.697,-122.83 -85.966,-117.708C-81.235,-112.587 -74.833,-110.026 -66.76,-110.026C-58.687,-110.026 -52.285,-112.587 -47.554,-117.708C-42.823,-122.83 -40.458,-129.731 -40.458,-138.411Z" style="fill:rgb(64,64,64);fill-rule:nonzero;"/>
                <path d="M59.729,-109.245L79,-109.245C88.722,-109.332 96.426,-111.849 102.112,-116.797C107.797,-121.745 110.64,-128.906 110.64,-138.281C110.64,-147.309 108.275,-154.319 103.544,-159.31C98.813,-164.301 91.587,-166.797 81.864,-166.797C73.357,-166.797 66.369,-164.345 60.901,-159.44C55.432,-154.536 52.698,-148.134 52.698,-140.234L21.057,-140.234C21.057,-149.957 23.639,-158.811 28.804,-166.797C33.969,-174.783 41.174,-181.011 50.419,-185.482C59.664,-189.952 70.015,-192.188 81.474,-192.188C100.397,-192.188 115.263,-187.435 126.07,-177.93C136.877,-168.424 142.281,-155.208 142.281,-138.281C142.281,-129.774 139.568,-121.766 134.143,-114.258C128.718,-106.749 121.708,-101.085 113.114,-97.266C123.531,-93.707 131.452,-88.108 136.877,-80.469C142.303,-72.83 145.015,-63.715 145.015,-53.125C145.015,-36.111 139.178,-22.569 127.502,-12.5C115.827,-2.431 100.484,2.604 81.474,2.604C63.244,2.604 48.314,-2.257 36.682,-11.979C25.05,-21.701 19.234,-34.635 19.234,-50.781L50.875,-50.781C50.875,-42.448 53.674,-35.677 59.273,-30.469C64.872,-25.26 72.402,-22.656 81.864,-22.656C91.673,-22.656 99.399,-25.26 105.041,-30.469C110.684,-35.677 113.505,-43.229 113.505,-53.125C113.505,-63.108 110.554,-70.79 104.651,-76.172C98.748,-81.554 89.981,-84.245 78.349,-84.245L59.729,-84.245L59.729,-109.245Z" style="fill:rgb(64,64,64);fill-rule:nonzero;"/>
                <rect x="169.681" y="-93.359" width="68.359" height="25.521" style="fill:rgb(64,64,64);fill-rule:nonzero;"/>
                <path d="M385.624,-79.818C385.624,-52.561 380.524,-32.01 370.324,-18.164C360.124,-4.319 344.608,2.604 323.775,2.604C303.288,2.604 287.859,-4.145 277.485,-17.643C267.112,-31.141 261.795,-51.128 261.535,-77.604L261.535,-110.417C261.535,-137.674 266.635,-158.116 276.834,-171.745C287.034,-185.373 302.594,-192.188 323.514,-192.188C344.261,-192.188 359.734,-185.547 369.933,-172.266C380.133,-158.984 385.363,-139.106 385.624,-112.63L385.624,-79.818ZM353.983,-115.234C353.983,-133.03 351.552,-146.072 346.691,-154.362C341.83,-162.652 334.104,-166.797 323.514,-166.797C313.184,-166.797 305.589,-162.869 300.728,-155.013C295.867,-147.157 293.306,-134.896 293.045,-118.229L293.045,-75.26C293.045,-57.552 295.519,-44.358 300.467,-35.677C305.415,-26.997 313.184,-22.656 323.775,-22.656C333.931,-22.656 341.439,-26.671 346.301,-34.701C351.162,-42.73 353.722,-55.295 353.983,-72.396L353.983,-115.234Z" style="fill:rgb(64,64,64);fill-rule:nonzero;"/>
                <path d="M541.019,0L413.545,0L413.545,-21.745L476.696,-90.625C485.81,-100.781 492.299,-109.266 496.162,-116.081C500.025,-122.895 501.956,-129.731 501.956,-136.589C501.956,-145.616 499.417,-152.908 494.339,-158.464C489.261,-164.019 482.425,-166.797 473.831,-166.797C463.588,-166.797 455.645,-163.672 450.003,-157.422C444.361,-151.172 441.54,-142.622 441.54,-131.771L409.899,-131.771C409.899,-143.316 412.525,-153.711 417.777,-162.956C423.028,-172.201 430.537,-179.384 440.303,-184.505C450.068,-189.627 461.331,-192.188 474.092,-192.188C492.494,-192.188 507.013,-187.565 517.646,-178.32C528.28,-169.076 533.597,-156.293 533.597,-139.974C533.597,-130.512 530.928,-120.595 525.589,-110.221C520.251,-99.848 511.505,-88.064 499.352,-74.87L452.998,-25.26L541.019,-25.26L541.019,0Z" style="fill:rgb(64,64,64);fill-rule:nonzero;"/>
            </g>
            <g transform="matrix(5.2337,0,0,2.69142,-2313.68,-610.076)">
                <path d="M547.149,360.372L544.665,360.372L544.665,336.986L541.001,339.427L541.001,335.326L546.83,331.145L547.149,331.145L547.149,360.372Z" style="fill:rgb(64,64,64);fill-rule:nonzero;"/>
            </g>
        </g>
    </g>
</svg>
