<?xml version="1.0" encoding="UTF-8" standalone="no"?>
<!DOCTYPE svg PUBLIC "-//W3C//DTD SVG 1.1//EN" "http://www.w3.org/Graphics/SVG/1.1/DTD/svg11.dtd">
<svg width="100%" height="100%" viewBox="0 0 4500 4500" version="1.1" xmlns="http://www.w3.org/2000/svg" xmlns:xlink="http://www.w3.org/1999/xlink" xml:space="preserve" xmlns:serif="http://www.serif.com/" style="fill-rule:evenodd;clip-rule:evenodd;stroke-linecap:round;stroke-linejoin:round;stroke-miterlimit:1.5;">
    <g transform="matrix(1,0,0,1,17.2094,369.357)">
        <g id="Reporter100" transform="matrix(4.16667,0,0,4.16667,-706.688,-852.229)">
            <g transform="matrix(0.2088,0,0,0.217535,73.8817,55.3915)">
                <ellipse cx="2234.83" cy="2228.83" rx="1551.76" ry="1489.52" style="fill:white;stroke:rgb(204,204,204);stroke-width:9.38px;"/>
            </g>
            <g transform="matrix(0.24,0,0,0.24,2.5e-05,0.0002)">
                <path d="M3574.74,1979.17C3592.73,2067.05 3602.16,2157.93 3602.16,2251C3602.16,2343.4 3592.86,2433.64 3575.15,2520.83L929.129,2520.83C911.413,2433.64 902.112,2343.4 902.112,2251C902.112,2157.93 911.549,2067.05 929.536,1979.17L3574.74,1979.17Z" style="fill:rgb(244,244,244);stroke:rgb(204,204,204);stroke-width:8.33px;"/>
            </g>
            <g transform="matrix(1,0,0,1,0.975404,-77.2552)">
                <g>
                    <path d="M517.3,827.663L508.269,827.663L506.38,833.091L502.169,833.091L510.975,809.779L514.61,809.779L523.432,833.091L519.205,833.091L517.3,827.663ZM509.406,824.397L516.163,824.397L512.784,814.726L509.406,824.397Z" style="fill:rgb(79,195,247);fill-rule:nonzero;"/>
                    <path d="M528.542,815.767L528.654,817.768C529.935,816.22 531.616,815.447 533.698,815.447C537.306,815.447 539.142,817.512 539.206,821.643L539.206,833.091L535.315,833.091L535.315,821.867C535.315,820.768 535.077,819.954 534.602,819.425C534.127,818.897 533.351,818.633 532.273,818.633C530.704,818.633 529.535,819.343 528.766,820.762L528.766,833.091L524.876,833.091L524.876,815.767L528.542,815.767Z" style="fill:rgb(79,195,247);fill-rule:nonzero;"/>
                    <path d="M552.242,819.321C551.729,819.236 551.201,819.193 550.657,819.193C548.874,819.193 547.673,819.876 547.054,821.243L547.054,833.091L543.163,833.091L543.163,815.767L546.878,815.767L546.974,817.704C547.913,816.199 549.216,815.447 550.881,815.447C551.436,815.447 551.895,815.521 552.258,815.671L552.242,819.321Z" style="fill:rgb(79,195,247);fill-rule:nonzero;"/>
                    <path d="M565.198,831.394C564.055,832.739 562.433,833.411 560.33,833.411C558.452,833.411 557.029,832.861 556.063,831.762C555.097,830.662 554.614,829.072 554.614,826.991L554.614,815.767L558.505,815.767L558.505,826.943C558.505,829.141 559.418,830.241 561.243,830.241C563.132,830.241 564.408,829.563 565.069,828.207L565.069,815.767L568.96,815.767L568.96,833.091L565.294,833.091L565.198,831.394Z" style="fill:rgb(79,195,247);fill-rule:nonzero;"/>
                    <path d="M574.295,833.091L574.295,818.649L571.653,818.649L571.653,815.767L574.295,815.767L574.295,814.182C574.295,812.26 574.828,810.777 575.896,809.731C576.963,808.685 578.458,808.162 580.379,808.162C581.062,808.162 581.788,808.258 582.556,808.45L582.46,811.492C582.033,811.406 581.537,811.364 580.971,811.364C579.114,811.364 578.185,812.319 578.185,814.23L578.185,815.767L581.708,815.767L581.708,818.649L578.185,818.649L578.185,833.091L574.295,833.091Z" style="fill:rgb(79,195,247);fill-rule:nonzero;"/>
                    <path d="M591.798,833.411C589.332,833.411 587.333,832.634 585.802,831.081C584.27,829.528 583.504,827.46 583.504,824.877L583.504,824.397C583.504,822.668 583.838,821.123 584.505,819.762C585.172,818.401 586.109,817.341 587.315,816.583C588.521,815.826 589.866,815.447 591.349,815.447C593.708,815.447 595.531,816.199 596.817,817.704C598.104,819.209 598.747,821.339 598.747,824.093L598.747,825.662L587.427,825.662C587.544,827.092 588.022,828.223 588.86,829.056C589.698,829.889 590.752,830.305 592.022,830.305C593.805,830.305 595.256,829.584 596.377,828.143L598.474,830.145C597.781,831.18 596.855,831.983 595.697,832.554C594.538,833.125 593.239,833.411 591.798,833.411ZM591.333,818.569C590.266,818.569 589.404,818.942 588.748,819.69C588.091,820.437 587.672,821.477 587.491,822.812L594.904,822.812L594.904,822.523C594.819,821.221 594.472,820.237 593.863,819.569C593.255,818.902 592.412,818.569 591.333,818.569Z" style="fill:rgb(79,195,247);fill-rule:nonzero;"/>
                    <path d="M605.378,815.767L605.49,817.768C606.771,816.22 608.452,815.447 610.534,815.447C614.142,815.447 615.977,817.512 616.042,821.643L616.042,833.091L612.151,833.091L612.151,821.867C612.151,820.768 611.913,819.954 611.438,819.425C610.963,818.897 610.187,818.633 609.109,818.633C607.54,818.633 606.371,819.343 605.602,820.762L605.602,833.091L601.712,833.091L601.712,815.767L605.378,815.767Z" style="fill:rgb(79,195,247);fill-rule:nonzero;"/>
                </g>
                <g>
                    <g transform="matrix(1,0,0,1,473.142,826.9)">
                        <path d="M0,-0.076L-0.016,-0.06C0.049,0 0,-0.076 0,-0.076" style="fill:rgb(79,195,247);fill-rule:nonzero;"/>
                    </g>
                    <g transform="matrix(1,0,0,1,488.161,819.539)">
                        <path d="M0,8.439C-3.319,6.577 -5.342,6.982 -6.313,8.439C-7.285,9.896 -9.389,12 -12.546,9.41C-14.169,8.078 -15.931,6.29 -17.24,4.695C-19.83,1.538 -17.725,-0.567 -16.268,-1.538C-14.811,-2.509 -14.407,-4.533 -16.268,-7.851C-18.13,-11.17 -21.206,-10.28 -21.206,-10.28C-21.206,-10.28 -24.524,-9.308 -25.981,-3.157C-27.295,2.388 -20.716,9.906 -19.407,11.334C-19.407,11.334 -10.846,19.609 -4.695,18.152C1.457,16.695 2.428,13.376 2.428,13.376C2.428,13.376 3.319,10.301 0,8.439" style="fill:rgb(79,195,247);fill-rule:nonzero;"/>
                    </g>
                </g>
            </g>
            <g transform="matrix(1,0,0,1,0.000125,-117.292)">
                <g transform="matrix(1,0,0,1,601.813,693.289)">
                    <path d="M0,57.843L-123.626,57.843C-139.532,57.843 -152.547,44.828 -152.547,28.922C-152.547,13.015 -139.532,0 -123.626,0L0,0C15.907,0 28.921,13.015 28.921,28.922C28.921,44.828 15.907,57.843 0,57.843Z" style="fill:rgb(129,199,132);fill-rule:nonzero;stroke:rgb(165,164,165);stroke-width:1px;stroke-linecap:butt;stroke-linejoin:miter;stroke-miterlimit:10;"/>
                </g>
                <g>
                    <path d="M497.234,724.417L497.234,733.079L493.184,733.079L493.184,709.767L502.102,709.767C504.706,709.767 506.774,710.445 508.306,711.8C509.838,713.156 510.604,714.949 510.604,717.18C510.604,719.464 509.854,721.242 508.354,722.512C506.854,723.782 504.754,724.417 502.054,724.417L497.234,724.417ZM497.234,721.167L502.102,721.167C503.543,721.167 504.642,720.828 505.4,720.15C506.158,719.472 506.537,718.493 506.537,717.212C506.537,715.953 506.153,714.947 505.384,714.194C504.616,713.442 503.559,713.055 502.214,713.033L497.234,713.033L497.234,721.167Z" style="fill:white;fill-rule:nonzero;"/>
                    <path d="M512.825,724.257C512.825,722.56 513.161,721.031 513.834,719.67C514.506,718.309 515.451,717.263 516.668,716.532C517.885,715.8 519.283,715.435 520.863,715.435C523.2,715.435 525.098,716.187 526.555,717.692C528.012,719.197 528.799,721.194 528.916,723.681L528.932,724.593C528.932,726.301 528.604,727.827 527.948,729.172C527.291,730.517 526.352,731.558 525.13,732.295C523.908,733.031 522.496,733.399 520.895,733.399C518.45,733.399 516.494,732.585 515.027,730.958C513.559,729.33 512.825,727.16 512.825,724.449L512.825,724.257ZM516.716,724.593C516.716,726.376 517.084,727.771 517.821,728.78C518.557,729.789 519.582,730.293 520.895,730.293C522.208,730.293 523.23,729.781 523.961,728.756C524.692,727.731 525.058,726.232 525.058,724.257C525.058,722.506 524.681,721.119 523.929,720.094C523.176,719.069 522.154,718.557 520.863,718.557C519.593,718.557 518.584,719.061 517.837,720.07C517.09,721.079 516.716,722.587 516.716,724.593Z" style="fill:white;fill-rule:nonzero;"/>
                    <rect x="532.467" y="708.486" width="3.891" height="24.593" style="fill:white;fill-rule:nonzero;"/>
                    <path d="M544.727,733.079L540.837,733.079L540.837,715.755L544.727,715.755L544.727,733.079ZM540.597,711.256C540.597,710.658 540.786,710.162 541.165,709.767C541.544,709.372 542.086,709.175 542.79,709.175C543.495,709.175 544.039,709.372 544.423,709.767C544.807,710.162 545,710.658 545,711.256C545,711.843 544.807,712.331 544.423,712.721C544.039,713.111 543.495,713.305 542.79,713.305C542.086,713.305 541.544,713.111 541.165,712.721C540.786,712.331 540.597,711.843 540.597,711.256Z" style="fill:white;fill-rule:nonzero;"/>
                    <path d="M553.113,729.973L562.336,729.973L562.336,733.079L548.278,733.079L548.278,730.533L557.068,718.893L548.438,718.893L548.438,715.755L561.999,715.755L561.999,718.221L553.113,729.973Z" style="fill:white;fill-rule:nonzero;"/>
                    <path d="M572.819,733.399C570.353,733.399 568.354,732.623 566.823,731.07C565.291,729.517 564.525,727.449 564.525,724.865L564.525,724.385C564.525,722.656 564.859,721.111 565.526,719.75C566.193,718.389 567.13,717.33 568.336,716.572C569.542,715.814 570.887,715.435 572.371,715.435C574.73,715.435 576.552,716.187 577.838,717.692C579.125,719.197 579.768,721.327 579.768,724.081L579.768,725.65L568.448,725.65C568.565,727.08 569.043,728.212 569.881,729.044C570.719,729.877 571.773,730.293 573.043,730.293C574.826,730.293 576.277,729.573 577.398,728.132L579.495,730.133C578.802,731.168 577.876,731.972 576.718,732.543C575.559,733.114 574.26,733.399 572.819,733.399ZM572.355,718.557C571.287,718.557 570.425,718.931 569.769,719.678C569.112,720.425 568.693,721.466 568.512,722.8L575.925,722.8L575.925,722.512C575.84,721.21 575.493,720.225 574.884,719.558C574.276,718.891 573.433,718.557 572.355,718.557Z" style="fill:white;fill-rule:nonzero;"/>
                    <path d="M586.921,733.079L583.03,733.079L583.03,715.755L586.921,715.755L586.921,733.079ZM582.79,711.256C582.79,710.658 582.979,710.162 583.358,709.767C583.737,709.372 584.279,709.175 584.983,709.175C585.688,709.175 586.232,709.372 586.616,709.767C587.001,710.162 587.193,710.658 587.193,711.256C587.193,711.843 587.001,712.331 586.616,712.721C586.232,713.111 585.688,713.305 584.983,713.305C584.279,713.305 583.737,713.111 583.358,712.721C582.979,712.331 582.79,711.843 582.79,711.256Z" style="fill:white;fill-rule:nonzero;"/>
                </g>
            </g>
            <g id="pin" transform="matrix(1,0,0,1,540.237,323.769)">
                <path d="M0,-18.46C2.683,-18.46 4.858,-16.285 4.858,-13.602C4.858,-10.919 2.683,-8.744 0,-8.744C-2.683,-8.744 -4.858,-10.919 -4.858,-13.602C-4.858,-16.285 -2.683,-18.46 0,-18.46M0,12.631C8.744,3.887 17.489,-3.943 17.489,-13.602C17.489,-23.261 9.659,-31.091 0,-31.091C-9.659,-31.091 -17.489,-23.261 -17.489,-13.602C-17.489,-3.943 -8.744,3.887 0,12.631" style="fill:rgb(229,115,115);fill-rule:nonzero;"/>
            </g>
            <g id="name" transform="matrix(2.4761,0,0,1,-837.518,-3.17463)">
                <path d="M464.281,528.633L467.925,552.61L471.561,528.633L474.398,528.633L474.398,559.915L472.212,559.915L472.212,549.602L472.428,535.809L468.697,559.915L467.127,559.915L463.405,535.831L463.622,549.602L463.622,559.915L461.435,559.915L461.435,528.633L464.281,528.633Z" style="fill:rgb(64,64,64);fill-rule:nonzero;"/>
                <path d="M482.397,559.915C482.305,559.471 482.224,558.747 482.154,557.745C481.483,559.478 480.662,560.344 479.69,560.344C478.747,560.344 477.978,559.678 477.382,558.346C476.786,557.014 476.488,555.367 476.488,553.405C476.488,550.927 476.86,549.026 477.603,547.701C478.347,546.376 479.409,545.713 480.792,545.713L482.085,545.713L482.085,544.188C482.085,542.985 481.949,542.022 481.677,541.298C481.405,540.575 480.991,540.213 480.436,540.213C479.956,540.213 479.563,540.511 479.256,541.105C478.95,541.699 478.796,542.455 478.796,543.372L476.688,543.372C476.688,542.097 476.858,540.904 477.2,539.794C477.541,538.684 478.005,537.814 478.592,537.184C479.179,536.554 479.835,536.239 480.558,536.239C481.657,536.239 482.533,536.923 483.187,538.291C483.84,539.658 484.176,541.581 484.193,544.059L484.193,554.543C484.193,556.635 484.312,558.303 484.549,559.549L484.549,559.915L482.397,559.915ZM480.08,556.155C480.497,556.155 480.889,555.904 481.256,555.403C481.623,554.902 481.9,554.228 482.085,553.383L482.085,549L480.948,549C480.167,549 479.58,549.337 479.187,550.01C478.793,550.683 478.597,551.636 478.597,552.868C478.597,553.87 478.731,554.669 479,555.263C479.269,555.858 479.629,556.155 480.08,556.155Z" style="fill:rgb(64,64,64);fill-rule:nonzero;"/>
                <path d="M489.771,544.317L491.559,536.668L493.902,536.668L491.03,548.12L493.997,559.915L491.672,559.915L489.797,551.965L487.932,559.915L485.589,559.915L488.557,548.12L485.693,536.668L488.019,536.668L489.771,544.317Z" style="fill:rgb(64,64,64);fill-rule:nonzero;"/>
                <path d="M497.58,559.915L495.471,559.915L495.471,536.668L497.58,536.668L497.58,559.915ZM495.341,530.631C495.341,529.829 495.444,529.163 495.649,528.633C495.854,528.103 496.148,527.838 496.53,527.838C496.911,527.838 497.206,528.103 497.415,528.633C497.623,529.163 497.727,529.829 497.727,530.631C497.727,531.419 497.623,532.074 497.415,532.597C497.206,533.12 496.911,533.381 496.53,533.381C496.148,533.381 495.854,533.12 495.649,532.597C495.444,532.074 495.341,531.419 495.341,530.631Z" style="fill:rgb(64,64,64);fill-rule:nonzero;"/>
                <path d="M501.856,536.668L501.917,539.096C502.577,537.191 503.479,536.239 504.624,536.239C505.879,536.239 506.738,537.428 507.201,539.805C507.884,537.428 508.844,536.239 510.082,536.239C511.117,536.239 511.888,536.948 512.394,538.366C512.9,539.784 513.159,541.875 513.171,544.639L513.171,559.915L511.062,559.915L511.062,544.79C511.062,543.314 510.932,542.233 510.672,541.545C510.412,540.858 509.981,540.514 509.379,540.514C508.899,540.514 508.507,540.833 508.203,541.47C507.9,542.108 507.687,542.942 507.566,543.973L507.574,559.915L505.466,559.915L505.466,544.618C505.437,541.882 504.873,540.514 503.774,540.514C502.929,540.514 502.331,541.366 501.978,543.071L501.978,559.915L499.869,559.915L499.869,536.668L501.856,536.668Z" style="fill:rgb(64,64,64);fill-rule:nonzero;"/>
                <path d="M517.578,559.915L515.469,559.915L515.469,536.668L517.578,536.668L517.578,559.915ZM515.339,530.631C515.339,529.829 515.442,529.163 515.647,528.633C515.852,528.103 516.146,527.838 516.528,527.838C516.91,527.838 517.205,528.103 517.413,528.633C517.621,529.163 517.725,529.829 517.725,530.631C517.725,531.419 517.621,532.074 517.413,532.597C517.205,533.12 516.91,533.381 516.528,533.381C516.146,533.381 515.852,533.12 515.647,532.597C515.442,532.074 515.339,531.419 515.339,530.631Z" style="fill:rgb(64,64,64);fill-rule:nonzero;"/>
                <rect x="520.006" y="526.915" width="2.108" height="33" style="fill:rgb(64,64,64);fill-rule:nonzero;"/>
                <path d="M526.652,559.915L524.543,559.915L524.543,536.668L526.652,536.668L526.652,559.915ZM524.413,530.631C524.413,529.829 524.516,529.163 524.721,528.633C524.927,528.103 525.22,527.838 525.602,527.838C525.984,527.838 526.279,528.103 526.487,528.633C526.695,529.163 526.799,529.829 526.799,530.631C526.799,531.419 526.695,532.074 526.487,532.597C526.279,533.12 525.984,533.381 525.602,533.381C525.22,533.381 524.927,533.12 524.721,532.597C524.516,532.074 524.413,531.419 524.413,530.631Z" style="fill:rgb(64,64,64);fill-rule:nonzero;"/>
                <path d="M534.555,559.915C534.463,559.471 534.382,558.747 534.312,557.745C533.641,559.478 532.82,560.344 531.848,560.344C530.905,560.344 530.136,559.678 529.54,558.346C528.944,557.014 528.647,555.367 528.647,553.405C528.647,550.927 529.018,549.026 529.762,547.701C530.505,546.376 531.568,545.713 532.95,545.713L534.243,545.713L534.243,544.188C534.243,542.985 534.107,542.022 533.835,541.298C533.563,540.575 533.15,540.213 532.594,540.213C532.114,540.213 531.721,540.511 531.414,541.105C531.108,541.699 530.955,542.455 530.955,543.372L528.846,543.372C528.846,542.097 529.017,540.904 529.358,539.794C529.699,538.684 530.164,537.814 530.751,537.184C531.338,536.554 531.993,536.239 532.716,536.239C533.815,536.239 534.691,536.923 535.345,538.291C535.999,539.658 536.334,541.581 536.351,544.059L536.351,554.543C536.351,556.635 536.47,558.303 536.707,559.549L536.707,559.915L534.555,559.915ZM532.239,556.155C532.655,556.155 533.047,555.904 533.414,555.403C533.782,554.902 534.058,554.228 534.243,553.383L534.243,549L533.106,549C532.325,549 531.738,549.337 531.345,550.01C530.952,550.683 530.755,551.636 530.755,552.868C530.755,553.87 530.889,554.669 531.158,555.263C531.427,555.858 531.788,556.155 532.239,556.155Z" style="fill:rgb(64,64,64);fill-rule:nonzero;"/>
                <path d="M540.515,536.668L540.576,539.354C541.27,537.277 542.181,536.239 543.309,536.239C545.264,536.239 546.259,539.01 546.294,544.553L546.294,559.915L544.186,559.915L544.186,544.854C544.186,543.379 544.057,542.287 543.8,541.578C543.542,540.869 543.121,540.514 542.537,540.514C541.687,540.514 541.053,541.467 540.637,543.372L540.637,559.915L538.528,559.915L538.528,536.668L540.515,536.668Z" style="fill:rgb(64,64,64);fill-rule:nonzero;"/>
                <path d="M555.918,528.633L559.562,552.61L563.198,528.633L566.035,528.633L566.035,559.915L563.848,559.915L563.848,549.602L564.065,535.809L560.334,559.915L558.764,559.915L555.041,535.831L555.258,549.602L555.258,559.915L553.072,559.915L553.072,528.633L555.918,528.633Z" style="fill:rgb(64,64,64);fill-rule:nonzero;"/>
                <path d="M574.112,557.637C573.493,559.442 572.614,560.344 571.474,560.344C570.456,560.344 569.685,559.607 569.162,558.131C568.638,556.656 568.377,554.522 568.377,551.729L568.377,536.668L570.485,536.668L570.485,551.665C570.485,554.615 570.98,556.09 571.969,556.09C572.993,556.09 573.684,555.181 574.043,553.362L574.043,536.668L576.151,536.668L576.151,559.915L574.164,559.915L574.112,557.637Z" style="fill:rgb(64,64,64);fill-rule:nonzero;"/>
                <path d="M583.56,553.598C583.56,552.667 583.405,551.958 583.096,551.471C582.786,550.984 582.273,550.555 581.556,550.182C580.838,549.81 580.24,549.337 579.76,548.764C578.707,547.504 578.181,545.678 578.181,543.286C578.181,541.28 578.522,539.605 579.204,538.258C579.887,536.912 580.755,536.239 581.807,536.239C582.93,536.239 583.836,536.926 584.528,538.301C585.219,539.676 585.564,541.459 585.564,543.651L583.456,543.651C583.456,542.648 583.306,541.814 583.005,541.148C582.704,540.482 582.305,540.149 581.807,540.149C581.345,540.149 580.967,540.414 580.675,540.944C580.383,541.474 580.237,542.183 580.237,543.071C580.237,543.873 580.373,544.496 580.645,544.94C580.917,545.384 581.466,545.832 582.293,546.283C583.12,546.734 583.77,547.271 584.241,547.894C584.713,548.517 585.063,549.265 585.291,550.139C585.52,551.013 585.634,552.073 585.634,553.319C585.634,555.41 585.284,557.104 584.584,558.4C583.884,559.696 582.967,560.344 581.833,560.344C581.064,560.344 580.379,560 579.777,559.313C579.175,558.625 578.707,557.68 578.371,556.477C578.036,555.274 577.868,553.978 577.868,552.588L579.916,552.588C579.945,553.82 580.133,554.769 580.48,555.435C580.827,556.101 581.287,556.434 581.859,556.434C582.415,556.434 582.837,556.173 583.126,555.65C583.415,555.127 583.56,554.443 583.56,553.598Z" style="fill:rgb(64,64,64);fill-rule:nonzero;"/>
                <path d="M590.11,531.018L590.11,536.668L591.767,536.668L591.767,540.536L590.11,540.536L590.11,553.512C590.11,554.4 590.181,555.041 590.323,555.435C590.464,555.829 590.718,556.026 591.082,556.026C591.325,556.026 591.571,555.954 591.819,555.811L591.819,559.85C591.339,560.18 590.877,560.344 590.431,560.344C588.812,560.344 588.002,558.131 588.002,553.706L588.002,540.536L586.457,540.536L586.457,536.668L588.002,536.668L588.002,531.018L590.11,531.018Z" style="fill:rgb(64,64,64);fill-rule:nonzero;"/>
                <path d="M597.51,560.344C596.174,560.344 595.091,559.302 594.261,557.218C593.431,555.134 593.016,552.359 593.016,548.893L593.016,548.249C593.016,545.928 593.197,543.855 593.558,542.029C593.92,540.203 594.427,538.781 595.081,537.764C595.735,536.747 596.464,536.239 597.268,536.239C598.546,536.239 599.534,537.249 600.231,539.268C600.928,541.288 601.276,544.145 601.276,547.84L601.276,549.946L595.142,549.946C595.205,551.865 595.464,553.383 595.918,554.5C596.372,555.618 596.944,556.176 597.632,556.176C598.598,556.176 599.385,555.209 599.992,553.276L601.129,555.961C600.753,557.351 600.251,558.429 599.623,559.195C598.996,559.961 598.291,560.344 597.51,560.344ZM597.259,540.428C596.68,540.428 596.213,540.93 595.858,541.932C595.502,542.935 595.275,544.331 595.176,546.122L599.194,546.122L599.194,545.735C599.148,543.987 598.96,542.666 598.63,541.771C598.3,540.876 597.843,540.428 597.259,540.428Z" style="fill:rgb(64,64,64);fill-rule:nonzero;"/>
                <path d="M607.826,541.438C607.549,541.323 607.262,541.266 606.967,541.266C606.001,541.266 605.35,542.183 605.015,544.016L605.015,559.915L602.907,559.915L602.907,536.668L604.92,536.668L604.972,539.268C605.481,537.249 606.186,536.239 607.089,536.239C607.39,536.239 607.638,536.339 607.835,536.54L607.826,541.438Z" style="fill:rgb(64,64,64);fill-rule:nonzero;"/>
                <path d="M611.14,536.668L611.201,539.096C611.86,537.191 612.762,536.239 613.908,536.239C615.163,536.239 616.022,537.428 616.485,539.805C617.167,537.428 618.128,536.239 619.365,536.239C620.401,536.239 621.172,536.948 621.678,538.366C622.184,539.784 622.443,541.875 622.454,544.639L622.454,559.915L620.346,559.915L620.346,544.79C620.346,543.314 620.216,542.233 619.955,541.545C619.695,540.858 619.264,540.514 618.663,540.514C618.182,540.514 617.791,540.833 617.487,541.47C617.183,542.108 616.971,542.942 616.849,543.973L616.858,559.915L614.749,559.915L614.749,544.618C614.72,541.882 614.156,540.514 613.057,540.514C612.213,540.514 611.614,541.366 611.261,543.071L611.261,559.915L609.153,559.915L609.153,536.668L611.14,536.668Z" style="fill:rgb(64,64,64);fill-rule:nonzero;"/>
                <path d="M630.228,559.915C630.135,559.471 630.054,558.747 629.985,557.745C629.314,559.478 628.492,560.344 627.521,560.344C626.578,560.344 625.808,559.678 625.213,558.346C624.617,557.014 624.319,555.367 624.319,553.405C624.319,550.927 624.691,549.026 625.434,547.701C626.177,546.376 627.24,545.713 628.623,545.713L629.915,545.713L629.915,544.188C629.915,542.985 629.779,542.022 629.508,541.298C629.236,540.575 628.822,540.213 628.267,540.213C627.787,540.213 627.393,540.511 627.087,541.105C626.78,541.699 626.627,542.455 626.627,543.372L624.518,543.372C624.518,542.097 624.689,540.904 625.03,539.794C625.372,538.684 625.836,537.814 626.423,537.184C627.01,536.554 627.665,536.239 628.388,536.239C629.487,536.239 630.364,536.923 631.017,538.291C631.671,539.658 632.006,541.581 632.024,544.059L632.024,554.543C632.024,556.635 632.142,558.303 632.38,559.549L632.38,559.915L630.228,559.915ZM627.911,556.155C628.328,556.155 628.719,555.904 629.087,555.403C629.454,554.902 629.73,554.228 629.915,553.383L629.915,549L628.779,549C627.998,549 627.411,549.337 627.017,550.01C626.624,550.683 626.427,551.636 626.427,552.868C626.427,553.87 626.562,554.669 626.831,555.263C627.1,555.858 627.46,556.155 627.911,556.155Z" style="fill:rgb(64,64,64);fill-rule:nonzero;"/>
                <path d="M636.188,536.668L636.249,539.354C636.943,537.277 637.854,536.239 638.982,536.239C640.937,536.239 641.932,539.01 641.966,544.553L641.966,559.915L639.858,559.915L639.858,544.854C639.858,543.379 639.729,542.287 639.472,541.578C639.215,540.869 638.794,540.514 638.209,540.514C637.359,540.514 636.726,541.467 636.309,543.372L636.309,559.915L634.201,559.915L634.201,536.668L636.188,536.668Z" style="fill:rgb(64,64,64);fill-rule:nonzero;"/>
                <path d="M646.07,536.668L646.13,539.354C646.825,537.277 647.736,536.239 648.864,536.239C650.819,536.239 651.814,539.01 651.848,544.553L651.848,559.915L649.74,559.915L649.74,544.854C649.74,543.379 649.611,542.287 649.354,541.578C649.096,540.869 648.676,540.514 648.091,540.514C647.241,540.514 646.608,541.467 646.191,543.372L646.191,559.915L644.083,559.915L644.083,536.668L646.07,536.668Z" style="fill:rgb(64,64,64);fill-rule:nonzero;"/>
            </g>
            <g id="location" transform="matrix(1,0,0,1,-11.0539,-0.0238)">
                <path d="M411.507,360.739L408.865,363.541L408.865,370.81L404.814,370.81L404.814,347.497L408.865,347.497L408.865,358.433L411.107,355.663L417.928,347.497L422.827,347.497L414.165,357.825L423.323,370.81L418.52,370.81L411.507,360.739Z" style="fill:rgb(64,64,64);fill-rule:nonzero;"/>
                <path d="M435.455,370.81C435.285,370.479 435.135,369.94 435.007,369.192C433.769,370.484 432.253,371.13 430.46,371.13C428.72,371.13 427.3,370.633 426.201,369.641C425.102,368.648 424.552,367.421 424.552,365.958C424.552,364.112 425.238,362.695 426.609,361.707C427.981,360.72 429.942,360.226 432.493,360.226L434.879,360.226L434.879,359.089C434.879,358.193 434.628,357.475 434.127,356.936C433.625,356.397 432.862,356.127 431.837,356.127C430.951,356.127 430.225,356.349 429.659,356.792C429.094,357.235 428.811,357.798 428.811,358.481L424.92,358.481C424.92,357.531 425.235,356.642 425.865,355.815C426.495,354.988 427.351,354.34 428.435,353.87C429.518,353.4 430.727,353.165 432.061,353.165C434.089,353.165 435.706,353.675 436.912,354.694C438.119,355.714 438.738,357.147 438.77,358.993L438.77,366.807C438.77,368.365 438.989,369.609 439.426,370.537L439.426,370.81L435.455,370.81ZM431.18,368.008C431.949,368.008 432.672,367.821 433.35,367.447C434.028,367.074 434.537,366.572 434.879,365.942L434.879,362.676L432.782,362.676C431.341,362.676 430.257,362.927 429.531,363.428C428.805,363.93 428.443,364.64 428.443,365.558C428.443,366.305 428.691,366.9 429.187,367.343C429.683,367.786 430.348,368.008 431.18,368.008Z" style="fill:rgb(64,64,64);fill-rule:nonzero;"/>
                <path d="M446.979,370.81L443.089,370.81L443.089,353.486L446.979,353.486L446.979,370.81ZM442.848,348.986C442.848,348.389 443.038,347.892 443.417,347.497C443.796,347.103 444.337,346.905 445.042,346.905C445.746,346.905 446.291,347.103 446.675,347.497C447.059,347.892 447.251,348.389 447.251,348.986C447.251,349.574 447.059,350.062 446.675,350.452C446.291,350.841 445.746,351.036 445.042,351.036C444.337,351.036 443.796,350.841 443.417,350.452C443.038,350.062 442.848,349.574 442.848,348.986Z" style="fill:rgb(64,64,64);fill-rule:nonzero;"/>
                <path d="M460.921,366.102C460.921,365.409 460.635,364.88 460.064,364.517C459.493,364.154 458.546,363.834 457.222,363.557C455.898,363.279 454.794,362.927 453.908,362.5C451.965,361.561 450.994,360.2 450.994,358.417C450.994,356.923 451.624,355.674 452.883,354.67C454.143,353.667 455.744,353.165 457.686,353.165C459.757,353.165 461.43,353.678 462.706,354.702C463.981,355.727 464.619,357.056 464.619,358.689L460.728,358.689C460.728,357.942 460.451,357.32 459.896,356.824C459.341,356.328 458.604,356.079 457.686,356.079C456.832,356.079 456.136,356.277 455.597,356.672C455.058,357.067 454.788,357.595 454.788,358.257C454.788,358.855 455.039,359.319 455.541,359.65C456.043,359.981 457.057,360.314 458.583,360.651C460.109,360.987 461.308,361.387 462.177,361.851C463.047,362.316 463.693,362.873 464.115,363.525C464.536,364.176 464.747,364.966 464.747,365.894C464.747,367.453 464.101,368.715 462.81,369.681C461.518,370.647 459.827,371.13 457.734,371.13C456.315,371.13 455.05,370.874 453.94,370.361C452.83,369.849 451.965,369.144 451.346,368.248C450.727,367.351 450.417,366.385 450.417,365.35L454.196,365.35C454.249,366.268 454.596,366.975 455.237,367.471C455.877,367.968 456.726,368.216 457.782,368.216C458.807,368.216 459.586,368.021 460.12,367.631C460.654,367.242 460.921,366.732 460.921,366.102Z" style="fill:rgb(64,64,64);fill-rule:nonzero;"/>
                <path d="M475.759,371.13C473.293,371.13 471.294,370.353 469.763,368.8C468.231,367.247 467.465,365.179 467.465,362.596L467.465,362.116C467.465,360.386 467.799,358.841 468.466,357.48C469.133,356.119 470.069,355.06 471.276,354.302C472.482,353.544 473.827,353.165 475.31,353.165C477.669,353.165 479.492,353.918 480.778,355.423C482.064,356.928 482.707,359.057 482.707,361.811L482.707,363.38L471.388,363.38C471.505,364.811 471.983,365.942 472.821,366.775C473.659,367.607 474.713,368.024 475.983,368.024C477.765,368.024 479.217,367.303 480.338,365.862L482.435,367.864C481.741,368.899 480.816,369.702 479.657,370.273C478.499,370.844 477.2,371.13 475.759,371.13ZM475.294,356.288C474.227,356.288 473.365,356.661 472.709,357.408C472.052,358.156 471.633,359.196 471.452,360.53L478.865,360.53L478.865,360.242C478.779,358.94 478.433,357.955 477.824,357.288C477.216,356.621 476.372,356.288 475.294,356.288Z" style="fill:rgb(64,64,64);fill-rule:nonzero;"/>
                <path d="M494.792,357.04C494.279,356.955 493.751,356.912 493.207,356.912C491.424,356.912 490.223,357.595 489.604,358.961L489.604,370.81L485.713,370.81L485.713,353.486L489.428,353.486L489.524,355.423C490.463,353.918 491.766,353.165 493.431,353.165C493.986,353.165 494.445,353.24 494.808,353.39L494.792,357.04Z" style="fill:rgb(64,64,64);fill-rule:nonzero;"/>
                <path d="M512.736,365.446L515.49,353.486L519.284,353.486L514.561,370.81L511.359,370.81L507.644,358.913L503.994,370.81L500.792,370.81L496.052,353.486L499.847,353.486L502.649,365.318L506.203,353.486L509.133,353.486L512.736,365.446Z" style="fill:rgb(64,64,64);fill-rule:nonzero;"/>
                <path d="M521.153,361.987C521.153,360.29 521.49,358.761 522.162,357.4C522.835,356.039 523.779,354.993 524.996,354.262C526.213,353.531 527.611,353.165 529.191,353.165C531.529,353.165 533.426,353.918 534.883,355.423C536.34,356.928 537.127,358.924 537.245,361.411L537.261,362.324C537.261,364.032 536.932,365.558 536.276,366.903C535.619,368.248 534.68,369.289 533.458,370.025C532.236,370.762 530.824,371.13 529.223,371.13C526.779,371.13 524.823,370.316 523.355,368.688C521.887,367.06 521.153,364.891 521.153,362.18L521.153,361.987ZM525.044,362.324C525.044,364.106 525.412,365.502 526.149,366.511C526.885,367.519 527.91,368.024 529.223,368.024C530.536,368.024 531.558,367.511 532.289,366.487C533.02,365.462 533.386,363.962 533.386,361.987C533.386,360.237 533.01,358.849 532.257,357.825C531.505,356.8 530.483,356.288 529.191,356.288C527.921,356.288 526.912,356.792 526.165,357.801C525.418,358.809 525.044,360.317 525.044,362.324ZM523.443,348.938C523.443,348.405 523.622,347.956 523.979,347.594C524.337,347.231 524.831,347.049 525.46,347.049C526.09,347.049 526.587,347.231 526.949,347.594C527.312,347.956 527.494,348.405 527.494,348.938C527.494,349.472 527.312,349.92 526.949,350.283C526.587,350.646 526.09,350.828 525.46,350.828C524.831,350.828 524.337,350.646 523.979,350.283C523.622,349.92 523.443,349.472 523.443,348.938ZM530.76,348.954C530.76,348.421 530.939,347.972 531.296,347.61C531.654,347.247 532.148,347.065 532.778,347.065C533.407,347.065 533.904,347.247 534.267,347.61C534.629,347.972 534.811,348.421 534.811,348.954C534.811,349.488 534.629,349.936 534.267,350.299C533.904,350.662 533.407,350.844 532.778,350.844C532.148,350.844 531.654,350.662 531.296,350.299C530.939,349.936 530.76,349.488 530.76,348.954Z" style="fill:rgb(64,64,64);fill-rule:nonzero;"/>
                <path d="M549.617,357.04C549.105,356.955 548.576,356.912 548.032,356.912C546.249,356.912 545.048,357.595 544.429,358.961L544.429,370.81L540.539,370.81L540.539,353.486L544.253,353.486L544.349,355.423C545.289,353.918 546.591,353.165 548.256,353.165C548.811,353.165 549.27,353.24 549.633,353.39L549.617,357.04Z" style="fill:rgb(64,64,64);fill-rule:nonzero;"/>
                <path d="M557.746,349.275L557.746,353.486L560.804,353.486L560.804,356.368L557.746,356.368L557.746,366.038C557.746,366.7 557.877,367.178 558.139,367.471C558.4,367.765 558.867,367.912 559.54,367.912C559.988,367.912 560.442,367.858 560.901,367.751L560.901,370.762C560.015,371.007 559.161,371.13 558.339,371.13C555.35,371.13 553.856,369.481 553.856,366.182L553.856,356.368L551.006,356.368L551.006,353.486L553.856,353.486L553.856,349.275L557.746,349.275Z" style="fill:rgb(64,64,64);fill-rule:nonzero;"/>
                <path d="M567.605,355.375C568.875,353.902 570.482,353.165 572.424,353.165C576.118,353.165 577.991,355.274 578.044,359.49L578.044,370.81L574.153,370.81L574.153,359.634C574.153,358.438 573.895,357.592 573.377,357.096C572.859,356.6 572.099,356.352 571.095,356.352C569.537,356.352 568.373,357.045 567.605,358.433L567.605,370.81L563.714,370.81L563.714,346.217L567.605,346.217L567.605,355.375Z" style="fill:rgb(64,64,64);fill-rule:nonzero;"/>
                <path d="M581.242,362.02C581.242,359.351 581.861,357.208 583.099,355.591C584.338,353.974 585.997,353.165 588.079,353.165C589.915,353.165 591.399,353.806 592.53,355.087L592.53,346.217L596.421,346.217L596.421,370.81L592.898,370.81L592.706,369.016C591.543,370.425 589.99,371.13 588.047,371.13C586.019,371.13 584.378,370.313 583.123,368.68C581.869,367.047 581.242,364.827 581.242,362.02ZM585.133,362.356C585.133,364.117 585.472,365.491 586.15,366.479C586.827,367.466 587.791,367.96 589.04,367.96C590.63,367.96 591.793,367.25 592.53,365.83L592.53,358.433C591.815,357.045 590.662,356.352 589.072,356.352C587.812,356.352 586.841,356.851 586.158,357.849C585.474,358.847 585.133,360.349 585.133,362.356Z" style="fill:rgb(64,64,64);fill-rule:nonzero;"/>
                <path d="M610.826,370.81C610.656,370.479 610.506,369.94 610.378,369.192C609.14,370.484 607.624,371.13 605.831,371.13C604.091,371.13 602.671,370.633 601.572,369.641C600.473,368.648 599.923,367.421 599.923,365.958C599.923,364.112 600.609,362.695 601.98,361.707C603.352,360.72 605.313,360.226 607.864,360.226L610.25,360.226L610.25,359.089C610.25,358.193 609.999,357.475 609.498,356.936C608.996,356.397 608.233,356.127 607.208,356.127C606.322,356.127 605.596,356.349 605.03,356.792C604.465,357.235 604.182,357.798 604.182,358.481L600.291,358.481C600.291,357.531 600.606,356.642 601.236,355.815C601.866,354.988 602.722,354.34 603.806,353.87C604.889,353.4 606.098,353.165 607.432,353.165C609.46,353.165 611.077,353.675 612.283,354.694C613.49,355.714 614.109,357.147 614.141,358.993L614.141,366.807C614.141,368.365 614.36,369.609 614.797,370.537L614.797,370.81L610.826,370.81ZM606.551,368.008C607.32,368.008 608.043,367.821 608.721,367.447C609.399,367.074 609.908,366.572 610.25,365.942L610.25,362.676L608.153,362.676C606.712,362.676 605.628,362.927 604.902,363.428C604.177,363.93 603.814,364.64 603.814,365.558C603.814,366.305 604.062,366.9 604.558,367.343C605.054,367.786 605.719,368.008 606.551,368.008Z" style="fill:rgb(64,64,64);fill-rule:nonzero;"/>
                <path d="M621.87,353.486L621.982,355.295C623.199,353.875 624.864,353.165 626.977,353.165C629.294,353.165 630.879,354.051 631.733,355.823C632.992,354.051 634.764,353.165 637.048,353.165C638.959,353.165 640.381,353.694 641.315,354.75C642.249,355.807 642.727,357.366 642.748,359.426L642.748,370.81L638.858,370.81L638.858,359.538C638.858,358.438 638.617,357.632 638.137,357.12C637.657,356.608 636.862,356.352 635.751,356.352C634.866,356.352 634.142,356.589 633.582,357.064C633.022,357.539 632.629,358.161 632.405,358.929L632.421,370.81L628.53,370.81L628.53,359.41C628.477,357.371 627.436,356.352 625.408,356.352C623.85,356.352 622.745,356.987 622.094,358.257L622.094,370.81L618.203,370.81L618.203,353.486L621.87,353.486Z" style="fill:rgb(64,64,64);fill-rule:nonzero;"/>
                <path d="M650.397,353.486L650.509,355.295C651.726,353.875 653.391,353.165 655.505,353.165C657.821,353.165 659.406,354.051 660.26,355.823C661.52,354.051 663.292,353.165 665.576,353.165C667.487,353.165 668.909,353.694 669.843,354.75C670.777,355.807 671.255,357.366 671.276,359.426L671.276,370.81L667.385,370.81L667.385,359.538C667.385,358.438 667.145,357.632 666.665,357.12C666.184,356.608 665.389,356.352 664.279,356.352C663.393,356.352 662.67,356.589 662.11,357.064C661.549,357.539 661.157,358.161 660.933,358.929L660.949,370.81L657.058,370.81L657.058,359.41C657.005,357.371 655.964,356.352 653.936,356.352C652.377,356.352 651.273,356.987 650.622,358.257L650.622,370.81L646.731,370.81L646.731,353.486L650.397,353.486Z" style="fill:rgb(64,64,64);fill-rule:nonzero;"/>
                <path d="M693.715,370.81L689.84,370.81L689.84,352.093L684.124,354.046L684.124,350.764L693.219,347.417L693.715,347.417L693.715,370.81Z" style="fill:rgb(64,64,64);fill-rule:nonzero;"/>
                <path d="M338.974,386.736L338.974,389.954L338.494,389.954C336.316,389.986 334.576,390.584 333.274,391.748C331.972,392.911 331.198,394.56 330.952,396.695C332.201,395.382 333.797,394.726 335.74,394.726C337.8,394.726 339.425,395.451 340.615,396.903C341.805,398.355 342.4,400.228 342.4,402.523C342.4,404.893 341.704,406.811 340.311,408.279C338.918,409.747 337.09,410.481 334.827,410.481C332.5,410.481 330.613,409.621 329.167,407.903C327.721,406.184 326.998,403.932 326.998,401.146L326.998,399.817C326.998,395.729 327.993,392.527 329.984,390.21C331.974,387.894 334.838,386.736 338.574,386.736L338.974,386.736ZM334.795,397.864C333.941,397.864 333.159,398.104 332.449,398.584C331.74,399.065 331.219,399.705 330.888,400.506L330.888,401.69C330.888,403.42 331.251,404.794 331.977,405.813C332.703,406.833 333.642,407.342 334.795,407.342C335.948,407.342 336.86,406.91 337.533,406.045C338.205,405.181 338.542,404.044 338.542,402.635C338.542,401.226 338.2,400.079 337.517,399.193C336.834,398.307 335.926,397.864 334.795,397.864Z" style="fill:rgb(64,64,64);fill-rule:nonzero;"/>
                <path d="M361.017,389.01L351.699,410.16L347.616,410.16L356.918,389.97L344.862,389.97L344.862,386.848L361.017,386.848L361.017,389.01Z" style="fill:rgb(64,64,64);fill-rule:nonzero;"/>
                <path d="M379.33,400.346C379.33,403.697 378.703,406.224 377.449,407.927C376.195,409.629 374.287,410.481 371.725,410.481C369.206,410.481 367.309,409.651 366.033,407.991C364.757,406.331 364.104,403.873 364.072,400.618L364.072,396.583C364.072,393.231 364.699,390.718 365.953,389.042C367.207,387.366 369.12,386.528 371.693,386.528C374.244,386.528 376.147,387.345 377.401,388.978C378.655,390.611 379.298,393.055 379.33,396.311L379.33,400.346ZM375.439,395.99C375.439,393.802 375.141,392.199 374.543,391.179C373.945,390.16 372.995,389.65 371.693,389.65C370.423,389.65 369.489,390.133 368.891,391.099C368.293,392.065 367.978,393.573 367.946,395.622L367.946,400.906C367.946,403.083 368.25,404.706 368.859,405.773C369.467,406.841 370.423,407.374 371.725,407.374C372.974,407.374 373.897,406.881 374.495,405.893C375.093,404.906 375.407,403.361 375.439,401.258L375.439,395.99Z" style="fill:rgb(64,64,64);fill-rule:nonzero;"/>
                <path d="M394.873,386.736L394.873,389.954L394.393,389.954C392.215,389.986 390.475,390.584 389.173,391.748C387.871,392.911 387.097,394.56 386.852,396.695C388.1,395.382 389.696,394.726 391.639,394.726C393.699,394.726 395.324,395.451 396.514,396.903C397.704,398.355 398.299,400.228 398.299,402.523C398.299,404.893 397.603,406.811 396.21,408.279C394.817,409.747 392.989,410.481 390.726,410.481C388.399,410.481 386.513,409.621 385.066,407.903C383.62,406.184 382.897,403.932 382.897,401.146L382.897,399.817C382.897,395.729 383.892,392.527 385.883,390.21C387.874,387.894 390.737,386.736 394.473,386.736L394.873,386.736ZM390.694,397.864C389.84,397.864 389.058,398.104 388.349,398.584C387.639,399.065 387.118,399.705 386.787,400.506L386.787,401.69C386.787,403.42 387.15,404.794 387.876,405.813C388.602,406.833 389.541,407.342 390.694,407.342C391.847,407.342 392.76,406.91 393.432,406.045C394.105,405.181 394.441,404.044 394.441,402.635C394.441,401.226 394.099,400.079 393.416,399.193C392.733,398.307 391.826,397.864 390.694,397.864Z" style="fill:rgb(64,64,64);fill-rule:nonzero;"/>
                <path d="M402.442,398.6L403.707,386.848L416.228,386.848L416.228,390.21L406.942,390.21L406.301,395.782C407.379,395.163 408.596,394.854 409.952,394.854C412.172,394.854 413.898,395.564 415.131,396.983C416.364,398.403 416.981,400.313 416.981,402.715C416.981,405.085 416.297,406.971 414.931,408.375C413.565,409.779 411.692,410.481 409.311,410.481C407.176,410.481 405.407,409.875 404.004,408.663C402.6,407.452 401.839,405.853 401.722,403.868L405.485,403.868C405.634,404.999 406.04,405.867 406.701,406.47C407.363,407.073 408.228,407.374 409.295,407.374C410.491,407.374 411.422,406.947 412.089,406.093C412.756,405.24 413.09,404.076 413.09,402.603C413.09,401.183 412.722,400.06 411.985,399.233C411.249,398.405 410.235,397.992 408.943,397.992C408.238,397.992 407.641,398.085 407.15,398.272C406.659,398.459 406.125,398.824 405.549,399.369L402.442,398.6Z" style="fill:rgb(64,64,64);fill-rule:nonzero;"/>
                <path d="M432.872,406.926L443.455,406.926L443.455,410.16L428.821,410.16L428.821,386.848L432.872,386.848L432.872,406.926Z" style="fill:rgb(64,64,64);fill-rule:nonzero;"/>
                <path d="M456.452,408.463C455.31,409.808 453.688,410.481 451.585,410.481C449.706,410.481 448.284,409.931 447.318,408.831C446.352,407.732 445.869,406.142 445.869,404.06L445.869,392.836L449.76,392.836L449.76,404.012C449.76,406.211 450.672,407.31 452.498,407.31C454.387,407.31 455.662,406.633 456.324,405.277L456.324,392.836L460.215,392.836L460.215,410.16L456.548,410.16L456.452,408.463Z" style="fill:rgb(64,64,64);fill-rule:nonzero;"/>
                <path d="M463.445,401.37C463.445,398.702 464.064,396.559 465.303,394.942C466.541,393.325 468.201,392.516 470.282,392.516C472.118,392.516 473.602,393.157 474.733,394.437L474.733,385.567L478.624,385.567L478.624,410.16L475.101,410.16L474.909,408.367C473.746,409.776 472.193,410.481 470.25,410.481C468.222,410.481 466.581,409.664 465.327,408.031C464.072,406.398 463.445,404.177 463.445,401.37ZM467.336,401.706C467.336,403.468 467.675,404.842 468.353,405.829C469.031,406.817 469.994,407.31 471.243,407.31C472.833,407.31 473.997,406.601 474.733,405.181L474.733,397.784C474.018,396.396 472.865,395.702 471.275,395.702C470.015,395.702 469.044,396.201 468.361,397.199C467.678,398.197 467.336,399.7 467.336,401.706Z" style="fill:rgb(64,64,64);fill-rule:nonzero;"/>
                <path d="M497.897,404.797L500.651,392.836L504.446,392.836L499.723,410.16L496.52,410.16L492.806,398.264L489.155,410.16L485.953,410.16L481.214,392.836L485.008,392.836L487.81,404.668L491.365,392.836L494.295,392.836L497.897,404.797Z" style="fill:rgb(64,64,64);fill-rule:nonzero;"/>
                <path d="M511.183,410.16L507.292,410.16L507.292,392.836L511.183,392.836L511.183,410.16ZM507.052,388.337C507.052,387.739 507.241,387.243 507.62,386.848C507.999,386.453 508.541,386.256 509.245,386.256C509.95,386.256 510.494,386.453 510.878,386.848C511.263,387.243 511.455,387.739 511.455,388.337C511.455,388.924 511.263,389.413 510.878,389.802C510.494,390.192 509.95,390.387 509.245,390.387C508.541,390.387 507.999,390.192 507.62,389.802C507.241,389.413 507.052,388.924 507.052,388.337Z" style="fill:rgb(64,64,64);fill-rule:nonzero;"/>
                <path d="M514.733,401.37C514.733,398.68 515.366,396.532 516.631,394.926C517.895,393.319 519.574,392.516 521.666,392.516C523.641,392.516 525.194,393.205 526.325,394.582L526.501,392.836L530.008,392.836L530.008,409.632C530.008,411.906 529.301,413.699 527.886,415.012C526.472,416.325 524.564,416.981 522.162,416.981C520.892,416.981 519.651,416.717 518.44,416.188C517.228,415.66 516.308,414.969 515.678,414.115L517.519,411.777C518.715,413.197 520.188,413.907 521.938,413.907C523.23,413.907 524.249,413.557 524.996,412.858C525.744,412.159 526.117,411.132 526.117,409.776L526.117,408.607C524.996,409.856 523.502,410.481 521.634,410.481C519.606,410.481 517.949,409.675 516.663,408.063C515.376,406.451 514.733,404.22 514.733,401.37ZM518.608,401.706C518.608,403.446 518.963,404.815 519.673,405.813C520.383,406.811 521.367,407.31 522.627,407.31C524.196,407.31 525.359,406.638 526.117,405.293L526.117,397.672C525.381,396.359 524.228,395.702 522.659,395.702C521.378,395.702 520.383,396.209 519.673,397.223C518.963,398.237 518.608,399.732 518.608,401.706Z" style="fill:rgb(64,64,64);fill-rule:nonzero;"/>
                <path d="M543.71,405.453C543.71,404.759 543.424,404.231 542.853,403.868C542.282,403.505 541.335,403.185 540.011,402.907C538.687,402.63 537.583,402.278 536.697,401.851C534.754,400.911 533.783,399.55 533.783,397.768C533.783,396.273 534.412,395.024 535.672,394.021C536.931,393.018 538.533,392.516 540.475,392.516C542.546,392.516 544.219,393.028 545.495,394.053C546.77,395.078 547.408,396.407 547.408,398.04L543.517,398.04C543.517,397.293 543.24,396.671 542.685,396.175C542.13,395.678 541.393,395.43 540.475,395.43C539.621,395.43 538.925,395.628 538.386,396.023C537.847,396.417 537.577,396.946 537.577,397.608C537.577,398.205 537.828,398.67 538.33,399.001C538.831,399.331 539.845,399.665 541.372,400.001C542.898,400.337 544.096,400.738 544.966,401.202C545.836,401.666 546.482,402.224 546.904,402.875C547.325,403.526 547.536,404.316 547.536,405.245C547.536,406.803 546.89,408.066 545.599,409.032C544.307,409.998 542.615,410.481 540.523,410.481C539.104,410.481 537.839,410.224 536.729,409.712C535.619,409.2 534.754,408.495 534.135,407.599C533.516,406.702 533.206,405.736 533.206,404.701L536.985,404.701C537.038,405.618 537.385,406.326 538.026,406.822C538.666,407.318 539.515,407.567 540.571,407.567C541.596,407.567 542.375,407.372 542.909,406.982C543.443,406.592 543.71,406.083 543.71,405.453Z" style="fill:rgb(64,64,64);fill-rule:nonzero;"/>
                <path d="M554.753,394.726C556.024,393.253 557.63,392.516 559.573,392.516C563.266,392.516 565.139,394.624 565.193,398.84L565.193,410.16L561.302,410.16L561.302,398.985C561.302,397.789 561.043,396.943 560.525,396.447C560.008,395.95 559.247,395.702 558.244,395.702C556.685,395.702 555.522,396.396 554.753,397.784L554.753,410.16L550.863,410.16L550.863,385.567L554.753,385.567L554.753,394.726Z" style="fill:rgb(64,64,64);fill-rule:nonzero;"/>
                <path d="M579.471,410.16C579.3,409.829 579.15,409.29 579.022,408.543C577.784,409.835 576.268,410.481 574.475,410.481C572.735,410.481 571.316,409.984 570.216,408.991C569.117,407.999 568.567,406.771 568.567,405.309C568.567,403.462 569.253,402.045 570.624,401.058C571.996,400.071 573.957,399.577 576.509,399.577L578.894,399.577L578.894,398.44C578.894,397.544 578.643,396.826 578.142,396.287C577.64,395.748 576.877,395.478 575.852,395.478C574.966,395.478 574.24,395.7 573.675,396.143C573.109,396.586 572.826,397.149 572.826,397.832L568.935,397.832C568.935,396.882 569.25,395.993 569.88,395.166C570.51,394.339 571.366,393.69 572.45,393.221C573.533,392.751 574.742,392.516 576.076,392.516C578.104,392.516 579.721,393.026 580.928,394.045C582.134,395.065 582.753,396.498 582.785,398.344L582.785,406.158C582.785,407.716 583.004,408.959 583.441,409.888L583.441,410.16L579.471,410.16ZM575.196,407.358C575.964,407.358 576.687,407.172 577.365,406.798C578.043,406.424 578.553,405.923 578.894,405.293L578.894,402.027L576.797,402.027C575.356,402.027 574.272,402.278 573.546,402.779C572.821,403.281 572.458,403.991 572.458,404.909C572.458,405.656 572.706,406.251 573.202,406.694C573.699,407.137 574.363,407.358 575.196,407.358Z" style="fill:rgb(64,64,64);fill-rule:nonzero;"/>
                <path d="M588.225,410.16L588.225,395.718L585.583,395.718L585.583,392.836L588.225,392.836L588.225,391.251C588.225,389.33 588.758,387.846 589.826,386.8C590.893,385.754 592.388,385.231 594.309,385.231C594.992,385.231 595.718,385.327 596.487,385.519L596.39,388.561C595.963,388.476 595.467,388.433 594.901,388.433C593.044,388.433 592.115,389.389 592.115,391.299L592.115,392.836L595.638,392.836L595.638,395.718L592.115,395.718L592.115,410.16L588.225,410.16Z" style="fill:rgb(64,64,64);fill-rule:nonzero;"/>
                <path d="M605.721,410.481C603.255,410.481 601.257,409.704 599.725,408.151C598.193,406.598 597.427,404.53 597.427,401.947L597.427,401.466C597.427,399.737 597.761,398.192 598.428,396.831C599.095,395.47 600.032,394.411 601.238,393.653C602.444,392.895 603.789,392.516 605.273,392.516C607.632,392.516 609.454,393.269 610.741,394.774C612.027,396.279 612.67,398.408 612.67,401.162L612.67,402.731L601.35,402.731C601.467,404.161 601.945,405.293 602.783,406.126C603.621,406.958 604.675,407.374 605.945,407.374C607.728,407.374 609.179,406.654 610.3,405.213L612.398,407.214C611.704,408.25 610.778,409.053 609.62,409.624C608.462,410.195 607.162,410.481 605.721,410.481ZM605.257,395.638C604.189,395.638 603.327,396.012 602.671,396.759C602.014,397.506 601.596,398.547 601.414,399.881L608.827,399.881L608.827,399.593C608.742,398.291 608.395,397.306 607.786,396.639C607.178,395.972 606.335,395.638 605.257,395.638Z" style="fill:rgb(64,64,64);fill-rule:nonzero;"/>
                <path d="M619.295,392.836L619.407,394.838C620.688,393.29 622.369,392.516 624.45,392.516C628.058,392.516 629.894,394.582 629.958,398.712L629.958,410.16L626.067,410.16L626.067,398.937C626.067,397.837 625.83,397.023 625.355,396.495C624.88,395.966 624.103,395.702 623.025,395.702C621.456,395.702 620.287,396.412 619.519,397.832L619.519,410.16L615.628,410.16L615.628,392.836L619.295,392.836Z" style="fill:rgb(64,64,64);fill-rule:nonzero;"/>
                <path d="M652.43,410.16C652.259,409.829 652.11,409.29 651.982,408.543C650.743,409.835 649.228,410.481 647.434,410.481C645.695,410.481 644.275,409.984 643.175,408.991C642.076,407.999 641.526,406.771 641.526,405.309C641.526,403.462 642.212,402.045 643.584,401.058C644.955,400.071 646.917,399.577 649.468,399.577L651.853,399.577L651.853,398.44C651.853,397.544 651.603,396.826 651.101,396.287C650.599,395.748 649.836,395.478 648.811,395.478C647.925,395.478 647.2,395.7 646.634,396.143C646.068,396.586 645.785,397.149 645.785,397.832L641.895,397.832C641.895,396.882 642.209,395.993 642.839,395.166C643.469,394.339 644.326,393.69 645.409,393.221C646.492,392.751 647.701,392.516 649.035,392.516C651.064,392.516 652.681,393.026 653.887,394.045C655.093,395.065 655.712,396.498 655.744,398.344L655.744,406.158C655.744,407.716 655.963,408.959 656.401,409.888L656.401,410.16L652.43,410.16ZM648.155,407.358C648.923,407.358 649.647,407.172 650.324,406.798C651.002,406.424 651.512,405.923 651.853,405.293L651.853,402.027L649.756,402.027C648.315,402.027 647.232,402.278 646.506,402.779C645.78,403.281 645.417,403.991 645.417,404.909C645.417,405.656 645.665,406.251 646.162,406.694C646.658,407.137 647.322,407.358 648.155,407.358Z" style="fill:rgb(64,64,64);fill-rule:nonzero;"/>
                <path d="M663.474,392.836L663.586,394.646C664.803,393.226 666.468,392.516 668.581,392.516C670.897,392.516 672.483,393.402 673.336,395.174C674.596,393.402 676.368,392.516 678.652,392.516C680.563,392.516 681.985,393.044 682.919,394.101C683.853,395.158 684.331,396.716 684.352,398.776L684.352,410.16L680.461,410.16L680.461,398.888C680.461,397.789 680.221,396.983 679.741,396.471C679.261,395.958 678.465,395.702 677.355,395.702C676.469,395.702 675.746,395.94 675.186,396.415C674.625,396.89 674.233,397.512 674.009,398.28L674.025,410.16L670.134,410.16L670.134,398.76C670.081,396.722 669.04,395.702 667.012,395.702C665.454,395.702 664.349,396.337 663.698,397.608L663.698,410.16L659.807,410.16L659.807,392.836L663.474,392.836Z" style="fill:rgb(64,64,64);fill-rule:nonzero;"/>
                <path d="M705.447,401.178L700.932,401.178L700.932,410.16L696.881,410.16L696.881,386.848L705.079,386.848C707.769,386.848 709.845,387.451 711.307,388.657C712.769,389.864 713.501,391.609 713.501,393.893C713.501,395.451 713.124,396.756 712.372,397.808C711.619,398.859 710.571,399.668 709.226,400.233L714.461,409.952L714.461,410.16L710.122,410.16L705.447,401.178ZM700.932,397.928L705.095,397.928C706.461,397.928 707.528,397.584 708.297,396.895C709.066,396.207 709.45,395.265 709.45,394.069C709.45,392.82 709.095,391.854 708.385,391.171C707.675,390.488 706.616,390.136 705.207,390.114L700.932,390.114L700.932,397.928Z" style="fill:rgb(64,64,64);fill-rule:nonzero;"/>
                <path d="M720.798,394.726C722.068,393.253 723.674,392.516 725.617,392.516C729.31,392.516 731.184,394.624 731.237,398.84L731.237,410.16L727.346,410.16L727.346,398.985C727.346,397.789 727.087,396.943 726.57,396.447C726.052,395.95 725.292,395.702 724.288,395.702C722.73,395.702 721.566,396.396 720.798,397.784L720.798,410.16L716.907,410.16L716.907,385.567L720.798,385.567L720.798,394.726Z" style="fill:rgb(64,64,64);fill-rule:nonzero;"/>
                <path d="M742.793,410.481C740.327,410.481 738.329,409.704 736.797,408.151C735.265,406.598 734.499,404.53 734.499,401.947L734.499,401.466C734.499,399.737 734.833,398.192 735.5,396.831C736.167,395.47 737.104,394.411 738.31,393.653C739.516,392.895 740.861,392.516 742.345,392.516C744.704,392.516 746.526,393.269 747.813,394.774C749.099,396.279 749.742,398.408 749.742,401.162L749.742,402.731L738.422,402.731C738.54,404.161 739.017,405.293 739.855,406.126C740.693,406.958 741.747,407.374 743.017,407.374C744.8,407.374 746.252,406.654 747.372,405.213L749.47,407.214C748.776,408.25 747.85,409.053 746.692,409.624C745.534,410.195 744.234,410.481 742.793,410.481ZM742.329,395.638C741.261,395.638 740.4,396.012 739.743,396.759C739.087,397.506 738.668,398.547 738.486,399.881L745.899,399.881L745.899,399.593C745.814,398.291 745.467,397.306 744.859,396.639C744.25,395.972 743.407,395.638 742.329,395.638Z" style="fill:rgb(64,64,64);fill-rule:nonzero;"/>
                <path d="M756.895,410.16L753.004,410.16L753.004,392.836L756.895,392.836L756.895,410.16ZM752.764,388.337C752.764,387.739 752.954,387.243 753.333,386.848C753.712,386.453 754.253,386.256 754.958,386.256C755.662,386.256 756.207,386.453 756.591,386.848C756.975,387.243 757.167,387.739 757.167,388.337C757.167,388.924 756.975,389.413 756.591,389.802C756.207,390.192 755.662,390.387 754.958,390.387C754.253,390.387 753.712,390.192 753.333,389.802C752.954,389.413 752.764,388.924 752.764,388.337Z" style="fill:rgb(64,64,64);fill-rule:nonzero;"/>
                <path d="M764.737,392.836L764.849,394.838C766.13,393.29 767.811,392.516 769.892,392.516C773.5,392.516 775.336,394.582 775.4,398.712L775.4,410.16L771.509,410.16L771.509,398.937C771.509,397.837 771.272,397.023 770.797,396.495C770.322,395.966 769.545,395.702 768.467,395.702C766.898,395.702 765.729,396.412 764.961,397.832L764.961,410.16L761.07,410.16L761.07,392.836L764.737,392.836Z" style="fill:rgb(64,64,64);fill-rule:nonzero;"/>
            </g>
        </g>
        <g id="Reporter70" transform="matrix(2.91661,0,0,2.91661,1829.89,1194.42)">
            <g transform="matrix(0.2088,0,0,0.217535,73.8817,55.3915)">
                <ellipse cx="2234.83" cy="2228.83" rx="1551.76" ry="1489.52" style="fill:white;stroke:rgb(204,204,204);stroke-width:13.4px;"/>
            </g>
            <g transform="matrix(0.24,0,0,0.24,2.5e-05,0.0002)">
                <path d="M3574.74,1979.17C3592.73,2067.05 3602.16,2157.93 3602.16,2251C3602.16,2343.4 3592.86,2433.64 3575.15,2520.83L929.129,2520.83C911.413,2433.64 902.112,2343.4 902.112,2251C902.112,2157.93 911.549,2067.05 929.536,1979.17L3574.74,1979.17Z" style="fill:rgb(244,244,244);stroke:rgb(204,204,204);stroke-width:11.9px;"/>
            </g>
            <g transform="matrix(1,0,0,1,0.975404,-77.2552)">
                <g>
                    <path d="M517.3,827.663L508.269,827.663L506.38,833.091L502.169,833.091L510.975,809.779L514.61,809.779L523.432,833.091L519.205,833.091L517.3,827.663ZM509.406,824.397L516.163,824.397L512.784,814.726L509.406,824.397Z" style="fill:rgb(79,195,247);fill-rule:nonzero;"/>
                    <path d="M528.542,815.767L528.654,817.768C529.935,816.22 531.616,815.447 533.698,815.447C537.306,815.447 539.142,817.512 539.206,821.643L539.206,833.091L535.315,833.091L535.315,821.867C535.315,820.768 535.077,819.954 534.602,819.425C534.127,818.897 533.351,818.633 532.273,818.633C530.704,818.633 529.535,819.343 528.766,820.762L528.766,833.091L524.876,833.091L524.876,815.767L528.542,815.767Z" style="fill:rgb(79,195,247);fill-rule:nonzero;"/>
                    <path d="M552.242,819.321C551.729,819.236 551.201,819.193 550.657,819.193C548.874,819.193 547.673,819.876 547.054,821.243L547.054,833.091L543.163,833.091L543.163,815.767L546.878,815.767L546.974,817.704C547.913,816.199 549.216,815.447 550.881,815.447C551.436,815.447 551.895,815.521 552.258,815.671L552.242,819.321Z" style="fill:rgb(79,195,247);fill-rule:nonzero;"/>
                    <path d="M565.198,831.394C564.055,832.739 562.433,833.411 560.33,833.411C558.452,833.411 557.029,832.861 556.063,831.762C555.097,830.662 554.614,829.072 554.614,826.991L554.614,815.767L558.505,815.767L558.505,826.943C558.505,829.141 559.418,830.241 561.243,830.241C563.132,830.241 564.408,829.563 565.069,828.207L565.069,815.767L568.96,815.767L568.96,833.091L565.294,833.091L565.198,831.394Z" style="fill:rgb(79,195,247);fill-rule:nonzero;"/>
                    <path d="M574.295,833.091L574.295,818.649L571.653,818.649L571.653,815.767L574.295,815.767L574.295,814.182C574.295,812.26 574.828,810.777 575.896,809.731C576.963,808.685 578.458,808.162 580.379,808.162C581.062,808.162 581.788,808.258 582.556,808.45L582.46,811.492C582.033,811.406 581.537,811.364 580.971,811.364C579.114,811.364 578.185,812.319 578.185,814.23L578.185,815.767L581.708,815.767L581.708,818.649L578.185,818.649L578.185,833.091L574.295,833.091Z" style="fill:rgb(79,195,247);fill-rule:nonzero;"/>
                    <path d="M591.798,833.411C589.332,833.411 587.333,832.634 585.802,831.081C584.27,829.528 583.504,827.46 583.504,824.877L583.504,824.397C583.504,822.668 583.838,821.123 584.505,819.762C585.172,818.401 586.109,817.341 587.315,816.583C588.521,815.826 589.866,815.447 591.349,815.447C593.708,815.447 595.531,816.199 596.817,817.704C598.104,819.209 598.747,821.339 598.747,824.093L598.747,825.662L587.427,825.662C587.544,827.092 588.022,828.223 588.86,829.056C589.698,829.889 590.752,830.305 592.022,830.305C593.805,830.305 595.256,829.584 596.377,828.143L598.474,830.145C597.781,831.18 596.855,831.983 595.697,832.554C594.538,833.125 593.239,833.411 591.798,833.411ZM591.333,818.569C590.266,818.569 589.404,818.942 588.748,819.69C588.091,820.437 587.672,821.477 587.491,822.812L594.904,822.812L594.904,822.523C594.819,821.221 594.472,820.237 593.863,819.569C593.255,818.902 592.412,818.569 591.333,818.569Z" style="fill:rgb(79,195,247);fill-rule:nonzero;"/>
                    <path d="M605.378,815.767L605.49,817.768C606.771,816.22 608.452,815.447 610.534,815.447C614.142,815.447 615.977,817.512 616.042,821.643L616.042,833.091L612.151,833.091L612.151,821.867C612.151,820.768 611.913,819.954 611.438,819.425C610.963,818.897 610.187,818.633 609.109,818.633C607.54,818.633 606.371,819.343 605.602,820.762L605.602,833.091L601.712,833.091L601.712,815.767L605.378,815.767Z" style="fill:rgb(79,195,247);fill-rule:nonzero;"/>
                </g>
                <g>
                    <g transform="matrix(1,0,0,1,473.142,826.9)">
                        <path d="M0,-0.076L-0.016,-0.06C0.049,0 0,-0.076 0,-0.076" style="fill:rgb(79,195,247);fill-rule:nonzero;"/>
                    </g>
                    <g transform="matrix(1,0,0,1,488.161,819.539)">
                        <path d="M0,8.439C-3.319,6.577 -5.342,6.982 -6.313,8.439C-7.285,9.896 -9.389,12 -12.546,9.41C-14.169,8.078 -15.931,6.29 -17.24,4.695C-19.83,1.538 -17.725,-0.567 -16.268,-1.538C-14.811,-2.509 -14.407,-4.533 -16.268,-7.851C-18.13,-11.17 -21.206,-10.28 -21.206,-10.28C-21.206,-10.28 -24.524,-9.308 -25.981,-3.157C-27.295,2.388 -20.716,9.906 -19.407,11.334C-19.407,11.334 -10.846,19.609 -4.695,18.152C1.457,16.695 2.428,13.376 2.428,13.376C2.428,13.376 3.319,10.301 0,8.439" style="fill:rgb(79,195,247);fill-rule:nonzero;"/>
                    </g>
                </g>
            </g>
            <g transform="matrix(1,0,0,1,0.000125,-117.292)">
                <g transform="matrix(1,0,0,1,601.813,693.289)">
                    <path d="M0,57.843L-123.626,57.843C-139.532,57.843 -152.547,44.828 -152.547,28.922C-152.547,13.015 -139.532,0 -123.626,0L0,0C15.907,0 28.921,13.015 28.921,28.922C28.921,44.828 15.907,57.843 0,57.843Z" style="fill:rgb(129,199,132);fill-rule:nonzero;stroke:rgb(165,164,165);stroke-width:1.43px;stroke-linecap:butt;stroke-linejoin:miter;stroke-miterlimit:10;"/>
                </g>
                <g>
                    <path d="M497.527,725.144L497.527,734.201L493.292,734.201L493.292,709.825L502.617,709.825C505.34,709.825 507.502,710.534 509.104,711.952C510.706,713.369 511.506,715.244 511.506,717.577C511.506,719.965 510.722,721.823 509.154,723.152C507.586,724.48 505.39,725.144 502.566,725.144L497.527,725.144ZM497.527,721.745L502.617,721.745C504.123,721.745 505.273,721.391 506.065,720.682C506.858,719.973 507.254,718.949 507.254,717.61C507.254,716.293 506.852,715.241 506.049,714.454C505.245,713.668 504.14,713.263 502.734,713.241L497.527,713.241L497.527,721.745Z" style="fill:white;fill-rule:nonzero;"/>
                    <path d="M513.829,724.976C513.829,723.202 514.181,721.603 514.884,720.18C515.587,718.757 516.575,717.663 517.847,716.899C519.12,716.134 520.582,715.752 522.233,715.752C524.678,715.752 526.662,716.539 528.185,718.112C529.708,719.686 530.532,721.773 530.654,724.374L530.671,725.328C530.671,727.114 530.328,728.71 529.642,730.116C528.955,731.522 527.973,732.61 526.695,733.381C525.417,734.151 523.941,734.536 522.267,734.536C519.711,734.536 517.666,733.685 516.131,731.983C514.597,730.281 513.829,728.012 513.829,725.177L513.829,724.976ZM517.897,725.328C517.897,727.192 518.282,728.651 519.053,729.706C519.823,730.761 520.894,731.288 522.267,731.288C523.64,731.288 524.708,730.752 525.473,729.681C526.237,728.609 526.62,727.041 526.62,724.976C526.62,723.146 526.226,721.695 525.439,720.624C524.653,719.552 523.584,719.016 522.233,719.016C520.905,719.016 519.851,719.544 519.069,720.598C518.288,721.653 517.897,723.23 517.897,725.328Z" style="fill:white;fill-rule:nonzero;"/>
                    <rect x="534.367" y="708.486" width="4.068" height="25.715" style="fill:white;fill-rule:nonzero;"/>
                    <path d="M547.187,734.201L543.118,734.201L543.118,716.087L547.187,716.087L547.187,734.201ZM542.867,711.382C542.867,710.757 543.065,710.238 543.462,709.825C543.858,709.412 544.424,709.206 545.161,709.206C545.897,709.206 546.467,709.412 546.868,709.825C547.27,710.238 547.471,710.757 547.471,711.382C547.471,711.996 547.27,712.507 546.868,712.914C546.467,713.322 545.897,713.525 545.161,713.525C544.424,713.525 543.858,713.322 543.462,712.914C543.065,712.507 542.867,711.996 542.867,711.382Z" style="fill:white;fill-rule:nonzero;"/>
                    <path d="M555.955,730.953L565.598,730.953L565.598,734.201L550.899,734.201L550.899,731.539L560.09,719.368L551.066,719.368L551.066,716.087L565.246,716.087L565.246,718.665L555.955,730.953Z" style="fill:white;fill-rule:nonzero;"/>
                    <path d="M576.559,734.536C573.981,734.536 571.891,733.724 570.29,732.1C568.688,730.476 567.887,728.313 567.887,725.613L567.887,725.11C567.887,723.302 568.236,721.687 568.934,720.264C569.631,718.841 570.611,717.733 571.872,716.94C573.133,716.148 574.539,715.752 576.091,715.752C578.557,715.752 580.463,716.539 581.808,718.112C583.153,719.686 583.825,721.913 583.825,724.792L583.825,726.433L571.989,726.433C572.112,727.928 572.611,729.111 573.487,729.982C574.363,730.853 575.466,731.288 576.794,731.288C578.658,731.288 580.176,730.535 581.347,729.028L583.541,731.12C582.815,732.203 581.847,733.043 580.636,733.64C579.425,734.237 578.066,734.536 576.559,734.536ZM576.074,719.016C574.958,719.016 574.057,719.407 573.37,720.188C572.684,720.97 572.246,722.058 572.056,723.453L579.807,723.453L579.807,723.152C579.718,721.79 579.355,720.76 578.719,720.063C578.083,719.365 577.201,719.016 576.074,719.016Z" style="fill:white;fill-rule:nonzero;"/>
                    <path d="M591.304,734.201L587.236,734.201L587.236,716.087L591.304,716.087L591.304,734.201ZM586.985,711.382C586.985,710.757 587.183,710.238 587.579,709.825C587.976,709.412 588.542,709.206 589.279,709.206C590.015,709.206 590.585,709.412 590.986,709.825C591.388,710.238 591.589,710.757 591.589,711.382C591.589,711.996 591.388,712.507 590.986,712.914C590.585,713.322 590.015,713.525 589.279,713.525C588.542,713.525 587.976,713.322 587.579,712.914C587.183,712.507 586.985,711.996 586.985,711.382Z" style="fill:white;fill-rule:nonzero;"/>
                </g>
            </g>
            <g id="pin1" serif:id="pin" transform="matrix(1,0,0,1,540.237,323.769)">
                <path d="M0,-18.46C2.683,-18.46 4.858,-16.285 4.858,-13.602C4.858,-10.919 2.683,-8.744 0,-8.744C-2.683,-8.744 -4.858,-10.919 -4.858,-13.602C-4.858,-16.285 -2.683,-18.46 0,-18.46M0,12.631C8.744,3.887 17.489,-3.943 17.489,-13.602C17.489,-23.261 9.659,-31.091 0,-31.091C-9.659,-31.091 -17.489,-23.261 -17.489,-13.602C-17.489,-3.943 -8.744,3.887 0,12.631" style="fill:rgb(229,115,115);fill-rule:nonzero;"/>
            </g>
            <g id="name1" serif:id="name" transform="matrix(2.4761,0,0,1,-837.518,-3.17463)">
                <path d="M466.675,529.017L470.225,552.371L473.766,529.017L476.53,529.017L476.53,559.486L474.4,559.486L474.4,549.441L474.611,536.006L470.977,559.486L469.447,559.486L465.822,536.027L466.033,549.441L466.033,559.486L463.903,559.486L463.903,529.017L466.675,529.017Z" style="fill:rgb(64,64,64);fill-rule:nonzero;"/>
                <path d="M484.321,559.486C484.231,559.054 484.152,558.349 484.085,557.373C483.431,559.061 482.631,559.905 481.684,559.905C480.766,559.905 480.017,559.256 479.436,557.959C478.856,556.661 478.566,555.057 478.566,553.145C478.566,550.732 478.928,548.88 479.652,547.589C480.376,546.299 481.411,545.654 482.758,545.654L484.017,545.654L484.017,544.168C484.017,542.996 483.885,542.058 483.62,541.353C483.355,540.649 482.952,540.296 482.411,540.296C481.944,540.296 481.56,540.586 481.262,541.165C480.963,541.744 480.814,542.48 480.814,543.373L478.76,543.373C478.76,542.131 478.926,540.97 479.259,539.888C479.591,538.807 480.043,537.96 480.615,537.346C481.187,536.732 481.825,536.425 482.53,536.425C483.6,536.425 484.454,537.091 485.09,538.423C485.727,539.756 486.054,541.629 486.071,544.042L486.071,554.255C486.071,556.291 486.186,557.917 486.417,559.131L486.417,559.486L484.321,559.486ZM482.065,555.824C482.47,555.824 482.852,555.58 483.21,555.092C483.568,554.603 483.837,553.948 484.017,553.125L484.017,548.855L482.91,548.855C482.149,548.855 481.577,549.183 481.194,549.839C480.811,550.495 480.62,551.422 480.62,552.622C480.62,553.599 480.751,554.377 481.013,554.956C481.275,555.535 481.625,555.824 482.065,555.824Z" style="fill:rgb(64,64,64);fill-rule:nonzero;"/>
                <path d="M491.504,544.293L493.245,536.844L495.527,536.844L492.73,547.997L495.62,559.486L493.355,559.486L491.53,551.743L489.712,559.486L487.431,559.486L490.321,547.997L487.532,536.844L489.797,536.844L491.504,544.293Z" style="fill:rgb(64,64,64);fill-rule:nonzero;"/>
                <path d="M499.11,559.486L497.056,559.486L497.056,536.844L499.11,536.844L499.11,559.486ZM496.929,530.963C496.929,530.182 497.029,529.533 497.229,529.017C497.429,528.501 497.715,528.243 498.087,528.243C498.459,528.243 498.746,528.501 498.949,529.017C499.152,529.533 499.253,530.182 499.253,530.963C499.253,531.73 499.152,532.369 498.949,532.878C498.746,533.387 498.459,533.642 498.087,533.642C497.715,533.642 497.429,533.387 497.229,532.878C497.029,532.369 496.929,531.73 496.929,530.963Z" style="fill:rgb(64,64,64);fill-rule:nonzero;"/>
                <path d="M503.275,536.844L503.335,539.208C503.977,537.353 504.856,536.425 505.972,536.425C507.194,536.425 508.031,537.583 508.482,539.899C509.146,537.583 510.082,536.425 511.287,536.425C512.296,536.425 513.047,537.116 513.54,538.497C514.033,539.878 514.285,541.915 514.296,544.607L514.296,559.486L512.243,559.486L512.243,544.754C512.243,543.317 512.116,542.264 511.862,541.594C511.609,540.924 511.189,540.589 510.603,540.589C510.135,540.589 509.754,540.9 509.458,541.521C509.162,542.141 508.955,542.954 508.837,543.959L508.845,559.486L506.791,559.486L506.791,544.586C506.763,541.922 506.214,540.589 505.143,540.589C504.321,540.589 503.737,541.42 503.394,543.08L503.394,559.486L501.34,559.486L501.34,536.844L503.275,536.844Z" style="fill:rgb(64,64,64);fill-rule:nonzero;"/>
                <path d="M518.589,559.486L516.535,559.486L516.535,536.844L518.589,536.844L518.589,559.486ZM516.408,530.963C516.408,530.182 516.508,529.533 516.708,529.017C516.908,528.501 517.194,528.243 517.566,528.243C517.938,528.243 518.225,528.501 518.428,529.017C518.631,529.533 518.732,530.182 518.732,530.963C518.732,531.73 518.631,532.369 518.428,532.878C518.225,533.387 517.938,533.642 517.566,533.642C517.194,533.642 516.908,533.387 516.708,532.878C516.508,532.369 516.408,531.73 516.408,530.963Z" style="fill:rgb(64,64,64);fill-rule:nonzero;"/>
                <rect x="520.954" y="527.343" width="2.054" height="32.143" style="fill:rgb(64,64,64);fill-rule:nonzero;"/>
                <path d="M527.427,559.486L525.374,559.486L525.374,536.844L527.427,536.844L527.427,559.486ZM525.247,530.963C525.247,530.182 525.347,529.533 525.547,529.017C525.747,528.501 526.033,528.243 526.405,528.243C526.777,528.243 527.064,528.501 527.267,529.017C527.47,529.533 527.571,530.182 527.571,530.963C527.571,531.73 527.47,532.369 527.267,532.878C527.064,533.387 526.777,533.642 526.405,533.642C526.033,533.642 525.747,533.387 525.547,532.878C525.347,532.369 525.247,531.73 525.247,530.963Z" style="fill:rgb(64,64,64);fill-rule:nonzero;"/>
                <path d="M535.126,559.486C535.036,559.054 534.957,558.349 534.889,557.373C534.236,559.061 533.436,559.905 532.489,559.905C531.571,559.905 530.821,559.256 530.241,557.959C529.661,556.661 529.37,555.057 529.37,553.145C529.37,550.732 529.732,548.88 530.456,547.589C531.18,546.299 532.216,545.654 533.562,545.654L534.822,545.654L534.822,544.168C534.822,542.996 534.689,542.058 534.424,541.353C534.16,540.649 533.757,540.296 533.216,540.296C532.748,540.296 532.365,540.586 532.066,541.165C531.768,541.744 531.618,542.48 531.618,543.373L529.565,543.373C529.565,542.131 529.731,540.97 530.063,539.888C530.396,538.807 530.848,537.96 531.42,537.346C531.992,536.732 532.63,536.425 533.334,536.425C534.405,536.425 535.258,537.091 535.895,538.423C536.532,539.756 536.858,541.629 536.875,544.042L536.875,554.255C536.875,556.291 536.991,557.917 537.222,559.131L537.222,559.486L535.126,559.486ZM532.869,555.824C533.275,555.824 533.657,555.58 534.014,555.092C534.372,554.603 534.641,553.948 534.822,553.125L534.822,548.855L533.714,548.855C532.954,548.855 532.382,549.183 531.999,549.839C531.616,550.495 531.424,551.422 531.424,552.622C531.424,553.599 531.555,554.377 531.817,554.956C532.079,555.535 532.43,555.824 532.869,555.824Z" style="fill:rgb(64,64,64);fill-rule:nonzero;"/>
                <path d="M540.931,536.844L540.99,539.459C541.666,537.436 542.554,536.425 543.653,536.425C545.557,536.425 546.526,539.125 546.56,544.524L546.56,559.486L544.506,559.486L544.506,544.817C544.506,543.38 544.381,542.316 544.13,541.625C543.879,540.935 543.469,540.589 542.9,540.589C542.072,540.589 541.455,541.517 541.049,543.373L541.049,559.486L538.996,559.486L538.996,536.844L540.931,536.844Z" style="fill:rgb(64,64,64);fill-rule:nonzero;"/>
                <path d="M555.934,529.017L559.483,552.371L563.025,529.017L565.788,529.017L565.788,559.486L563.658,559.486L563.658,549.441L563.87,536.006L560.236,559.486L558.706,559.486L555.08,536.027L555.292,549.441L555.292,559.486L553.162,559.486L553.162,529.017L555.934,529.017Z" style="fill:rgb(64,64,64);fill-rule:nonzero;"/>
                <path d="M573.656,557.268C573.053,559.026 572.196,559.905 571.087,559.905C570.095,559.905 569.344,559.186 568.834,557.749C568.324,556.312 568.069,554.234 568.069,551.513L568.069,536.844L570.123,536.844L570.123,551.45C570.123,554.324 570.605,555.761 571.568,555.761C572.566,555.761 573.239,554.875 573.588,553.104L573.588,536.844L575.642,536.844L575.642,559.486L573.706,559.486L573.656,557.268Z" style="fill:rgb(64,64,64);fill-rule:nonzero;"/>
                <path d="M582.859,553.334C582.859,552.427 582.708,551.736 582.406,551.262C582.105,550.788 581.605,550.369 580.906,550.006C580.208,549.644 579.625,549.183 579.157,548.625C578.131,547.398 577.619,545.619 577.619,543.289C577.619,541.336 577.951,539.704 578.616,538.392C579.281,537.081 580.126,536.425 581.151,536.425C582.244,536.425 583.128,537.095 583.801,538.434C584.474,539.773 584.811,541.51 584.811,543.645L582.757,543.645C582.757,542.668 582.611,541.855 582.318,541.207C582.025,540.558 581.636,540.234 581.151,540.234C580.701,540.234 580.333,540.492 580.048,541.008C579.764,541.524 579.622,542.215 579.622,543.08C579.622,543.861 579.754,544.468 580.019,544.9C580.284,545.333 580.819,545.769 581.625,546.208C582.43,546.648 583.063,547.171 583.522,547.778C583.981,548.385 584.322,549.114 584.545,549.965C584.767,550.816 584.879,551.848 584.879,553.062C584.879,555.099 584.538,556.748 583.856,558.011C583.174,559.274 582.281,559.905 581.177,559.905C580.427,559.905 579.76,559.57 579.174,558.9C578.588,558.231 578.131,557.31 577.805,556.138C577.478,554.966 577.314,553.704 577.314,552.35L579.309,552.35C579.337,553.55 579.52,554.474 579.858,555.123C580.196,555.772 580.644,556.096 581.202,556.096C581.743,556.096 582.154,555.842 582.436,555.332C582.718,554.823 582.859,554.157 582.859,553.334Z" style="fill:rgb(64,64,64);fill-rule:nonzero;"/>
                <path d="M589.239,531.34L589.239,536.844L590.853,536.844L590.853,540.61L589.239,540.61L589.239,553.25C589.239,554.115 589.308,554.739 589.446,555.123C589.584,555.507 589.83,555.699 590.185,555.699C590.422,555.699 590.661,555.629 590.904,555.489L590.904,559.423C590.436,559.744 589.985,559.905 589.551,559.905C587.974,559.905 587.185,557.749 587.185,553.438L587.185,540.61L585.681,540.61L585.681,536.844L587.185,536.844L587.185,531.34L589.239,531.34Z" style="fill:rgb(64,64,64);fill-rule:nonzero;"/>
                <path d="M596.447,559.905C595.145,559.905 594.09,558.89 593.282,556.86C592.473,554.83 592.069,552.127 592.069,548.751L592.069,548.123C592.069,545.863 592.245,543.844 592.597,542.065C592.949,540.286 593.444,538.901 594.081,537.911C594.717,536.92 595.427,536.425 596.21,536.425C597.455,536.425 598.418,537.409 599.096,539.376C599.775,541.343 600.115,544.126 600.115,547.725L600.115,549.776L594.14,549.776C594.202,551.646 594.454,553.125 594.896,554.213C595.338,555.301 595.895,555.845 596.565,555.845C597.506,555.845 598.272,554.903 598.864,553.02L599.971,555.636C599.605,556.989 599.116,558.039 598.505,558.785C597.894,559.532 597.208,559.905 596.447,559.905ZM596.202,540.506C595.638,540.506 595.183,540.994 594.837,541.971C594.49,542.947 594.269,544.307 594.173,546.051L598.087,546.051L598.087,545.675C598.041,543.973 597.858,542.686 597.537,541.814C597.216,540.942 596.771,540.506 596.202,540.506Z" style="fill:rgb(64,64,64);fill-rule:nonzero;"/>
                <path d="M606.495,541.489C606.224,541.378 605.946,541.322 605.658,541.322C604.717,541.322 604.083,542.215 603.757,544L603.757,559.486L601.703,559.486L601.703,536.844L603.664,536.844L603.714,539.376C604.21,537.409 604.898,536.425 605.777,536.425C606.07,536.425 606.312,536.523 606.503,536.718L606.495,541.489Z" style="fill:rgb(64,64,64);fill-rule:nonzero;"/>
                <path d="M609.723,536.844L609.782,539.208C610.424,537.353 611.303,536.425 612.419,536.425C613.641,536.425 614.478,537.583 614.929,539.899C615.594,537.583 616.529,536.425 617.735,536.425C618.743,536.425 619.494,537.116 619.987,538.497C620.48,539.878 620.732,541.915 620.743,544.607L620.743,559.486L618.69,559.486L618.69,544.754C618.69,543.317 618.563,542.264 618.309,541.594C618.056,540.924 617.636,540.589 617.05,540.589C616.582,540.589 616.201,540.9 615.905,541.521C615.609,542.141 615.402,542.954 615.284,543.959L615.292,559.486L613.238,559.486L613.238,544.586C613.21,541.922 612.661,540.589 611.59,540.589C610.768,540.589 610.185,541.42 609.841,543.08L609.841,559.486L607.787,559.486L607.787,536.844L609.723,536.844Z" style="fill:rgb(64,64,64);fill-rule:nonzero;"/>
                <path d="M628.315,559.486C628.225,559.054 628.146,558.349 628.078,557.373C627.425,559.061 626.625,559.905 625.678,559.905C624.76,559.905 624.01,559.256 623.43,557.959C622.85,556.661 622.56,555.057 622.56,553.145C622.56,550.732 622.922,548.88 623.646,547.589C624.37,546.299 625.405,545.654 626.751,545.654L628.011,545.654L628.011,544.168C628.011,542.996 627.878,542.058 627.614,541.353C627.349,540.649 626.946,540.296 626.405,540.296C625.937,540.296 625.554,540.586 625.256,541.165C624.957,541.744 624.808,542.48 624.808,543.373L622.754,543.373C622.754,542.131 622.92,540.97 623.253,539.888C623.585,538.807 624.037,537.96 624.609,537.346C625.181,536.732 625.819,536.425 626.523,536.425C627.594,536.425 628.447,537.091 629.084,538.423C629.721,539.756 630.048,541.629 630.064,544.042L630.064,554.255C630.064,556.291 630.18,557.917 630.411,559.131L630.411,559.486L628.315,559.486ZM626.058,555.824C626.464,555.824 626.846,555.58 627.204,555.092C627.561,554.603 627.83,553.948 628.011,553.125L628.011,548.855L626.904,548.855C626.143,548.855 625.571,549.183 625.188,549.839C624.805,550.495 624.613,551.422 624.613,552.622C624.613,553.599 624.744,554.377 625.006,554.956C625.268,555.535 625.619,555.824 626.058,555.824Z" style="fill:rgb(64,64,64);fill-rule:nonzero;"/>
                <path d="M634.12,536.844L634.18,539.459C634.856,537.436 635.743,536.425 636.842,536.425C638.746,536.425 639.715,539.125 639.749,544.524L639.749,559.486L637.695,559.486L637.695,544.817C637.695,543.38 637.57,542.316 637.319,541.625C637.069,540.935 636.659,540.589 636.09,540.589C635.261,540.589 634.644,541.517 634.239,543.373L634.239,559.486L632.185,559.486L632.185,536.844L634.12,536.844Z" style="fill:rgb(64,64,64);fill-rule:nonzero;"/>
                <path d="M643.746,536.844L643.805,539.459C644.481,537.436 645.368,536.425 646.467,536.425C648.372,536.425 649.341,539.125 649.374,544.524L649.374,559.486L647.321,559.486L647.321,544.817C647.321,543.38 647.195,542.316 646.945,541.625C646.694,540.935 646.284,540.589 645.715,540.589C644.887,540.589 644.27,541.517 643.864,543.373L643.864,559.486L641.81,559.486L641.81,536.844L643.746,536.844Z" style="fill:rgb(64,64,64);fill-rule:nonzero;"/>
            </g>
        </g>
        <g id="Reporter35" transform="matrix(1.45822,0,0,1.45822,1229.74,2453.53)">
            <g transform="matrix(0.2088,0,0,0.217535,73.8817,55.3915)">
                <ellipse cx="2234.83" cy="2228.83" rx="1551.76" ry="1489.52" style="fill:white;stroke:rgb(204,204,204);stroke-width:26.8px;"/>
            </g>
            <g transform="matrix(0.24,0,0,0.24,2.5e-05,0.0002)">
                <path d="M3574.74,1979.17C3592.73,2067.05 3602.16,2157.93 3602.16,2251C3602.16,2343.4 3592.86,2433.64 3575.15,2520.83L929.129,2520.83C911.413,2433.64 902.112,2343.4 902.112,2251C902.112,2157.93 911.549,2067.05 929.536,1979.17L3574.74,1979.17Z" style="fill:rgb(244,244,244);stroke:rgb(204,204,204);stroke-width:23.81px;"/>
            </g>
            <g transform="matrix(1,0,0,1,601.813,575.998)">
                <path d="M0,57.843L-123.626,57.843C-139.532,57.843 -152.547,44.828 -152.547,28.922C-152.547,13.015 -139.532,0 -123.626,0L0,0C15.907,0 28.921,13.015 28.921,28.922C28.921,44.828 15.907,57.843 0,57.843Z" style="fill:rgb(129,199,132);fill-rule:nonzero;stroke:rgb(165,164,165);stroke-width:2.86px;stroke-linecap:butt;stroke-linejoin:miter;stroke-miterlimit:10;"/>
            </g>
            <g id="pin2" serif:id="pin" transform="matrix(1,0,0,1,540.237,323.769)">
                <path d="M0,-18.46C2.683,-18.46 4.858,-16.285 4.858,-13.602C4.858,-10.919 2.683,-8.744 0,-8.744C-2.683,-8.744 -4.858,-10.919 -4.858,-13.602C-4.858,-16.285 -2.683,-18.46 0,-18.46M0,12.631C8.744,3.887 17.489,-3.943 17.489,-13.602C17.489,-23.261 9.659,-31.091 0,-31.091C-9.659,-31.091 -17.489,-23.261 -17.489,-13.602C-17.489,-3.943 -8.744,3.887 0,12.631" style="fill:rgb(229,115,115);fill-rule:nonzero;"/>
            </g>
        </g>
    </g>
</svg>
