<?xml version="1.0" encoding="UTF-8" standalone="no"?>
<!DOCTYPE svg PUBLIC "-//W3C//DTD SVG 1.1//EN" "http://www.w3.org/Graphics/SVG/1.1/DTD/svg11.dtd">
<svg width="100%" height="100%" viewBox="0 0 292 292" version="1.1" xmlns="http://www.w3.org/2000/svg" xmlns:xlink="http://www.w3.org/1999/xlink" xml:space="preserve" xmlns:serif="http://www.serif.com/" style="fill-rule:evenodd;clip-rule:evenodd;stroke-linejoin:round;stroke-miterlimit:2;">
    <g transform="matrix(1,0,0,1,-2127.4,-4060.37)">
        <g transform="matrix(4.16667,0,0,4.16667,0,0)">
            <g transform="matrix(1,0,0,1,545.538,1038.37)">
                <path d="M0,-57.841C-15.947,-57.841 -28.92,-44.867 -28.92,-28.92C-28.92,-12.973 -15.947,0.001 0,0.001C15.948,0.001 28.921,-12.973 28.921,-28.92C28.921,-44.867 15.948,-57.841 0,-57.841M0,6.043C-19.279,6.043 -34.963,-9.641 -34.963,-28.92C-34.963,-48.199 -19.279,-63.884 0,-63.884C19.279,-63.884 34.964,-48.199 34.964,-28.92C34.964,-9.641 19.279,6.043 0,6.043" style="fill:rgb(79,195,247);fill-rule:nonzero;"/>
            </g>
            <g transform="matrix(-1,0,0,1,1085.46,941.907)">
                <rect x="529.791" y="66.025" width="25.877" height="6.043" style="fill:rgb(79,195,247);"/>
            </g>
            <g transform="matrix(-0.707107,-0.707107,-0.707107,0.707107,556.862,998.552)">
                <rect x="-12.081" y="5.004" width="16.657" height="6.043" style="fill:rgb(79,195,247);"/>
            </g>
            <g transform="matrix(0.707107,-0.707107,-0.707107,-0.707107,550.398,1023.36)">
                <rect x="-0.303" y="0.731" width="16.657" height="6.043" style="fill:rgb(79,195,247);"/>
            </g>
        </g>
    </g>
</svg>
