<?xml version="1.0" encoding="UTF-8" standalone="no"?>
<!DOCTYPE svg PUBLIC "-//W3C//DTD SVG 1.1//EN" "http://www.w3.org/Graphics/SVG/1.1/DTD/svg11.dtd">
<svg width="100%" height="100%" viewBox="0 0 4500 4500" version="1.1" xmlns="http://www.w3.org/2000/svg" xmlns:xlink="http://www.w3.org/1999/xlink" xml:space="preserve" xmlns:serif="http://www.serif.com/" style="fill-rule:evenodd;clip-rule:evenodd;stroke-miterlimit:10;">
    <g transform="matrix(1,0,0,1,13.3166,690.19)">
        <g id="Operation100" transform="matrix(4.16667,0,0,4.16667,-770.653,-1172.16)">
            <g id="body" transform="matrix(1,0,0,1,382.106,216.5)">
                <path d="M0,647.048C-11.004,647.048 -21.258,641.128 -26.759,631.598L-195.706,338.974C-201.208,329.444 -201.208,317.604 -195.706,308.074L-26.759,15.45C-21.257,5.92 -11.004,0 0,0L337.894,0C348.897,0 359.151,5.92 364.654,15.45L533.601,308.074C539.103,317.604 539.103,329.444 533.601,338.974L364.654,631.598C359.151,641.128 348.897,647.048 337.894,647.048L0,647.048Z" style="fill:rgb(64,64,64);fill-rule:nonzero;"/>
            </g>
            <g id="header">
                <g id="map">
                    <g id="background" transform="matrix(1,0,0,1,382.106,216.5)">
                        <path d="M-199.832,323.5C-199.829,318.167 -198.453,312.832 -195.706,308.074L-26.759,15.45C-21.257,5.92 -11.004,0 0,0L337.894,0C348.897,0 359.151,5.92 364.654,15.45L533.601,308.074C536.348,312.832 537.724,318.167 537.727,323.5L-199.832,323.5Z" style="fill:rgb(240,240,240);"/>
                    </g>
                    <g id="forest" transform="matrix(0.24,0,0,0.24,0,0)">
                        <path d="M1845.96,902.083L3000,902.083C3045.85,902.083 3088.57,926.75 3111.5,966.458L3223.44,1160.33L2850.78,1434.9C2821.2,1456.71 2785.87,1469.36 2749.17,1471.3C2684.49,1474.72 2579.45,1480.27 2518.55,1483.49C2487.14,1485.15 2455.83,1478.91 2427.46,1465.34C2329.93,1418.67 2090.32,1304.02 1948.66,1236.23C1881.76,1204.22 1839.92,1135.89 1841.84,1061.75L1845.96,902.083Z" style="fill:rgb(178,217,184);"/>
                    </g>
                    <g id="street" transform="matrix(0.24,0,0,0.24,0,0)">
                        <path d="M932.94,1915.06C1064.12,1917.64 1193.51,1926.94 1320.72,1944.33C1324.18,1944.8 1327.61,1945.51 1330.98,1946.44L1376.47,1959.04L1428.57,1713.21C1431.98,1697.16 1436.85,1681.45 1443.13,1666.29C1450.44,1648.68 1460.88,1623.48 1470.49,1600.32C1486.46,1561.79 1513.02,1528.58 1547.09,1504.53C1547.09,1504.53 1547.09,1504.53 1547.09,1504.53C1600.1,1467.12 1663.75,1447.8 1728.6,1449.44C1877.18,1453.21 2145.68,1460.01 2208.22,1461.59C2216.98,1461.82 2225.62,1463.73 2233.66,1467.22C2238.37,1469.27 2244.12,1471.77 2250.34,1474.48C2285.73,1489.87 2305.64,1527.81 2298.19,1565.68C2298.19,1565.68 2298.19,1565.68 2298.19,1565.68C2297.44,1569.52 2295.91,1573.16 2293.71,1576.39C2282.17,1593.31 2243.45,1650.1 2220.74,1683.4C2216.3,1689.9 2214.72,1697.94 2216.35,1705.65C2217.99,1713.35 2222.7,1720.05 2229.4,1724.2C2256.78,1741.15 2299.82,1767.79 2326.52,1784.32C2332.66,1788.12 2336.93,1794.32 2338.26,1801.42C2339.6,1808.52 2337.89,1815.85 2333.56,1821.63C2333.56,1821.63 2333.56,1821.63 2333.56,1821.63C2329.45,1827.09 2321.91,1828.62 2316.01,1825.19C2295.07,1813 2247.75,1785.49 2225.16,1772.34C2216.89,1767.53 2209.25,1761.7 2202.43,1754.98C2196.47,1749.11 2188.61,1741.38 2180.81,1733.7C2163.5,1716.65 2162.13,1689.17 2177.66,1670.49C2194.23,1650.56 2214.66,1625.98 2228.11,1609.8C2237.51,1598.49 2243.39,1584.67 2245.01,1570.05C2245.01,1570.05 2245.01,1570.05 2245.01,1570.05C2247.99,1543.27 2233.41,1517.61 2208.88,1506.46C2207.52,1505.84 2206.16,1505.23 2204.82,1504.62C2184.88,1495.55 2163.26,1490.78 2141.36,1490.61L2044.18,1489.84C2044.54,1661.28 2037.08,1831.53 2022.6,2000.68C2129.3,2004.78 2236.37,2008.72 2343.66,2013.15C2363.78,1994.88 2383.88,1976.34 2403.94,1957.47C2421.41,1940.98 2437.46,1923.04 2451.92,1903.86C2469.98,1879.97 2496.45,1844.86 2518.97,1814.99C2546.48,1778.49 2556.15,1731.56 2545.31,1687.16C2530.62,1626.97 2511.8,1549.87 2511.8,1549.87L2602.69,1597.75C2602.69,1597.75 2607.02,1640.94 2610.15,1672.18C2610.67,1677.35 2614.28,1681.67 2619.26,1683.11C2624.25,1684.54 2629.61,1682.8 2632.79,1678.7C2644.46,1663.66 2657.07,1647.43 2657.07,1647.43L2734.09,1739.67C2587.58,1887.19 2445.55,2019.22 2308.76,2142.37C2448.48,2178.89 2597.6,2192.62 2755.73,2184.53L2743.64,2250L2630.37,2250C2503.94,2244.2 2379.02,2223.89 2255.48,2190.14C2232.89,2210.31 2210.46,2230.26 2188.19,2250L2074.81,2250C2147.14,2185.79 2221.11,2122.6 2295.28,2056.62C2181.63,2055.58 2067.48,2052.83 1952.84,2048.38C1951.18,2059.49 1948.97,2074.29 1946.97,2087.54C1943.6,2110.11 1935.83,2131.8 1924.09,2151.37C1901.83,2188.57 1878.56,2221.75 1854.04,2250L1793.35,2250C1827.49,2213.29 1857,2172.09 1881.06,2125.57C1887.47,2113.17 1892.38,2100.05 1895.66,2086.48L1905.34,2046.44C1742.6,2039.46 1578.85,2029.05 1414.09,2015.19C1412.32,2015.05 1410.56,2014.86 1408.8,2014.62L1382.13,2133.2C1377.63,2153.2 1388.56,2173.47 1407.76,2180.69C1454.56,2198.3 1539.31,2230.17 1588.34,2248.62C1589.4,2249.01 1590.42,2249.48 1591.41,2250L1476.49,2250L1393.62,2216.92C1374.04,2209.1 1351.71,2217.37 1341.95,2236.06L1334.67,2250L1286.48,2250L1321.55,2179.94C1330.88,2161.31 1337.79,2141.56 1342.11,2121.18L1366.86,2004.37C1349.51,1999.7 1330.78,1994.65 1322.18,1992.34C1318.95,1991.47 1315.67,1990.81 1312.36,1990.36C1177.37,1972.08 1042.38,1962.29 907.407,1959.28L932.94,1915.06ZM3546.38,1719.69L3303.59,1843.91C3287.71,1852.03 3272.61,1861.59 3258.46,1872.45C3207.51,1911.59 3080.1,2009.46 3045.45,2036.08C3039.57,2040.6 3033.53,2044.9 3027.35,2048.99C2989.98,2073.7 2852.52,2164.62 2852.52,2164.62L2835.52,2250L2986.81,2250L3144.28,2072.85C3159.11,2056.16 3175.37,2040.79 3192.86,2026.91C3229.59,1997.76 3296.9,1944.34 3342.64,1908.04C3374.34,1882.88 3409.31,1862.15 3446.6,1846.43L3585.69,1787.77L3546.38,1719.69ZM2000.09,1489.49L1736.34,1487.41C1675.21,1486.93 1615.68,1506.92 1567.24,1544.2C1567.24,1544.2 1567.24,1544.2 1567.24,1544.2C1557.77,1551.49 1549.88,1560.63 1544.06,1571.06C1533.38,1590.22 1515.13,1622.93 1501.67,1647.08C1490.36,1667.35 1482.03,1689.14 1476.93,1711.79L1418.79,1970.26C1422.95,1971.01 1427.16,1971.53 1431.39,1971.81C1612.29,1983.88 1795.22,1991.82 1979.4,1999.01C1999.61,1829.17 2008.04,1659.33 2000.09,1489.49ZM3218.6,1151.96C3090.51,1269.25 2963.32,1343.01 2800.78,1438.05C2789.76,1444.49 2778.01,1449.58 2765.77,1453.18C2701.66,1471.99 2584.96,1483.57 2499.74,1465.65L2673.34,1567.12C2688.99,1568.84 2725.79,1564.17 2760.95,1546.99C2762.12,1546.4 2763.53,1546.74 2764.3,1547.79C2765.06,1548.84 2764.96,1550.29 2764.05,1551.21C2748.49,1567.11 2724.15,1591.93 2724.15,1591.93L2783.43,1680.56C2783.43,1680.56 2847.15,1623.54 2881.2,1593.07C2883.22,1591.26 2886.24,1591.12 2888.44,1592.72C2890.63,1594.33 2891.4,1597.26 2890.28,1599.73C2860.87,1667.15 2840.08,1749.14 2839.06,1807.39L2883.05,1969.67C2882.55,1853.63 2893.54,1721.31 2954.15,1604.05C2956.13,1600.22 2958.26,1596.48 2960.53,1592.82C2974.08,1570.87 3031.19,1478.59 3054.68,1440.64C3061.43,1429.74 3069.32,1419.57 3078.21,1410.33L3259.12,1222.14L3218.6,1151.96ZM2360.69,902.083L2301.86,902.083C2127.8,1051.92 1928.97,1205.95 1711.5,1363.14C1706.49,1366.76 1703.13,1372.25 1702.2,1378.36C1701.26,1384.48 1702.81,1390.71 1706.51,1395.67C1706.51,1395.68 1706.52,1395.68 1706.52,1395.68C1712.43,1403.61 1723.63,1405.3 1731.62,1399.47C1951.03,1239.37 2150.83,1068.84 2360.69,902.083Z" style="fill:white;"/>
                    </g>
                    <g id="highway" transform="matrix(0.24,0,0,0.24,0,0)">
                        <path d="M1589.85,902.103C1775.72,1038.66 2147.14,1263.95 2697.22,1574.69C2755.73,1607.73 2798.59,1662.81 2816.25,1727.64C2833.6,1791.32 2855.58,1872.02 2871.3,1929.75C2884.61,1978.62 2886.65,2029.88 2877.25,2079.65L2845.11,2250L2729.23,2250L2763.49,2092.62C2776.03,2035.02 2774.25,1975.22 2758.3,1918.48C2749.51,1887.19 2739.35,1851.06 2729.64,1816.52C2705.29,1729.88 2646.14,1657.2 2566.25,1615.76C2184.28,1417.27 1820.36,1203.16 1478.65,969.864L1480.61,966.458C1503.16,927.405 1544.86,902.901 1589.85,902.103Z" style="fill:rgb(249,227,157);"/>
                    </g>
                </g>
                <g transform="matrix(1,0,0,1,182.502,216.888)">
                    <path d="M0,323.047C0.082,317.794 1.507,312.627 4.136,308.074L173.083,15.449C178.584,5.92 188.838,0 199.842,0L537.736,0C548.741,0 558.994,5.92 564.496,15.449L733.443,308.074C736.071,312.626 737.497,317.793 737.578,323.047L0,323.047Z" style="fill:rgb(64,64,64);fill-opacity:0.75;fill-rule:nonzero;"/>
                </g>
            </g>
            <g id="tags">
                <g transform="matrix(1,0,0,1,707.37,615.361)">
                    <path d="M0,57.843L-99.094,57.843C-115.001,57.843 -128.015,44.828 -128.015,28.922C-128.015,13.015 -115.001,0 -99.094,0L0,0C15.907,0 28.921,13.015 28.921,28.922C28.921,44.828 15.907,57.843 0,57.843Z" style="fill:rgb(244,244,244);fill-rule:nonzero;stroke:rgb(165,164,165);stroke-width:1px;"/>
                </g>
                <g transform="matrix(1,0,0,1,542.433,615.361)">
                    <path d="M0,57.843L-147.221,57.843C-163.127,57.843 -176.142,44.828 -176.142,28.922C-176.142,13.015 -163.127,0 -147.221,0L0,0C15.907,0 28.921,13.015 28.921,28.922C28.921,44.828 15.907,57.843 0,57.843Z" style="fill:rgb(244,244,244);fill-rule:nonzero;stroke:rgb(165,164,165);stroke-width:1px;"/>
                </g>
                <g>
                    <path d="M611.415,655.15L611.415,631.838L618.3,631.838C620.797,631.838 622.692,632.353 623.983,633.383C625.275,634.413 625.921,635.932 625.921,637.938C625.921,639.145 625.593,640.193 624.936,641.085C624.28,641.976 623.38,642.614 622.238,642.998C623.594,643.297 624.685,643.964 625.512,644.999C626.34,646.035 626.753,647.23 626.753,648.586C626.753,650.646 626.089,652.255 624.76,653.413C623.431,654.571 621.582,655.15 619.212,655.15L611.415,655.15ZM613.384,643.943L613.384,653.485L619.292,653.485C620.979,653.485 622.316,653.056 623.303,652.196C624.29,651.337 624.784,650.144 624.784,648.618C624.784,647.177 624.312,646.037 623.367,645.2C622.422,644.362 621.117,643.943 619.452,643.943L613.384,643.943ZM613.384,642.293L618.764,642.293C620.408,642.261 621.681,641.875 622.582,641.133C623.484,640.391 623.935,639.31 623.935,637.89C623.935,636.396 623.468,635.294 622.534,634.584C621.6,633.874 620.189,633.519 618.3,633.519L613.384,633.519L613.384,642.293Z" style="fill:rgb(64,64,64);fill-rule:nonzero;"/>
                    <path d="M639.062,639.46C638.656,639.385 638.224,639.347 637.765,639.347C636.569,639.347 635.558,639.681 634.731,640.348C633.903,641.015 633.314,641.984 632.961,643.254L632.961,655.15L631.056,655.15L631.056,637.826L632.929,637.826L632.961,640.58C633.975,638.531 635.603,637.506 637.845,637.506C638.378,637.506 638.8,637.576 639.11,637.714L639.062,639.46Z" style="fill:rgb(64,64,64);fill-rule:nonzero;"/>
                    <path d="M653.227,652.957C652.074,654.633 650.233,655.471 647.703,655.471C645.857,655.471 644.453,654.934 643.492,653.862C642.532,652.789 642.041,651.201 642.019,649.098L642.019,637.826L643.925,637.826L643.925,648.858C643.925,652.156 645.259,653.805 647.927,653.805C650.703,653.805 652.459,652.658 653.195,650.363L653.195,637.826L655.116,637.826L655.116,655.15L653.259,655.15L653.227,652.957ZM643.973,632.799C643.973,632.436 644.09,632.129 644.325,631.878C644.56,631.627 644.88,631.502 645.286,631.502C645.691,631.502 646.014,631.627 646.254,631.878C646.494,632.129 646.615,632.436 646.615,632.799C646.615,633.151 646.494,633.45 646.254,633.696C646.014,633.941 645.691,634.064 645.286,634.064C644.88,634.064 644.56,633.941 644.325,633.696C644.09,633.45 643.973,633.151 643.973,632.799ZM650.986,632.815C650.986,632.452 651.103,632.145 651.338,631.894C651.573,631.643 651.893,631.518 652.298,631.518C652.704,631.518 653.027,631.643 653.267,631.894C653.507,632.145 653.627,632.452 653.627,632.815C653.627,633.167 653.507,633.466 653.267,633.712C653.027,633.957 652.704,634.08 652.298,634.08C651.893,634.08 651.573,633.957 651.338,633.712C651.103,633.466 650.986,633.167 650.986,632.815Z" style="fill:rgb(64,64,64);fill-rule:nonzero;"/>
                    <path d="M666.496,653.854C667.83,653.854 668.948,653.477 669.85,652.725C670.752,651.972 671.241,650.998 671.315,649.803L673.157,649.803C673.103,650.859 672.772,651.823 672.164,652.693C671.556,653.563 670.747,654.243 669.738,654.734C668.73,655.225 667.649,655.471 666.496,655.471C664.222,655.471 662.421,654.681 661.092,653.101C659.763,651.521 659.099,649.397 659.099,646.729L659.099,646.152C659.099,644.444 659.398,642.934 659.996,641.621C660.593,640.308 661.45,639.294 662.565,638.579C663.681,637.864 664.986,637.506 666.48,637.506C668.38,637.506 669.946,638.072 671.179,639.203C672.412,640.335 673.071,641.824 673.157,643.67L671.315,643.67C671.23,642.315 670.742,641.221 669.85,640.388C668.959,639.556 667.836,639.139 666.48,639.139C664.751,639.139 663.409,639.764 662.453,641.013C661.498,642.261 661.02,644.012 661.02,646.264L661.02,646.825C661.02,649.034 661.498,650.758 662.453,651.996C663.409,653.234 664.756,653.854 666.496,653.854Z" style="fill:rgb(64,64,64);fill-rule:nonzero;"/>
                    <path d="M681.094,646.424L678.9,648.538L678.9,655.15L676.979,655.15L676.979,630.557L678.9,630.557L678.9,646.296L680.71,644.343L687.338,637.826L689.756,637.826L682.407,645.127L690.396,655.15L688.107,655.15L681.094,646.424Z" style="fill:rgb(64,64,64);fill-rule:nonzero;"/>
                    <path d="M699.422,655.471C697.949,655.471 696.618,655.108 695.428,654.382C694.237,653.656 693.311,652.645 692.65,651.348C691.988,650.051 691.657,648.597 691.657,646.985L691.657,646.296C691.657,644.631 691.98,643.131 692.626,641.797C693.271,640.463 694.171,639.414 695.323,638.651C696.476,637.888 697.725,637.506 699.07,637.506C701.173,637.506 702.841,638.224 704.074,639.66C705.306,641.095 705.923,643.057 705.923,645.544L705.923,646.616L693.562,646.616L693.562,646.985C693.562,648.949 694.125,650.585 695.251,651.892C696.378,653.2 697.794,653.854 699.502,653.854C700.527,653.854 701.432,653.667 702.216,653.293C703.001,652.92 703.713,652.322 704.354,651.5L705.555,652.413C704.146,654.451 702.101,655.471 699.422,655.471ZM699.07,639.139C697.629,639.139 696.415,639.668 695.428,640.724C694.44,641.781 693.84,643.201 693.626,644.983L704.017,644.983L704.017,644.775C703.964,643.11 703.489,641.754 702.592,640.708C701.696,639.662 700.522,639.139 699.07,639.139Z" style="fill:rgb(64,64,64);fill-rule:nonzero;"/>
                </g>
                <g>
                    <path d="M415.033,648.618L404.45,648.618L402.048,655.15L399.983,655.15L408.805,631.838L410.678,631.838L419.5,655.15L417.451,655.15L415.033,648.618ZM405.058,646.937L414.409,646.937L409.733,634.24L405.058,646.937Z" style="fill:rgb(64,64,64);fill-rule:nonzero;"/>
                    <path d="M433.446,652.957C432.293,654.633 430.452,655.471 427.922,655.471C426.075,655.471 424.672,654.934 423.711,653.862C422.75,652.789 422.259,651.201 422.238,649.098L422.238,637.826L424.143,637.826L424.143,648.858C424.143,652.156 425.478,653.805 428.146,653.805C430.921,653.805 432.677,652.658 433.414,650.363L433.414,637.826L435.335,637.826L435.335,655.15L433.478,655.15L433.446,652.957Z" style="fill:rgb(64,64,64);fill-rule:nonzero;"/>
                    <path d="M443.293,633.391L443.293,637.826L446.879,637.826L446.879,639.395L443.293,639.395L443.293,650.939C443.293,651.9 443.466,652.615 443.813,653.085C444.16,653.555 444.739,653.789 445.55,653.789C445.87,653.789 446.388,653.736 447.103,653.629L447.183,655.198C446.682,655.38 445.998,655.471 445.134,655.471C443.821,655.471 442.866,655.089 442.268,654.326C441.67,653.563 441.371,652.439 441.371,650.955L441.371,639.395L438.185,639.395L438.185,637.826L441.371,637.826L441.371,633.391L443.293,633.391Z" style="fill:rgb(64,64,64);fill-rule:nonzero;"/>
                    <path d="M449.473,646.232C449.473,644.567 449.796,643.067 450.442,641.733C451.087,640.399 452,639.361 453.179,638.619C454.359,637.877 455.696,637.506 457.19,637.506C459.496,637.506 461.364,638.315 462.794,639.932C464.224,641.549 464.94,643.692 464.94,646.36L464.94,646.761C464.94,648.436 464.617,649.944 463.971,651.284C463.325,652.623 462.415,653.656 461.241,654.382C460.067,655.108 458.727,655.471 457.222,655.471C454.927,655.471 453.062,654.662 451.626,653.045C450.191,651.428 449.473,649.285 449.473,646.616L449.473,646.232ZM451.394,646.761C451.394,648.831 451.931,650.531 453.003,651.86C454.076,653.189 455.482,653.854 457.222,653.854C458.951,653.854 460.352,653.189 461.425,651.86C462.498,650.531 463.034,648.778 463.034,646.6L463.034,646.232C463.034,644.909 462.789,643.697 462.298,642.598C461.807,641.498 461.118,640.647 460.232,640.044C459.346,639.441 458.332,639.139 457.19,639.139C455.482,639.139 454.089,639.809 453.011,641.149C451.933,642.488 451.394,644.242 451.394,646.408L451.394,646.761Z" style="fill:rgb(64,64,64);fill-rule:nonzero;"/>
                    <path d="M482.84,646.665C482.84,649.365 482.242,651.508 481.047,653.093C479.851,654.678 478.245,655.471 476.227,655.471C473.815,655.471 471.99,654.574 470.752,652.781L470.671,655.15L468.878,655.15L468.878,630.557L470.784,630.557L470.784,640.34C472,638.451 473.804,637.506 476.195,637.506C478.245,637.506 479.864,638.288 481.055,639.852C482.245,641.416 482.84,643.59 482.84,646.376L482.84,646.665ZM480.919,646.328C480.919,644.044 480.476,642.28 479.59,641.037C478.704,639.793 477.455,639.171 475.843,639.171C474.616,639.171 473.575,639.473 472.721,640.076C471.867,640.679 471.221,641.562 470.784,642.726L470.784,650.539C471.744,652.717 473.441,653.805 475.875,653.805C477.455,653.805 478.69,653.181 479.582,651.932C480.473,650.683 480.919,648.815 480.919,646.328Z" style="fill:rgb(64,64,64);fill-rule:nonzero;"/>
                    <path d="M498.002,655.15C497.81,654.606 497.687,653.8 497.634,652.733C496.962,653.608 496.105,654.283 495.064,654.758C494.024,655.233 492.921,655.471 491.758,655.471C490.093,655.471 488.745,655.006 487.715,654.078C486.685,653.149 486.17,651.975 486.17,650.555C486.17,648.869 486.872,647.534 488.276,646.552C489.679,645.57 491.635,645.079 494.144,645.079L497.618,645.079L497.618,643.11C497.618,641.872 497.236,640.898 496.473,640.188C495.71,639.478 494.597,639.123 493.135,639.123C491.801,639.123 490.696,639.465 489.821,640.148C488.945,640.831 488.508,641.653 488.508,642.614L486.586,642.598C486.586,641.221 487.227,640.028 488.508,639.019C489.789,638.011 491.363,637.506 493.231,637.506C495.163,637.506 496.687,637.989 497.802,638.955C498.918,639.921 499.491,641.269 499.523,642.998L499.523,651.196C499.523,652.871 499.7,654.126 500.052,654.958L500.052,655.15L498.002,655.15ZM491.982,653.773C493.263,653.773 494.408,653.464 495.417,652.845C496.425,652.226 497.159,651.398 497.618,650.363L497.618,646.552L494.192,646.552C492.281,646.574 490.787,646.923 489.709,647.601C488.631,648.279 488.091,649.21 488.091,650.395C488.091,651.366 488.452,652.172 489.172,652.813C489.893,653.453 490.829,653.773 491.982,653.773Z" style="fill:rgb(64,64,64);fill-rule:nonzero;"/>
                    <path d="M506.536,640.756C507.166,639.721 507.972,638.92 508.954,638.355C509.936,637.789 511.009,637.506 512.172,637.506C514.029,637.506 515.412,638.029 516.319,639.075C517.226,640.121 517.685,641.69 517.696,643.783L517.696,655.15L515.791,655.15L515.791,643.767C515.78,642.219 515.452,641.066 514.806,640.308C514.16,639.55 513.127,639.171 511.708,639.171C510.523,639.171 509.474,639.542 508.562,640.284C507.649,641.026 506.974,642.027 506.536,643.286L506.536,655.15L504.631,655.15L504.631,630.557L506.536,630.557L506.536,640.756Z" style="fill:rgb(64,64,64);fill-rule:nonzero;"/>
                    <path d="M524.453,637.826L524.517,640.788C525.168,639.721 525.979,638.907 526.95,638.347C527.922,637.786 528.994,637.506 530.168,637.506C532.026,637.506 533.408,638.029 534.315,639.075C535.223,640.121 535.682,641.69 535.692,643.783L535.692,655.15L533.787,655.15L533.787,643.767C533.776,642.219 533.448,641.066 532.802,640.308C532.157,639.55 531.124,639.171 529.704,639.171C528.519,639.171 527.471,639.542 526.558,640.284C525.645,641.026 524.97,642.027 524.533,643.286L524.533,655.15L522.627,655.15L522.627,637.826L524.453,637.826Z" style="fill:rgb(64,64,64);fill-rule:nonzero;"/>
                </g>
            </g>
            <g transform="matrix(0.868561,0,0,1,172.284,-7.26973)">
                <path d="M520.974,826.716L524.302,826.716C525.981,826.703 527.311,826.326 528.293,825.584C529.275,824.841 529.766,823.767 529.766,822.361C529.766,821.007 529.358,819.955 528.541,819.207C527.724,818.458 526.476,818.084 524.797,818.084C523.328,818.084 522.121,818.452 521.176,819.187C520.232,819.923 519.76,820.883 519.76,822.068L514.295,822.068C514.295,820.61 514.741,819.282 515.633,818.084C516.525,816.886 517.77,815.952 519.366,815.281C520.963,814.61 522.75,814.275 524.729,814.275C527.997,814.275 530.565,814.988 532.431,816.414C534.297,817.84 535.231,819.822 535.231,822.361C535.231,823.637 534.762,824.838 533.825,825.965C532.888,827.091 531.678,827.94 530.194,828.513C531.993,829.047 533.36,829.887 534.297,831.033C535.234,832.179 535.703,833.546 535.703,835.134C535.703,837.687 534.695,839.718 532.678,841.228C530.662,842.739 528.012,843.494 524.729,843.494C521.581,843.494 519.003,842.765 516.994,841.306C514.985,839.848 513.981,837.908 513.981,835.486L519.445,835.486C519.445,836.736 519.928,837.752 520.895,838.533C521.862,839.314 523.163,839.705 524.797,839.705C526.491,839.705 527.825,839.314 528.799,838.533C529.774,837.752 530.261,836.619 530.261,835.134C530.261,833.637 529.751,832.485 528.732,831.677C527.713,830.87 526.198,830.466 524.19,830.466L520.974,830.466L520.974,826.716Z" style="fill:rgb(244,244,244);fill-rule:nonzero;"/>
            </g>
            <g id="objects" transform="matrix(1.5,0,0,1.5,568.916,804.133)">
                <rect x="2" y="7" width="7" height="15" style="fill:rgb(244,244,244);fill-rule:nonzero;"/>
                <rect x="9" y="2" width="13" height="20" style="fill:rgb(244,244,244);fill-rule:nonzero;"/>
                <rect x="12" y="6" width="2" height="1" style="fill:rgb(128,128,128);fill-rule:nonzero;stroke:rgb(128,128,128);stroke-width:1px;stroke-linecap:round;stroke-miterlimit:4;"/>
                <rect x="17" y="6" width="2" height="1" style="fill:rgb(128,128,128);fill-rule:nonzero;stroke:rgb(128,128,128);stroke-width:1px;stroke-linecap:round;stroke-miterlimit:4;"/>
                <rect x="12" y="14" width="2" height="1" style="fill:rgb(128,128,128);fill-rule:nonzero;stroke:rgb(128,128,128);stroke-width:1px;stroke-linecap:round;stroke-miterlimit:4;"/>
                <rect x="17" y="14" width="2" height="1" style="fill:rgb(128,128,128);fill-rule:nonzero;stroke:rgb(128,128,128);stroke-width:1px;stroke-linecap:round;stroke-miterlimit:4;"/>
                <rect x="12" y="10" width="2" height="1" style="fill:rgb(128,128,128);fill-rule:nonzero;stroke:rgb(128,128,128);stroke-width:1px;stroke-linecap:round;stroke-miterlimit:4;"/>
                <rect x="17" y="10" width="2" height="1" style="fill:rgb(128,128,128);fill-rule:nonzero;stroke:rgb(128,128,128);stroke-width:1px;stroke-linecap:round;stroke-miterlimit:4;"/>
                <rect x="12" y="18" width="2" height="1" style="fill:rgb(128,128,128);fill-rule:nonzero;stroke:rgb(128,128,128);stroke-width:1px;stroke-linecap:round;stroke-miterlimit:4;"/>
                <rect x="17" y="18" width="2" height="1" style="fill:rgb(128,128,128);fill-rule:nonzero;stroke:rgb(128,128,128);stroke-width:1px;stroke-linecap:round;stroke-miterlimit:4;"/>
                <rect x="5" y="14" width="1" height="1" style="fill:rgb(128,128,128);fill-rule:nonzero;stroke:rgb(128,128,128);stroke-width:1px;stroke-linecap:round;stroke-miterlimit:4;"/>
                <rect x="5" y="10" width="1" height="1" style="fill:rgb(128,128,128);fill-rule:nonzero;stroke:rgb(128,128,128);stroke-width:1px;stroke-linecap:round;stroke-miterlimit:4;"/>
                <rect x="5" y="18" width="1" height="1" style="fill:rgb(128,128,128);fill-rule:nonzero;stroke:rgb(128,128,128);stroke-width:1px;stroke-linecap:round;stroke-miterlimit:4;"/>
            </g>
            <g transform="matrix(0.868561,0,0,1,62.7556,-7.26973)">
                <path d="M536.67,843.103L514.655,843.103L514.655,839.841L525.561,829.509C527.135,827.986 528.256,826.713 528.923,825.691C529.59,824.669 529.924,823.644 529.924,822.615C529.924,821.261 529.485,820.167 528.608,819.334C527.731,818.5 526.551,818.084 525.067,818.084C523.298,818.084 521.926,818.552 520.951,819.49C519.977,820.427 519.49,821.71 519.49,823.338L514.025,823.338C514.025,821.606 514.479,820.047 515.386,818.66C516.293,817.273 517.59,816.196 519.276,815.427C520.963,814.659 522.908,814.275 525.112,814.275C528.29,814.275 530.797,814.968 532.633,816.355C534.47,817.742 535.388,819.659 535.388,822.107C535.388,823.526 534.927,825.014 534.005,826.57C533.083,828.126 531.573,829.894 529.474,831.873L521.469,839.314L536.67,839.314L536.67,843.103Z" style="fill:rgb(244,244,244);fill-rule:nonzero;"/>
            </g>
            <g id="persons" transform="matrix(1.5,0,0,1.5,457.94,804.133)">
                <path d="M12,12C6.48,12 2,16.48 2,22L22,22C22,16.48 17.52,12 12,12Z" style="fill:rgb(244,244,244);fill-rule:nonzero;"/>
                <path d="M12,12C14.761,12 17,9.761 17,7C17,4.239 14.761,2 12,2C9.239,2 7,4.239 7,7C7,9.761 9.239,12 12,12Z" style="fill:rgb(244,244,244);fill-rule:nonzero;"/>
            </g>
            <g id="label">
                <g transform="matrix(1,0,0,1,727.909,492.869)">
                    <path d="M0,92.828L-353.235,92.828C-378.763,92.828 -399.649,71.942 -399.649,46.414C-399.649,20.886 -378.763,0 -353.235,0L0,0C25.528,0 46.414,20.886 46.414,46.414C46.414,71.942 25.528,92.828 0,92.828Z" style="fill:rgb(229,115,115);fill-rule:nonzero;stroke:rgb(165,164,165);stroke-width:1px;"/>
                </g>
                <g transform="matrix(1.70444,0,0,1.7744,-397.284,-424.95)">
                    <path d="M477.992,552.449L485.619,531.298L489.47,531.298L479.569,556.94L476.452,556.94L466.57,531.298L470.402,531.298L477.992,552.449Z" style="fill:white;fill-rule:nonzero;"/>
                    <path d="M511.836,531.298L511.836,548.733C511.824,551.152 511.032,553.13 509.462,554.668C507.891,556.206 505.761,557.069 503.072,557.257L502.137,557.292C499.216,557.292 496.887,556.535 495.152,555.021C493.416,553.506 492.536,551.422 492.511,548.768L492.511,531.298L495.995,531.298L495.995,548.663C495.995,550.518 496.527,551.959 497.59,552.986C498.654,554.014 500.169,554.527 502.137,554.527C504.129,554.527 505.654,554.017 506.712,552.995C507.769,551.974 508.297,550.535 508.297,548.68L508.297,531.298L511.836,531.298Z" style="fill:white;fill-rule:nonzero;"/>
                    <path d="M534.555,545.51C531.536,544.677 529.339,543.652 527.964,542.437C526.589,541.222 525.901,539.722 525.901,537.937C525.901,535.918 526.742,534.248 528.422,532.927C530.103,531.606 532.288,530.945 534.977,530.945C536.81,530.945 538.445,531.286 539.881,531.967C541.318,532.648 542.43,533.587 543.218,534.785C544.007,535.982 544.401,537.292 544.401,538.712L540.862,538.712C540.862,537.162 540.349,535.944 539.322,535.058C538.295,534.171 536.847,533.728 534.977,533.728C533.241,533.728 531.887,534.095 530.916,534.829C529.944,535.563 529.458,536.581 529.458,537.884C529.458,538.929 529.92,539.813 530.842,540.535C531.765,541.257 533.336,541.918 535.554,542.516C537.773,543.115 539.509,543.776 540.761,544.498C542.014,545.22 542.943,546.062 543.548,547.025C544.153,547.988 544.456,549.121 544.456,550.424C544.456,552.502 543.612,554.166 541.926,555.417C540.239,556.667 537.984,557.292 535.16,557.292C533.327,557.292 531.616,556.955 530.027,556.28C528.438,555.605 527.212,554.68 526.35,553.506C525.489,552.332 525.058,550.999 525.058,549.508L528.596,549.508C528.596,551.058 529.192,552.282 530.384,553.18C531.576,554.078 533.168,554.527 535.16,554.527C537.018,554.527 538.442,554.163 539.432,553.436C540.422,552.708 540.917,551.715 540.917,550.459C540.917,549.203 540.459,548.231 539.542,547.544C538.625,546.858 536.963,546.18 534.555,545.51Z" style="fill:white;fill-rule:nonzero;"/>
                    <path d="M556.39,554.633C557.6,554.633 558.657,554.281 559.562,553.576C560.466,552.872 560.967,551.991 561.065,550.935L564.274,550.935C564.212,552.027 563.821,553.066 563.1,554.052C562.379,555.038 561.416,555.825 560.212,556.412C559.009,556.999 557.734,557.292 556.39,557.292C553.688,557.292 551.54,556.427 549.945,554.695C548.35,552.963 547.553,550.594 547.553,547.588L547.553,547.043C547.553,545.187 547.907,543.538 548.616,542.094C549.325,540.65 550.342,539.528 551.669,538.73C552.995,537.931 554.562,537.532 556.371,537.532C558.596,537.532 560.445,538.172 561.918,539.452C563.39,540.732 564.176,542.393 564.274,544.436L561.065,544.436C560.967,543.203 560.481,542.191 559.607,541.398C558.733,540.605 557.655,540.209 556.371,540.209C554.648,540.209 553.313,540.805 552.365,541.997C551.418,543.189 550.944,544.912 550.944,547.166L550.944,547.782C550.944,549.978 551.415,551.669 552.356,552.854C553.297,554.04 554.642,554.633 556.39,554.633Z" style="fill:white;fill-rule:nonzero;"/>
                    <path d="M571.477,540.192C572.981,538.419 574.936,537.532 577.344,537.532C581.537,537.532 583.651,539.804 583.688,544.348L583.688,556.94L580.296,556.94L580.296,544.33C580.284,542.957 579.957,541.941 579.315,541.284C578.674,540.626 577.674,540.297 576.318,540.297C575.217,540.297 574.252,540.579 573.421,541.143C572.59,541.706 571.942,542.446 571.477,543.362L571.477,556.94L568.085,556.94L568.085,529.889L571.477,529.889L571.477,540.192Z" style="fill:white;fill-rule:nonzero;"/>
                    <path d="M606.329,552.449L610.143,537.884L613.535,537.884L607.759,556.94L605.009,556.94L600.187,542.499L595.494,556.94L592.743,556.94L586.986,537.884L590.36,537.884L594.265,552.15L598.885,537.884L601.617,537.884L606.329,552.449Z" style="fill:white;fill-rule:nonzero;"/>
                    <path d="M625.212,557.292C622.523,557.292 620.335,556.444 618.648,554.748C616.961,553.051 616.118,550.782 616.118,547.941L616.118,547.342C616.118,545.452 616.494,543.764 617.246,542.279C617.997,540.793 619.049,539.631 620.399,538.791C621.75,537.952 623.214,537.532 624.79,537.532C627.369,537.532 629.374,538.348 630.804,539.98C632.234,541.612 632.949,543.949 632.949,546.99L632.949,548.346L619.51,548.346C619.559,550.224 620.13,551.742 621.224,552.898C622.318,554.055 623.709,554.633 625.395,554.633C626.593,554.633 627.608,554.398 628.439,553.929C629.27,553.459 629.997,552.837 630.621,552.062L632.692,553.612C631.03,556.066 628.537,557.292 625.212,557.292ZM624.79,540.209C623.421,540.209 622.272,540.688 621.343,541.645C620.414,542.601 619.84,543.943 619.62,545.669L629.557,545.669L629.557,545.422C629.46,543.767 628.995,542.484 628.164,541.574C627.333,540.664 626.208,540.209 624.79,540.209Z" style="fill:white;fill-rule:nonzero;"/>
                    <path d="M646.46,540.808C645.947,540.726 645.39,540.685 644.791,540.685C642.567,540.685 641.057,541.595 640.263,543.415L640.263,556.94L636.871,556.94L636.871,537.884L640.171,537.884L640.226,540.086C641.338,538.383 642.915,537.532 644.956,537.532C645.617,537.532 646.118,537.614 646.46,537.779L646.46,540.808Z" style="fill:white;fill-rule:nonzero;"/>
                </g>
            </g>
            <g id="location">
                <path d="M411.507,360.739L408.865,363.541L408.865,370.81L404.814,370.81L404.814,347.497L408.865,347.497L408.865,358.433L411.107,355.663L417.928,347.497L422.827,347.497L414.165,357.825L423.323,370.81L418.52,370.81L411.507,360.739Z" style="fill:white;fill-rule:nonzero;"/>
                <path d="M435.455,370.81C435.285,370.479 435.135,369.94 435.007,369.192C433.769,370.484 432.253,371.13 430.46,371.13C428.72,371.13 427.3,370.633 426.201,369.641C425.102,368.648 424.552,367.421 424.552,365.958C424.552,364.112 425.238,362.695 426.609,361.707C427.981,360.72 429.942,360.226 432.493,360.226L434.879,360.226L434.879,359.089C434.879,358.193 434.628,357.475 434.127,356.936C433.625,356.397 432.862,356.127 431.837,356.127C430.951,356.127 430.225,356.349 429.659,356.792C429.094,357.235 428.811,357.798 428.811,358.481L424.92,358.481C424.92,357.531 425.235,356.642 425.865,355.815C426.495,354.988 427.351,354.34 428.435,353.87C429.518,353.4 430.727,353.165 432.061,353.165C434.089,353.165 435.706,353.675 436.912,354.694C438.119,355.714 438.738,357.147 438.77,358.993L438.77,366.807C438.77,368.365 438.989,369.609 439.426,370.537L439.426,370.81L435.455,370.81ZM431.18,368.008C431.949,368.008 432.672,367.821 433.35,367.447C434.028,367.074 434.537,366.572 434.879,365.942L434.879,362.676L432.782,362.676C431.341,362.676 430.257,362.927 429.531,363.428C428.805,363.93 428.443,364.64 428.443,365.558C428.443,366.305 428.691,366.9 429.187,367.343C429.683,367.786 430.348,368.008 431.18,368.008Z" style="fill:white;fill-rule:nonzero;"/>
                <path d="M446.979,370.81L443.089,370.81L443.089,353.486L446.979,353.486L446.979,370.81ZM442.848,348.986C442.848,348.389 443.038,347.892 443.417,347.497C443.796,347.103 444.337,346.905 445.042,346.905C445.746,346.905 446.291,347.103 446.675,347.497C447.059,347.892 447.251,348.389 447.251,348.986C447.251,349.574 447.059,350.062 446.675,350.452C446.291,350.841 445.746,351.036 445.042,351.036C444.337,351.036 443.796,350.841 443.417,350.452C443.038,350.062 442.848,349.574 442.848,348.986Z" style="fill:white;fill-rule:nonzero;"/>
                <path d="M460.921,366.102C460.921,365.409 460.635,364.88 460.064,364.517C459.493,364.154 458.546,363.834 457.222,363.557C455.898,363.279 454.794,362.927 453.908,362.5C451.965,361.561 450.994,360.2 450.994,358.417C450.994,356.923 451.624,355.674 452.883,354.67C454.143,353.667 455.744,353.165 457.686,353.165C459.757,353.165 461.43,353.678 462.706,354.702C463.981,355.727 464.619,357.056 464.619,358.689L460.728,358.689C460.728,357.942 460.451,357.32 459.896,356.824C459.341,356.328 458.604,356.079 457.686,356.079C456.832,356.079 456.136,356.277 455.597,356.672C455.058,357.067 454.788,357.595 454.788,358.257C454.788,358.855 455.039,359.319 455.541,359.65C456.043,359.981 457.057,360.314 458.583,360.651C460.109,360.987 461.308,361.387 462.177,361.851C463.047,362.316 463.693,362.873 464.115,363.525C464.536,364.176 464.747,364.966 464.747,365.894C464.747,367.453 464.101,368.715 462.81,369.681C461.518,370.647 459.827,371.13 457.734,371.13C456.315,371.13 455.05,370.874 453.94,370.361C452.83,369.849 451.965,369.144 451.346,368.248C450.727,367.351 450.417,366.385 450.417,365.35L454.196,365.35C454.249,366.268 454.596,366.975 455.237,367.471C455.877,367.968 456.726,368.216 457.782,368.216C458.807,368.216 459.586,368.021 460.12,367.631C460.654,367.242 460.921,366.732 460.921,366.102Z" style="fill:white;fill-rule:nonzero;"/>
                <path d="M475.759,371.13C473.293,371.13 471.294,370.353 469.763,368.8C468.231,367.247 467.465,365.179 467.465,362.596L467.465,362.116C467.465,360.386 467.799,358.841 468.466,357.48C469.133,356.119 470.069,355.06 471.276,354.302C472.482,353.544 473.827,353.165 475.31,353.165C477.669,353.165 479.492,353.918 480.778,355.423C482.064,356.928 482.707,359.057 482.707,361.811L482.707,363.38L471.388,363.38C471.505,364.811 471.983,365.942 472.821,366.775C473.659,367.607 474.713,368.024 475.983,368.024C477.765,368.024 479.217,367.303 480.338,365.862L482.435,367.864C481.741,368.899 480.816,369.702 479.657,370.273C478.499,370.844 477.2,371.13 475.759,371.13ZM475.294,356.288C474.227,356.288 473.365,356.661 472.709,357.408C472.052,358.156 471.633,359.196 471.452,360.53L478.865,360.53L478.865,360.242C478.779,358.94 478.433,357.955 477.824,357.288C477.216,356.621 476.372,356.288 475.294,356.288Z" style="fill:white;fill-rule:nonzero;"/>
                <path d="M494.792,357.04C494.279,356.955 493.751,356.912 493.207,356.912C491.424,356.912 490.223,357.595 489.604,358.961L489.604,370.81L485.713,370.81L485.713,353.486L489.428,353.486L489.524,355.423C490.463,353.918 491.766,353.165 493.431,353.165C493.986,353.165 494.445,353.24 494.808,353.39L494.792,357.04Z" style="fill:white;fill-rule:nonzero;"/>
                <path d="M512.736,365.446L515.49,353.486L519.284,353.486L514.561,370.81L511.359,370.81L507.644,358.913L503.994,370.81L500.792,370.81L496.052,353.486L499.847,353.486L502.649,365.318L506.203,353.486L509.133,353.486L512.736,365.446Z" style="fill:white;fill-rule:nonzero;"/>
                <path d="M521.153,361.987C521.153,360.29 521.49,358.761 522.162,357.4C522.835,356.039 523.779,354.993 524.996,354.262C526.213,353.531 527.611,353.165 529.191,353.165C531.529,353.165 533.426,353.918 534.883,355.423C536.34,356.928 537.127,358.924 537.245,361.411L537.261,362.324C537.261,364.032 536.932,365.558 536.276,366.903C535.619,368.248 534.68,369.289 533.458,370.025C532.236,370.762 530.824,371.13 529.223,371.13C526.779,371.13 524.823,370.316 523.355,368.688C521.887,367.06 521.153,364.891 521.153,362.18L521.153,361.987ZM525.044,362.324C525.044,364.106 525.412,365.502 526.149,366.511C526.885,367.519 527.91,368.024 529.223,368.024C530.536,368.024 531.558,367.511 532.289,366.487C533.02,365.462 533.386,363.962 533.386,361.987C533.386,360.237 533.01,358.849 532.257,357.825C531.505,356.8 530.483,356.288 529.191,356.288C527.921,356.288 526.912,356.792 526.165,357.801C525.418,358.809 525.044,360.317 525.044,362.324ZM523.443,348.938C523.443,348.405 523.622,347.956 523.979,347.594C524.337,347.231 524.831,347.049 525.46,347.049C526.09,347.049 526.587,347.231 526.949,347.594C527.312,347.956 527.494,348.405 527.494,348.938C527.494,349.472 527.312,349.92 526.949,350.283C526.587,350.646 526.09,350.828 525.46,350.828C524.831,350.828 524.337,350.646 523.979,350.283C523.622,349.92 523.443,349.472 523.443,348.938ZM530.76,348.954C530.76,348.421 530.939,347.972 531.296,347.61C531.654,347.247 532.148,347.065 532.778,347.065C533.407,347.065 533.904,347.247 534.267,347.61C534.629,347.972 534.811,348.421 534.811,348.954C534.811,349.488 534.629,349.936 534.267,350.299C533.904,350.662 533.407,350.844 532.778,350.844C532.148,350.844 531.654,350.662 531.296,350.299C530.939,349.936 530.76,349.488 530.76,348.954Z" style="fill:white;fill-rule:nonzero;"/>
                <path d="M549.617,357.04C549.105,356.955 548.576,356.912 548.032,356.912C546.249,356.912 545.048,357.595 544.429,358.961L544.429,370.81L540.539,370.81L540.539,353.486L544.253,353.486L544.349,355.423C545.289,353.918 546.591,353.165 548.256,353.165C548.811,353.165 549.27,353.24 549.633,353.39L549.617,357.04Z" style="fill:white;fill-rule:nonzero;"/>
                <path d="M557.746,349.275L557.746,353.486L560.804,353.486L560.804,356.368L557.746,356.368L557.746,366.038C557.746,366.7 557.877,367.178 558.139,367.471C558.4,367.765 558.867,367.912 559.54,367.912C559.988,367.912 560.442,367.858 560.901,367.751L560.901,370.762C560.015,371.007 559.161,371.13 558.339,371.13C555.35,371.13 553.856,369.481 553.856,366.182L553.856,356.368L551.006,356.368L551.006,353.486L553.856,353.486L553.856,349.275L557.746,349.275Z" style="fill:white;fill-rule:nonzero;"/>
                <path d="M567.605,355.375C568.875,353.902 570.482,353.165 572.424,353.165C576.118,353.165 577.991,355.274 578.044,359.49L578.044,370.81L574.153,370.81L574.153,359.634C574.153,358.438 573.895,357.592 573.377,357.096C572.859,356.6 572.099,356.352 571.095,356.352C569.537,356.352 568.373,357.045 567.605,358.433L567.605,370.81L563.714,370.81L563.714,346.217L567.605,346.217L567.605,355.375Z" style="fill:white;fill-rule:nonzero;"/>
                <path d="M581.242,362.02C581.242,359.351 581.861,357.208 583.099,355.591C584.338,353.974 585.997,353.165 588.079,353.165C589.915,353.165 591.399,353.806 592.53,355.087L592.53,346.217L596.421,346.217L596.421,370.81L592.898,370.81L592.706,369.016C591.543,370.425 589.99,371.13 588.047,371.13C586.019,371.13 584.378,370.313 583.123,368.68C581.869,367.047 581.242,364.827 581.242,362.02ZM585.133,362.356C585.133,364.117 585.472,365.491 586.15,366.479C586.827,367.466 587.791,367.96 589.04,367.96C590.63,367.96 591.793,367.25 592.53,365.83L592.53,358.433C591.815,357.045 590.662,356.352 589.072,356.352C587.812,356.352 586.841,356.851 586.158,357.849C585.474,358.847 585.133,360.349 585.133,362.356Z" style="fill:white;fill-rule:nonzero;"/>
                <path d="M610.826,370.81C610.656,370.479 610.506,369.94 610.378,369.192C609.14,370.484 607.624,371.13 605.831,371.13C604.091,371.13 602.671,370.633 601.572,369.641C600.473,368.648 599.923,367.421 599.923,365.958C599.923,364.112 600.609,362.695 601.98,361.707C603.352,360.72 605.313,360.226 607.864,360.226L610.25,360.226L610.25,359.089C610.25,358.193 609.999,357.475 609.498,356.936C608.996,356.397 608.233,356.127 607.208,356.127C606.322,356.127 605.596,356.349 605.03,356.792C604.465,357.235 604.182,357.798 604.182,358.481L600.291,358.481C600.291,357.531 600.606,356.642 601.236,355.815C601.866,354.988 602.722,354.34 603.806,353.87C604.889,353.4 606.098,353.165 607.432,353.165C609.46,353.165 611.077,353.675 612.283,354.694C613.49,355.714 614.109,357.147 614.141,358.993L614.141,366.807C614.141,368.365 614.36,369.609 614.797,370.537L614.797,370.81L610.826,370.81ZM606.551,368.008C607.32,368.008 608.043,367.821 608.721,367.447C609.399,367.074 609.908,366.572 610.25,365.942L610.25,362.676L608.153,362.676C606.712,362.676 605.628,362.927 604.902,363.428C604.177,363.93 603.814,364.64 603.814,365.558C603.814,366.305 604.062,366.9 604.558,367.343C605.054,367.786 605.719,368.008 606.551,368.008Z" style="fill:white;fill-rule:nonzero;"/>
                <path d="M621.87,353.486L621.982,355.295C623.199,353.875 624.864,353.165 626.977,353.165C629.294,353.165 630.879,354.051 631.733,355.823C632.992,354.051 634.764,353.165 637.048,353.165C638.959,353.165 640.381,353.694 641.315,354.75C642.249,355.807 642.727,357.366 642.748,359.426L642.748,370.81L638.858,370.81L638.858,359.538C638.858,358.438 638.617,357.632 638.137,357.12C637.657,356.608 636.862,356.352 635.751,356.352C634.866,356.352 634.142,356.589 633.582,357.064C633.022,357.539 632.629,358.161 632.405,358.929L632.421,370.81L628.53,370.81L628.53,359.41C628.477,357.371 627.436,356.352 625.408,356.352C623.85,356.352 622.745,356.987 622.094,358.257L622.094,370.81L618.203,370.81L618.203,353.486L621.87,353.486Z" style="fill:white;fill-rule:nonzero;"/>
                <path d="M650.397,353.486L650.509,355.295C651.726,353.875 653.391,353.165 655.505,353.165C657.821,353.165 659.406,354.051 660.26,355.823C661.52,354.051 663.292,353.165 665.576,353.165C667.487,353.165 668.909,353.694 669.843,354.75C670.777,355.807 671.255,357.366 671.276,359.426L671.276,370.81L667.385,370.81L667.385,359.538C667.385,358.438 667.145,357.632 666.665,357.12C666.184,356.608 665.389,356.352 664.279,356.352C663.393,356.352 662.67,356.589 662.11,357.064C661.549,357.539 661.157,358.161 660.933,358.929L660.949,370.81L657.058,370.81L657.058,359.41C657.005,357.371 655.964,356.352 653.936,356.352C652.377,356.352 651.273,356.987 650.622,358.257L650.622,370.81L646.731,370.81L646.731,353.486L650.397,353.486Z" style="fill:white;fill-rule:nonzero;"/>
                <path d="M693.715,370.81L689.84,370.81L689.84,352.093L684.124,354.046L684.124,350.764L693.219,347.417L693.715,347.417L693.715,370.81Z" style="fill:white;fill-rule:nonzero;"/>
                <path d="M338.974,386.736L338.974,389.954L338.494,389.954C336.316,389.986 334.576,390.584 333.274,391.748C331.972,392.911 331.198,394.56 330.952,396.695C332.201,395.382 333.797,394.726 335.74,394.726C337.8,394.726 339.425,395.451 340.615,396.903C341.805,398.355 342.4,400.228 342.4,402.523C342.4,404.893 341.704,406.811 340.311,408.279C338.918,409.747 337.09,410.481 334.827,410.481C332.5,410.481 330.613,409.621 329.167,407.903C327.721,406.184 326.998,403.932 326.998,401.146L326.998,399.817C326.998,395.729 327.993,392.527 329.984,390.21C331.974,387.894 334.838,386.736 338.574,386.736L338.974,386.736ZM334.795,397.864C333.941,397.864 333.159,398.104 332.449,398.584C331.74,399.065 331.219,399.705 330.888,400.506L330.888,401.69C330.888,403.42 331.251,404.794 331.977,405.813C332.703,406.833 333.642,407.342 334.795,407.342C335.948,407.342 336.86,406.91 337.533,406.045C338.205,405.181 338.542,404.044 338.542,402.635C338.542,401.226 338.2,400.079 337.517,399.193C336.834,398.307 335.926,397.864 334.795,397.864Z" style="fill:white;fill-rule:nonzero;"/>
                <path d="M361.017,389.01L351.699,410.16L347.616,410.16L356.918,389.97L344.862,389.97L344.862,386.848L361.017,386.848L361.017,389.01Z" style="fill:white;fill-rule:nonzero;"/>
                <path d="M379.33,400.346C379.33,403.697 378.703,406.224 377.449,407.927C376.195,409.629 374.287,410.481 371.725,410.481C369.206,410.481 367.309,409.651 366.033,407.991C364.757,406.331 364.104,403.873 364.072,400.618L364.072,396.583C364.072,393.231 364.699,390.718 365.953,389.042C367.207,387.366 369.12,386.528 371.693,386.528C374.244,386.528 376.147,387.345 377.401,388.978C378.655,390.611 379.298,393.055 379.33,396.311L379.33,400.346ZM375.439,395.99C375.439,393.802 375.141,392.199 374.543,391.179C373.945,390.16 372.995,389.65 371.693,389.65C370.423,389.65 369.489,390.133 368.891,391.099C368.293,392.065 367.978,393.573 367.946,395.622L367.946,400.906C367.946,403.083 368.25,404.706 368.859,405.773C369.467,406.841 370.423,407.374 371.725,407.374C372.974,407.374 373.897,406.881 374.495,405.893C375.093,404.906 375.407,403.361 375.439,401.258L375.439,395.99Z" style="fill:white;fill-rule:nonzero;"/>
                <path d="M394.873,386.736L394.873,389.954L394.393,389.954C392.215,389.986 390.475,390.584 389.173,391.748C387.871,392.911 387.097,394.56 386.852,396.695C388.1,395.382 389.696,394.726 391.639,394.726C393.699,394.726 395.324,395.451 396.514,396.903C397.704,398.355 398.299,400.228 398.299,402.523C398.299,404.893 397.603,406.811 396.21,408.279C394.817,409.747 392.989,410.481 390.726,410.481C388.399,410.481 386.513,409.621 385.066,407.903C383.62,406.184 382.897,403.932 382.897,401.146L382.897,399.817C382.897,395.729 383.892,392.527 385.883,390.21C387.874,387.894 390.737,386.736 394.473,386.736L394.873,386.736ZM390.694,397.864C389.84,397.864 389.058,398.104 388.349,398.584C387.639,399.065 387.118,399.705 386.787,400.506L386.787,401.69C386.787,403.42 387.15,404.794 387.876,405.813C388.602,406.833 389.541,407.342 390.694,407.342C391.847,407.342 392.76,406.91 393.432,406.045C394.105,405.181 394.441,404.044 394.441,402.635C394.441,401.226 394.099,400.079 393.416,399.193C392.733,398.307 391.826,397.864 390.694,397.864Z" style="fill:white;fill-rule:nonzero;"/>
                <path d="M402.442,398.6L403.707,386.848L416.228,386.848L416.228,390.21L406.942,390.21L406.301,395.782C407.379,395.163 408.596,394.854 409.952,394.854C412.172,394.854 413.898,395.564 415.131,396.983C416.364,398.403 416.981,400.313 416.981,402.715C416.981,405.085 416.297,406.971 414.931,408.375C413.565,409.779 411.692,410.481 409.311,410.481C407.176,410.481 405.407,409.875 404.004,408.663C402.6,407.452 401.839,405.853 401.722,403.868L405.485,403.868C405.634,404.999 406.04,405.867 406.701,406.47C407.363,407.073 408.228,407.374 409.295,407.374C410.491,407.374 411.422,406.947 412.089,406.093C412.756,405.24 413.09,404.076 413.09,402.603C413.09,401.183 412.722,400.06 411.985,399.233C411.249,398.405 410.235,397.992 408.943,397.992C408.238,397.992 407.641,398.085 407.15,398.272C406.659,398.459 406.125,398.824 405.549,399.369L402.442,398.6Z" style="fill:white;fill-rule:nonzero;"/>
                <path d="M432.872,406.926L443.455,406.926L443.455,410.16L428.821,410.16L428.821,386.848L432.872,386.848L432.872,406.926Z" style="fill:white;fill-rule:nonzero;"/>
                <path d="M456.452,408.463C455.31,409.808 453.688,410.481 451.585,410.481C449.706,410.481 448.284,409.931 447.318,408.831C446.352,407.732 445.869,406.142 445.869,404.06L445.869,392.836L449.76,392.836L449.76,404.012C449.76,406.211 450.672,407.31 452.498,407.31C454.387,407.31 455.662,406.633 456.324,405.277L456.324,392.836L460.215,392.836L460.215,410.16L456.548,410.16L456.452,408.463Z" style="fill:white;fill-rule:nonzero;"/>
                <path d="M463.445,401.37C463.445,398.702 464.064,396.559 465.303,394.942C466.541,393.325 468.201,392.516 470.282,392.516C472.118,392.516 473.602,393.157 474.733,394.437L474.733,385.567L478.624,385.567L478.624,410.16L475.101,410.16L474.909,408.367C473.746,409.776 472.193,410.481 470.25,410.481C468.222,410.481 466.581,409.664 465.327,408.031C464.072,406.398 463.445,404.177 463.445,401.37ZM467.336,401.706C467.336,403.468 467.675,404.842 468.353,405.829C469.031,406.817 469.994,407.31 471.243,407.31C472.833,407.31 473.997,406.601 474.733,405.181L474.733,397.784C474.018,396.396 472.865,395.702 471.275,395.702C470.015,395.702 469.044,396.201 468.361,397.199C467.678,398.197 467.336,399.7 467.336,401.706Z" style="fill:white;fill-rule:nonzero;"/>
                <path d="M497.897,404.797L500.651,392.836L504.446,392.836L499.723,410.16L496.52,410.16L492.806,398.264L489.155,410.16L485.953,410.16L481.214,392.836L485.008,392.836L487.81,404.668L491.365,392.836L494.295,392.836L497.897,404.797Z" style="fill:white;fill-rule:nonzero;"/>
                <path d="M511.183,410.16L507.292,410.16L507.292,392.836L511.183,392.836L511.183,410.16ZM507.052,388.337C507.052,387.739 507.241,387.243 507.62,386.848C507.999,386.453 508.541,386.256 509.245,386.256C509.95,386.256 510.494,386.453 510.878,386.848C511.263,387.243 511.455,387.739 511.455,388.337C511.455,388.924 511.263,389.413 510.878,389.802C510.494,390.192 509.95,390.387 509.245,390.387C508.541,390.387 507.999,390.192 507.62,389.802C507.241,389.413 507.052,388.924 507.052,388.337Z" style="fill:white;fill-rule:nonzero;"/>
                <path d="M514.733,401.37C514.733,398.68 515.366,396.532 516.631,394.926C517.895,393.319 519.574,392.516 521.666,392.516C523.641,392.516 525.194,393.205 526.325,394.582L526.501,392.836L530.008,392.836L530.008,409.632C530.008,411.906 529.301,413.699 527.886,415.012C526.472,416.325 524.564,416.981 522.162,416.981C520.892,416.981 519.651,416.717 518.44,416.188C517.228,415.66 516.308,414.969 515.678,414.115L517.519,411.777C518.715,413.197 520.188,413.907 521.938,413.907C523.23,413.907 524.249,413.557 524.996,412.858C525.744,412.159 526.117,411.132 526.117,409.776L526.117,408.607C524.996,409.856 523.502,410.481 521.634,410.481C519.606,410.481 517.949,409.675 516.663,408.063C515.376,406.451 514.733,404.22 514.733,401.37ZM518.608,401.706C518.608,403.446 518.963,404.815 519.673,405.813C520.383,406.811 521.367,407.31 522.627,407.31C524.196,407.31 525.359,406.638 526.117,405.293L526.117,397.672C525.381,396.359 524.228,395.702 522.659,395.702C521.378,395.702 520.383,396.209 519.673,397.223C518.963,398.237 518.608,399.732 518.608,401.706Z" style="fill:white;fill-rule:nonzero;"/>
                <path d="M543.71,405.453C543.71,404.759 543.424,404.231 542.853,403.868C542.282,403.505 541.335,403.185 540.011,402.907C538.687,402.63 537.583,402.278 536.697,401.851C534.754,400.911 533.783,399.55 533.783,397.768C533.783,396.273 534.412,395.024 535.672,394.021C536.931,393.018 538.533,392.516 540.475,392.516C542.546,392.516 544.219,393.028 545.495,394.053C546.77,395.078 547.408,396.407 547.408,398.04L543.517,398.04C543.517,397.293 543.24,396.671 542.685,396.175C542.13,395.678 541.393,395.43 540.475,395.43C539.621,395.43 538.925,395.628 538.386,396.023C537.847,396.417 537.577,396.946 537.577,397.608C537.577,398.205 537.828,398.67 538.33,399.001C538.831,399.331 539.845,399.665 541.372,400.001C542.898,400.337 544.096,400.738 544.966,401.202C545.836,401.666 546.482,402.224 546.904,402.875C547.325,403.526 547.536,404.316 547.536,405.245C547.536,406.803 546.89,408.066 545.599,409.032C544.307,409.998 542.615,410.481 540.523,410.481C539.104,410.481 537.839,410.224 536.729,409.712C535.619,409.2 534.754,408.495 534.135,407.599C533.516,406.702 533.206,405.736 533.206,404.701L536.985,404.701C537.038,405.618 537.385,406.326 538.026,406.822C538.666,407.318 539.515,407.567 540.571,407.567C541.596,407.567 542.375,407.372 542.909,406.982C543.443,406.592 543.71,406.083 543.71,405.453Z" style="fill:white;fill-rule:nonzero;"/>
                <path d="M554.753,394.726C556.024,393.253 557.63,392.516 559.573,392.516C563.266,392.516 565.139,394.624 565.193,398.84L565.193,410.16L561.302,410.16L561.302,398.985C561.302,397.789 561.043,396.943 560.525,396.447C560.008,395.95 559.247,395.702 558.244,395.702C556.685,395.702 555.522,396.396 554.753,397.784L554.753,410.16L550.863,410.16L550.863,385.567L554.753,385.567L554.753,394.726Z" style="fill:white;fill-rule:nonzero;"/>
                <path d="M579.471,410.16C579.3,409.829 579.15,409.29 579.022,408.543C577.784,409.835 576.268,410.481 574.475,410.481C572.735,410.481 571.316,409.984 570.216,408.991C569.117,407.999 568.567,406.771 568.567,405.309C568.567,403.462 569.253,402.045 570.624,401.058C571.996,400.071 573.957,399.577 576.509,399.577L578.894,399.577L578.894,398.44C578.894,397.544 578.643,396.826 578.142,396.287C577.64,395.748 576.877,395.478 575.852,395.478C574.966,395.478 574.24,395.7 573.675,396.143C573.109,396.586 572.826,397.149 572.826,397.832L568.935,397.832C568.935,396.882 569.25,395.993 569.88,395.166C570.51,394.339 571.366,393.69 572.45,393.221C573.533,392.751 574.742,392.516 576.076,392.516C578.104,392.516 579.721,393.026 580.928,394.045C582.134,395.065 582.753,396.498 582.785,398.344L582.785,406.158C582.785,407.716 583.004,408.959 583.441,409.888L583.441,410.16L579.471,410.16ZM575.196,407.358C575.964,407.358 576.687,407.172 577.365,406.798C578.043,406.424 578.553,405.923 578.894,405.293L578.894,402.027L576.797,402.027C575.356,402.027 574.272,402.278 573.546,402.779C572.821,403.281 572.458,403.991 572.458,404.909C572.458,405.656 572.706,406.251 573.202,406.694C573.699,407.137 574.363,407.358 575.196,407.358Z" style="fill:white;fill-rule:nonzero;"/>
                <path d="M588.225,410.16L588.225,395.718L585.583,395.718L585.583,392.836L588.225,392.836L588.225,391.251C588.225,389.33 588.758,387.846 589.826,386.8C590.893,385.754 592.388,385.231 594.309,385.231C594.992,385.231 595.718,385.327 596.487,385.519L596.39,388.561C595.963,388.476 595.467,388.433 594.901,388.433C593.044,388.433 592.115,389.389 592.115,391.299L592.115,392.836L595.638,392.836L595.638,395.718L592.115,395.718L592.115,410.16L588.225,410.16Z" style="fill:white;fill-rule:nonzero;"/>
                <path d="M605.721,410.481C603.255,410.481 601.257,409.704 599.725,408.151C598.193,406.598 597.427,404.53 597.427,401.947L597.427,401.466C597.427,399.737 597.761,398.192 598.428,396.831C599.095,395.47 600.032,394.411 601.238,393.653C602.444,392.895 603.789,392.516 605.273,392.516C607.632,392.516 609.454,393.269 610.741,394.774C612.027,396.279 612.67,398.408 612.67,401.162L612.67,402.731L601.35,402.731C601.467,404.161 601.945,405.293 602.783,406.126C603.621,406.958 604.675,407.374 605.945,407.374C607.728,407.374 609.179,406.654 610.3,405.213L612.398,407.214C611.704,408.25 610.778,409.053 609.62,409.624C608.462,410.195 607.162,410.481 605.721,410.481ZM605.257,395.638C604.189,395.638 603.327,396.012 602.671,396.759C602.014,397.506 601.596,398.547 601.414,399.881L608.827,399.881L608.827,399.593C608.742,398.291 608.395,397.306 607.786,396.639C607.178,395.972 606.335,395.638 605.257,395.638Z" style="fill:white;fill-rule:nonzero;"/>
                <path d="M619.295,392.836L619.407,394.838C620.688,393.29 622.369,392.516 624.45,392.516C628.058,392.516 629.894,394.582 629.958,398.712L629.958,410.16L626.067,410.16L626.067,398.937C626.067,397.837 625.83,397.023 625.355,396.495C624.88,395.966 624.103,395.702 623.025,395.702C621.456,395.702 620.287,396.412 619.519,397.832L619.519,410.16L615.628,410.16L615.628,392.836L619.295,392.836Z" style="fill:white;fill-rule:nonzero;"/>
                <path d="M652.43,410.16C652.259,409.829 652.11,409.29 651.982,408.543C650.743,409.835 649.228,410.481 647.434,410.481C645.695,410.481 644.275,409.984 643.175,408.991C642.076,407.999 641.526,406.771 641.526,405.309C641.526,403.462 642.212,402.045 643.584,401.058C644.955,400.071 646.917,399.577 649.468,399.577L651.853,399.577L651.853,398.44C651.853,397.544 651.603,396.826 651.101,396.287C650.599,395.748 649.836,395.478 648.811,395.478C647.925,395.478 647.2,395.7 646.634,396.143C646.068,396.586 645.785,397.149 645.785,397.832L641.895,397.832C641.895,396.882 642.209,395.993 642.839,395.166C643.469,394.339 644.326,393.69 645.409,393.221C646.492,392.751 647.701,392.516 649.035,392.516C651.064,392.516 652.681,393.026 653.887,394.045C655.093,395.065 655.712,396.498 655.744,398.344L655.744,406.158C655.744,407.716 655.963,408.959 656.401,409.888L656.401,410.16L652.43,410.16ZM648.155,407.358C648.923,407.358 649.647,407.172 650.324,406.798C651.002,406.424 651.512,405.923 651.853,405.293L651.853,402.027L649.756,402.027C648.315,402.027 647.232,402.278 646.506,402.779C645.78,403.281 645.417,403.991 645.417,404.909C645.417,405.656 645.665,406.251 646.162,406.694C646.658,407.137 647.322,407.358 648.155,407.358Z" style="fill:white;fill-rule:nonzero;"/>
                <path d="M663.474,392.836L663.586,394.646C664.803,393.226 666.468,392.516 668.581,392.516C670.897,392.516 672.483,393.402 673.336,395.174C674.596,393.402 676.368,392.516 678.652,392.516C680.563,392.516 681.985,393.044 682.919,394.101C683.853,395.158 684.331,396.716 684.352,398.776L684.352,410.16L680.461,410.16L680.461,398.888C680.461,397.789 680.221,396.983 679.741,396.471C679.261,395.958 678.465,395.702 677.355,395.702C676.469,395.702 675.746,395.94 675.186,396.415C674.625,396.89 674.233,397.512 674.009,398.28L674.025,410.16L670.134,410.16L670.134,398.76C670.081,396.722 669.04,395.702 667.012,395.702C665.454,395.702 664.349,396.337 663.698,397.608L663.698,410.16L659.807,410.16L659.807,392.836L663.474,392.836Z" style="fill:white;fill-rule:nonzero;"/>
                <path d="M705.447,401.178L700.932,401.178L700.932,410.16L696.881,410.16L696.881,386.848L705.079,386.848C707.769,386.848 709.845,387.451 711.307,388.657C712.769,389.864 713.501,391.609 713.501,393.893C713.501,395.451 713.124,396.756 712.372,397.808C711.619,398.859 710.571,399.668 709.226,400.233L714.461,409.952L714.461,410.16L710.122,410.16L705.447,401.178ZM700.932,397.928L705.095,397.928C706.461,397.928 707.528,397.584 708.297,396.895C709.066,396.207 709.45,395.265 709.45,394.069C709.45,392.82 709.095,391.854 708.385,391.171C707.675,390.488 706.616,390.136 705.207,390.114L700.932,390.114L700.932,397.928Z" style="fill:white;fill-rule:nonzero;"/>
                <path d="M720.798,394.726C722.068,393.253 723.674,392.516 725.617,392.516C729.31,392.516 731.184,394.624 731.237,398.84L731.237,410.16L727.346,410.16L727.346,398.985C727.346,397.789 727.087,396.943 726.57,396.447C726.052,395.95 725.292,395.702 724.288,395.702C722.73,395.702 721.566,396.396 720.798,397.784L720.798,410.16L716.907,410.16L716.907,385.567L720.798,385.567L720.798,394.726Z" style="fill:white;fill-rule:nonzero;"/>
                <path d="M742.793,410.481C740.327,410.481 738.329,409.704 736.797,408.151C735.265,406.598 734.499,404.53 734.499,401.947L734.499,401.466C734.499,399.737 734.833,398.192 735.5,396.831C736.167,395.47 737.104,394.411 738.31,393.653C739.516,392.895 740.861,392.516 742.345,392.516C744.704,392.516 746.526,393.269 747.813,394.774C749.099,396.279 749.742,398.408 749.742,401.162L749.742,402.731L738.422,402.731C738.54,404.161 739.017,405.293 739.855,406.126C740.693,406.958 741.747,407.374 743.017,407.374C744.8,407.374 746.252,406.654 747.372,405.213L749.47,407.214C748.776,408.25 747.85,409.053 746.692,409.624C745.534,410.195 744.234,410.481 742.793,410.481ZM742.329,395.638C741.261,395.638 740.4,396.012 739.743,396.759C739.087,397.506 738.668,398.547 738.486,399.881L745.899,399.881L745.899,399.593C745.814,398.291 745.467,397.306 744.859,396.639C744.25,395.972 743.407,395.638 742.329,395.638Z" style="fill:white;fill-rule:nonzero;"/>
                <path d="M756.895,410.16L753.004,410.16L753.004,392.836L756.895,392.836L756.895,410.16ZM752.764,388.337C752.764,387.739 752.954,387.243 753.333,386.848C753.712,386.453 754.253,386.256 754.958,386.256C755.662,386.256 756.207,386.453 756.591,386.848C756.975,387.243 757.167,387.739 757.167,388.337C757.167,388.924 756.975,389.413 756.591,389.802C756.207,390.192 755.662,390.387 754.958,390.387C754.253,390.387 753.712,390.192 753.333,389.802C752.954,389.413 752.764,388.924 752.764,388.337Z" style="fill:white;fill-rule:nonzero;"/>
                <path d="M764.737,392.836L764.849,394.838C766.13,393.29 767.811,392.516 769.892,392.516C773.5,392.516 775.336,394.582 775.4,398.712L775.4,410.16L771.509,410.16L771.509,398.937C771.509,397.837 771.272,397.023 770.797,396.495C770.322,395.966 769.545,395.702 768.467,395.702C766.898,395.702 765.729,396.412 764.961,397.832L764.961,410.16L761.07,410.16L761.07,392.836L764.737,392.836Z" style="fill:white;fill-rule:nonzero;"/>
            </g>
            <g id="pin" transform="matrix(1,0,0,1,551.291,323.793)">
                <path d="M0,-18.46C2.683,-18.46 4.858,-16.285 4.858,-13.602C4.858,-10.919 2.683,-8.744 0,-8.744C-2.683,-8.744 -4.858,-10.919 -4.858,-13.602C-4.858,-16.285 -2.683,-18.46 0,-18.46M0,12.631C8.744,3.887 17.489,-3.943 17.489,-13.602C17.489,-23.261 9.659,-31.091 0,-31.091C-9.659,-31.091 -17.489,-23.261 -17.489,-13.602C-17.489,-3.943 -8.744,3.887 0,12.631" style="fill:rgb(229,115,115);fill-rule:nonzero;"/>
            </g>
            <g transform="matrix(1,0,0,1,720,864.048)">
                <path d="M0,-648.048L-337.894,-648.048C-349.112,-648.048 -359.477,-642.063 -365.086,-632.348L-534.033,-339.724C-539.642,-330.009 -539.642,-318.039 -534.033,-308.325L-365.086,-15.7C-359.477,-5.985 -349.112,0 -337.894,0L0,0C11.218,0 21.584,-5.985 27.193,-15.7L196.14,-308.325C201.749,-318.039 201.749,-330.009 196.14,-339.724L27.193,-632.348C21.584,-642.063 11.218,-648.048 0,-648.048M0,-647.048C10.826,-647.048 20.914,-641.224 26.327,-631.848L195.273,-339.224C200.687,-329.848 200.687,-318.2 195.273,-308.825L26.327,-16.2C20.914,-6.824 10.826,-1 0,-1L-337.894,-1C-348.719,-1 -358.807,-6.824 -364.22,-16.2L-533.167,-308.825C-538.58,-318.2 -538.58,-329.848 -533.167,-339.224L-364.22,-631.848C-358.807,-641.224 -348.719,-647.048 -337.894,-647.048L0,-647.048" style="fill:rgb(166,166,166);fill-rule:nonzero;"/>
            </g>
        </g>
        <g id="Operation70" transform="matrix(2.91672,0,0,2.91672,1802.29,871.597)">
            <g id="body1" serif:id="body" transform="matrix(1,0,0,1,382.106,216.5)">
                <path d="M0,647.048C-11.004,647.048 -21.258,641.128 -26.759,631.598L-195.706,338.974C-201.208,329.444 -201.208,317.604 -195.706,308.074L-26.759,15.45C-21.257,5.92 -11.004,0 0,0L337.894,0C348.897,0 359.151,5.92 364.654,15.45L533.601,308.074C539.103,317.604 539.103,329.444 533.601,338.974L364.654,631.598C359.151,641.128 348.897,647.048 337.894,647.048L0,647.048Z" style="fill:rgb(64,64,64);fill-rule:nonzero;"/>
            </g>
            <g id="header1" serif:id="header">
                <g id="map1" serif:id="map">
                    <g id="background1" serif:id="background" transform="matrix(1,0,0,1,382.106,216.5)">
                        <path d="M-199.832,323.5C-199.829,318.167 -198.453,312.832 -195.706,308.074L-26.759,15.45C-21.257,5.92 -11.004,0 0,0L337.894,0C348.897,0 359.151,5.92 364.654,15.45L533.601,308.074C536.348,312.832 537.724,318.167 537.727,323.5L-199.832,323.5Z" style="fill:rgb(240,240,240);"/>
                    </g>
                    <g id="forest1" serif:id="forest" transform="matrix(0.24,0,0,0.24,0,0)">
                        <path d="M1845.96,902.083L3000,902.083C3045.85,902.083 3088.57,926.75 3111.5,966.458L3223.44,1160.33L2850.78,1434.9C2821.2,1456.71 2785.87,1469.36 2749.17,1471.3C2684.49,1474.72 2579.45,1480.27 2518.55,1483.49C2487.14,1485.15 2455.83,1478.91 2427.46,1465.34C2329.93,1418.67 2090.32,1304.02 1948.66,1236.23C1881.76,1204.22 1839.92,1135.89 1841.84,1061.75L1845.96,902.083Z" style="fill:rgb(178,217,184);"/>
                    </g>
                    <g id="street1" serif:id="street" transform="matrix(0.24,0,0,0.24,0,0)">
                        <path d="M932.94,1915.06C1064.12,1917.64 1193.51,1926.94 1320.72,1944.33C1324.18,1944.8 1327.61,1945.51 1330.98,1946.44L1376.47,1959.04L1428.57,1713.21C1431.98,1697.16 1436.85,1681.45 1443.13,1666.29C1450.44,1648.68 1460.88,1623.48 1470.49,1600.32C1486.46,1561.79 1513.02,1528.58 1547.09,1504.53C1547.09,1504.53 1547.09,1504.53 1547.09,1504.53C1600.1,1467.12 1663.75,1447.8 1728.6,1449.44C1877.18,1453.21 2145.68,1460.01 2208.22,1461.59C2216.98,1461.82 2225.62,1463.73 2233.66,1467.22C2238.37,1469.27 2244.12,1471.77 2250.34,1474.48C2285.73,1489.87 2305.64,1527.81 2298.19,1565.68C2298.19,1565.68 2298.19,1565.68 2298.19,1565.68C2297.44,1569.52 2295.91,1573.16 2293.71,1576.39C2282.17,1593.31 2243.45,1650.1 2220.74,1683.4C2216.3,1689.9 2214.72,1697.94 2216.35,1705.65C2217.99,1713.35 2222.7,1720.05 2229.4,1724.2C2256.78,1741.15 2299.82,1767.79 2326.52,1784.32C2332.66,1788.12 2336.93,1794.32 2338.26,1801.42C2339.6,1808.52 2337.89,1815.85 2333.56,1821.63C2333.56,1821.63 2333.56,1821.63 2333.56,1821.63C2329.45,1827.09 2321.91,1828.62 2316.01,1825.19C2295.07,1813 2247.75,1785.49 2225.16,1772.34C2216.89,1767.53 2209.25,1761.7 2202.43,1754.98C2196.47,1749.11 2188.61,1741.38 2180.81,1733.7C2163.5,1716.65 2162.13,1689.17 2177.66,1670.49C2194.23,1650.56 2214.66,1625.98 2228.11,1609.8C2237.51,1598.49 2243.39,1584.67 2245.01,1570.05C2245.01,1570.05 2245.01,1570.05 2245.01,1570.05C2247.99,1543.27 2233.41,1517.61 2208.88,1506.46C2207.52,1505.84 2206.16,1505.23 2204.82,1504.62C2184.88,1495.55 2163.26,1490.78 2141.36,1490.61L2044.18,1489.84C2044.54,1661.28 2037.08,1831.53 2022.6,2000.68C2129.3,2004.78 2236.37,2008.72 2343.66,2013.15C2363.78,1994.88 2383.88,1976.34 2403.94,1957.47C2421.41,1940.98 2437.46,1923.04 2451.92,1903.86C2469.98,1879.97 2496.45,1844.86 2518.97,1814.99C2546.48,1778.49 2556.15,1731.56 2545.31,1687.16C2530.62,1626.97 2511.8,1549.87 2511.8,1549.87L2602.69,1597.75C2602.69,1597.75 2607.02,1640.94 2610.15,1672.18C2610.67,1677.35 2614.28,1681.67 2619.26,1683.11C2624.25,1684.54 2629.61,1682.8 2632.79,1678.7C2644.46,1663.66 2657.07,1647.43 2657.07,1647.43L2734.09,1739.67C2587.58,1887.19 2445.55,2019.22 2308.76,2142.37C2448.48,2178.89 2597.6,2192.62 2755.73,2184.53L2743.64,2250L2630.37,2250C2503.94,2244.2 2379.02,2223.89 2255.48,2190.14C2232.89,2210.31 2210.46,2230.26 2188.19,2250L2074.81,2250C2147.14,2185.79 2221.11,2122.6 2295.28,2056.62C2181.63,2055.58 2067.48,2052.83 1952.84,2048.38C1951.18,2059.49 1948.97,2074.29 1946.97,2087.54C1943.6,2110.11 1935.83,2131.8 1924.09,2151.37C1901.83,2188.57 1878.56,2221.75 1854.04,2250L1793.35,2250C1827.49,2213.29 1857,2172.09 1881.06,2125.57C1887.47,2113.17 1892.38,2100.05 1895.66,2086.48L1905.34,2046.44C1742.6,2039.46 1578.85,2029.05 1414.09,2015.19C1412.32,2015.05 1410.56,2014.86 1408.8,2014.62L1382.13,2133.2C1377.63,2153.2 1388.56,2173.47 1407.76,2180.69C1454.56,2198.3 1539.31,2230.17 1588.34,2248.62C1589.4,2249.01 1590.42,2249.48 1591.41,2250L1476.49,2250L1393.62,2216.92C1374.04,2209.1 1351.71,2217.37 1341.95,2236.06L1334.67,2250L1286.48,2250L1321.55,2179.94C1330.88,2161.31 1337.79,2141.56 1342.11,2121.18L1366.86,2004.37C1349.51,1999.7 1330.78,1994.65 1322.18,1992.34C1318.95,1991.47 1315.67,1990.81 1312.36,1990.36C1177.37,1972.08 1042.38,1962.29 907.407,1959.28L932.94,1915.06ZM3546.38,1719.69L3303.59,1843.91C3287.71,1852.03 3272.61,1861.59 3258.46,1872.45C3207.51,1911.59 3080.1,2009.46 3045.45,2036.08C3039.57,2040.6 3033.53,2044.9 3027.35,2048.99C2989.98,2073.7 2852.52,2164.62 2852.52,2164.62L2835.52,2250L2986.81,2250L3144.28,2072.85C3159.11,2056.16 3175.37,2040.79 3192.86,2026.91C3229.59,1997.76 3296.9,1944.34 3342.64,1908.04C3374.34,1882.88 3409.31,1862.15 3446.6,1846.43L3585.69,1787.77L3546.38,1719.69ZM2000.09,1489.49L1736.34,1487.41C1675.21,1486.93 1615.68,1506.92 1567.24,1544.2C1567.24,1544.2 1567.24,1544.2 1567.24,1544.2C1557.77,1551.49 1549.88,1560.63 1544.06,1571.06C1533.38,1590.22 1515.13,1622.93 1501.67,1647.08C1490.36,1667.35 1482.03,1689.14 1476.93,1711.79L1418.79,1970.26C1422.95,1971.01 1427.16,1971.53 1431.39,1971.81C1612.29,1983.88 1795.22,1991.82 1979.4,1999.01C1999.61,1829.17 2008.04,1659.33 2000.09,1489.49ZM3218.6,1151.96C3090.51,1269.25 2963.32,1343.01 2800.78,1438.05C2789.76,1444.49 2778.01,1449.58 2765.77,1453.18C2701.66,1471.99 2584.96,1483.57 2499.74,1465.65L2673.34,1567.12C2688.99,1568.84 2725.79,1564.17 2760.95,1546.99C2762.12,1546.4 2763.53,1546.74 2764.3,1547.79C2765.06,1548.84 2764.96,1550.29 2764.05,1551.21C2748.49,1567.11 2724.15,1591.93 2724.15,1591.93L2783.43,1680.56C2783.43,1680.56 2847.15,1623.54 2881.2,1593.07C2883.22,1591.26 2886.24,1591.12 2888.44,1592.72C2890.63,1594.33 2891.4,1597.26 2890.28,1599.73C2860.87,1667.15 2840.08,1749.14 2839.06,1807.39L2883.05,1969.67C2882.55,1853.63 2893.54,1721.31 2954.15,1604.05C2956.13,1600.22 2958.26,1596.48 2960.53,1592.82C2974.08,1570.87 3031.19,1478.59 3054.68,1440.64C3061.43,1429.74 3069.32,1419.57 3078.21,1410.33L3259.12,1222.14L3218.6,1151.96ZM2360.69,902.083L2301.86,902.083C2127.8,1051.92 1928.97,1205.95 1711.5,1363.14C1706.49,1366.76 1703.13,1372.25 1702.2,1378.36C1701.26,1384.48 1702.81,1390.71 1706.51,1395.67C1706.51,1395.68 1706.52,1395.68 1706.52,1395.68C1712.43,1403.61 1723.63,1405.3 1731.62,1399.47C1951.03,1239.37 2150.83,1068.84 2360.69,902.083Z" style="fill:white;"/>
                    </g>
                    <g id="highway1" serif:id="highway" transform="matrix(0.24,0,0,0.24,0,0)">
                        <path d="M1589.85,902.103C1775.72,1038.66 2147.14,1263.95 2697.22,1574.69C2755.73,1607.73 2798.59,1662.81 2816.25,1727.64C2833.6,1791.32 2855.58,1872.02 2871.3,1929.75C2884.61,1978.62 2886.65,2029.88 2877.25,2079.65L2845.11,2250L2729.23,2250L2763.49,2092.62C2776.03,2035.02 2774.25,1975.22 2758.3,1918.48C2749.51,1887.19 2739.35,1851.06 2729.64,1816.52C2705.29,1729.88 2646.14,1657.2 2566.25,1615.76C2184.28,1417.27 1820.36,1203.16 1478.65,969.864L1480.61,966.458C1503.16,927.405 1544.86,902.901 1589.85,902.103Z" style="fill:rgb(249,227,157);"/>
                    </g>
                </g>
                <g transform="matrix(1,0,0,1,182.502,216.888)">
                    <path d="M0,323.047C0.082,317.794 1.507,312.627 4.136,308.074L173.083,15.449C178.584,5.92 188.838,0 199.842,0L537.736,0C548.741,0 558.994,5.92 564.496,15.449L733.443,308.074C736.071,312.626 737.497,317.793 737.578,323.047L0,323.047Z" style="fill:rgb(64,64,64);fill-opacity:0.75;fill-rule:nonzero;"/>
                </g>
            </g>
            <g id="label1" serif:id="label">
                <g transform="matrix(1,0,0,1,727.909,492.869)">
                    <path d="M0,92.828L-353.235,92.828C-378.763,92.828 -399.649,71.942 -399.649,46.414C-399.649,20.886 -378.763,0 -353.235,0L0,0C25.528,0 46.414,20.886 46.414,46.414C46.414,71.942 25.528,92.828 0,92.828Z" style="fill:rgb(229,115,115);fill-rule:nonzero;stroke:rgb(165,164,165);stroke-width:1.43px;"/>
                </g>
                <g transform="matrix(1.70444,0,0,1.7744,-397.284,-424.95)">
                    <path d="M473.945,553.094L482.117,530.432L486.242,530.432L475.635,557.906L472.295,557.906L461.707,530.432L465.813,530.432L473.945,553.094Z" style="fill:white;fill-rule:nonzero;"/>
                    <path d="M510.206,530.432L510.206,549.113C510.193,551.704 509.345,553.824 507.662,555.472C505.979,557.12 503.697,558.044 500.816,558.246L499.814,558.284C496.684,558.284 494.19,557.472 492.33,555.849C490.47,554.227 489.528,551.994 489.501,549.151L489.501,530.432L493.234,530.432L493.234,549.038C493.234,551.025 493.803,552.569 494.943,553.67C496.082,554.771 497.706,555.321 499.814,555.321C501.949,555.321 503.583,554.774 504.715,553.679C505.848,552.585 506.415,551.044 506.415,549.056L506.415,530.432L510.206,530.432Z" style="fill:white;fill-rule:nonzero;"/>
                    <path d="M537.926,552.491C537.926,551.547 537.556,550.814 536.816,550.292C536.076,549.77 534.786,549.321 532.946,548.943C531.106,548.566 529.646,548.113 528.566,547.585C527.485,547.056 526.687,546.427 526.169,545.698C525.652,544.968 525.393,544.1 525.393,543.094C525.393,541.421 526.13,540.005 527.603,538.848C529.077,537.691 530.959,537.112 533.251,537.112C535.661,537.112 537.615,537.71 539.115,538.905C540.614,540.1 541.364,541.628 541.364,543.49L537.71,543.49C537.71,542.534 537.288,541.71 536.443,541.018C535.598,540.326 534.534,539.98 533.251,539.98C531.928,539.98 530.894,540.257 530.147,540.811C529.401,541.364 529.028,542.087 529.028,542.981C529.028,543.823 529.375,544.459 530.069,544.886C530.763,545.314 532.017,545.723 533.83,546.113C535.644,546.503 537.114,546.968 538.24,547.509C539.367,548.05 540.202,548.701 540.745,549.462C541.288,550.223 541.56,551.151 541.56,552.245C541.56,554.069 540.801,555.532 539.282,556.632C537.762,557.733 535.792,558.284 533.369,558.284C531.666,558.284 530.16,557.994 528.851,557.416C527.541,556.837 526.516,556.029 525.776,554.991C525.037,553.953 524.667,552.83 524.667,551.623L528.301,551.623C528.366,552.793 528.854,553.72 529.764,554.406C530.674,555.091 531.876,555.434 533.369,555.434C534.744,555.434 535.847,555.167 536.679,554.632C537.51,554.098 537.926,553.384 537.926,552.491Z" style="fill:white;fill-rule:nonzero;"/>
                    <path d="M554.818,555.434C556.114,555.434 557.247,555.057 558.216,554.302C559.185,553.547 559.722,552.604 559.827,551.472L563.265,551.472C563.199,552.642 562.78,553.755 562.007,554.812C561.235,555.868 560.203,556.711 558.914,557.34C557.624,557.969 556.258,558.284 554.818,558.284C551.924,558.284 549.622,557.356 547.913,555.5C546.204,553.645 545.35,551.107 545.35,547.887L545.35,547.302C545.35,545.314 545.729,543.547 546.489,541.999C547.248,540.452 548.339,539.251 549.76,538.395C551.18,537.54 552.86,537.112 554.798,537.112C557.182,537.112 559.162,537.798 560.74,539.169C562.318,540.54 563.16,542.32 563.265,544.509L559.827,544.509C559.722,543.188 559.202,542.103 558.265,541.254C557.329,540.405 556.173,539.98 554.798,539.98C552.952,539.98 551.521,540.619 550.506,541.896C549.491,543.172 548.984,545.018 548.984,547.434L548.984,548.094C548.984,550.446 549.488,552.258 550.496,553.528C551.505,554.799 552.945,555.434 554.818,555.434Z" style="fill:white;fill-rule:nonzero;"/>
                    <path d="M570.983,539.961C572.593,538.062 574.689,537.112 577.269,537.112C581.761,537.112 584.026,539.546 584.065,544.415L584.065,557.906L580.431,557.906L580.431,544.396C580.418,542.924 580.068,541.836 579.38,541.131C578.693,540.427 577.622,540.075 576.169,540.075C574.99,540.075 573.955,540.377 573.065,540.98C572.174,541.584 571.48,542.377 570.983,543.358L570.983,557.906L567.349,557.906L567.349,528.923L570.983,528.923L570.983,539.961Z" style="fill:white;fill-rule:nonzero;"/>
                    <path d="M608.324,553.094L612.409,537.49L616.043,537.49L609.856,557.906L606.909,557.906L601.743,542.433L596.714,557.906L593.767,557.906L587.599,537.49L591.214,537.49L595.398,552.774L600.348,537.49L603.275,537.49L608.324,553.094Z" style="fill:white;fill-rule:nonzero;"/>
                    <path d="M628.555,558.284C625.674,558.284 623.329,557.375 621.522,555.557C619.715,553.739 618.811,551.308 618.811,548.264L618.811,547.622C618.811,545.597 619.214,543.789 620.019,542.197C620.825,540.606 621.951,539.361 623.398,538.461C624.845,537.562 626.413,537.112 628.103,537.112C630.866,537.112 633.014,537.986 634.546,539.735C636.078,541.484 636.844,543.987 636.844,547.245L636.844,548.698L622.445,548.698C622.498,550.711 623.11,552.337 624.282,553.576C625.454,554.815 626.944,555.434 628.751,555.434C630.034,555.434 631.121,555.183 632.012,554.679C632.902,554.176 633.682,553.51 634.35,552.679L636.569,554.34C634.788,556.969 632.117,558.284 628.555,558.284ZM628.103,539.98C626.636,539.98 625.405,540.493 624.41,541.518C623.415,542.543 622.799,543.981 622.563,545.83L633.21,545.83L633.21,545.566C633.105,543.792 632.608,542.418 631.717,541.443C630.827,540.468 629.622,539.98 628.103,539.98Z" style="fill:white;fill-rule:nonzero;"/>
                    <path d="M651.32,540.622C650.77,540.534 650.174,540.49 649.532,540.49C647.149,540.49 645.531,541.465 644.68,543.415L644.68,557.906L641.046,557.906L641.046,537.49L644.582,537.49L644.641,539.848C645.833,538.024 647.522,537.112 649.709,537.112C650.416,537.112 650.953,537.2 651.32,537.376L651.32,540.622Z" style="fill:white;fill-rule:nonzero;"/>
                </g>
            </g>
            <g id="pin1" serif:id="pin" transform="matrix(1,0,0,1,551.291,323.793)">
                <path d="M0,-18.46C2.683,-18.46 4.858,-16.285 4.858,-13.602C4.858,-10.919 2.683,-8.744 0,-8.744C-2.683,-8.744 -4.858,-10.919 -4.858,-13.602C-4.858,-16.285 -2.683,-18.46 0,-18.46M0,12.631C8.744,3.887 17.489,-3.943 17.489,-13.602C17.489,-23.261 9.659,-31.091 0,-31.091C-9.659,-31.091 -17.489,-23.261 -17.489,-13.602C-17.489,-3.943 -8.744,3.887 0,12.631" style="fill:rgb(229,115,115);fill-rule:nonzero;"/>
            </g>
            <g transform="matrix(1,0,0,1,720,864.048)">
                <path d="M0,-648.048L-337.894,-648.048C-349.112,-648.048 -359.477,-642.063 -365.086,-632.348L-534.033,-339.724C-539.642,-330.009 -539.642,-318.039 -534.033,-308.325L-365.086,-15.7C-359.477,-5.985 -349.112,0 -337.894,0L0,0C11.218,0 21.584,-5.985 27.193,-15.7L196.14,-308.325C201.749,-318.039 201.749,-330.009 196.14,-339.724L27.193,-632.348C21.584,-642.063 11.218,-648.048 0,-648.048M0,-647.048C10.826,-647.048 20.914,-641.224 26.327,-631.848L195.273,-339.224C200.687,-329.848 200.687,-318.2 195.273,-308.825L26.327,-16.2C20.914,-6.824 10.826,-1 0,-1L-337.894,-1C-348.719,-1 -358.807,-6.824 -364.22,-16.2L-533.167,-308.825C-538.58,-318.2 -538.58,-329.848 -533.167,-339.224L-364.22,-631.848C-358.807,-641.224 -348.719,-647.048 -337.894,-647.048L0,-647.048" style="fill:rgb(166,166,166);fill-rule:nonzero;"/>
            </g>
        </g>
        <g id="Operation35" transform="matrix(1.45836,0,0,1.45836,1213.03,2131.69)">
            <g id="body2" serif:id="body" transform="matrix(1,0,0,1,382.106,216.5)">
                <path d="M0,647.048C-11.004,647.048 -21.258,641.128 -26.759,631.598L-195.706,338.974C-201.208,329.444 -201.208,317.604 -195.706,308.074L-26.759,15.45C-21.257,5.92 -11.004,0 0,0L337.894,0C348.897,0 359.151,5.92 364.654,15.45L533.601,308.074C539.103,317.604 539.103,329.444 533.601,338.974L364.654,631.598C359.151,641.128 348.897,647.048 337.894,647.048L0,647.048Z" style="fill:rgb(64,64,64);fill-rule:nonzero;"/>
            </g>
            <g id="header2" serif:id="header">
                <g id="map2" serif:id="map">
                    <g id="background2" serif:id="background" transform="matrix(1,0,0,1,382.106,216.5)">
                        <path d="M-199.832,323.5C-199.829,318.167 -198.453,312.832 -195.706,308.074L-26.759,15.45C-21.257,5.92 -11.004,0 0,0L337.894,0C348.897,0 359.151,5.92 364.654,15.45L533.601,308.074C536.348,312.832 537.724,318.167 537.727,323.5L-199.832,323.5Z" style="fill:rgb(240,240,240);"/>
                    </g>
                    <g id="forest2" serif:id="forest" transform="matrix(0.24,0,0,0.24,0,0)">
                        <path d="M1845.96,902.083L3000,902.083C3045.85,902.083 3088.57,926.75 3111.5,966.458L3223.44,1160.33L2850.78,1434.9C2821.2,1456.71 2785.87,1469.36 2749.17,1471.3C2684.49,1474.72 2579.45,1480.27 2518.55,1483.49C2487.14,1485.15 2455.83,1478.91 2427.46,1465.34C2329.93,1418.67 2090.32,1304.02 1948.66,1236.23C1881.76,1204.22 1839.92,1135.89 1841.84,1061.75L1845.96,902.083Z" style="fill:rgb(178,217,184);"/>
                    </g>
                    <g id="street2" serif:id="street" transform="matrix(0.24,0,0,0.24,0,0)">
                        <path d="M932.94,1915.06C1064.12,1917.64 1193.51,1926.94 1320.72,1944.33C1324.18,1944.8 1327.61,1945.51 1330.98,1946.44L1376.47,1959.04L1428.57,1713.21C1431.98,1697.16 1436.85,1681.45 1443.13,1666.29C1450.44,1648.68 1460.88,1623.48 1470.49,1600.32C1486.46,1561.79 1513.02,1528.58 1547.09,1504.53C1547.09,1504.53 1547.09,1504.53 1547.09,1504.53C1600.1,1467.12 1663.75,1447.8 1728.6,1449.44C1877.18,1453.21 2145.68,1460.01 2208.22,1461.59C2216.98,1461.82 2225.62,1463.73 2233.66,1467.22C2238.37,1469.27 2244.12,1471.77 2250.34,1474.48C2285.73,1489.87 2305.64,1527.81 2298.19,1565.68C2298.19,1565.68 2298.19,1565.68 2298.19,1565.68C2297.44,1569.52 2295.91,1573.16 2293.71,1576.39C2282.17,1593.31 2243.45,1650.1 2220.74,1683.4C2216.3,1689.9 2214.72,1697.94 2216.35,1705.65C2217.99,1713.35 2222.7,1720.05 2229.4,1724.2C2256.78,1741.15 2299.82,1767.79 2326.52,1784.32C2332.66,1788.12 2336.93,1794.32 2338.26,1801.42C2339.6,1808.52 2337.89,1815.85 2333.56,1821.63C2333.56,1821.63 2333.56,1821.63 2333.56,1821.63C2329.45,1827.09 2321.91,1828.62 2316.01,1825.19C2295.07,1813 2247.75,1785.49 2225.16,1772.34C2216.89,1767.53 2209.25,1761.7 2202.43,1754.98C2196.47,1749.11 2188.61,1741.38 2180.81,1733.7C2163.5,1716.65 2162.13,1689.17 2177.66,1670.49C2194.23,1650.56 2214.66,1625.98 2228.11,1609.8C2237.51,1598.49 2243.39,1584.67 2245.01,1570.05C2245.01,1570.05 2245.01,1570.05 2245.01,1570.05C2247.99,1543.27 2233.41,1517.61 2208.88,1506.46C2207.52,1505.84 2206.16,1505.23 2204.82,1504.62C2184.88,1495.55 2163.26,1490.78 2141.36,1490.61L2044.18,1489.84C2044.54,1661.28 2037.08,1831.53 2022.6,2000.68C2129.3,2004.78 2236.37,2008.72 2343.66,2013.15C2363.78,1994.88 2383.88,1976.34 2403.94,1957.47C2421.41,1940.98 2437.46,1923.04 2451.92,1903.86C2469.98,1879.97 2496.45,1844.86 2518.97,1814.99C2546.48,1778.49 2556.15,1731.56 2545.31,1687.16C2530.62,1626.97 2511.8,1549.87 2511.8,1549.87L2602.69,1597.75C2602.69,1597.75 2607.02,1640.94 2610.15,1672.18C2610.67,1677.35 2614.28,1681.67 2619.26,1683.11C2624.25,1684.54 2629.61,1682.8 2632.79,1678.7C2644.46,1663.66 2657.07,1647.43 2657.07,1647.43L2734.09,1739.67C2587.58,1887.19 2445.55,2019.22 2308.76,2142.37C2448.48,2178.89 2597.6,2192.62 2755.73,2184.53L2743.64,2250L2630.37,2250C2503.94,2244.2 2379.02,2223.89 2255.48,2190.14C2232.89,2210.31 2210.46,2230.26 2188.19,2250L2074.81,2250C2147.14,2185.79 2221.11,2122.6 2295.28,2056.62C2181.63,2055.58 2067.48,2052.83 1952.84,2048.38C1951.18,2059.49 1948.97,2074.29 1946.97,2087.54C1943.6,2110.11 1935.83,2131.8 1924.09,2151.37C1901.83,2188.57 1878.56,2221.75 1854.04,2250L1793.35,2250C1827.49,2213.29 1857,2172.09 1881.06,2125.57C1887.47,2113.17 1892.38,2100.05 1895.66,2086.48L1905.34,2046.44C1742.6,2039.46 1578.85,2029.05 1414.09,2015.19C1412.32,2015.05 1410.56,2014.86 1408.8,2014.62L1382.13,2133.2C1377.63,2153.2 1388.56,2173.47 1407.76,2180.69C1454.56,2198.3 1539.31,2230.17 1588.34,2248.62C1589.4,2249.01 1590.42,2249.48 1591.41,2250L1476.49,2250L1393.62,2216.92C1374.04,2209.1 1351.71,2217.37 1341.95,2236.06L1334.67,2250L1286.48,2250L1321.55,2179.94C1330.88,2161.31 1337.79,2141.56 1342.11,2121.18L1366.86,2004.37C1349.51,1999.7 1330.78,1994.65 1322.18,1992.34C1318.95,1991.47 1315.67,1990.81 1312.36,1990.36C1177.37,1972.08 1042.38,1962.29 907.407,1959.28L932.94,1915.06ZM3546.38,1719.69L3303.59,1843.91C3287.71,1852.03 3272.61,1861.59 3258.46,1872.45C3207.51,1911.59 3080.1,2009.46 3045.45,2036.08C3039.57,2040.6 3033.53,2044.9 3027.35,2048.99C2989.98,2073.7 2852.52,2164.62 2852.52,2164.62L2835.52,2250L2986.81,2250L3144.28,2072.85C3159.11,2056.16 3175.37,2040.79 3192.86,2026.91C3229.59,1997.76 3296.9,1944.34 3342.64,1908.04C3374.34,1882.88 3409.31,1862.15 3446.6,1846.43L3585.69,1787.77L3546.38,1719.69ZM2000.09,1489.49L1736.34,1487.41C1675.21,1486.93 1615.68,1506.92 1567.24,1544.2C1567.24,1544.2 1567.24,1544.2 1567.24,1544.2C1557.77,1551.49 1549.88,1560.63 1544.06,1571.06C1533.38,1590.22 1515.13,1622.93 1501.67,1647.08C1490.36,1667.35 1482.03,1689.14 1476.93,1711.79L1418.79,1970.26C1422.95,1971.01 1427.16,1971.53 1431.39,1971.81C1612.29,1983.88 1795.22,1991.82 1979.4,1999.01C1999.61,1829.17 2008.04,1659.33 2000.09,1489.49ZM3218.6,1151.96C3090.51,1269.25 2963.32,1343.01 2800.78,1438.05C2789.76,1444.49 2778.01,1449.58 2765.77,1453.18C2701.66,1471.99 2584.96,1483.57 2499.74,1465.65L2673.34,1567.12C2688.99,1568.84 2725.79,1564.17 2760.95,1546.99C2762.12,1546.4 2763.53,1546.74 2764.3,1547.79C2765.06,1548.84 2764.96,1550.29 2764.05,1551.21C2748.49,1567.11 2724.15,1591.93 2724.15,1591.93L2783.43,1680.56C2783.43,1680.56 2847.15,1623.54 2881.2,1593.07C2883.22,1591.26 2886.24,1591.12 2888.44,1592.72C2890.63,1594.33 2891.4,1597.26 2890.28,1599.73C2860.87,1667.15 2840.08,1749.14 2839.06,1807.39L2883.05,1969.67C2882.55,1853.63 2893.54,1721.31 2954.15,1604.05C2956.13,1600.22 2958.26,1596.48 2960.53,1592.82C2974.08,1570.87 3031.19,1478.59 3054.68,1440.64C3061.43,1429.74 3069.32,1419.57 3078.21,1410.33L3259.12,1222.14L3218.6,1151.96ZM2360.69,902.083L2301.86,902.083C2127.8,1051.92 1928.97,1205.95 1711.5,1363.14C1706.49,1366.76 1703.13,1372.25 1702.2,1378.36C1701.26,1384.48 1702.81,1390.71 1706.51,1395.67C1706.51,1395.68 1706.52,1395.68 1706.52,1395.68C1712.43,1403.61 1723.63,1405.3 1731.62,1399.47C1951.03,1239.37 2150.83,1068.84 2360.69,902.083Z" style="fill:white;"/>
                    </g>
                    <g id="highway2" serif:id="highway" transform="matrix(0.24,0,0,0.24,0,0)">
                        <path d="M1589.85,902.103C1775.72,1038.66 2147.14,1263.95 2697.22,1574.69C2755.73,1607.73 2798.59,1662.81 2816.25,1727.64C2833.6,1791.32 2855.58,1872.02 2871.3,1929.75C2884.61,1978.62 2886.65,2029.88 2877.25,2079.65L2845.11,2250L2729.23,2250L2763.49,2092.62C2776.03,2035.02 2774.25,1975.22 2758.3,1918.48C2749.51,1887.19 2739.35,1851.06 2729.64,1816.52C2705.29,1729.88 2646.14,1657.2 2566.25,1615.76C2184.28,1417.27 1820.36,1203.16 1478.65,969.864L1480.61,966.458C1503.16,927.405 1544.86,902.901 1589.85,902.103Z" style="fill:rgb(249,227,157);"/>
                    </g>
                </g>
                <g transform="matrix(1,0,0,1,182.502,216.888)">
                    <path d="M0,323.047C0.082,317.794 1.507,312.627 4.136,308.074L173.083,15.449C178.584,5.92 188.838,0 199.842,0L537.736,0C548.741,0 558.994,5.92 564.496,15.449L733.443,308.074C736.071,312.626 737.497,317.793 737.578,323.047L0,323.047Z" style="fill:rgb(64,64,64);fill-opacity:0.75;fill-rule:nonzero;"/>
                </g>
            </g>
            <g transform="matrix(1,0,0,1,727.909,492.869)">
                <g id="label2" serif:id="label">
                    <path d="M0,92.828L-353.235,92.828C-378.763,92.828 -399.649,71.942 -399.649,46.414C-399.649,20.886 -378.763,0 -353.235,0L0,0C25.528,0 46.414,20.886 46.414,46.414C46.414,71.942 25.528,92.828 0,92.828Z" style="fill:rgb(229,115,115);fill-rule:nonzero;stroke:rgb(165,164,165);stroke-width:2.86px;"/>
                </g>
            </g>
            <g id="pin2" serif:id="pin" transform="matrix(1,0,0,1,551.291,323.793)">
                <path d="M0,-18.46C2.683,-18.46 4.858,-16.285 4.858,-13.602C4.858,-10.919 2.683,-8.744 0,-8.744C-2.683,-8.744 -4.858,-10.919 -4.858,-13.602C-4.858,-16.285 -2.683,-18.46 0,-18.46M0,12.631C8.744,3.887 17.489,-3.943 17.489,-13.602C17.489,-23.261 9.659,-31.091 0,-31.091C-9.659,-31.091 -17.489,-23.261 -17.489,-13.602C-17.489,-3.943 -8.744,3.887 0,12.631" style="fill:rgb(229,115,115);fill-rule:nonzero;"/>
            </g>
            <g transform="matrix(1,0,0,1,720,864.048)">
                <path d="M0,-648.048L-337.894,-648.048C-349.112,-648.048 -359.477,-642.063 -365.086,-632.348L-534.033,-339.724C-539.642,-330.009 -539.642,-318.039 -534.033,-308.325L-365.086,-15.7C-359.477,-5.985 -349.112,0 -337.894,0L0,0C11.218,0 21.584,-5.985 27.193,-15.7L196.14,-308.325C201.749,-318.039 201.749,-330.009 196.14,-339.724L27.193,-632.348C21.584,-642.063 11.218,-648.048 0,-648.048M0,-647.048C10.826,-647.048 20.914,-641.224 26.327,-631.848L195.273,-339.224C200.687,-329.848 200.687,-318.2 195.273,-308.825L26.327,-16.2C20.914,-6.824 10.826,-1 0,-1L-337.894,-1C-348.719,-1 -358.807,-6.824 -364.22,-16.2L-533.167,-308.825C-538.58,-318.2 -538.58,-329.848 -533.167,-339.224L-364.22,-631.848C-358.807,-641.224 -348.719,-647.048 -337.894,-647.048L0,-647.048" style="fill:rgb(166,166,166);fill-rule:nonzero;"/>
            </g>
        </g>
    </g>
</svg>
