<?xml version="1.0" encoding="UTF-8" standalone="no"?>
<!DOCTYPE svg PUBLIC "-//W3C//DTD SVG 1.1//EN" "http://www.w3.org/Graphics/SVG/1.1/DTD/svg11.dtd">
<svg width="100%" height="100%" viewBox="0 0 294 294" version="1.1" xmlns="http://www.w3.org/2000/svg" xmlns:xlink="http://www.w3.org/1999/xlink" xml:space="preserve" xmlns:serif="http://www.serif.com/" style="fill-rule:evenodd;clip-rule:evenodd;stroke-linejoin:round;stroke-miterlimit:2;">
    <g transform="matrix(1,0,0,1,-1467.2,-4059.21)">
        <g transform="matrix(4.16667,0,0,4.16667,0,0)">
            <g transform="matrix(1,0,0,1,387.369,1038.6)">
                <path d="M0,-58.301C-16.073,-58.301 -29.15,-45.224 -29.15,-29.151C-29.15,-13.077 -16.073,-0 0,-0C16.074,-0 29.15,-13.077 29.15,-29.151C29.15,-45.224 16.074,-58.301 0,-58.301M0,6.091C-19.432,6.091 -35.241,-9.719 -35.241,-29.151C-35.241,-48.582 -19.432,-64.392 0,-64.392C19.432,-64.392 35.241,-48.582 35.241,-29.151C35.241,-9.719 19.432,6.091 0,6.091" style="fill:rgb(229,115,115);fill-rule:nonzero;"/>
            </g>
            <g transform="matrix(-1,0,0,1,774.457,919.334)">
                <rect x="384.183" y="67.292" width="6.091" height="26.082" style="fill:rgb(229,115,115);"/>
            </g>
            <g transform="matrix(-1,0,0,1,785.154,942.001)">
                <rect x="384.183" y="65.954" width="16.788" height="6.091" style="fill:rgb(229,115,115);"/>
            </g>
        </g>
    </g>
</svg>
